<svg xmlns="http://www.w3.org/2000/svg" xmlns:xlink="http://www.w3.org/1999/xlink" width="200" zoomAndPan="magnify" viewBox="0 0 150 56.249996" height="75" preserveAspectRatio="xMidYMid meet" version="1.0"><defs><g/><clipPath id="d2d718ec92"><path d="M 54.964844 19.429688 L 105.699219 19.429688 L 105.699219 36.058594 L 54.964844 36.058594 Z M 54.964844 19.429688 " clip-rule="nonzero"/></clipPath><clipPath id="b14041efea"><path d="M 63.277344 19.429688 L 97.324219 19.429688 C 99.53125 19.429688 101.644531 20.304688 103.207031 21.863281 C 104.765625 23.421875 105.640625 25.539062 105.640625 27.742188 C 105.640625 29.949219 104.765625 32.0625 103.207031 33.625 C 101.644531 35.183594 99.53125 36.058594 97.324219 36.058594 L 63.277344 36.058594 C 61.074219 36.058594 58.957031 35.183594 57.398438 33.625 C 55.839844 32.0625 54.964844 29.949219 54.964844 27.742188 C 54.964844 25.539062 55.839844 23.421875 57.398438 21.863281 C 58.957031 20.304688 61.074219 19.429688 63.277344 19.429688 Z M 63.277344 19.429688 " clip-rule="nonzero"/></clipPath><clipPath id="d92860347e"><path d="M 61.308594 21.808594 L 64.214844 21.808594 L 64.214844 23 L 61.308594 23 Z M 61.308594 21.808594 " clip-rule="nonzero"/></clipPath><clipPath id="d51d908323"><path d="M 61.308594 22 L 64.214844 22 L 64.214844 23 L 61.308594 23 Z M 61.308594 22 " clip-rule="nonzero"/></clipPath><clipPath id="48d6185f2b"><path d="M 61.308594 22 L 64.214844 22 L 64.214844 24 L 61.308594 24 Z M 61.308594 22 " clip-rule="nonzero"/></clipPath><clipPath id="a55c378c35"><path d="M 61.308594 23 L 64.214844 23 L 64.214844 24 L 61.308594 24 Z M 61.308594 23 " clip-rule="nonzero"/></clipPath><clipPath id="69567feb60"><path d="M 61.308594 23 L 64.214844 23 L 64.214844 24.015625 L 61.308594 24.015625 Z M 61.308594 23 " clip-rule="nonzero"/></clipPath></defs><g clip-path="url(#d2d718ec92)"><g clip-path="url(#b14041efea)"><path fill="#ffffff" d="M 54.964844 19.429688 L 105.636719 19.429688 L 105.636719 36.058594 L 54.964844 36.058594 Z M 54.964844 19.429688 " fill-opacity="1" fill-rule="nonzero"/></g></g><g fill="#000000" fill-opacity="1"><g transform="translate(57.256316, 29.249932)"><g><path d="M 3.984375 -7.015625 L 3.984375 -5.828125 L 1.875 -5.828125 L 1.875 -4.28125 L 3.859375 -4.28125 L 3.859375 -3.09375 L 1.875 -3.09375 L 1.875 0 L 0.5 0 L 0.5 -7.015625 Z M 3.984375 -7.015625 "/></g></g></g><g fill="#000000" fill-opacity="1"><g transform="translate(61.569072, 29.249932)"><g><path d="M 0.40625 -6.484375 C 0.40625 -6.691406 0.476562 -6.875 0.625 -7.03125 C 0.78125 -7.1875 0.96875 -7.265625 1.1875 -7.265625 C 1.40625 -7.265625 1.585938 -7.1875 1.734375 -7.03125 C 1.878906 -6.875 1.953125 -6.691406 1.953125 -6.484375 C 1.953125 -6.273438 1.878906 -6.09375 1.734375 -5.9375 C 1.585938 -5.789062 1.40625 -5.71875 1.1875 -5.71875 C 0.96875 -5.71875 0.78125 -5.789062 0.625 -5.9375 C 0.476562 -6.09375 0.40625 -6.273438 0.40625 -6.484375 Z M 1.828125 -4.578125 L 1.828125 0 L 0.53125 0 L 0.53125 -4.578125 Z M 1.828125 -4.578125 "/></g></g></g><g fill="#000000" fill-opacity="1"><g transform="translate(63.925717, 29.249932)"><g><path d="M 1.765625 -7.890625 L 1.765625 -2.890625 L 1.78125 -2.890625 L 3.15625 -4.578125 L 4.859375 -4.578125 L 2.921875 -2.5625 L 5 0 L 3.28125 0 L 1.78125 -1.953125 L 1.765625 -1.953125 L 1.765625 0 L 0.46875 0 L 0.46875 -7.890625 Z M 1.765625 -7.890625 "/></g></g></g><g fill="#000000" fill-opacity="1"><g transform="translate(68.825305, 29.249932)"><g><path d="M 3.3125 -3.40625 C 3.144531 -3.507812 2.960938 -3.5625 2.765625 -3.5625 C 2.429688 -3.5625 2.179688 -3.445312 2.015625 -3.21875 C 1.847656 -3 1.765625 -2.628906 1.765625 -2.109375 L 1.765625 0 L 0.46875 0 L 0.46875 -4.578125 L 1.765625 -4.578125 L 1.765625 -4.09375 L 1.78125 -4.09375 C 1.914062 -4.289062 2.078125 -4.441406 2.265625 -4.546875 C 2.460938 -4.660156 2.679688 -4.71875 2.921875 -4.71875 C 3.097656 -4.71875 3.28125 -4.679688 3.46875 -4.609375 Z M 3.3125 -3.40625 "/></g></g></g><g fill="#000000" fill-opacity="1"><g transform="translate(72.243839, 29.249932)"><g><path d="M 2.671875 -3.515625 L 2.671875 -2.453125 L 0.40625 -2.453125 L 0.40625 -3.515625 Z M 2.671875 -3.515625 "/></g></g></g><g fill="#000000" fill-opacity="1"><g transform="translate(75.317725, 29.249932)"><g><path d="M 1.515625 -2.078125 C 1.515625 -1.703125 1.59375 -1.398438 1.75 -1.171875 C 1.914062 -0.953125 2.140625 -0.84375 2.421875 -0.84375 C 2.640625 -0.84375 2.816406 -0.898438 2.953125 -1.015625 C 3.097656 -1.140625 3.210938 -1.289062 3.296875 -1.46875 L 4.5 -1.28125 C 4.332031 -0.8125 4.0625 -0.453125 3.6875 -0.203125 C 3.320312 0.0351562 2.898438 0.15625 2.421875 0.15625 C 1.742188 0.15625 1.191406 -0.0625 0.765625 -0.5 C 0.347656 -0.945312 0.140625 -1.53125 0.140625 -2.25 C 0.140625 -3 0.335938 -3.597656 0.734375 -4.046875 C 1.128906 -4.492188 1.671875 -4.71875 2.359375 -4.71875 C 3.035156 -4.71875 3.566406 -4.5 3.953125 -4.0625 C 4.335938 -3.625 4.53125 -3 4.53125 -2.1875 L 4.53125 -2.078125 Z M 3.296875 -2.890625 C 3.253906 -3.171875 3.148438 -3.394531 2.984375 -3.5625 C 2.828125 -3.726562 2.640625 -3.8125 2.421875 -3.8125 C 2.210938 -3.8125 2.023438 -3.734375 1.859375 -3.578125 C 1.703125 -3.429688 1.601562 -3.203125 1.5625 -2.890625 Z M 3.296875 -2.890625 "/></g></g></g><g fill="#000000" fill-opacity="1"><g transform="translate(79.984443, 29.249932)"><g><path d="M 2.671875 -3.515625 L 2.671875 -2.453125 L 0.40625 -2.453125 L 0.40625 -3.515625 Z M 2.671875 -3.515625 "/></g></g></g><g fill="#000000" fill-opacity="1"><g transform="translate(83.05833, 29.249932)"><g><path d="M 2.390625 -7.015625 C 3.128906 -7.015625 3.695312 -6.832031 4.09375 -6.46875 C 4.5 -6.113281 4.703125 -5.59375 4.703125 -4.90625 C 4.703125 -4.40625 4.566406 -3.96875 4.296875 -3.59375 C 4.023438 -3.226562 3.679688 -3.019531 3.265625 -2.96875 L 5.25 0 L 3.59375 0 L 1.890625 -2.828125 L 1.875 -2.828125 L 1.875 0 L 0.5 0 L 0.5 -7.015625 Z M 1.875 -3.796875 L 2.015625 -3.796875 C 2.492188 -3.796875 2.832031 -3.878906 3.03125 -4.046875 C 3.226562 -4.222656 3.328125 -4.5 3.328125 -4.875 C 3.328125 -5.238281 3.226562 -5.5 3.03125 -5.65625 C 2.832031 -5.820312 2.503906 -5.90625 2.046875 -5.90625 L 1.875 -5.90625 Z M 1.875 -3.796875 "/></g></g></g><g fill="#000000" fill-opacity="1"><g transform="translate(88.255992, 29.249932)"><g><path d="M 3.5 -4.578125 L 4.78125 -4.578125 L 4.78125 0 L 3.5 0 L 3.5 -0.421875 L 3.484375 -0.421875 C 3.347656 -0.242188 3.164062 -0.101562 2.9375 0 C 2.707031 0.101562 2.476562 0.15625 2.25 0.15625 C 1.644531 0.15625 1.140625 -0.0820312 0.734375 -0.5625 C 0.335938 -1.039062 0.140625 -1.625 0.140625 -2.3125 C 0.140625 -2.738281 0.222656 -3.132812 0.390625 -3.5 C 0.566406 -3.863281 0.816406 -4.15625 1.140625 -4.375 C 1.460938 -4.601562 1.820312 -4.71875 2.21875 -4.71875 C 2.457031 -4.71875 2.691406 -4.664062 2.921875 -4.5625 C 3.148438 -4.46875 3.34375 -4.328125 3.5 -4.140625 Z M 2.53125 -3.5625 C 2.238281 -3.5625 1.988281 -3.4375 1.78125 -3.1875 C 1.570312 -2.9375 1.46875 -2.640625 1.46875 -2.296875 C 1.46875 -1.941406 1.570312 -1.632812 1.78125 -1.375 C 1.988281 -1.125 2.242188 -1 2.546875 -1 C 2.847656 -1 3.101562 -1.125 3.3125 -1.375 C 3.519531 -1.632812 3.625 -1.941406 3.625 -2.296875 C 3.625 -2.648438 3.515625 -2.945312 3.296875 -3.1875 C 3.085938 -3.4375 2.832031 -3.5625 2.53125 -3.5625 Z M 2.53125 -3.5625 "/></g></g></g><g fill="#000000" fill-opacity="1"><g transform="translate(93.518858, 29.249932)"><g><path d="M 4.484375 -4.578125 L 2.15625 -1.09375 L 4.328125 -1.09375 L 4.328125 0 L -0.015625 0 L 2.328125 -3.46875 L 0.359375 -3.46875 L 0.359375 -4.578125 Z M 4.484375 -4.578125 "/></g></g></g><g fill="#000000" fill-opacity="1"><g transform="translate(97.99928, 29.249932)"><g><path d="M 3.5 -4.578125 L 4.78125 -4.578125 L 4.78125 0 L 3.5 0 L 3.5 -0.421875 L 3.484375 -0.421875 C 3.347656 -0.242188 3.164062 -0.101562 2.9375 0 C 2.707031 0.101562 2.476562 0.15625 2.25 0.15625 C 1.644531 0.15625 1.140625 -0.0820312 0.734375 -0.5625 C 0.335938 -1.039062 0.140625 -1.625 0.140625 -2.3125 C 0.140625 -2.738281 0.222656 -3.132812 0.390625 -3.5 C 0.566406 -3.863281 0.816406 -4.15625 1.140625 -4.375 C 1.460938 -4.601562 1.820312 -4.71875 2.21875 -4.71875 C 2.457031 -4.71875 2.691406 -4.664062 2.921875 -4.5625 C 3.148438 -4.46875 3.34375 -4.328125 3.5 -4.140625 Z M 2.53125 -3.5625 C 2.238281 -3.5625 1.988281 -3.4375 1.78125 -3.1875 C 1.570312 -2.9375 1.46875 -2.640625 1.46875 -2.296875 C 1.46875 -1.941406 1.570312 -1.632812 1.78125 -1.375 C 1.988281 -1.125 2.242188 -1 2.546875 -1 C 2.847656 -1 3.101562 -1.125 3.3125 -1.375 C 3.519531 -1.632812 3.625 -1.941406 3.625 -2.296875 C 3.625 -2.648438 3.515625 -2.945312 3.296875 -3.1875 C 3.085938 -3.4375 2.832031 -3.5625 2.53125 -3.5625 Z M 2.53125 -3.5625 "/></g></g></g><g clip-path="url(#d92860347e)"><path fill="#ffffff" d="M 64.058594 21.980469 L 63.894531 21.808594 L 63.730469 21.980469 L 63.566406 21.808594 L 63.402344 21.980469 L 63.242188 21.808594 L 63.078125 21.980469 L 62.914062 21.808594 L 62.75 21.980469 L 62.585938 21.808594 L 62.421875 21.980469 L 62.261719 21.808594 L 62.097656 21.980469 L 61.933594 21.808594 L 61.769531 21.980469 L 61.605469 21.808594 L 61.441406 21.980469 L 61.308594 21.839844 L 61.308594 21.953125 L 61.441406 22.09375 L 61.605469 21.921875 L 61.769531 22.09375 L 61.933594 21.921875 L 62.097656 22.09375 L 62.261719 21.921875 L 62.421875 22.09375 L 62.585938 21.921875 L 62.75 22.09375 L 62.914062 21.921875 L 63.078125 22.09375 L 63.242188 21.921875 L 63.402344 22.09375 L 63.566406 21.921875 L 63.730469 22.09375 L 63.894531 21.921875 L 64.058594 22.09375 L 64.21875 21.925781 L 64.21875 21.8125 Z M 64.058594 21.980469 " fill-opacity="1" fill-rule="nonzero"/></g><g clip-path="url(#d51d908323)"><path fill="#ffffff" d="M 63.894531 22.09375 L 63.730469 22.261719 L 63.566406 22.09375 L 63.402344 22.261719 L 63.242188 22.09375 L 63.078125 22.261719 L 62.914062 22.09375 L 62.75 22.261719 L 62.585938 22.09375 L 62.421875 22.261719 L 62.261719 22.09375 L 62.097656 22.261719 L 61.933594 22.09375 L 61.769531 22.261719 L 61.605469 22.09375 L 61.441406 22.261719 L 61.308594 22.121094 L 61.308594 22.234375 L 61.441406 22.375 L 61.605469 22.207031 L 61.769531 22.375 L 61.933594 22.207031 L 62.097656 22.375 L 62.261719 22.207031 L 62.421875 22.375 L 62.585938 22.207031 L 62.75 22.375 L 62.914062 22.207031 L 63.078125 22.375 L 63.242188 22.207031 L 63.402344 22.375 L 63.566406 22.207031 L 63.730469 22.375 L 63.894531 22.207031 L 64.058594 22.375 L 64.21875 22.207031 L 64.21875 22.09375 L 64.058594 22.261719 Z M 63.894531 22.09375 " fill-opacity="1" fill-rule="nonzero"/><path fill="#ffffff" d="M 63.894531 22.375 L 63.730469 22.546875 L 63.566406 22.375 L 63.402344 22.546875 L 63.242188 22.375 L 63.078125 22.546875 L 62.914062 22.375 L 62.75 22.546875 L 62.585938 22.375 L 62.421875 22.546875 L 62.261719 22.375 L 62.097656 22.546875 L 61.933594 22.375 L 61.769531 22.546875 L 61.605469 22.375 L 61.441406 22.546875 L 61.308594 22.40625 L 61.308594 22.519531 L 61.441406 22.660156 L 61.605469 22.488281 L 61.769531 22.660156 L 61.933594 22.488281 L 62.097656 22.660156 L 62.261719 22.488281 L 62.421875 22.660156 L 62.585938 22.488281 L 62.75 22.660156 L 62.914062 22.488281 L 63.078125 22.660156 L 63.242188 22.488281 L 63.402344 22.660156 L 63.566406 22.488281 L 63.730469 22.660156 L 63.894531 22.488281 L 64.058594 22.660156 L 64.21875 22.488281 L 64.21875 22.375 L 64.058594 22.546875 Z M 63.894531 22.375 " fill-opacity="1" fill-rule="nonzero"/><path fill="#ffffff" d="M 63.894531 22.660156 L 63.730469 22.828125 L 63.566406 22.660156 L 63.402344 22.828125 L 63.242188 22.660156 L 63.078125 22.828125 L 62.914062 22.660156 L 62.75 22.828125 L 62.585938 22.660156 L 62.421875 22.828125 L 62.261719 22.660156 L 62.097656 22.828125 L 61.933594 22.660156 L 61.769531 22.828125 L 61.605469 22.660156 L 61.441406 22.828125 L 61.308594 22.6875 L 61.308594 22.800781 L 61.441406 22.941406 L 61.605469 22.769531 L 61.769531 22.941406 L 61.933594 22.769531 L 62.097656 22.941406 L 62.261719 22.769531 L 62.421875 22.941406 L 62.585938 22.769531 L 62.75 22.941406 L 62.914062 22.769531 L 63.078125 22.941406 L 63.242188 22.769531 L 63.402344 22.941406 L 63.566406 22.769531 L 63.730469 22.941406 L 63.894531 22.769531 L 64.058594 22.941406 L 64.21875 22.773438 L 64.21875 22.660156 L 64.058594 22.828125 Z M 63.894531 22.660156 " fill-opacity="1" fill-rule="nonzero"/></g><g clip-path="url(#48d6185f2b)"><path fill="#ffffff" d="M 63.894531 22.941406 L 63.730469 23.109375 L 63.566406 22.941406 L 63.402344 23.109375 L 63.242188 22.941406 L 63.078125 23.109375 L 62.914062 22.941406 L 62.75 23.109375 L 62.585938 22.941406 L 62.421875 23.109375 L 62.261719 22.941406 L 62.097656 23.109375 L 61.933594 22.941406 L 61.769531 23.109375 L 61.605469 22.941406 L 61.441406 23.109375 L 61.308594 22.972656 L 61.308594 23.082031 L 61.441406 23.222656 L 61.605469 23.054688 L 61.769531 23.222656 L 61.933594 23.054688 L 62.097656 23.222656 L 62.261719 23.054688 L 62.421875 23.222656 L 62.585938 23.054688 L 62.75 23.222656 L 62.914062 23.054688 L 63.078125 23.222656 L 63.242188 23.054688 L 63.402344 23.222656 L 63.566406 23.054688 L 63.730469 23.222656 L 63.894531 23.054688 L 64.058594 23.222656 L 64.21875 23.054688 L 64.21875 22.941406 L 64.058594 23.109375 Z M 63.894531 22.941406 " fill-opacity="1" fill-rule="nonzero"/></g><g clip-path="url(#a55c378c35)"><path fill="#ffffff" d="M 63.894531 23.222656 L 63.730469 23.394531 L 63.566406 23.222656 L 63.402344 23.394531 L 63.242188 23.222656 L 63.078125 23.394531 L 62.914062 23.222656 L 62.75 23.394531 L 62.585938 23.222656 L 62.421875 23.394531 L 62.261719 23.222656 L 62.097656 23.394531 L 61.933594 23.222656 L 61.769531 23.394531 L 61.605469 23.222656 L 61.441406 23.394531 L 61.308594 23.253906 L 61.308594 23.367188 L 61.441406 23.507812 L 61.605469 23.335938 L 61.769531 23.507812 L 61.933594 23.335938 L 62.097656 23.507812 L 62.261719 23.335938 L 62.421875 23.507812 L 62.585938 23.335938 L 62.75 23.507812 L 62.914062 23.335938 L 63.078125 23.507812 L 63.242188 23.335938 L 63.402344 23.507812 L 63.566406 23.335938 L 63.730469 23.507812 L 63.894531 23.335938 L 64.058594 23.507812 L 64.21875 23.335938 L 64.21875 23.222656 L 64.058594 23.394531 Z M 63.894531 23.222656 " fill-opacity="1" fill-rule="nonzero"/><path fill="#ffffff" d="M 63.894531 23.507812 L 63.730469 23.675781 L 63.566406 23.507812 L 63.402344 23.675781 L 63.242188 23.507812 L 63.078125 23.675781 L 62.914062 23.507812 L 62.75 23.675781 L 62.585938 23.507812 L 62.421875 23.675781 L 62.261719 23.507812 L 62.097656 23.675781 L 61.933594 23.507812 L 61.769531 23.675781 L 61.605469 23.507812 L 61.441406 23.675781 L 61.308594 23.535156 L 61.308594 23.648438 L 61.441406 23.789062 L 61.605469 23.621094 L 61.769531 23.789062 L 61.933594 23.621094 L 62.097656 23.789062 L 62.261719 23.621094 L 62.421875 23.789062 L 62.585938 23.621094 L 62.75 23.789062 L 62.914062 23.621094 L 63.078125 23.789062 L 63.242188 23.621094 L 63.402344 23.789062 L 63.566406 23.621094 L 63.730469 23.789062 L 63.894531 23.621094 L 64.058594 23.789062 L 64.21875 23.621094 L 64.21875 23.507812 L 64.058594 23.675781 Z M 63.894531 23.507812 " fill-opacity="1" fill-rule="nonzero"/></g><g clip-path="url(#69567feb60)"><path fill="#ffffff" d="M 63.894531 23.789062 L 63.730469 23.957031 L 63.566406 23.789062 L 63.402344 23.957031 L 63.242188 23.789062 L 63.078125 23.957031 L 62.914062 23.789062 L 62.75 23.957031 L 62.585938 23.789062 L 62.421875 23.957031 L 62.261719 23.789062 L 62.097656 23.957031 L 61.933594 23.789062 L 61.769531 23.957031 L 61.605469 23.789062 L 61.441406 23.957031 L 61.308594 23.820312 L 61.308594 23.933594 L 61.441406 24.070312 L 61.605469 23.902344 L 61.769531 24.070312 L 61.933594 23.902344 L 62.097656 24.070312 L 62.261719 23.902344 L 62.421875 24.070312 L 62.585938 23.902344 L 62.75 24.070312 L 62.914062 23.902344 L 63.078125 24.070312 L 63.242188 23.902344 L 63.402344 24.070312 L 63.566406 23.902344 L 63.730469 24.070312 L 63.894531 23.902344 L 64.058594 24.070312 L 64.21875 23.902344 L 64.21875 23.789062 L 64.058594 23.957031 Z M 63.894531 23.789062 " fill-opacity="1" fill-rule="nonzero"/></g><g fill="#000000" fill-opacity="1"><g transform="translate(69.028366, 32.790675)"><g><path d="M 0.78125 0.03125 C 0.664062 0.03125 0.554688 0.015625 0.453125 -0.015625 C 0.359375 -0.046875 0.28125 -0.0859375 0.21875 -0.140625 C 0.15625 -0.191406 0.109375 -0.242188 0.078125 -0.296875 L 0.265625 -0.53125 L 0.296875 -0.53125 C 0.347656 -0.457031 0.414062 -0.394531 0.5 -0.34375 C 0.582031 -0.300781 0.675781 -0.28125 0.78125 -0.28125 C 0.875 -0.28125 0.941406 -0.296875 0.984375 -0.328125 C 1.035156 -0.367188 1.0625 -0.425781 1.0625 -0.5 C 1.0625 -0.539062 1.054688 -0.578125 1.046875 -0.609375 C 1.035156 -0.640625 1.007812 -0.660156 0.96875 -0.671875 C 0.9375 -0.691406 0.890625 -0.710938 0.828125 -0.734375 L 0.59375 -0.78125 C 0.4375 -0.820312 0.316406 -0.882812 0.234375 -0.96875 C 0.160156 -1.050781 0.125 -1.160156 0.125 -1.296875 C 0.125 -1.390625 0.148438 -1.472656 0.203125 -1.546875 C 0.253906 -1.628906 0.328125 -1.691406 0.421875 -1.734375 C 0.515625 -1.773438 0.628906 -1.796875 0.765625 -1.796875 C 0.898438 -1.796875 1.015625 -1.773438 1.109375 -1.734375 C 1.210938 -1.703125 1.296875 -1.648438 1.359375 -1.578125 L 1.1875 -1.34375 L 1.15625 -1.34375 C 1.101562 -1.394531 1.046875 -1.429688 0.984375 -1.453125 C 0.921875 -1.484375 0.847656 -1.5 0.765625 -1.5 C 0.671875 -1.5 0.597656 -1.476562 0.546875 -1.4375 C 0.492188 -1.40625 0.46875 -1.363281 0.46875 -1.3125 C 0.46875 -1.25 0.484375 -1.203125 0.515625 -1.171875 C 0.554688 -1.140625 0.617188 -1.113281 0.703125 -1.09375 L 0.9375 -1.046875 C 1.101562 -1.015625 1.222656 -0.953125 1.296875 -0.859375 C 1.378906 -0.773438 1.421875 -0.660156 1.421875 -0.515625 C 1.421875 -0.410156 1.394531 -0.316406 1.34375 -0.234375 C 1.300781 -0.148438 1.234375 -0.0820312 1.140625 -0.03125 C 1.046875 0.0078125 0.925781 0.03125 0.78125 0.03125 Z M 0.78125 0.03125 "/></g></g></g><g fill="#000000" fill-opacity="1"><g transform="translate(72.530298, 32.790675)"><g><path d="M 0.96875 0.03125 C 0.800781 0.03125 0.65625 0 0.53125 -0.0625 C 0.40625 -0.132812 0.304688 -0.238281 0.234375 -0.375 C 0.171875 -0.507812 0.140625 -0.679688 0.140625 -0.890625 C 0.140625 -1.085938 0.171875 -1.253906 0.234375 -1.390625 C 0.304688 -1.523438 0.40625 -1.625 0.53125 -1.6875 C 0.65625 -1.757812 0.800781 -1.796875 0.96875 -1.796875 C 1.125 -1.796875 1.265625 -1.757812 1.390625 -1.6875 C 1.515625 -1.625 1.613281 -1.523438 1.6875 -1.390625 C 1.757812 -1.253906 1.796875 -1.085938 1.796875 -0.890625 C 1.796875 -0.679688 1.757812 -0.507812 1.6875 -0.375 C 1.613281 -0.238281 1.515625 -0.132812 1.390625 -0.0625 C 1.265625 0 1.125 0.03125 0.96875 0.03125 Z M 0.96875 -0.28125 C 1.113281 -0.28125 1.226562 -0.328125 1.3125 -0.421875 C 1.394531 -0.515625 1.4375 -0.671875 1.4375 -0.890625 C 1.4375 -1.097656 1.394531 -1.25 1.3125 -1.34375 C 1.226562 -1.445312 1.113281 -1.5 0.96875 -1.5 C 0.8125 -1.5 0.691406 -1.445312 0.609375 -1.34375 C 0.535156 -1.25 0.5 -1.097656 0.5 -0.890625 C 0.5 -0.671875 0.535156 -0.515625 0.609375 -0.421875 C 0.691406 -0.328125 0.8125 -0.28125 0.96875 -0.28125 Z M 0.96875 -0.28125 "/></g></g></g><g fill="#000000" fill-opacity="1"><g transform="translate(76.439912, 32.790675)"><g><path d="M 0.96875 0.03125 C 0.800781 0.03125 0.65625 0 0.53125 -0.0625 C 0.40625 -0.132812 0.304688 -0.238281 0.234375 -0.375 C 0.171875 -0.519531 0.140625 -0.691406 0.140625 -0.890625 C 0.140625 -1.085938 0.171875 -1.253906 0.234375 -1.390625 C 0.304688 -1.523438 0.40625 -1.625 0.53125 -1.6875 C 0.65625 -1.757812 0.800781 -1.796875 0.96875 -1.796875 C 1.132812 -1.796875 1.273438 -1.757812 1.390625 -1.6875 C 1.515625 -1.625 1.601562 -1.523438 1.65625 -1.390625 L 1.40625 -1.234375 L 1.375 -1.234375 C 1.332031 -1.328125 1.28125 -1.394531 1.21875 -1.4375 C 1.15625 -1.476562 1.070312 -1.5 0.96875 -1.5 C 0.820312 -1.5 0.707031 -1.445312 0.625 -1.34375 C 0.539062 -1.25 0.5 -1.097656 0.5 -0.890625 C 0.5 -0.671875 0.539062 -0.515625 0.625 -0.421875 C 0.707031 -0.328125 0.820312 -0.28125 0.96875 -0.28125 C 1.195312 -0.28125 1.335938 -0.390625 1.390625 -0.609375 L 1.421875 -0.609375 L 1.6875 -0.484375 C 1.632812 -0.316406 1.546875 -0.1875 1.421875 -0.09375 C 1.304688 -0.0078125 1.15625 0.03125 0.96875 0.03125 Z M 0.96875 0.03125 "/></g></g></g><g fill="#000000" fill-opacity="1"><g transform="translate(80.157177, 32.790675)"><g><path d="M 0.578125 0 L 0.234375 0 L 0.234375 -1.78125 L 0.578125 -1.78125 Z M 0.578125 0 "/></g></g></g><g fill="#000000" fill-opacity="1"><g transform="translate(82.950205, 32.790675)"><g><path d="M 0.578125 -0.78125 L 0.578125 -0.296875 L 1.421875 -0.296875 L 1.421875 0 L 0.234375 0 L 0.234375 -1.78125 L 1.40625 -1.78125 L 1.40625 -1.484375 L 0.578125 -1.484375 L 0.578125 -1.0625 L 1.296875 -1.0625 L 1.296875 -0.78125 Z M 0.578125 -0.78125 "/></g></g></g><g fill="#000000" fill-opacity="1"><g transform="translate(86.453348, 32.790675)"><g><path d="M 1.421875 -1.78125 L 1.421875 -1.484375 L 0.90625 -1.484375 L 0.90625 0 L 0.5625 0 L 0.5625 -1.484375 L 0.046875 -1.484375 L 0.046875 -1.78125 Z M 1.421875 -1.78125 "/></g></g></g><g fill="#000000" fill-opacity="1"><g transform="translate(89.902051, 32.790675)"><g><path d="M 0.96875 0 L 0.625 0 L 0.625 -0.703125 L 0.015625 -1.78125 L 0.390625 -1.78125 L 0.796875 -1.078125 L 0.8125 -1.078125 L 1.21875 -1.78125 L 1.578125 -1.78125 L 0.96875 -0.703125 Z M 0.96875 0 "/></g></g></g></svg>