<svg xmlns="http://www.w3.org/2000/svg" xmlns:xlink="http://www.w3.org/1999/xlink" width="500" zoomAndPan="magnify" viewBox="0 0 375 374.999991" height="500" preserveAspectRatio="xMidYMid meet" version="1.0"><defs><g/><clipPath id="00c009cb3b"><path d="M 37.5 131.25 L 365 131.25 L 365 238.625 L 37.5 238.625 Z M 37.5 131.25 " clip-rule="nonzero"/></clipPath><clipPath id="79b97f4fa9"><path d="M 54.75 131.25 L 347.445312 131.25 C 352.019531 131.25 356.410156 133.066406 359.644531 136.300781 C 362.878906 139.539062 364.695312 143.925781 364.695312 148.5 L 364.695312 221.375 C 364.695312 225.949219 362.878906 230.335938 359.644531 233.574219 C 356.410156 236.808594 352.019531 238.625 347.445312 238.625 L 54.75 238.625 C 50.175781 238.625 45.789062 236.808594 42.550781 233.574219 C 39.316406 230.335938 37.5 225.949219 37.5 221.375 L 37.5 148.5 C 37.5 143.925781 39.316406 139.539062 42.550781 136.300781 C 45.789062 133.066406 50.175781 131.25 54.75 131.25 Z M 54.75 131.25 " clip-rule="nonzero"/></clipPath><clipPath id="903117be2b"><path d="M 78.46875 146.621094 L 97.21875 146.621094 L 97.21875 149 L 78.46875 149 Z M 78.46875 146.621094 " clip-rule="nonzero"/></clipPath><clipPath id="d5aaa1f789"><path d="M 78.46875 148 L 97.21875 148 L 97.21875 151 L 78.46875 151 Z M 78.46875 148 " clip-rule="nonzero"/></clipPath><clipPath id="da996e2a18"><path d="M 78.46875 150 L 97.21875 150 L 97.21875 153 L 78.46875 153 Z M 78.46875 150 " clip-rule="nonzero"/></clipPath><clipPath id="8c814c866a"><path d="M 78.46875 152 L 97.21875 152 L 97.21875 154 L 78.46875 154 Z M 78.46875 152 " clip-rule="nonzero"/></clipPath><clipPath id="6f95f771b1"><path d="M 78.46875 153 L 97.21875 153 L 97.21875 156 L 78.46875 156 Z M 78.46875 153 " clip-rule="nonzero"/></clipPath><clipPath id="a66d908fd3"><path d="M 78.46875 155 L 97.21875 155 L 97.21875 158 L 78.46875 158 Z M 78.46875 155 " clip-rule="nonzero"/></clipPath><clipPath id="65bd4369fe"><path d="M 78.46875 157 L 97.21875 157 L 97.21875 160 L 78.46875 160 Z M 78.46875 157 " clip-rule="nonzero"/></clipPath><clipPath id="707497471d"><path d="M 78.46875 159 L 97.21875 159 L 97.21875 160.871094 L 78.46875 160.871094 Z M 78.46875 159 " clip-rule="nonzero"/></clipPath></defs><g clip-path="url(#00c009cb3b)"><g clip-path="url(#79b97f4fa9)"><path fill="#ffffff" d="M 37.5 131.25 L 364.660156 131.25 L 364.660156 238.625 L 37.5 238.625 Z M 37.5 131.25 " fill-opacity="1" fill-rule="nonzero"/></g></g><g fill="#000000" fill-opacity="1"><g transform="translate(52.303826, 194.661988)"><g><path d="M 25.734375 -45.34375 L 25.734375 -37.640625 L 12.09375 -37.640625 L 12.09375 -27.671875 L 24.890625 -27.671875 L 24.890625 -19.96875 L 12.09375 -19.96875 L 12.09375 0 L 3.25 0 L 3.25 -45.34375 Z M 25.734375 -45.34375 "/></g></g></g><g fill="#000000" fill-opacity="1"><g transform="translate(80.148958, 194.661988)"><g><path d="M 2.640625 -41.921875 C 2.640625 -43.242188 3.117188 -44.40625 4.078125 -45.40625 C 5.046875 -46.40625 6.234375 -46.90625 7.640625 -46.90625 C 9.046875 -46.90625 10.226562 -46.40625 11.1875 -45.40625 C 12.144531 -44.40625 12.625 -43.242188 12.625 -41.921875 C 12.625 -40.515625 12.144531 -39.328125 11.1875 -38.359375 C 10.226562 -37.398438 9.046875 -36.921875 7.640625 -36.921875 C 6.234375 -36.921875 5.046875 -37.398438 4.078125 -38.359375 C 3.117188 -39.328125 2.640625 -40.515625 2.640625 -41.921875 Z M 11.84375 -29.53125 L 11.84375 0 L 3.421875 0 L 3.421875 -29.53125 Z M 11.84375 -29.53125 "/></g></g></g><g fill="#000000" fill-opacity="1"><g transform="translate(95.364541, 194.661988)"><g><path d="M 11.421875 -51 L 11.421875 -18.703125 L 11.546875 -18.703125 L 20.390625 -29.53125 L 31.328125 -29.53125 L 18.890625 -16.53125 L 32.296875 0 L 21.234375 0 L 11.546875 -12.5625 L 11.421875 -12.5625 L 11.421875 0 L 3 0 L 3 -51 Z M 11.421875 -51 "/></g></g></g><g fill="#000000" fill-opacity="1"><g transform="translate(126.998526, 194.661988)"><g><path d="M 21.34375 -21.953125 C 20.300781 -22.671875 19.140625 -23.03125 17.859375 -23.03125 C 15.691406 -23.03125 14.078125 -22.296875 13.015625 -20.828125 C 11.953125 -19.367188 11.421875 -16.957031 11.421875 -13.59375 L 11.421875 0 L 3 0 L 3 -29.53125 L 11.421875 -29.53125 L 11.421875 -26.46875 L 11.546875 -26.46875 C 12.390625 -27.75 13.429688 -28.738281 14.671875 -29.4375 C 15.910156 -30.132812 17.316406 -30.484375 18.890625 -30.484375 C 20.046875 -30.453125 21.207031 -30.210938 22.375 -29.765625 Z M 21.34375 -21.953125 "/></g></g></g><g fill="#000000" fill-opacity="1"><g transform="translate(149.07015, 194.661988)"><g><path d="M 17.265625 -22.734375 L 17.265625 -15.8125 L 2.59375 -15.8125 L 2.59375 -22.734375 Z M 17.265625 -22.734375 "/></g></g></g><g fill="#000000" fill-opacity="1"><g transform="translate(168.916573, 194.661988)"><g><path d="M 9.796875 -13.40625 C 9.796875 -10.96875 10.316406 -9.035156 11.359375 -7.609375 C 12.410156 -6.179688 13.835938 -5.46875 15.640625 -5.46875 C 17.035156 -5.46875 18.1875 -5.847656 19.09375 -6.609375 C 20 -7.378906 20.734375 -8.34375 21.296875 -9.5 L 29.046875 -8.234375 C 28.003906 -5.234375 26.289062 -2.945312 23.90625 -1.375 C 21.519531 0.1875 18.765625 0.96875 15.640625 0.96875 C 11.265625 0.96875 7.710938 -0.453125 4.984375 -3.296875 C 2.265625 -6.148438 0.90625 -9.882812 0.90625 -14.5 C 0.90625 -19.34375 2.1875 -23.21875 4.75 -26.125 C 7.3125 -29.03125 10.800781 -30.484375 15.21875 -30.484375 C 19.625 -30.484375 23.0625 -29.0625 25.53125 -26.21875 C 28 -23.375 29.234375 -19.347656 29.234375 -14.140625 L 29.234375 -13.40625 Z M 21.296875 -18.640625 C 21.015625 -20.484375 20.347656 -21.9375 19.296875 -23 C 18.253906 -24.0625 17.035156 -24.59375 15.640625 -24.59375 C 14.316406 -24.59375 13.132812 -24.109375 12.09375 -23.140625 C 11.050781 -22.179688 10.367188 -20.679688 10.046875 -18.640625 Z M 21.296875 -18.640625 "/></g></g></g><g fill="#000000" fill-opacity="1"><g transform="translate(199.047044, 194.661988)"><g><path d="M 17.265625 -22.734375 L 17.265625 -15.8125 L 2.59375 -15.8125 L 2.59375 -22.734375 Z M 17.265625 -22.734375 "/></g></g></g><g fill="#000000" fill-opacity="1"><g transform="translate(218.893467, 194.661988)"><g><path d="M 15.453125 -45.34375 C 20.222656 -45.34375 23.898438 -44.171875 26.484375 -41.828125 C 29.078125 -39.484375 30.375 -36.101562 30.375 -31.6875 C 30.375 -28.488281 29.5 -25.691406 27.75 -23.296875 C 26.007812 -20.910156 23.796875 -19.519531 21.109375 -19.125 L 33.921875 0 L 23.21875 0 L 12.203125 -18.28125 L 12.09375 -18.28125 L 12.09375 0 L 3.25 0 L 3.25 -45.34375 Z M 12.09375 -24.484375 L 13.046875 -24.484375 C 16.097656 -24.484375 18.273438 -25.039062 19.578125 -26.15625 C 20.878906 -27.28125 21.53125 -29.046875 21.53125 -31.453125 C 21.53125 -33.816406 20.890625 -35.519531 19.609375 -36.5625 C 18.328125 -37.601562 16.179688 -38.125 13.171875 -38.125 L 12.09375 -38.125 Z M 12.09375 -24.484375 "/></g></g></g><g fill="#000000" fill-opacity="1"><g transform="translate(252.451959, 194.661988)"><g><path d="M 22.609375 -29.53125 L 30.90625 -29.53125 L 30.90625 0 L 22.609375 0 L 22.609375 -2.703125 L 22.5 -2.703125 C 21.613281 -1.546875 20.4375 -0.644531 18.96875 0 C 17.507812 0.644531 16.019531 0.96875 14.5 0.96875 C 10.601562 0.96875 7.363281 -0.5625 4.78125 -3.625 C 2.195312 -6.695312 0.90625 -10.460938 0.90625 -14.921875 C 0.90625 -17.679688 1.460938 -20.242188 2.578125 -22.609375 C 3.703125 -24.972656 5.296875 -26.875 7.359375 -28.3125 C 9.429688 -29.757812 11.769531 -30.484375 14.375 -30.484375 C 15.894531 -30.484375 17.382812 -30.160156 18.84375 -29.515625 C 20.3125 -28.878906 21.566406 -27.960938 22.609375 -26.765625 Z M 16.359375 -23.03125 C 14.472656 -23.03125 12.847656 -22.21875 11.484375 -20.59375 C 10.117188 -18.96875 9.4375 -17.035156 9.4375 -14.796875 C 9.4375 -12.546875 10.117188 -10.597656 11.484375 -8.953125 C 12.847656 -7.316406 14.492188 -6.5 16.421875 -6.5 C 18.378906 -6.5 20.039062 -7.304688 21.40625 -8.921875 C 22.769531 -10.546875 23.453125 -12.503906 23.453125 -14.796875 C 23.453125 -17.078125 22.757812 -19.019531 21.375 -20.625 C 20 -22.226562 18.328125 -23.03125 16.359375 -23.03125 Z M 16.359375 -23.03125 "/></g></g></g><g fill="#000000" fill-opacity="1"><g transform="translate(286.431434, 194.661988)"><g><path d="M 28.921875 -29.53125 L 13.953125 -7.09375 L 27.96875 -7.09375 L 27.96875 0 L -0.0625 0 L 15.03125 -22.4375 L 2.28125 -22.4375 L 2.28125 -29.53125 Z M 28.921875 -29.53125 "/></g></g></g><g fill="#000000" fill-opacity="1"><g transform="translate(315.359098, 194.661988)"><g><path d="M 22.609375 -29.53125 L 30.90625 -29.53125 L 30.90625 0 L 22.609375 0 L 22.609375 -2.703125 L 22.5 -2.703125 C 21.613281 -1.546875 20.4375 -0.644531 18.96875 0 C 17.507812 0.644531 16.019531 0.96875 14.5 0.96875 C 10.601562 0.96875 7.363281 -0.5625 4.78125 -3.625 C 2.195312 -6.695312 0.90625 -10.460938 0.90625 -14.921875 C 0.90625 -17.679688 1.460938 -20.242188 2.578125 -22.609375 C 3.703125 -24.972656 5.296875 -26.875 7.359375 -28.3125 C 9.429688 -29.757812 11.769531 -30.484375 14.375 -30.484375 C 15.894531 -30.484375 17.382812 -30.160156 18.84375 -29.515625 C 20.3125 -28.878906 21.566406 -27.960938 22.609375 -26.765625 Z M 16.359375 -23.03125 C 14.472656 -23.03125 12.847656 -22.21875 11.484375 -20.59375 C 10.117188 -18.96875 9.4375 -17.035156 9.4375 -14.796875 C 9.4375 -12.546875 10.117188 -10.597656 11.484375 -8.953125 C 12.847656 -7.316406 14.492188 -6.5 16.421875 -6.5 C 18.378906 -6.5 20.039062 -7.304688 21.40625 -8.921875 C 22.769531 -10.546875 23.453125 -12.503906 23.453125 -14.796875 C 23.453125 -17.078125 22.757812 -19.019531 21.375 -20.625 C 20 -22.226562 18.328125 -23.03125 16.359375 -23.03125 Z M 16.359375 -23.03125 "/></g></g></g><g clip-path="url(#903117be2b)"><path fill="#ffffff" d="M 96.214844 147.71875 L 95.160156 146.625 L 94.105469 147.71875 L 93.050781 146.625 L 91.996094 147.71875 L 90.941406 146.625 L 89.886719 147.71875 L 88.832031 146.625 L 87.777344 147.71875 L 86.722656 146.625 L 85.667969 147.71875 L 84.613281 146.625 L 83.558594 147.71875 L 82.5 146.625 L 81.445312 147.71875 L 80.390625 146.625 L 79.335938 147.71875 L 78.46875 146.820312 L 78.46875 147.550781 L 79.335938 148.453125 L 80.390625 147.359375 L 81.445312 148.453125 L 82.5 147.359375 L 83.558594 148.453125 L 84.613281 147.359375 L 85.667969 148.453125 L 86.722656 147.359375 L 87.777344 148.453125 L 88.832031 147.359375 L 89.886719 148.453125 L 90.941406 147.359375 L 91.996094 148.453125 L 93.050781 147.359375 L 94.105469 148.453125 L 95.160156 147.359375 L 96.214844 148.453125 L 97.265625 147.363281 L 97.265625 146.632812 Z M 96.214844 147.71875 " fill-opacity="1" fill-rule="nonzero"/></g><g clip-path="url(#d5aaa1f789)"><path fill="#ffffff" d="M 95.160156 148.453125 L 94.105469 149.546875 L 93.050781 148.453125 L 91.996094 149.546875 L 90.941406 148.453125 L 89.886719 149.546875 L 88.832031 148.453125 L 87.777344 149.546875 L 86.722656 148.453125 L 85.667969 149.546875 L 84.613281 148.453125 L 83.558594 149.546875 L 82.5 148.453125 L 81.445312 149.546875 L 80.390625 148.453125 L 79.335938 149.546875 L 78.46875 148.644531 L 78.46875 149.375 L 79.335938 150.277344 L 80.390625 149.183594 L 81.445312 150.277344 L 82.5 149.183594 L 83.558594 150.277344 L 84.613281 149.183594 L 85.667969 150.277344 L 86.722656 149.183594 L 87.777344 150.277344 L 88.832031 149.183594 L 89.886719 150.277344 L 90.941406 149.183594 L 91.996094 150.277344 L 93.050781 149.183594 L 94.105469 150.277344 L 95.160156 149.183594 L 96.214844 150.277344 L 97.265625 149.1875 L 97.265625 148.457031 L 96.214844 149.546875 Z M 95.160156 148.453125 " fill-opacity="1" fill-rule="nonzero"/></g><g clip-path="url(#da996e2a18)"><path fill="#ffffff" d="M 95.160156 150.277344 L 94.105469 151.371094 L 93.050781 150.277344 L 91.996094 151.371094 L 90.941406 150.277344 L 89.886719 151.371094 L 88.832031 150.277344 L 87.777344 151.371094 L 86.722656 150.277344 L 85.667969 151.371094 L 84.613281 150.277344 L 83.558594 151.371094 L 82.5 150.277344 L 81.445312 151.371094 L 80.390625 150.277344 L 79.335938 151.371094 L 78.46875 150.46875 L 78.46875 151.203125 L 79.335938 152.105469 L 80.390625 151.007812 L 81.445312 152.105469 L 82.5 151.007812 L 83.558594 152.105469 L 84.613281 151.007812 L 85.667969 152.105469 L 86.722656 151.007812 L 87.777344 152.105469 L 88.832031 151.007812 L 89.886719 152.105469 L 90.941406 151.007812 L 91.996094 152.105469 L 93.050781 151.007812 L 94.105469 152.105469 L 95.160156 151.007812 L 96.214844 152.105469 L 97.265625 151.015625 L 97.265625 150.285156 L 96.214844 151.371094 Z M 95.160156 150.277344 " fill-opacity="1" fill-rule="nonzero"/></g><g clip-path="url(#8c814c866a)"><path fill="#ffffff" d="M 95.160156 152.105469 L 94.105469 153.199219 L 93.050781 152.105469 L 91.996094 153.199219 L 90.941406 152.105469 L 89.886719 153.199219 L 88.832031 152.105469 L 87.777344 153.199219 L 86.722656 152.105469 L 85.667969 153.199219 L 84.613281 152.105469 L 83.558594 153.199219 L 82.5 152.105469 L 81.445312 153.199219 L 80.390625 152.105469 L 79.335938 153.199219 L 78.46875 152.296875 L 78.46875 153.027344 L 79.335938 153.929688 L 80.390625 152.832031 L 81.445312 153.929688 L 82.5 152.832031 L 83.558594 153.929688 L 84.613281 152.832031 L 85.667969 153.929688 L 86.722656 152.832031 L 87.777344 153.929688 L 88.832031 152.832031 L 89.886719 153.929688 L 90.941406 152.832031 L 91.996094 153.929688 L 93.050781 152.832031 L 94.105469 153.929688 L 95.160156 152.832031 L 96.214844 153.929688 L 97.265625 152.839844 L 97.265625 152.109375 L 96.214844 153.199219 Z M 95.160156 152.105469 " fill-opacity="1" fill-rule="nonzero"/></g><g clip-path="url(#6f95f771b1)"><path fill="#ffffff" d="M 95.160156 153.929688 L 94.105469 155.023438 L 93.050781 153.929688 L 91.996094 155.023438 L 90.941406 153.929688 L 89.886719 155.023438 L 88.832031 153.929688 L 87.777344 155.023438 L 86.722656 153.929688 L 85.667969 155.023438 L 84.613281 153.929688 L 83.558594 155.023438 L 82.5 153.929688 L 81.445312 155.023438 L 80.390625 153.929688 L 79.335938 155.023438 L 78.46875 154.121094 L 78.46875 154.851562 L 79.335938 155.753906 L 80.390625 154.65625 L 81.445312 155.753906 L 82.5 154.65625 L 83.558594 155.753906 L 84.613281 154.65625 L 85.667969 155.753906 L 86.722656 154.65625 L 87.777344 155.753906 L 88.832031 154.65625 L 89.886719 155.753906 L 90.941406 154.65625 L 91.996094 155.753906 L 93.050781 154.65625 L 94.105469 155.753906 L 95.160156 154.65625 L 96.214844 155.753906 L 97.265625 154.664062 L 97.265625 153.933594 L 96.214844 155.023438 Z M 95.160156 153.929688 " fill-opacity="1" fill-rule="nonzero"/></g><g clip-path="url(#a66d908fd3)"><path fill="#ffffff" d="M 95.160156 155.753906 L 94.105469 156.847656 L 93.050781 155.753906 L 91.996094 156.847656 L 90.941406 155.753906 L 89.886719 156.847656 L 88.832031 155.753906 L 87.777344 156.847656 L 86.722656 155.753906 L 85.667969 156.847656 L 84.613281 155.753906 L 83.558594 156.847656 L 82.5 155.753906 L 81.445312 156.847656 L 80.390625 155.753906 L 79.335938 156.847656 L 78.46875 155.949219 L 78.46875 156.679688 L 79.335938 157.578125 L 80.390625 156.484375 L 81.445312 157.578125 L 82.5 156.484375 L 83.558594 157.578125 L 84.613281 156.484375 L 85.667969 157.578125 L 86.722656 156.484375 L 87.777344 157.578125 L 88.832031 156.484375 L 89.886719 157.578125 L 90.941406 156.484375 L 91.996094 157.578125 L 93.050781 156.484375 L 94.105469 157.578125 L 95.160156 156.484375 L 96.214844 157.578125 L 97.265625 156.488281 L 97.265625 155.757812 L 96.214844 156.847656 Z M 95.160156 155.753906 " fill-opacity="1" fill-rule="nonzero"/></g><g clip-path="url(#65bd4369fe)"><path fill="#ffffff" d="M 95.160156 157.578125 L 94.105469 158.675781 L 93.050781 157.578125 L 91.996094 158.675781 L 90.941406 157.578125 L 89.886719 158.675781 L 88.832031 157.578125 L 87.777344 158.675781 L 86.722656 157.578125 L 85.667969 158.675781 L 84.613281 157.578125 L 83.558594 158.675781 L 82.5 157.578125 L 81.445312 158.675781 L 80.390625 157.578125 L 79.335938 158.675781 L 78.46875 157.773438 L 78.46875 158.503906 L 79.335938 159.402344 L 80.390625 158.308594 L 81.445312 159.402344 L 82.5 158.308594 L 83.558594 159.402344 L 84.613281 158.308594 L 85.667969 159.402344 L 86.722656 158.308594 L 87.777344 159.402344 L 88.832031 158.308594 L 89.886719 159.402344 L 90.941406 158.308594 L 91.996094 159.402344 L 93.050781 158.308594 L 94.105469 159.402344 L 95.160156 158.308594 L 96.214844 159.402344 L 97.265625 158.316406 L 97.265625 157.585938 L 96.214844 158.675781 Z M 95.160156 157.578125 " fill-opacity="1" fill-rule="nonzero"/></g><g clip-path="url(#707497471d)"><path fill="#ffffff" d="M 95.160156 159.402344 L 94.105469 160.5 L 93.050781 159.402344 L 91.996094 160.5 L 90.941406 159.402344 L 89.886719 160.5 L 88.832031 159.402344 L 87.777344 160.5 L 86.722656 159.402344 L 85.667969 160.5 L 84.613281 159.402344 L 83.558594 160.5 L 82.5 159.402344 L 81.445312 160.5 L 80.390625 159.402344 L 79.335938 160.5 L 78.46875 159.597656 L 78.46875 160.328125 L 79.335938 161.230469 L 80.390625 160.136719 L 81.445312 161.230469 L 82.5 160.136719 L 83.558594 161.230469 L 84.613281 160.136719 L 85.667969 161.230469 L 86.722656 160.136719 L 87.777344 161.230469 L 88.832031 160.136719 L 89.886719 161.230469 L 90.941406 160.136719 L 91.996094 161.230469 L 93.050781 160.136719 L 94.105469 161.230469 L 95.160156 160.136719 L 96.214844 161.230469 L 97.265625 160.140625 L 97.265625 159.410156 L 96.214844 160.5 Z M 95.160156 159.402344 " fill-opacity="1" fill-rule="nonzero"/></g><g fill="#000000" fill-opacity="1"><g transform="translate(128.309558, 217.522647)"><g><path d="M 5.0625 0.171875 C 4.269531 0.171875 3.566406 0.0703125 2.953125 -0.125 C 2.335938 -0.320312 1.820312 -0.578125 1.40625 -0.890625 C 1 -1.210938 0.6875 -1.566406 0.46875 -1.953125 L 1.703125 -3.46875 L 1.90625 -3.46875 C 2.25 -2.957031 2.679688 -2.550781 3.203125 -2.25 C 3.734375 -1.945312 4.351562 -1.796875 5.0625 -1.796875 C 5.664062 -1.796875 6.117188 -1.921875 6.421875 -2.171875 C 6.734375 -2.429688 6.890625 -2.785156 6.890625 -3.234375 C 6.890625 -3.503906 6.835938 -3.726562 6.734375 -3.90625 C 6.640625 -4.09375 6.476562 -4.25 6.25 -4.375 C 6.019531 -4.507812 5.710938 -4.625 5.328125 -4.71875 L 3.859375 -5.046875 C 2.828125 -5.285156 2.0625 -5.675781 1.5625 -6.21875 C 1.0625 -6.757812 0.8125 -7.46875 0.8125 -8.34375 C 0.8125 -8.988281 0.972656 -9.554688 1.296875 -10.046875 C 1.617188 -10.535156 2.085938 -10.914062 2.703125 -11.1875 C 3.316406 -11.457031 4.054688 -11.59375 4.921875 -11.59375 C 5.796875 -11.59375 6.546875 -11.472656 7.171875 -11.234375 C 7.804688 -11.003906 8.335938 -10.648438 8.765625 -10.171875 L 7.65625 -8.640625 L 7.453125 -8.640625 C 7.128906 -8.984375 6.757812 -9.238281 6.34375 -9.40625 C 5.925781 -9.570312 5.453125 -9.65625 4.921875 -9.65625 C 4.296875 -9.65625 3.820312 -9.546875 3.5 -9.328125 C 3.175781 -9.109375 3.015625 -8.804688 3.015625 -8.421875 C 3.015625 -8.066406 3.128906 -7.78125 3.359375 -7.5625 C 3.585938 -7.351562 3.976562 -7.1875 4.53125 -7.0625 L 6.03125 -6.75 C 7.144531 -6.519531 7.953125 -6.125 8.453125 -5.5625 C 8.953125 -5 9.203125 -4.269531 9.203125 -3.375 C 9.203125 -2.65625 9.046875 -2.03125 8.734375 -1.5 C 8.429688 -0.976562 7.96875 -0.566406 7.34375 -0.265625 C 6.726562 0.0234375 5.96875 0.171875 5.0625 0.171875 Z M 5.0625 0.171875 "/></g></g></g><g fill="#000000" fill-opacity="1"><g transform="translate(150.91964, 217.522647)"><g><path d="M 6.234375 0.171875 C 5.179688 0.171875 4.253906 -0.0390625 3.453125 -0.46875 C 2.660156 -0.90625 2.035156 -1.5625 1.578125 -2.4375 C 1.128906 -3.3125 0.90625 -4.40625 0.90625 -5.71875 C 0.90625 -7.019531 1.128906 -8.109375 1.578125 -8.984375 C 2.035156 -9.867188 2.660156 -10.523438 3.453125 -10.953125 C 4.253906 -11.378906 5.179688 -11.59375 6.234375 -11.59375 C 7.273438 -11.59375 8.191406 -11.378906 8.984375 -10.953125 C 9.785156 -10.523438 10.410156 -9.867188 10.859375 -8.984375 C 11.316406 -8.109375 11.546875 -7.019531 11.546875 -5.71875 C 11.546875 -4.40625 11.316406 -3.304688 10.859375 -2.421875 C 10.410156 -1.546875 9.785156 -0.894531 8.984375 -0.46875 C 8.191406 -0.0390625 7.273438 0.171875 6.234375 0.171875 Z M 6.234375 -1.796875 C 7.203125 -1.796875 7.941406 -2.109375 8.453125 -2.734375 C 8.960938 -3.359375 9.21875 -4.351562 9.21875 -5.71875 C 9.21875 -7.082031 8.960938 -8.078125 8.453125 -8.703125 C 7.941406 -9.328125 7.203125 -9.640625 6.234375 -9.640625 C 5.253906 -9.640625 4.507812 -9.328125 4 -8.703125 C 3.488281 -8.078125 3.234375 -7.082031 3.234375 -5.71875 C 3.234375 -4.351562 3.488281 -3.359375 4 -2.734375 C 4.507812 -2.109375 5.253906 -1.796875 6.234375 -1.796875 Z M 6.234375 -1.796875 "/></g></g></g><g fill="#000000" fill-opacity="1"><g transform="translate(176.161897, 217.522647)"><g><path d="M 6.25 0.171875 C 5.195312 0.171875 4.269531 -0.046875 3.46875 -0.484375 C 2.664062 -0.929688 2.035156 -1.59375 1.578125 -2.46875 C 1.128906 -3.34375 0.90625 -4.425781 0.90625 -5.71875 C 0.90625 -7 1.128906 -8.078125 1.578125 -8.953125 C 2.035156 -9.835938 2.664062 -10.5 3.46875 -10.9375 C 4.269531 -11.375 5.195312 -11.59375 6.25 -11.59375 C 7.34375 -11.59375 8.273438 -11.375 9.046875 -10.9375 C 9.816406 -10.507812 10.363281 -9.859375 10.6875 -8.984375 L 9.046875 -7.96875 L 8.84375 -7.984375 C 8.601562 -8.578125 8.269531 -9 7.84375 -9.25 C 7.425781 -9.507812 6.894531 -9.640625 6.25 -9.640625 C 5.300781 -9.640625 4.5625 -9.328125 4.03125 -8.703125 C 3.5 -8.078125 3.234375 -7.082031 3.234375 -5.71875 C 3.234375 -4.351562 3.5 -3.359375 4.03125 -2.734375 C 4.5625 -2.109375 5.300781 -1.796875 6.25 -1.796875 C 7.726562 -1.796875 8.632812 -2.515625 8.96875 -3.953125 L 9.171875 -3.953125 L 10.828125 -3.09375 C 10.515625 -2.007812 9.976562 -1.191406 9.21875 -0.640625 C 8.46875 -0.0976562 7.476562 0.171875 6.25 0.171875 Z M 6.25 0.171875 "/></g></g></g><g fill="#000000" fill-opacity="1"><g transform="translate(200.162267, 217.522647)"><g><path d="M 3.75 0 L 1.484375 0 L 1.484375 -11.421875 L 3.75 -11.421875 Z M 3.75 0 "/></g></g></g><g fill="#000000" fill-opacity="1"><g transform="translate(218.195339, 217.522647)"><g><path d="M 3.75 -5.015625 L 3.75 -1.890625 L 9.203125 -1.890625 L 9.203125 0 L 1.484375 0 L 1.484375 -11.421875 L 9.078125 -11.421875 L 9.078125 -9.53125 L 3.75 -9.53125 L 3.75 -6.859375 L 8.40625 -6.859375 L 8.40625 -5.015625 Z M 3.75 -5.015625 "/></g></g></g><g fill="#000000" fill-opacity="1"><g transform="translate(240.813235, 217.522647)"><g><path d="M 9.15625 -11.421875 L 9.15625 -9.53125 L 5.859375 -9.53125 L 5.859375 0 L 3.609375 0 L 3.609375 -9.53125 L 0.3125 -9.53125 L 0.3125 -11.421875 Z M 9.15625 -11.421875 "/></g></g></g><g fill="#000000" fill-opacity="1"><g transform="translate(263.079648, 217.522647)"><g><path d="M 6.265625 0 L 4 0 L 4 -4.484375 L 0.0625 -11.421875 L 2.484375 -11.421875 L 5.09375 -6.9375 L 5.28125 -6.9375 L 7.84375 -11.421875 L 10.203125 -11.421875 L 6.265625 -4.484375 Z M 6.265625 0 "/></g></g></g></svg>