<svg xmlns="http://www.w3.org/2000/svg" xmlns:xlink="http://www.w3.org/1999/xlink" width="500" zoomAndPan="magnify" viewBox="0 0 375 374.999991" height="500" preserveAspectRatio="xMidYMid meet" version="1.0"><defs><g/><clipPath id="9dfeadd50b"><path d="M 10.578125 145.996094 L 364.578125 145.996094 L 364.578125 253.371094 L 10.578125 253.371094 Z M 10.578125 145.996094 " clip-rule="nonzero"/></clipPath><clipPath id="e507439026"><path d="M 27.828125 145.996094 L 347.171875 145.996094 C 351.746094 145.996094 356.136719 147.8125 359.371094 151.046875 C 362.605469 154.28125 364.421875 158.671875 364.421875 163.246094 L 364.421875 236.121094 C 364.421875 240.695312 362.605469 245.082031 359.371094 248.316406 C 356.136719 251.554688 351.746094 253.371094 347.171875 253.371094 L 27.828125 253.371094 C 23.253906 253.371094 18.863281 251.554688 15.628906 248.316406 C 12.394531 245.082031 10.578125 240.695312 10.578125 236.121094 L 10.578125 163.246094 C 10.578125 158.671875 12.394531 154.28125 15.628906 151.046875 C 18.863281 147.8125 23.253906 145.996094 27.828125 145.996094 Z M 27.828125 145.996094 " clip-rule="nonzero"/></clipPath></defs><g clip-path="url(#9dfeadd50b)"><g clip-path="url(#e507439026)"><path fill="#ffffff" d="M 10.578125 145.996094 L 364.578125 145.996094 L 364.578125 253.371094 L 10.578125 253.371094 Z M 10.578125 145.996094 " fill-opacity="1" fill-rule="nonzero"/></g></g><g fill="#303030" fill-opacity="1"><g transform="translate(27.146363, 203.249987)"><g><path d="M 22.15625 -39.015625 L 22.15625 -32.390625 L 10.40625 -32.390625 L 10.40625 -23.8125 L 21.421875 -23.8125 L 21.421875 -17.1875 L 10.40625 -17.1875 L 10.40625 0 L 2.796875 0 L 2.796875 -39.015625 Z M 22.15625 -39.015625 "/></g></g></g><g fill="#303030" fill-opacity="1"><g transform="translate(51.106616, 203.249987)"><g><path d="M 19.453125 -25.40625 L 26.59375 -25.40625 L 26.59375 0 L 19.453125 0 L 19.453125 -2.328125 L 19.359375 -2.328125 C 18.597656 -1.328125 17.585938 -0.550781 16.328125 0 C 15.066406 0.550781 13.78125 0.828125 12.46875 0.828125 C 9.125 0.828125 6.335938 -0.488281 4.109375 -3.125 C 1.890625 -5.769531 0.78125 -9.003906 0.78125 -12.828125 C 0.78125 -15.210938 1.257812 -17.421875 2.21875 -19.453125 C 3.1875 -21.492188 4.554688 -23.132812 6.328125 -24.375 C 8.109375 -25.613281 10.125 -26.234375 12.375 -26.234375 C 13.675781 -26.234375 14.957031 -25.957031 16.21875 -25.40625 C 17.476562 -24.851562 18.554688 -24.0625 19.453125 -23.03125 Z M 14.078125 -19.8125 C 12.453125 -19.8125 11.050781 -19.113281 9.875 -17.71875 C 8.707031 -16.320312 8.125 -14.660156 8.125 -12.734375 C 8.125 -10.796875 8.707031 -9.117188 9.875 -7.703125 C 11.050781 -6.296875 12.46875 -5.59375 14.125 -5.59375 C 15.8125 -5.59375 17.242188 -6.289062 18.421875 -7.6875 C 19.597656 -9.082031 20.1875 -10.765625 20.1875 -12.734375 C 20.1875 -14.703125 19.585938 -16.375 18.390625 -17.75 C 17.203125 -19.125 15.765625 -19.8125 14.078125 -19.8125 Z M 14.078125 -19.8125 "/></g></g></g><g fill="#303030" fill-opacity="1"><g transform="translate(80.345364, 203.249987)"><g><path d="M 2.28125 -36.0625 C 2.28125 -37.207031 2.691406 -38.207031 3.515625 -39.0625 C 4.347656 -39.925781 5.367188 -40.359375 6.578125 -40.359375 C 7.785156 -40.359375 8.800781 -39.925781 9.625 -39.0625 C 10.457031 -38.207031 10.875 -37.207031 10.875 -36.0625 C 10.875 -34.863281 10.457031 -33.847656 9.625 -33.015625 C 8.800781 -32.191406 7.785156 -31.78125 6.578125 -31.78125 C 5.367188 -31.78125 4.347656 -32.191406 3.515625 -33.015625 C 2.691406 -33.847656 2.28125 -34.863281 2.28125 -36.0625 Z M 10.1875 -25.40625 L 10.1875 0 L 2.953125 0 L 2.953125 -25.40625 Z M 10.1875 -25.40625 "/></g></g></g><g fill="#303030" fill-opacity="1"><g transform="translate(93.438114, 203.249987)"><g><path d="M 24.890625 -25.40625 L 12 -6.109375 L 24.0625 -6.109375 L 24.0625 0 L -0.046875 0 L 12.9375 -19.296875 L 1.96875 -19.296875 L 1.96875 -25.40625 Z M 24.890625 -25.40625 "/></g></g></g><g fill="#303030" fill-opacity="1"><g transform="translate(118.329859, 203.249987)"><g><path d="M 19.453125 -25.40625 L 26.59375 -25.40625 L 26.59375 0 L 19.453125 0 L 19.453125 -2.328125 L 19.359375 -2.328125 C 18.597656 -1.328125 17.585938 -0.550781 16.328125 0 C 15.066406 0.550781 13.78125 0.828125 12.46875 0.828125 C 9.125 0.828125 6.335938 -0.488281 4.109375 -3.125 C 1.890625 -5.769531 0.78125 -9.003906 0.78125 -12.828125 C 0.78125 -15.210938 1.257812 -17.421875 2.21875 -19.453125 C 3.1875 -21.492188 4.554688 -23.132812 6.328125 -24.375 C 8.109375 -25.613281 10.125 -26.234375 12.375 -26.234375 C 13.675781 -26.234375 14.957031 -25.957031 16.21875 -25.40625 C 17.476562 -24.851562 18.554688 -24.0625 19.453125 -23.03125 Z M 14.078125 -19.8125 C 12.453125 -19.8125 11.050781 -19.113281 9.875 -17.71875 C 8.707031 -16.320312 8.125 -14.660156 8.125 -12.734375 C 8.125 -10.796875 8.707031 -9.117188 9.875 -7.703125 C 11.050781 -6.296875 12.46875 -5.59375 14.125 -5.59375 C 15.8125 -5.59375 17.242188 -6.289062 18.421875 -7.6875 C 19.597656 -9.082031 20.1875 -10.765625 20.1875 -12.734375 C 20.1875 -14.703125 19.585938 -16.375 18.390625 -17.75 C 17.203125 -19.125 15.765625 -19.8125 14.078125 -19.8125 Z M 14.078125 -19.8125 "/></g></g></g><g fill="#303030" fill-opacity="1"><g transform="translate(147.568608, 203.249987)"><g><path d="M 25.359375 0 L 18.109375 0 L 18.109375 -14.703125 C 18.109375 -16.554688 17.832031 -17.972656 17.28125 -18.953125 C 16.726562 -19.941406 15.691406 -20.4375 14.171875 -20.4375 C 12.796875 -20.4375 11.726562 -19.894531 10.96875 -18.8125 C 10.207031 -17.726562 9.828125 -15.835938 9.828125 -13.140625 L 9.828125 0 L 2.59375 0 L 2.59375 -25.40625 L 9.828125 -25.40625 L 9.828125 -23.078125 L 9.9375 -23.078125 C 10.695312 -24.210938 11.660156 -25.019531 12.828125 -25.5 C 14.003906 -25.988281 15.25 -26.234375 16.5625 -26.234375 C 19.488281 -26.234375 21.6875 -25.34375 23.15625 -23.5625 C 24.625 -21.789062 25.359375 -19.179688 25.359375 -15.734375 Z M 25.359375 0 "/></g></g></g><g fill="#303030" fill-opacity="1"><g transform="translate(175.513613, 203.249987)"><g><path d="M 14.859375 -19.5625 L 14.859375 -13.609375 L 2.21875 -13.609375 L 2.21875 -19.5625 Z M 14.859375 -19.5625 "/></g></g></g><g fill="#303030" fill-opacity="1"><g transform="translate(192.591115, 203.249987)"><g><path d="M 8.4375 -11.546875 C 8.4375 -9.441406 8.882812 -7.773438 9.78125 -6.546875 C 10.675781 -5.316406 11.898438 -4.703125 13.453125 -4.703125 C 14.660156 -4.703125 15.648438 -5.03125 16.421875 -5.6875 C 17.203125 -6.34375 17.832031 -7.171875 18.3125 -8.171875 L 25 -7.09375 C 24.101562 -4.5 22.625 -2.53125 20.5625 -1.1875 C 18.507812 0.15625 16.140625 0.828125 13.453125 0.828125 C 9.691406 0.828125 6.640625 -0.394531 4.296875 -2.84375 C 1.953125 -5.289062 0.78125 -8.5 0.78125 -12.46875 C 0.78125 -16.644531 1.882812 -19.984375 4.09375 -22.484375 C 6.300781 -24.984375 9.300781 -26.234375 13.09375 -26.234375 C 16.882812 -26.234375 19.84375 -25.007812 21.96875 -22.5625 C 24.09375 -20.113281 25.15625 -16.644531 25.15625 -12.15625 L 25.15625 -11.546875 Z M 18.3125 -16.046875 C 18.070312 -17.628906 17.503906 -18.878906 16.609375 -19.796875 C 15.710938 -20.710938 14.660156 -21.171875 13.453125 -21.171875 C 12.316406 -21.171875 11.300781 -20.753906 10.40625 -19.921875 C 9.507812 -19.097656 8.921875 -17.804688 8.640625 -16.046875 Z M 18.3125 -16.046875 "/></g></g></g><g fill="#303030" fill-opacity="1"><g transform="translate(218.517864, 203.249987)"><g><path d="M 14.859375 -19.5625 L 14.859375 -13.609375 L 2.21875 -13.609375 L 2.21875 -19.5625 Z M 14.859375 -19.5625 "/></g></g></g><g fill="#303030" fill-opacity="1"><g transform="translate(235.595354, 203.249987)"><g><path d="M 13.296875 -39.015625 C 17.398438 -39.015625 20.566406 -38.003906 22.796875 -35.984375 C 25.023438 -33.972656 26.140625 -31.066406 26.140625 -27.265625 C 26.140625 -24.503906 25.382812 -22.097656 23.875 -20.046875 C 22.375 -17.992188 20.472656 -16.796875 18.171875 -16.453125 L 29.1875 0 L 19.96875 0 L 10.5 -15.734375 L 10.40625 -15.734375 L 10.40625 0 L 2.796875 0 L 2.796875 -39.015625 Z M 10.40625 -21.0625 L 11.234375 -21.0625 C 13.847656 -21.0625 15.71875 -21.539062 16.84375 -22.5 C 17.96875 -23.46875 18.53125 -24.988281 18.53125 -27.0625 C 18.53125 -29.101562 17.976562 -30.570312 16.875 -31.46875 C 15.769531 -32.363281 13.921875 -32.8125 11.328125 -32.8125 L 10.40625 -32.8125 Z M 10.40625 -21.0625 "/></g></g></g><g fill="#303030" fill-opacity="1"><g transform="translate(264.471863, 203.249987)"><g><path d="M 19.453125 -25.40625 L 26.59375 -25.40625 L 26.59375 0 L 19.453125 0 L 19.453125 -2.328125 L 19.359375 -2.328125 C 18.597656 -1.328125 17.585938 -0.550781 16.328125 0 C 15.066406 0.550781 13.78125 0.828125 12.46875 0.828125 C 9.125 0.828125 6.335938 -0.488281 4.109375 -3.125 C 1.890625 -5.769531 0.78125 -9.003906 0.78125 -12.828125 C 0.78125 -15.210938 1.257812 -17.421875 2.21875 -19.453125 C 3.1875 -21.492188 4.554688 -23.132812 6.328125 -24.375 C 8.109375 -25.613281 10.125 -26.234375 12.375 -26.234375 C 13.675781 -26.234375 14.957031 -25.957031 16.21875 -25.40625 C 17.476562 -24.851562 18.554688 -24.0625 19.453125 -23.03125 Z M 14.078125 -19.8125 C 12.453125 -19.8125 11.050781 -19.113281 9.875 -17.71875 C 8.707031 -16.320312 8.125 -14.660156 8.125 -12.734375 C 8.125 -10.796875 8.707031 -9.117188 9.875 -7.703125 C 11.050781 -6.296875 12.46875 -5.59375 14.125 -5.59375 C 15.8125 -5.59375 17.242188 -6.289062 18.421875 -7.6875 C 19.597656 -9.082031 20.1875 -10.765625 20.1875 -12.734375 C 20.1875 -14.703125 19.585938 -16.375 18.390625 -17.75 C 17.203125 -19.125 15.765625 -19.8125 14.078125 -19.8125 Z M 14.078125 -19.8125 "/></g></g></g><g fill="#303030" fill-opacity="1"><g transform="translate(293.7106, 203.249987)"><g><path d="M 24.890625 -25.40625 L 12 -6.109375 L 24.0625 -6.109375 L 24.0625 0 L -0.046875 0 L 12.9375 -19.296875 L 1.96875 -19.296875 L 1.96875 -25.40625 Z M 24.890625 -25.40625 "/></g></g></g><g fill="#303030" fill-opacity="1"><g transform="translate(318.602344, 203.249987)"><g><path d="M 19.453125 -25.40625 L 26.59375 -25.40625 L 26.59375 0 L 19.453125 0 L 19.453125 -2.328125 L 19.359375 -2.328125 C 18.597656 -1.328125 17.585938 -0.550781 16.328125 0 C 15.066406 0.550781 13.78125 0.828125 12.46875 0.828125 C 9.125 0.828125 6.335938 -0.488281 4.109375 -3.125 C 1.890625 -5.769531 0.78125 -9.003906 0.78125 -12.828125 C 0.78125 -15.210938 1.257812 -17.421875 2.21875 -19.453125 C 3.1875 -21.492188 4.554688 -23.132812 6.328125 -24.375 C 8.109375 -25.613281 10.125 -26.234375 12.375 -26.234375 C 13.675781 -26.234375 14.957031 -25.957031 16.21875 -25.40625 C 17.476562 -24.851562 18.554688 -24.0625 19.453125 -23.03125 Z M 14.078125 -19.8125 C 12.453125 -19.8125 11.050781 -19.113281 9.875 -17.71875 C 8.707031 -16.320312 8.125 -14.660156 8.125 -12.734375 C 8.125 -10.796875 8.707031 -9.117188 9.875 -7.703125 C 11.050781 -6.296875 12.46875 -5.59375 14.125 -5.59375 C 15.8125 -5.59375 17.242188 -6.289062 18.421875 -7.6875 C 19.597656 -9.082031 20.1875 -10.765625 20.1875 -12.734375 C 20.1875 -14.703125 19.585938 -16.375 18.390625 -17.75 C 17.203125 -19.125 15.765625 -19.8125 14.078125 -19.8125 Z M 14.078125 -19.8125 "/></g></g></g><g fill="#c34d8f" fill-opacity="1"><g transform="translate(52.268322, 237.256919)"><g><path d="M 3.375 -15.59375 L 3.375 0 L 1.421875 0 L 1.421875 -15.59375 Z M 3.375 -15.59375 "/></g></g></g><g fill="#c34d8f" fill-opacity="1"><g transform="translate(58.363771, 237.256919)"><g><path d="M 9.53125 -5.875 L 9.53125 0 L 7.671875 0 L 7.671875 -5.640625 C 7.671875 -6.609375 7.519531 -7.296875 7.21875 -7.703125 C 6.914062 -8.109375 6.359375 -8.3125 5.546875 -8.3125 C 4.703125 -8.3125 4.085938 -8.046875 3.703125 -7.515625 C 3.328125 -6.992188 3.140625 -6.070312 3.140625 -4.75 L 3.140625 0 L 1.28125 0 L 1.28125 -9.671875 L 3.140625 -9.671875 L 3.140625 -8.375 L 3.1875 -8.375 C 3.488281 -8.894531 3.898438 -9.289062 4.421875 -9.5625 C 4.941406 -9.832031 5.5 -9.96875 6.09375 -9.96875 C 7.269531 -9.96875 8.132812 -9.625 8.6875 -8.9375 C 9.25 -8.257812 9.53125 -7.238281 9.53125 -5.875 Z M 9.53125 -5.875 "/></g></g></g><g fill="#c34d8f" fill-opacity="1"><g transform="translate(70.471316, 237.256919)"><g><path d="M 6.671875 -8.265625 L 5.171875 -7.46875 C 5.054688 -7.695312 4.890625 -7.894531 4.671875 -8.0625 C 4.460938 -8.226562 4.210938 -8.3125 3.921875 -8.3125 C 3.660156 -8.3125 3.425781 -8.21875 3.21875 -8.03125 C 3.019531 -7.84375 2.921875 -7.617188 2.921875 -7.359375 C 2.921875 -7.066406 3.054688 -6.804688 3.328125 -6.578125 C 3.597656 -6.359375 4.023438 -6.125 4.609375 -5.875 L 5.171875 -5.625 C 5.929688 -5.289062 6.492188 -4.910156 6.859375 -4.484375 C 7.222656 -4.054688 7.40625 -3.519531 7.40625 -2.875 C 7.40625 -1.976562 7.078125 -1.21875 6.421875 -0.59375 C 5.773438 0.0195312 4.992188 0.328125 4.078125 0.328125 C 3.328125 0.328125 2.640625 0.128906 2.015625 -0.265625 C 1.398438 -0.671875 0.96875 -1.195312 0.71875 -1.84375 L 2.3125 -2.5625 C 2.507812 -2.207031 2.738281 -1.910156 3 -1.671875 C 3.269531 -1.441406 3.628906 -1.328125 4.078125 -1.328125 C 4.472656 -1.328125 4.816406 -1.445312 5.109375 -1.6875 C 5.398438 -1.9375 5.546875 -2.269531 5.546875 -2.6875 C 5.546875 -2.957031 5.472656 -3.175781 5.328125 -3.34375 C 5.179688 -3.507812 4.894531 -3.710938 4.46875 -3.953125 L 3.03125 -4.71875 C 2.414062 -5.03125 1.953125 -5.363281 1.640625 -5.71875 C 1.328125 -6.082031 1.171875 -6.5625 1.171875 -7.15625 C 1.171875 -7.914062 1.453125 -8.570312 2.015625 -9.125 C 2.585938 -9.6875 3.257812 -9.96875 4.03125 -9.96875 C 4.625 -9.96875 5.144531 -9.8125 5.59375 -9.5 C 6.050781 -9.195312 6.410156 -8.785156 6.671875 -8.265625 Z M 6.671875 -8.265625 "/></g></g></g><g fill="#c34d8f" fill-opacity="1"><g transform="translate(79.707104, 237.256919)"><g><path d="M 3.40625 -13.375 L 3.40625 -9.671875 L 5.234375 -9.671875 L 5.234375 -7.9375 L 3.40625 -7.9375 L 3.40625 0 L 1.546875 0 L 1.546875 -7.9375 L 0.53125 -7.9375 L 0.53125 -9.671875 L 1.546875 -9.671875 L 1.546875 -13.375 Z M 3.40625 -13.375 "/></g></g></g><g fill="#c34d8f" fill-opacity="1"><g transform="translate(85.967828, 237.256919)"><g><path d="M 3.90625 -14.09375 C 3.90625 -13.738281 3.78125 -13.441406 3.53125 -13.203125 C 3.28125 -12.960938 2.976562 -12.84375 2.625 -12.84375 C 2.269531 -12.84375 1.96875 -12.960938 1.71875 -13.203125 C 1.46875 -13.441406 1.34375 -13.738281 1.34375 -14.09375 C 1.34375 -14.457031 1.46875 -14.765625 1.71875 -15.015625 C 1.96875 -15.273438 2.269531 -15.40625 2.625 -15.40625 C 2.976562 -15.40625 3.28125 -15.273438 3.53125 -15.015625 C 3.78125 -14.765625 3.90625 -14.457031 3.90625 -14.09375 Z M 3.5625 -9.671875 L 3.5625 0 L 1.6875 0 L 1.6875 -9.671875 Z M 3.5625 -9.671875 "/></g></g></g><g fill="#c34d8f" fill-opacity="1"><g transform="translate(92.517791, 237.256919)"><g><path d="M 3.40625 -13.375 L 3.40625 -9.671875 L 5.234375 -9.671875 L 5.234375 -7.9375 L 3.40625 -7.9375 L 3.40625 0 L 1.546875 0 L 1.546875 -7.9375 L 0.53125 -7.9375 L 0.53125 -9.671875 L 1.546875 -9.671875 L 1.546875 -13.375 Z M 3.40625 -13.375 "/></g></g></g><g fill="#c34d8f" fill-opacity="1"><g transform="translate(98.778516, 237.256919)"><g><path d="M 3.0625 -9.671875 L 3.0625 -4.234375 C 3.0625 -3.242188 3.25 -2.523438 3.625 -2.078125 C 4.007812 -1.628906 4.566406 -1.40625 5.296875 -1.40625 C 6.109375 -1.40625 6.679688 -1.648438 7.015625 -2.140625 C 7.359375 -2.640625 7.53125 -3.335938 7.53125 -4.234375 L 7.53125 -9.671875 L 9.390625 -9.671875 L 9.390625 -4.03125 C 9.390625 -2.632812 9.035156 -1.554688 8.328125 -0.796875 C 7.628906 -0.046875 6.617188 0.328125 5.296875 0.328125 C 3.929688 0.328125 2.90625 -0.0625 2.21875 -0.84375 C 1.539062 -1.632812 1.203125 -2.703125 1.203125 -4.046875 L 1.203125 -9.671875 Z M 3.0625 -9.671875 "/></g></g></g><g fill="#c34d8f" fill-opacity="1"><g transform="translate(110.658804, 237.256919)"><g><path d="M 3.40625 -13.375 L 3.40625 -9.671875 L 5.234375 -9.671875 L 5.234375 -7.9375 L 3.40625 -7.9375 L 3.40625 0 L 1.546875 0 L 1.546875 -7.9375 L 0.53125 -7.9375 L 0.53125 -9.671875 L 1.546875 -9.671875 L 1.546875 -13.375 Z M 3.40625 -13.375 "/></g></g></g><g fill="#c34d8f" fill-opacity="1"><g transform="translate(116.919528, 237.256919)"><g><path d="M 9.78125 -4.6875 L 9.78125 -4.53125 L 2.390625 -4.53125 C 2.421875 -3.59375 2.710938 -2.820312 3.265625 -2.21875 C 3.828125 -1.625 4.507812 -1.328125 5.3125 -1.328125 C 6.03125 -1.328125 6.601562 -1.492188 7.03125 -1.828125 C 7.457031 -2.160156 7.847656 -2.617188 8.203125 -3.203125 L 9.78125 -2.3125 C 9.320312 -1.46875 8.695312 -0.816406 7.90625 -0.359375 C 7.113281 0.0976562 6.242188 0.328125 5.296875 0.328125 C 3.898438 0.328125 2.753906 -0.140625 1.859375 -1.078125 C 0.972656 -2.015625 0.53125 -3.238281 0.53125 -4.75 C 0.53125 -6.332031 0.953125 -7.597656 1.796875 -8.546875 C 2.640625 -9.492188 3.789062 -9.96875 5.25 -9.96875 C 6.65625 -9.96875 7.757812 -9.507812 8.5625 -8.59375 C 9.375 -7.675781 9.78125 -6.375 9.78125 -4.6875 Z M 7.921875 -5.9375 C 7.804688 -6.675781 7.515625 -7.257812 7.046875 -7.6875 C 6.585938 -8.125 5.984375 -8.34375 5.234375 -8.34375 C 4.523438 -8.34375 3.921875 -8.113281 3.421875 -7.65625 C 2.921875 -7.195312 2.613281 -6.625 2.5 -5.9375 Z M 7.921875 -5.9375 "/></g></g></g><g fill="#c34d8f" fill-opacity="1"><g transform="translate(128.303979, 237.256919)"><g/></g></g><g fill="#c34d8f" fill-opacity="1"><g transform="translate(135.577047, 237.256919)"><g><path d="M 6.078125 -17.9375 L 6.078125 -16.0625 L 5.453125 -16.328125 C 5.234375 -16.410156 5.03125 -16.453125 4.84375 -16.453125 C 4.394531 -16.453125 4.0625 -16.257812 3.84375 -15.875 C 3.625 -15.5 3.515625 -14.863281 3.515625 -13.96875 L 3.515625 -9.671875 L 6.078125 -9.671875 L 6.078125 -7.9375 L 3.515625 -7.9375 L 3.515625 0 L 1.65625 0 L 1.65625 -7.9375 L 0.8125 -7.9375 L 0.8125 -9.671875 L 1.65625 -9.671875 L 1.65625 -14.46875 C 1.65625 -15.644531 1.910156 -16.554688 2.421875 -17.203125 C 2.929688 -17.859375 3.71875 -18.1875 4.78125 -18.1875 C 5.226562 -18.1875 5.660156 -18.101562 6.078125 -17.9375 Z M 6.078125 -17.9375 "/></g></g></g><g fill="#c34d8f" fill-opacity="1"><g transform="translate(142.560878, 237.256919)"><g><path d="M 5.578125 0.328125 C 4.640625 0.328125 3.773438 0.109375 2.984375 -0.328125 C 2.203125 -0.773438 1.578125 -1.394531 1.109375 -2.1875 C 0.640625 -2.988281 0.40625 -3.863281 0.40625 -4.8125 C 0.40625 -5.769531 0.628906 -6.632812 1.078125 -7.40625 C 1.523438 -8.175781 2.144531 -8.796875 2.9375 -9.265625 C 3.738281 -9.734375 4.617188 -9.96875 5.578125 -9.96875 C 6.554688 -9.96875 7.445312 -9.722656 8.25 -9.234375 C 9.0625 -8.753906 9.679688 -8.128906 10.109375 -7.359375 C 10.535156 -6.585938 10.75 -5.738281 10.75 -4.8125 C 10.75 -3.914062 10.535156 -3.070312 10.109375 -2.28125 C 9.691406 -1.5 9.078125 -0.867188 8.265625 -0.390625 C 7.460938 0.0859375 6.566406 0.328125 5.578125 0.328125 Z M 8.890625 -4.8125 C 8.890625 -5.75 8.5625 -6.546875 7.90625 -7.203125 C 7.25 -7.859375 6.46875 -8.1875 5.5625 -8.1875 C 4.707031 -8.1875 3.945312 -7.859375 3.28125 -7.203125 C 2.613281 -6.546875 2.28125 -5.75 2.28125 -4.8125 C 2.28125 -3.914062 2.601562 -3.128906 3.25 -2.453125 C 3.90625 -1.785156 4.679688 -1.453125 5.578125 -1.453125 C 6.492188 -1.453125 7.273438 -1.785156 7.921875 -2.453125 C 8.566406 -3.117188 8.890625 -3.90625 8.890625 -4.8125 Z M 8.890625 -4.8125 "/></g></g></g><g fill="#c34d8f" fill-opacity="1"><g transform="translate(155.019654, 237.256919)"><g><path d="M 7.5 -9.484375 L 6.65625 -7.796875 C 6.488281 -7.941406 6.304688 -8.039062 6.109375 -8.09375 C 5.910156 -8.15625 5.710938 -8.1875 5.515625 -8.1875 C 4.742188 -8.1875 4.175781 -7.910156 3.8125 -7.359375 C 3.445312 -6.804688 3.265625 -5.972656 3.265625 -4.859375 L 3.265625 0 L 1.40625 0 L 1.40625 -9.671875 L 3.265625 -9.671875 L 3.265625 -8.109375 L 3.328125 -8.109375 C 3.554688 -8.679688 3.898438 -9.132812 4.359375 -9.46875 C 4.828125 -9.800781 5.363281 -9.96875 5.96875 -9.96875 C 6.21875 -9.96875 6.476562 -9.925781 6.75 -9.84375 C 7.019531 -9.757812 7.269531 -9.640625 7.5 -9.484375 Z M 7.5 -9.484375 "/></g></g></g><g fill="#c34d8f" fill-opacity="1"><g transform="translate(163.573654, 237.256919)"><g/></g></g><g fill="#c34d8f" fill-opacity="1"><g transform="translate(170.846718, 237.256919)"><g><path d="M 3.21875 -17.9375 L 3.21875 0 L 1.359375 0 L 1.359375 -17.9375 Z M 3.21875 -17.9375 "/></g></g></g><g fill="#c34d8f" fill-opacity="1"><g transform="translate(176.735549, 237.256919)"><g><path d="M 9.78125 -4.6875 L 9.78125 -4.53125 L 2.390625 -4.53125 C 2.421875 -3.59375 2.710938 -2.820312 3.265625 -2.21875 C 3.828125 -1.625 4.507812 -1.328125 5.3125 -1.328125 C 6.03125 -1.328125 6.601562 -1.492188 7.03125 -1.828125 C 7.457031 -2.160156 7.847656 -2.617188 8.203125 -3.203125 L 9.78125 -2.3125 C 9.320312 -1.46875 8.695312 -0.816406 7.90625 -0.359375 C 7.113281 0.0976562 6.242188 0.328125 5.296875 0.328125 C 3.898438 0.328125 2.753906 -0.140625 1.859375 -1.078125 C 0.972656 -2.015625 0.53125 -3.238281 0.53125 -4.75 C 0.53125 -6.332031 0.953125 -7.597656 1.796875 -8.546875 C 2.640625 -9.492188 3.789062 -9.96875 5.25 -9.96875 C 6.65625 -9.96875 7.757812 -9.507812 8.5625 -8.59375 C 9.375 -7.675781 9.78125 -6.375 9.78125 -4.6875 Z M 7.921875 -5.9375 C 7.804688 -6.675781 7.515625 -7.257812 7.046875 -7.6875 C 6.585938 -8.125 5.984375 -8.34375 5.234375 -8.34375 C 4.523438 -8.34375 3.921875 -8.113281 3.421875 -7.65625 C 2.921875 -7.195312 2.613281 -6.625 2.5 -5.9375 Z M 7.921875 -5.9375 "/></g></g></g><g fill="#c34d8f" fill-opacity="1"><g transform="translate(188.119994, 237.256919)"><g><path d="M 8.453125 -8.0625 L 8.5 -8.0625 L 8.5 -9.671875 L 10.359375 -9.671875 L 10.359375 0 L 8.5 0 L 8.5 -1.515625 L 8.453125 -1.515625 C 8.078125 -0.960938 7.609375 -0.515625 7.046875 -0.171875 C 6.492188 0.160156 5.867188 0.328125 5.171875 0.328125 C 3.785156 0.328125 2.664062 -0.171875 1.8125 -1.171875 C 0.957031 -2.171875 0.53125 -3.414062 0.53125 -4.90625 C 0.53125 -5.851562 0.738281 -6.71875 1.15625 -7.5 C 1.570312 -8.289062 2.125 -8.898438 2.8125 -9.328125 C 3.5 -9.753906 4.265625 -9.96875 5.109375 -9.96875 C 5.804688 -9.96875 6.441406 -9.796875 7.015625 -9.453125 C 7.585938 -9.109375 8.066406 -8.644531 8.453125 -8.0625 Z M 8.59375 -4.84375 C 8.59375 -5.882812 8.296875 -6.722656 7.703125 -7.359375 C 7.117188 -7.992188 6.363281 -8.3125 5.4375 -8.3125 C 4.570312 -8.3125 3.847656 -7.972656 3.265625 -7.296875 C 2.679688 -6.617188 2.390625 -5.800781 2.390625 -4.84375 C 2.390625 -3.84375 2.679688 -3.003906 3.265625 -2.328125 C 3.847656 -1.660156 4.578125 -1.328125 5.453125 -1.328125 C 6.390625 -1.328125 7.144531 -1.648438 7.71875 -2.296875 C 8.300781 -2.953125 8.59375 -3.800781 8.59375 -4.84375 Z M 8.59375 -4.84375 "/></g></g></g><g fill="#c34d8f" fill-opacity="1"><g transform="translate(200.909326, 237.256919)"><g><path d="M 7.5 -9.484375 L 6.65625 -7.796875 C 6.488281 -7.941406 6.304688 -8.039062 6.109375 -8.09375 C 5.910156 -8.15625 5.710938 -8.1875 5.515625 -8.1875 C 4.742188 -8.1875 4.175781 -7.910156 3.8125 -7.359375 C 3.445312 -6.804688 3.265625 -5.972656 3.265625 -4.859375 L 3.265625 0 L 1.40625 0 L 1.40625 -9.671875 L 3.265625 -9.671875 L 3.265625 -8.109375 L 3.328125 -8.109375 C 3.554688 -8.679688 3.898438 -9.132812 4.359375 -9.46875 C 4.828125 -9.800781 5.363281 -9.96875 5.96875 -9.96875 C 6.21875 -9.96875 6.476562 -9.925781 6.75 -9.84375 C 7.019531 -9.757812 7.269531 -9.640625 7.5 -9.484375 Z M 7.5 -9.484375 "/></g></g></g><g fill="#c34d8f" fill-opacity="1"><g transform="translate(209.463326, 237.256919)"><g><path d="M 9.53125 -5.875 L 9.53125 0 L 7.671875 0 L 7.671875 -5.640625 C 7.671875 -6.609375 7.519531 -7.296875 7.21875 -7.703125 C 6.914062 -8.109375 6.359375 -8.3125 5.546875 -8.3125 C 4.703125 -8.3125 4.085938 -8.046875 3.703125 -7.515625 C 3.328125 -6.992188 3.140625 -6.070312 3.140625 -4.75 L 3.140625 0 L 1.28125 0 L 1.28125 -9.671875 L 3.140625 -9.671875 L 3.140625 -8.375 L 3.1875 -8.375 C 3.488281 -8.894531 3.898438 -9.289062 4.421875 -9.5625 C 4.941406 -9.832031 5.5 -9.96875 6.09375 -9.96875 C 7.269531 -9.96875 8.132812 -9.625 8.6875 -8.9375 C 9.25 -8.257812 9.53125 -7.238281 9.53125 -5.875 Z M 9.53125 -5.875 "/></g></g></g><g fill="#c34d8f" fill-opacity="1"><g transform="translate(221.570877, 237.256919)"><g><path d="M 3.90625 -14.09375 C 3.90625 -13.738281 3.78125 -13.441406 3.53125 -13.203125 C 3.28125 -12.960938 2.976562 -12.84375 2.625 -12.84375 C 2.269531 -12.84375 1.96875 -12.960938 1.71875 -13.203125 C 1.46875 -13.441406 1.34375 -13.738281 1.34375 -14.09375 C 1.34375 -14.457031 1.46875 -14.765625 1.71875 -15.015625 C 1.96875 -15.273438 2.269531 -15.40625 2.625 -15.40625 C 2.976562 -15.40625 3.28125 -15.273438 3.53125 -15.015625 C 3.78125 -14.765625 3.90625 -14.457031 3.90625 -14.09375 Z M 3.5625 -9.671875 L 3.5625 0 L 1.6875 0 L 1.6875 -9.671875 Z M 3.5625 -9.671875 "/></g></g></g><g fill="#c34d8f" fill-opacity="1"><g transform="translate(228.120834, 237.256919)"><g><path d="M 9.53125 -5.875 L 9.53125 0 L 7.671875 0 L 7.671875 -5.640625 C 7.671875 -6.609375 7.519531 -7.296875 7.21875 -7.703125 C 6.914062 -8.109375 6.359375 -8.3125 5.546875 -8.3125 C 4.703125 -8.3125 4.085938 -8.046875 3.703125 -7.515625 C 3.328125 -6.992188 3.140625 -6.070312 3.140625 -4.75 L 3.140625 0 L 1.28125 0 L 1.28125 -9.671875 L 3.140625 -9.671875 L 3.140625 -8.375 L 3.1875 -8.375 C 3.488281 -8.894531 3.898438 -9.289062 4.421875 -9.5625 C 4.941406 -9.832031 5.5 -9.96875 6.09375 -9.96875 C 7.269531 -9.96875 8.132812 -9.625 8.6875 -8.9375 C 9.25 -8.257812 9.53125 -7.238281 9.53125 -5.875 Z M 9.53125 -5.875 "/></g></g></g><g fill="#c34d8f" fill-opacity="1"><g transform="translate(240.228385, 237.256919)"><g><path d="M 8.4375 -8.015625 L 8.46875 -8.015625 L 8.46875 -9.671875 L 10.328125 -9.671875 L 10.328125 -0.0625 C 10.328125 1.820312 9.953125 3.226562 9.203125 4.15625 C 8.453125 5.082031 7.257812 5.546875 5.625 5.546875 C 4.226562 5.546875 3.109375 5.144531 2.265625 4.34375 C 1.421875 3.539062 0.984375 2.476562 0.953125 1.15625 L 2.8125 1.15625 C 2.8125 2 3.078125 2.664062 3.609375 3.15625 C 4.140625 3.644531 4.835938 3.890625 5.703125 3.890625 C 6.691406 3.890625 7.398438 3.601562 7.828125 3.03125 C 8.253906 2.46875 8.46875 1.601562 8.46875 0.4375 L 8.46875 -1.515625 L 8.4375 -1.515625 C 8.0625 -0.960938 7.59375 -0.515625 7.03125 -0.171875 C 6.476562 0.160156 5.847656 0.328125 5.140625 0.328125 C 3.796875 0.328125 2.6875 -0.15625 1.8125 -1.125 C 0.945312 -2.09375 0.515625 -3.351562 0.515625 -4.90625 C 0.515625 -6.320312 0.953125 -7.519531 1.828125 -8.5 C 2.703125 -9.476562 3.78125 -9.96875 5.0625 -9.96875 C 5.8125 -9.96875 6.46875 -9.785156 7.03125 -9.421875 C 7.601562 -9.066406 8.070312 -8.597656 8.4375 -8.015625 Z M 8.578125 -4.84375 C 8.578125 -5.882812 8.273438 -6.722656 7.671875 -7.359375 C 7.078125 -7.992188 6.328125 -8.3125 5.421875 -8.3125 C 4.546875 -8.3125 3.816406 -7.972656 3.234375 -7.296875 C 2.660156 -6.617188 2.375 -5.800781 2.375 -4.84375 C 2.375 -3.832031 2.660156 -2.992188 3.234375 -2.328125 C 3.816406 -1.660156 4.550781 -1.328125 5.4375 -1.328125 C 6.375 -1.328125 7.128906 -1.648438 7.703125 -2.296875 C 8.285156 -2.953125 8.578125 -3.800781 8.578125 -4.84375 Z M 8.578125 -4.84375 "/></g></g></g><g fill="#c34d8f" fill-opacity="1"><g transform="translate(252.99706, 237.256919)"><g/></g></g><g fill="#c34d8f" fill-opacity="1"><g transform="translate(260.270123, 237.256919)"><g><path d="M 14.28125 -2.046875 L 16.703125 0.328125 L 14.34375 0.328125 L 13 -1.046875 C 12.351562 -0.609375 11.644531 -0.269531 10.875 -0.03125 C 10.113281 0.207031 9.34375 0.328125 8.5625 0.328125 C 7.070312 0.328125 5.695312 -0.0234375 4.4375 -0.734375 C 3.175781 -1.453125 2.1875 -2.4375 1.46875 -3.6875 C 0.75 -4.945312 0.390625 -6.316406 0.390625 -7.796875 C 0.390625 -9.242188 0.757812 -10.59375 1.5 -11.84375 C 2.25 -13.09375 3.25 -14.082031 4.5 -14.8125 C 5.757812 -15.550781 7.113281 -15.921875 8.5625 -15.921875 C 9.988281 -15.921875 11.335938 -15.550781 12.609375 -14.8125 C 13.890625 -14.070312 14.894531 -13.082031 15.625 -11.84375 C 16.351562 -10.601562 16.71875 -9.253906 16.71875 -7.796875 C 16.71875 -6.703125 16.507812 -5.660156 16.09375 -4.671875 C 15.6875 -3.679688 15.082031 -2.804688 14.28125 -2.046875 Z M 11.65625 -2.375 L 8.078125 -5.875 L 10.5 -5.875 L 12.96875 -3.4375 C 13.539062 -3.957031 13.984375 -4.613281 14.296875 -5.40625 C 14.617188 -6.207031 14.78125 -7.003906 14.78125 -7.796875 C 14.78125 -8.953125 14.503906 -10.015625 13.953125 -10.984375 C 13.398438 -11.953125 12.648438 -12.710938 11.703125 -13.265625 C 10.753906 -13.816406 9.695312 -14.09375 8.53125 -14.09375 C 7.394531 -14.09375 6.347656 -13.820312 5.390625 -13.28125 C 4.441406 -12.738281 3.691406 -11.976562 3.140625 -11 C 2.597656 -10.03125 2.328125 -8.960938 2.328125 -7.796875 C 2.328125 -6.660156 2.609375 -5.609375 3.171875 -4.640625 C 3.734375 -3.679688 4.492188 -2.914062 5.453125 -2.34375 C 6.410156 -1.769531 7.445312 -1.484375 8.5625 -1.484375 C 9.09375 -1.484375 9.628906 -1.5625 10.171875 -1.71875 C 10.710938 -1.882812 11.207031 -2.101562 11.65625 -2.375 Z M 11.65625 -2.375 "/></g></g></g><g fill="#c34d8f" fill-opacity="1"><g transform="translate(278.67902, 237.256919)"><g><path d="M 3.0625 -9.671875 L 3.0625 -4.234375 C 3.0625 -3.242188 3.25 -2.523438 3.625 -2.078125 C 4.007812 -1.628906 4.566406 -1.40625 5.296875 -1.40625 C 6.109375 -1.40625 6.679688 -1.648438 7.015625 -2.140625 C 7.359375 -2.640625 7.53125 -3.335938 7.53125 -4.234375 L 7.53125 -9.671875 L 9.390625 -9.671875 L 9.390625 -4.03125 C 9.390625 -2.632812 9.035156 -1.554688 8.328125 -0.796875 C 7.628906 -0.046875 6.617188 0.328125 5.296875 0.328125 C 3.929688 0.328125 2.90625 -0.0625 2.21875 -0.84375 C 1.539062 -1.632812 1.203125 -2.703125 1.203125 -4.046875 L 1.203125 -9.671875 Z M 3.0625 -9.671875 "/></g></g></g><g fill="#c34d8f" fill-opacity="1"><g transform="translate(290.559314, 237.256919)"><g><path d="M 7.5 -9.484375 L 6.65625 -7.796875 C 6.488281 -7.941406 6.304688 -8.039062 6.109375 -8.09375 C 5.910156 -8.15625 5.710938 -8.1875 5.515625 -8.1875 C 4.742188 -8.1875 4.175781 -7.910156 3.8125 -7.359375 C 3.445312 -6.804688 3.265625 -5.972656 3.265625 -4.859375 L 3.265625 0 L 1.40625 0 L 1.40625 -9.671875 L 3.265625 -9.671875 L 3.265625 -8.109375 L 3.328125 -8.109375 C 3.554688 -8.679688 3.898438 -9.132812 4.359375 -9.46875 C 4.828125 -9.800781 5.363281 -9.96875 5.96875 -9.96875 C 6.21875 -9.96875 6.476562 -9.925781 6.75 -9.84375 C 7.019531 -9.757812 7.269531 -9.640625 7.5 -9.484375 Z M 7.5 -9.484375 "/></g></g></g><g fill="#c34d8f" fill-opacity="1"><g transform="translate(299.113314, 237.256919)"><g><path d="M 8.453125 -8.0625 L 8.5 -8.0625 L 8.5 -9.671875 L 10.359375 -9.671875 L 10.359375 0 L 8.5 0 L 8.5 -1.515625 L 8.453125 -1.515625 C 8.078125 -0.960938 7.609375 -0.515625 7.046875 -0.171875 C 6.492188 0.160156 5.867188 0.328125 5.171875 0.328125 C 3.785156 0.328125 2.664062 -0.171875 1.8125 -1.171875 C 0.957031 -2.171875 0.53125 -3.414062 0.53125 -4.90625 C 0.53125 -5.851562 0.738281 -6.71875 1.15625 -7.5 C 1.570312 -8.289062 2.125 -8.898438 2.8125 -9.328125 C 3.5 -9.753906 4.265625 -9.96875 5.109375 -9.96875 C 5.804688 -9.96875 6.441406 -9.796875 7.015625 -9.453125 C 7.585938 -9.109375 8.066406 -8.644531 8.453125 -8.0625 Z M 8.59375 -4.84375 C 8.59375 -5.882812 8.296875 -6.722656 7.703125 -7.359375 C 7.117188 -7.992188 6.363281 -8.3125 5.4375 -8.3125 C 4.570312 -8.3125 3.847656 -7.972656 3.265625 -7.296875 C 2.679688 -6.617188 2.390625 -5.800781 2.390625 -4.84375 C 2.390625 -3.84375 2.679688 -3.003906 3.265625 -2.328125 C 3.847656 -1.660156 4.578125 -1.328125 5.453125 -1.328125 C 6.390625 -1.328125 7.144531 -1.648438 7.71875 -2.296875 C 8.300781 -2.953125 8.59375 -3.800781 8.59375 -4.84375 Z M 8.59375 -4.84375 "/></g></g></g><g fill="#c34d8f" fill-opacity="1"><g transform="translate(311.902659, 237.256919)"><g><path d="M 9.53125 -5.875 L 9.53125 0 L 7.671875 0 L 7.671875 -5.640625 C 7.671875 -6.609375 7.519531 -7.296875 7.21875 -7.703125 C 6.914062 -8.109375 6.359375 -8.3125 5.546875 -8.3125 C 4.703125 -8.3125 4.085938 -8.046875 3.703125 -7.515625 C 3.328125 -6.992188 3.140625 -6.070312 3.140625 -4.75 L 3.140625 0 L 1.28125 0 L 1.28125 -9.671875 L 3.140625 -9.671875 L 3.140625 -8.375 L 3.1875 -8.375 C 3.488281 -8.894531 3.898438 -9.289062 4.421875 -9.5625 C 4.941406 -9.832031 5.5 -9.96875 6.09375 -9.96875 C 7.269531 -9.96875 8.132812 -9.625 8.6875 -8.9375 C 9.25 -8.257812 9.53125 -7.238281 9.53125 -5.875 Z M 9.53125 -5.875 "/></g></g></g></svg>