<svg xmlns="http://www.w3.org/2000/svg" xmlns:xlink="http://www.w3.org/1999/xlink" width="500" zoomAndPan="magnify" viewBox="0 0 375 374.999991" height="500" preserveAspectRatio="xMidYMid meet" version="1.0"><defs><g/><clipPath id="f5e71ddd08"><path d="M 10.578125 145.996094 L 364.578125 145.996094 L 364.578125 253.371094 L 10.578125 253.371094 Z M 10.578125 145.996094 " clip-rule="nonzero"/></clipPath><clipPath id="df4485b1ee"><path d="M 27.828125 145.996094 L 347.171875 145.996094 C 351.746094 145.996094 356.136719 147.8125 359.371094 151.046875 C 362.605469 154.28125 364.421875 158.671875 364.421875 163.246094 L 364.421875 236.121094 C 364.421875 240.695312 362.605469 245.082031 359.371094 248.316406 C 356.136719 251.554688 351.746094 253.371094 347.171875 253.371094 L 27.828125 253.371094 C 23.253906 253.371094 18.863281 251.554688 15.628906 248.316406 C 12.394531 245.082031 10.578125 240.695312 10.578125 236.121094 L 10.578125 163.246094 C 10.578125 158.671875 12.394531 154.28125 15.628906 151.046875 C 18.863281 147.8125 23.253906 145.996094 27.828125 145.996094 Z M 27.828125 145.996094 " clip-rule="nonzero"/></clipPath></defs><g clip-path="url(#f5e71ddd08)"><g clip-path="url(#df4485b1ee)"><path fill="#ffffff" d="M 10.578125 145.996094 L 364.578125 145.996094 L 364.578125 253.371094 L 10.578125 253.371094 Z M 10.578125 145.996094 " fill-opacity="1" fill-rule="nonzero"/></g></g><g fill="#e11f49" fill-opacity="1"><g transform="translate(32.161987, 203.249987)"><g><path d="M 8.59375 -39.015625 L 8.59375 -22.09375 L 25.15625 -39.015625 L 31.515625 -39.015625 L 13.96875 -21.46875 L 31.828125 0 L 25.25 0 L 10.5625 -18.171875 L 8.59375 -16.296875 L 8.59375 0 L 3.71875 0 L 3.71875 -39.015625 Z M 8.59375 -39.015625 "/></g></g></g><g fill="#e11f49" fill-opacity="1"><g transform="translate(63.211992, 203.249987)"><g><path d="M 21.171875 -20.1875 L 21.265625 -20.1875 L 21.265625 -24.21875 L 25.921875 -24.21875 L 25.921875 0 L 21.265625 0 L 21.265625 -3.78125 L 21.171875 -3.78125 C 20.234375 -2.394531 19.066406 -1.28125 17.671875 -0.4375 C 16.273438 0.40625 14.695312 0.828125 12.9375 0.828125 C 9.488281 0.828125 6.691406 -0.421875 4.546875 -2.921875 C 2.410156 -5.421875 1.34375 -8.535156 1.34375 -12.265625 C 1.34375 -14.640625 1.859375 -16.8125 2.890625 -18.78125 C 3.929688 -20.75 5.3125 -22.265625 7.03125 -23.328125 C 8.757812 -24.398438 10.675781 -24.9375 12.78125 -24.9375 C 14.539062 -24.9375 16.132812 -24.503906 17.5625 -23.640625 C 19 -22.785156 20.203125 -21.632812 21.171875 -20.1875 Z M 21.53125 -12.109375 C 21.53125 -14.734375 20.785156 -16.835938 19.296875 -18.421875 C 17.816406 -20.003906 15.921875 -20.796875 13.609375 -20.796875 C 11.429688 -20.796875 9.617188 -19.953125 8.171875 -18.265625 C 6.722656 -16.578125 6 -14.523438 6 -12.109375 C 6 -9.628906 6.722656 -7.539062 8.171875 -5.84375 C 9.617188 -4.15625 11.445312 -3.3125 13.65625 -3.3125 C 16.007812 -3.3125 17.910156 -4.128906 19.359375 -5.765625 C 20.804688 -7.410156 21.53125 -9.523438 21.53125 -12.109375 Z M 21.53125 -12.109375 "/></g></g></g><g fill="#e11f49" fill-opacity="1"><g transform="translate(91.984989, 203.249987)"><g><path d="M 8.078125 -44.921875 L 8.078125 0 L 3.421875 0 L 3.421875 -44.921875 Z M 8.078125 -44.921875 "/></g></g></g><g fill="#e11f49" fill-opacity="1"><g transform="translate(103.473494, 203.249987)"><g><path d="M 21.171875 -20.1875 L 21.265625 -20.1875 L 21.265625 -24.21875 L 25.921875 -24.21875 L 25.921875 0 L 21.265625 0 L 21.265625 -3.78125 L 21.171875 -3.78125 C 20.234375 -2.394531 19.066406 -1.28125 17.671875 -0.4375 C 16.273438 0.40625 14.695312 0.828125 12.9375 0.828125 C 9.488281 0.828125 6.691406 -0.421875 4.546875 -2.921875 C 2.410156 -5.421875 1.34375 -8.535156 1.34375 -12.265625 C 1.34375 -14.640625 1.859375 -16.8125 2.890625 -18.78125 C 3.929688 -20.75 5.3125 -22.265625 7.03125 -23.328125 C 8.757812 -24.398438 10.675781 -24.9375 12.78125 -24.9375 C 14.539062 -24.9375 16.132812 -24.503906 17.5625 -23.640625 C 19 -22.785156 20.203125 -21.632812 21.171875 -20.1875 Z M 21.53125 -12.109375 C 21.53125 -14.734375 20.785156 -16.835938 19.296875 -18.421875 C 17.816406 -20.003906 15.921875 -20.796875 13.609375 -20.796875 C 11.429688 -20.796875 9.617188 -19.953125 8.171875 -18.265625 C 6.722656 -16.578125 6 -14.523438 6 -12.109375 C 6 -9.628906 6.722656 -7.539062 8.171875 -5.84375 C 9.617188 -4.15625 11.445312 -3.3125 13.65625 -3.3125 C 16.007812 -3.3125 17.910156 -4.128906 19.359375 -5.765625 C 20.804688 -7.410156 21.53125 -9.523438 21.53125 -12.109375 Z M 21.53125 -12.109375 "/></g></g></g><g fill="#e11f49" fill-opacity="1"><g transform="translate(132.246491, 203.249987)"><g><path d="M 21.21875 -20.640625 C 21.976562 -21.953125 23.03125 -22.992188 24.375 -23.765625 C 25.71875 -24.546875 27.148438 -24.9375 28.671875 -24.9375 C 31.328125 -24.9375 33.328125 -24.066406 34.671875 -22.328125 C 36.015625 -20.585938 36.6875 -18.0625 36.6875 -14.75 L 36.6875 0 L 32.03125 0 L 32.03125 -13.921875 C 32.03125 -16.265625 31.664062 -17.992188 30.9375 -19.109375 C 30.21875 -20.234375 29.082031 -20.796875 27.53125 -20.796875 C 25.769531 -20.796875 24.441406 -20.128906 23.546875 -18.796875 C 22.648438 -17.472656 22.203125 -15.257812 22.203125 -12.15625 L 22.203125 0 L 17.546875 0 L 17.546875 -13.09375 C 17.546875 -15.820312 17.191406 -17.785156 16.484375 -18.984375 C 15.773438 -20.191406 14.644531 -20.796875 13.09375 -20.796875 C 11.332031 -20.796875 9.992188 -20.128906 9.078125 -18.796875 C 8.160156 -17.472656 7.703125 -15.257812 7.703125 -12.15625 L 7.703125 0 L 3.046875 0 L 3.046875 -24.21875 L 7.703125 -24.21875 L 7.703125 -21.171875 L 7.8125 -21.171875 C 8.5 -22.234375 9.421875 -23.125 10.578125 -23.84375 C 11.734375 -24.570312 12.953125 -24.9375 14.234375 -24.9375 C 15.785156 -24.9375 17.140625 -24.554688 18.296875 -23.796875 C 19.453125 -23.046875 20.425781 -21.992188 21.21875 -20.640625 Z M 21.21875 -20.640625 "/></g></g></g><g fill="#e11f49" fill-opacity="1"><g transform="translate(171.938741, 203.249987)"><g><path d="M 14.28125 -18.53125 L 14.28125 -14.640625 L 2.953125 -14.640625 L 2.953125 -18.53125 Z M 14.28125 -18.53125 "/></g></g></g><g fill="#e11f49" fill-opacity="1"><g transform="translate(189.119744, 203.249987)"><g><path d="M 24.484375 -11.75 L 24.484375 -11.328125 L 6 -11.328125 C 6.070312 -8.984375 6.804688 -7.0625 8.203125 -5.5625 C 9.597656 -4.0625 11.296875 -3.3125 13.296875 -3.3125 C 15.085938 -3.3125 16.519531 -3.734375 17.59375 -4.578125 C 18.664062 -5.421875 19.648438 -6.566406 20.546875 -8.015625 L 24.484375 -5.796875 C 23.335938 -3.691406 21.769531 -2.0625 19.78125 -0.90625 C 17.800781 0.25 15.625 0.828125 13.25 0.828125 C 9.757812 0.828125 6.898438 -0.34375 4.671875 -2.6875 C 2.453125 -5.03125 1.34375 -8.101562 1.34375 -11.90625 C 1.34375 -15.875 2.394531 -19.035156 4.5 -21.390625 C 6.601562 -23.753906 9.484375 -24.9375 13.140625 -24.9375 C 16.660156 -24.9375 19.429688 -23.789062 21.453125 -21.5 C 23.472656 -19.207031 24.484375 -15.957031 24.484375 -11.75 Z M 19.8125 -14.859375 C 19.539062 -16.710938 18.828125 -18.179688 17.671875 -19.265625 C 16.515625 -20.359375 14.988281 -20.90625 13.09375 -20.90625 C 11.332031 -20.90625 9.820312 -20.328125 8.5625 -19.171875 C 7.300781 -18.015625 6.535156 -16.578125 6.265625 -14.859375 Z M 19.8125 -14.859375 "/></g></g></g><g fill="#e11f49" fill-opacity="1"><g transform="translate(214.37374, 203.249987)"><g><path d="M 14.28125 -18.53125 L 14.28125 -14.640625 L 2.953125 -14.640625 L 2.953125 -18.53125 Z M 14.28125 -18.53125 "/></g></g></g><g fill="#e11f49" fill-opacity="1"><g transform="translate(231.554743, 203.249987)"><g><path d="M 10.296875 -39.015625 C 13.679688 -39.015625 16.347656 -38.660156 18.296875 -37.953125 C 20.242188 -37.242188 21.851562 -35.984375 23.125 -34.171875 C 24.40625 -32.367188 25.046875 -30.273438 25.046875 -27.890625 C 25.046875 -24.992188 24.171875 -22.523438 22.421875 -20.484375 C 20.679688 -18.453125 18.4375 -17.28125 15.6875 -16.96875 L 28 0 L 22.09375 0 L 10.609375 -16.515625 L 8.59375 -16.515625 L 8.59375 0 L 3.71875 0 L 3.71875 -39.015625 Z M 8.59375 -20.546875 L 10.09375 -20.546875 C 13.820312 -20.546875 16.488281 -21.140625 18.09375 -22.328125 C 19.695312 -23.515625 20.5 -25.300781 20.5 -27.6875 C 20.5 -30.101562 19.625 -31.867188 17.875 -32.984375 C 16.132812 -34.109375 13.453125 -34.671875 9.828125 -34.671875 L 8.59375 -34.671875 Z M 8.59375 -20.546875 "/></g></g></g><g fill="#e11f49" fill-opacity="1"><g transform="translate(259.654998, 203.249987)"><g><path d="M 21.171875 -20.1875 L 21.265625 -20.1875 L 21.265625 -24.21875 L 25.921875 -24.21875 L 25.921875 0 L 21.265625 0 L 21.265625 -3.78125 L 21.171875 -3.78125 C 20.234375 -2.394531 19.066406 -1.28125 17.671875 -0.4375 C 16.273438 0.40625 14.695312 0.828125 12.9375 0.828125 C 9.488281 0.828125 6.691406 -0.421875 4.546875 -2.921875 C 2.410156 -5.421875 1.34375 -8.535156 1.34375 -12.265625 C 1.34375 -14.640625 1.859375 -16.8125 2.890625 -18.78125 C 3.929688 -20.75 5.3125 -22.265625 7.03125 -23.328125 C 8.757812 -24.398438 10.675781 -24.9375 12.78125 -24.9375 C 14.539062 -24.9375 16.132812 -24.503906 17.5625 -23.640625 C 19 -22.785156 20.203125 -21.632812 21.171875 -20.1875 Z M 21.53125 -12.109375 C 21.53125 -14.734375 20.785156 -16.835938 19.296875 -18.421875 C 17.816406 -20.003906 15.921875 -20.796875 13.609375 -20.796875 C 11.429688 -20.796875 9.617188 -19.953125 8.171875 -18.265625 C 6.722656 -16.578125 6 -14.523438 6 -12.109375 C 6 -9.628906 6.722656 -7.539062 8.171875 -5.84375 C 9.617188 -4.15625 11.445312 -3.3125 13.65625 -3.3125 C 16.007812 -3.3125 17.910156 -4.128906 19.359375 -5.765625 C 20.804688 -7.410156 21.53125 -9.523438 21.53125 -12.109375 Z M 21.53125 -12.109375 "/></g></g></g><g fill="#e11f49" fill-opacity="1"><g transform="translate(288.428007, 203.249987)"><g><path d="M 25.5625 -24.21875 L 9.15625 -4.34375 L 24.890625 -4.34375 L 24.890625 0 L 0.109375 0 L 16.515625 -19.875 L 2.890625 -19.875 L 2.890625 -24.21875 Z M 25.5625 -24.21875 "/></g></g></g><g fill="#e11f49" fill-opacity="1"><g transform="translate(314.044254, 203.249987)"><g><path d="M 21.171875 -20.1875 L 21.265625 -20.1875 L 21.265625 -24.21875 L 25.921875 -24.21875 L 25.921875 0 L 21.265625 0 L 21.265625 -3.78125 L 21.171875 -3.78125 C 20.234375 -2.394531 19.066406 -1.28125 17.671875 -0.4375 C 16.273438 0.40625 14.695312 0.828125 12.9375 0.828125 C 9.488281 0.828125 6.691406 -0.421875 4.546875 -2.921875 C 2.410156 -5.421875 1.34375 -8.535156 1.34375 -12.265625 C 1.34375 -14.640625 1.859375 -16.8125 2.890625 -18.78125 C 3.929688 -20.75 5.3125 -22.265625 7.03125 -23.328125 C 8.757812 -24.398438 10.675781 -24.9375 12.78125 -24.9375 C 14.539062 -24.9375 16.132812 -24.503906 17.5625 -23.640625 C 19 -22.785156 20.203125 -21.632812 21.171875 -20.1875 Z M 21.53125 -12.109375 C 21.53125 -14.734375 20.785156 -16.835938 19.296875 -18.421875 C 17.816406 -20.003906 15.921875 -20.796875 13.609375 -20.796875 C 11.429688 -20.796875 9.617188 -19.953125 8.171875 -18.265625 C 6.722656 -16.578125 6 -14.523438 6 -12.109375 C 6 -9.628906 6.722656 -7.539062 8.171875 -5.84375 C 9.617188 -4.15625 11.445312 -3.3125 13.65625 -3.3125 C 16.007812 -3.3125 17.910156 -4.128906 19.359375 -5.765625 C 20.804688 -7.410156 21.53125 -9.523438 21.53125 -12.109375 Z M 21.53125 -12.109375 "/></g></g></g><g fill="#000000" fill-opacity="1"><g transform="translate(80.169278, 235.293793)"><g><path d="M 3.421875 -5.984375 L 3.421875 -1.234375 L 9.890625 -1.234375 L 9.890625 0 L 1.921875 0 L 1.921875 -12.703125 L 9.75 -12.703125 L 9.75 -11.46875 L 3.421875 -11.46875 L 3.421875 -7.21875 L 9 -7.21875 L 9 -5.984375 Z M 3.421875 -5.984375 "/></g></g></g><g fill="#000000" fill-opacity="1"><g transform="translate(92.961688, 235.293793)"><g><path d="M 5.84375 -5.53125 L 0.90625 -5.53125 L 0.90625 -6.796875 L 5.84375 -6.796875 Z M 5.84375 -5.53125 "/></g></g></g><g fill="#000000" fill-opacity="1"><g transform="translate(101.767193, 235.293793)"><g><path d="M 1.921875 0 L 1.921875 -12.703125 L 6.734375 -12.703125 C 7.515625 -12.703125 8.175781 -12.578125 8.71875 -12.328125 C 9.269531 -12.078125 9.679688 -11.722656 9.953125 -11.265625 C 10.222656 -10.804688 10.359375 -10.257812 10.359375 -9.625 C 10.359375 -9.070312 10.207031 -8.570312 9.90625 -8.125 C 9.613281 -7.675781 9.191406 -7.328125 8.640625 -7.078125 L 8.640625 -6.90625 C 9.484375 -6.695312 10.125 -6.316406 10.5625 -5.765625 C 11 -5.210938 11.21875 -4.519531 11.21875 -3.6875 C 11.21875 -2.5 10.867188 -1.585938 10.171875 -0.953125 C 9.484375 -0.316406 8.457031 0 7.09375 0 Z M 6.671875 -7.375 C 7.367188 -7.375 7.910156 -7.554688 8.296875 -7.921875 C 8.679688 -8.285156 8.875 -8.789062 8.875 -9.4375 C 8.875 -10.113281 8.6875 -10.617188 8.3125 -10.953125 C 7.945312 -11.296875 7.398438 -11.46875 6.671875 -11.46875 L 3.421875 -11.46875 L 3.421875 -7.375 Z M 6.984375 -1.234375 C 8.796875 -1.234375 9.703125 -2.050781 9.703125 -3.6875 C 9.703125 -5.320312 8.796875 -6.140625 6.984375 -6.140625 L 3.421875 -6.140625 L 3.421875 -1.234375 Z M 6.984375 -1.234375 "/></g></g></g><g fill="#000000" fill-opacity="1"><g transform="translate(116.053605, 235.293793)"><g><path d="M 5.5 0.1875 C 4.59375 0.1875 3.804688 -0.00390625 3.140625 -0.390625 C 2.472656 -0.773438 1.957031 -1.335938 1.59375 -2.078125 C 1.226562 -2.828125 1.046875 -3.726562 1.046875 -4.78125 C 1.046875 -5.84375 1.226562 -6.75 1.59375 -7.5 C 1.957031 -8.25 2.472656 -8.8125 3.140625 -9.1875 C 3.804688 -9.570312 4.59375 -9.765625 5.5 -9.765625 C 6.40625 -9.765625 7.191406 -9.570312 7.859375 -9.1875 C 8.523438 -8.8125 9.039062 -8.25 9.40625 -7.5 C 9.769531 -6.75 9.953125 -5.84375 9.953125 -4.78125 C 9.953125 -3.726562 9.769531 -2.828125 9.40625 -2.078125 C 9.039062 -1.335938 8.523438 -0.773438 7.859375 -0.390625 C 7.191406 -0.00390625 6.40625 0.1875 5.5 0.1875 Z M 5.5 -1.09375 C 6.457031 -1.09375 7.1875 -1.390625 7.6875 -1.984375 C 8.195312 -2.585938 8.453125 -3.519531 8.453125 -4.78125 C 8.453125 -6.050781 8.195312 -6.988281 7.6875 -7.59375 C 7.1875 -8.195312 6.457031 -8.5 5.5 -8.5 C 4.539062 -8.5 3.804688 -8.195312 3.296875 -7.59375 C 2.785156 -6.988281 2.53125 -6.050781 2.53125 -4.78125 C 2.53125 -3.519531 2.785156 -2.585938 3.296875 -1.984375 C 3.804688 -1.390625 4.539062 -1.09375 5.5 -1.09375 Z M 5.5 -1.09375 "/></g></g></g><g fill="#000000" fill-opacity="1"><g transform="translate(129.115284, 235.293793)"><g><path d="M 5.5 0.1875 C 4.59375 0.1875 3.804688 -0.00390625 3.140625 -0.390625 C 2.472656 -0.773438 1.957031 -1.335938 1.59375 -2.078125 C 1.226562 -2.828125 1.046875 -3.726562 1.046875 -4.78125 C 1.046875 -5.84375 1.226562 -6.75 1.59375 -7.5 C 1.957031 -8.25 2.472656 -8.8125 3.140625 -9.1875 C 3.804688 -9.570312 4.59375 -9.765625 5.5 -9.765625 C 6.40625 -9.765625 7.191406 -9.570312 7.859375 -9.1875 C 8.523438 -8.8125 9.039062 -8.25 9.40625 -7.5 C 9.769531 -6.75 9.953125 -5.84375 9.953125 -4.78125 C 9.953125 -3.726562 9.769531 -2.828125 9.40625 -2.078125 C 9.039062 -1.335938 8.523438 -0.773438 7.859375 -0.390625 C 7.191406 -0.00390625 6.40625 0.1875 5.5 0.1875 Z M 5.5 -1.09375 C 6.457031 -1.09375 7.1875 -1.390625 7.6875 -1.984375 C 8.195312 -2.585938 8.453125 -3.519531 8.453125 -4.78125 C 8.453125 -6.050781 8.195312 -6.988281 7.6875 -7.59375 C 7.1875 -8.195312 6.457031 -8.5 5.5 -8.5 C 4.539062 -8.5 3.804688 -8.195312 3.296875 -7.59375 C 2.785156 -6.988281 2.53125 -6.050781 2.53125 -4.78125 C 2.53125 -3.519531 2.785156 -2.585938 3.296875 -1.984375 C 3.804688 -1.390625 4.539062 -1.09375 5.5 -1.09375 Z M 5.5 -1.09375 "/></g></g></g><g fill="#000000" fill-opacity="1"><g transform="translate(142.176963, 235.293793)"><g><path d="M 1.671875 0 L 1.671875 -13.4375 L 3.078125 -13.4375 L 3.078125 -5.59375 L 3.3125 -5.59375 L 6.875 -9.578125 L 8.375 -9.578125 L 8.375 -9.390625 L 4.578125 -5.078125 L 8.734375 -0.21875 L 8.734375 0 L 7.15625 0 L 3.3125 -4.4375 L 3.078125 -4.4375 L 3.078125 0 Z M 1.671875 0 "/></g></g></g><g fill="#000000" fill-opacity="1"><g transform="translate(153.153986, 235.293793)"><g><path d="M 4.375 0.1875 C 3.769531 0.1875 3.207031 0.109375 2.6875 -0.046875 C 2.175781 -0.210938 1.742188 -0.429688 1.390625 -0.703125 C 1.046875 -0.984375 0.800781 -1.300781 0.65625 -1.65625 L 1.484375 -2.515625 L 1.671875 -2.515625 C 1.984375 -2.046875 2.359375 -1.691406 2.796875 -1.453125 C 3.234375 -1.210938 3.757812 -1.09375 4.375 -1.09375 C 5.082031 -1.09375 5.617188 -1.226562 5.984375 -1.5 C 6.347656 -1.769531 6.53125 -2.15625 6.53125 -2.65625 C 6.53125 -3.03125 6.414062 -3.335938 6.1875 -3.578125 C 5.96875 -3.828125 5.613281 -4.015625 5.125 -4.140625 L 3.5 -4.53125 C 2.632812 -4.738281 2.003906 -5.066406 1.609375 -5.515625 C 1.210938 -5.972656 1.015625 -6.535156 1.015625 -7.203125 C 1.015625 -7.722656 1.144531 -8.175781 1.40625 -8.5625 C 1.675781 -8.945312 2.0625 -9.242188 2.5625 -9.453125 C 3.0625 -9.660156 3.660156 -9.765625 4.359375 -9.765625 C 5.234375 -9.765625 5.921875 -9.640625 6.421875 -9.390625 C 6.929688 -9.148438 7.332031 -8.8125 7.625 -8.375 L 6.828125 -7.59375 L 6.640625 -7.59375 C 6.335938 -7.9375 6.003906 -8.1875 5.640625 -8.34375 C 5.273438 -8.5 4.847656 -8.578125 4.359375 -8.578125 C 3.722656 -8.578125 3.234375 -8.460938 2.890625 -8.234375 C 2.554688 -8.015625 2.390625 -7.691406 2.390625 -7.265625 C 2.390625 -6.878906 2.507812 -6.566406 2.75 -6.328125 C 2.988281 -6.085938 3.40625 -5.894531 4 -5.75 L 5.59375 -5.375 C 6.425781 -5.175781 7.023438 -4.847656 7.390625 -4.390625 C 7.765625 -3.929688 7.953125 -3.359375 7.953125 -2.671875 C 7.953125 -2.109375 7.816406 -1.609375 7.546875 -1.171875 C 7.285156 -0.742188 6.882812 -0.410156 6.34375 -0.171875 C 5.800781 0.0664062 5.144531 0.1875 4.375 0.1875 Z M 4.375 0.1875 "/></g></g></g><g fill="#000000" fill-opacity="1"><g transform="translate(164.078893, 235.293793)"><g/></g></g><g fill="#000000" fill-opacity="1"><g transform="translate(170.504418, 235.293793)"><g><path d="M 5.3125 0.1875 C 4.4375 0.1875 3.664062 0.03125 3 -0.28125 C 2.34375 -0.59375 1.835938 -1.035156 1.484375 -1.609375 C 1.128906 -2.191406 0.953125 -2.863281 0.953125 -3.625 C 0.953125 -4.519531 1.175781 -5.242188 1.625 -5.796875 C 2.070312 -6.359375 2.726562 -6.816406 3.59375 -7.171875 L 3.625 -7.359375 C 3.195312 -7.878906 2.894531 -8.34375 2.71875 -8.75 C 2.550781 -9.164062 2.46875 -9.625 2.46875 -10.125 C 2.46875 -10.65625 2.585938 -11.128906 2.828125 -11.546875 C 3.078125 -11.960938 3.4375 -12.289062 3.90625 -12.53125 C 4.375 -12.769531 4.925781 -12.890625 5.5625 -12.890625 C 6.164062 -12.890625 6.691406 -12.785156 7.140625 -12.578125 C 7.585938 -12.367188 7.929688 -12.070312 8.171875 -11.6875 C 8.410156 -11.300781 8.53125 -10.84375 8.53125 -10.3125 C 8.53125 -9.53125 8.289062 -8.859375 7.8125 -8.296875 C 7.332031 -7.742188 6.617188 -7.289062 5.671875 -6.9375 L 5.640625 -6.75 L 8.640625 -2.8125 C 8.867188 -3.226562 9.023438 -3.71875 9.109375 -4.28125 C 9.203125 -4.851562 9.25 -5.492188 9.25 -6.203125 L 9.25 -6.46875 L 10.53125 -6.46875 C 10.53125 -4.457031 10.175781 -2.898438 9.46875 -1.796875 C 9.71875 -1.523438 9.925781 -1.34375 10.09375 -1.25 C 10.257812 -1.15625 10.4375 -1.109375 10.625 -1.109375 C 10.800781 -1.109375 10.96875 -1.132812 11.125 -1.1875 L 11.25 -1.140625 L 11.46875 -0.109375 C 11.363281 -0.046875 11.222656 0.00390625 11.046875 0.046875 C 10.878906 0.0859375 10.707031 0.109375 10.53125 0.109375 C 10.125 0.109375 9.769531 0.0234375 9.46875 -0.140625 C 9.164062 -0.304688 8.894531 -0.5625 8.65625 -0.90625 L 8.484375 -0.90625 C 7.765625 -0.175781 6.707031 0.1875 5.3125 0.1875 Z M 4.90625 -7.734375 C 5.664062 -8.054688 6.226562 -8.40625 6.59375 -8.78125 C 6.96875 -9.164062 7.15625 -9.65625 7.15625 -10.25 C 7.15625 -10.695312 7.015625 -11.050781 6.734375 -11.3125 C 6.453125 -11.582031 6.0625 -11.71875 5.5625 -11.71875 C 5.0625 -11.71875 4.65625 -11.570312 4.34375 -11.28125 C 4.039062 -10.988281 3.890625 -10.59375 3.890625 -10.09375 C 3.890625 -9.71875 3.957031 -9.363281 4.09375 -9.03125 C 4.238281 -8.707031 4.507812 -8.273438 4.90625 -7.734375 Z M 5.375 -1.09375 C 6.332031 -1.09375 7.125 -1.332031 7.75 -1.8125 L 4.21875 -6.390625 C 3.65625 -6.117188 3.222656 -5.769531 2.921875 -5.34375 C 2.617188 -4.914062 2.46875 -4.375 2.46875 -3.71875 C 2.46875 -3.15625 2.585938 -2.675781 2.828125 -2.28125 C 3.066406 -1.882812 3.40625 -1.585938 3.84375 -1.390625 C 4.28125 -1.191406 4.789062 -1.09375 5.375 -1.09375 Z M 5.375 -1.09375 "/></g></g></g><g fill="#000000" fill-opacity="1"><g transform="translate(184.365209, 235.293793)"><g/></g></g><g fill="#000000" fill-opacity="1"><g transform="translate(190.790735, 235.293793)"><g><path d="M 3.421875 -12.703125 L 3.421875 -1.234375 L 9.53125 -1.234375 L 9.53125 0 L 1.921875 0 L 1.921875 -12.703125 Z M 3.421875 -12.703125 "/></g></g></g><g fill="#000000" fill-opacity="1"><g transform="translate(202.923005, 235.293793)"><g><path d="M 2.375 -11.4375 C 2.070312 -11.4375 1.828125 -11.53125 1.640625 -11.71875 C 1.453125 -11.90625 1.359375 -12.144531 1.359375 -12.4375 C 1.359375 -12.726562 1.453125 -12.96875 1.640625 -13.15625 C 1.828125 -13.34375 2.070312 -13.4375 2.375 -13.4375 C 2.675781 -13.4375 2.921875 -13.34375 3.109375 -13.15625 C 3.296875 -12.96875 3.390625 -12.726562 3.390625 -12.4375 C 3.390625 -12.144531 3.296875 -11.90625 3.109375 -11.71875 C 2.921875 -11.53125 2.675781 -11.4375 2.375 -11.4375 Z M 1.671875 0 L 1.671875 -9.578125 L 3.078125 -9.578125 L 3.078125 0 Z M 1.671875 0 "/></g></g></g><g fill="#000000" fill-opacity="1"><g transform="translate(209.739403, 235.293793)"><g><path d="M 6.484375 -1.515625 L 6.9375 -0.5 C 6.707031 -0.28125 6.40625 -0.113281 6.03125 0 C 5.664062 0.125 5.269531 0.1875 4.84375 0.1875 C 3.019531 0.1875 2.109375 -0.738281 2.109375 -2.59375 L 2.109375 -8.421875 L 0.4375 -8.421875 L 0.4375 -9.59375 L 2.109375 -9.59375 L 2.109375 -11.625 L 3.515625 -11.859375 L 3.515625 -9.59375 L 6.609375 -9.59375 L 6.609375 -8.421875 L 3.515625 -8.421875 L 3.515625 -2.734375 C 3.515625 -1.640625 3.992188 -1.09375 4.953125 -1.09375 C 5.472656 -1.09375 5.921875 -1.234375 6.296875 -1.515625 Z M 6.484375 -1.515625 "/></g></g></g><g fill="#000000" fill-opacity="1"><g transform="translate(219.100818, 235.293793)"><g><path d="M 9.140625 -4.46875 L 2.546875 -4.46875 C 2.585938 -3.300781 2.863281 -2.445312 3.375 -1.90625 C 3.894531 -1.363281 4.609375 -1.09375 5.515625 -1.09375 C 6.203125 -1.09375 6.753906 -1.210938 7.171875 -1.453125 C 7.585938 -1.691406 7.914062 -2.070312 8.15625 -2.59375 L 8.328125 -2.59375 L 9.25 -2.046875 C 8.976562 -1.359375 8.535156 -0.8125 7.921875 -0.40625 C 7.304688 -0.0078125 6.503906 0.1875 5.515625 0.1875 C 4.585938 0.1875 3.789062 0.00390625 3.125 -0.359375 C 2.457031 -0.722656 1.941406 -1.273438 1.578125 -2.015625 C 1.222656 -2.765625 1.046875 -3.6875 1.046875 -4.78125 C 1.046875 -5.875 1.234375 -6.789062 1.609375 -7.53125 C 1.992188 -8.28125 2.515625 -8.835938 3.171875 -9.203125 C 3.828125 -9.578125 4.582031 -9.765625 5.4375 -9.765625 C 6.65625 -9.765625 7.609375 -9.414062 8.296875 -8.71875 C 8.992188 -8.03125 9.34375 -7.003906 9.34375 -5.640625 C 9.34375 -5.109375 9.332031 -4.753906 9.3125 -4.578125 Z M 7.953125 -5.640625 C 7.929688 -6.660156 7.703125 -7.398438 7.265625 -7.859375 C 6.835938 -8.328125 6.226562 -8.5625 5.4375 -8.5625 C 4.59375 -8.5625 3.929688 -8.328125 3.453125 -7.859375 C 2.972656 -7.398438 2.679688 -6.660156 2.578125 -5.640625 Z M 7.953125 -5.640625 "/></g></g></g><g fill="#000000" fill-opacity="1"><g transform="translate(231.380751, 235.293793)"><g><path d="M 1.671875 0 L 1.671875 -9.578125 L 3.015625 -9.578125 L 3.015625 -8.078125 L 3.203125 -8.03125 C 3.640625 -9.125 4.476562 -9.671875 5.71875 -9.671875 C 6.375 -9.671875 6.863281 -9.550781 7.1875 -9.3125 L 6.828125 -8.109375 L 6.640625 -8.078125 C 6.285156 -8.253906 5.894531 -8.34375 5.46875 -8.34375 C 4.695312 -8.34375 4.101562 -8.054688 3.6875 -7.484375 C 3.28125 -6.910156 3.078125 -5.984375 3.078125 -4.703125 L 3.078125 0 Z M 1.671875 0 "/></g></g></g><g fill="#000000" fill-opacity="1"><g transform="translate(240.846399, 235.293793)"><g><path d="M 3.953125 0.1875 C 3.003906 0.1875 2.265625 -0.0546875 1.734375 -0.546875 C 1.210938 -1.046875 0.953125 -1.753906 0.953125 -2.671875 C 0.953125 -3.234375 1.066406 -3.707031 1.296875 -4.09375 C 1.535156 -4.488281 1.898438 -4.8125 2.390625 -5.0625 C 2.878906 -5.3125 3.519531 -5.5 4.3125 -5.625 C 5.007812 -5.75 5.539062 -5.878906 5.90625 -6.015625 C 6.269531 -6.160156 6.515625 -6.320312 6.640625 -6.5 C 6.765625 -6.6875 6.828125 -6.914062 6.828125 -7.1875 C 6.828125 -7.625 6.675781 -7.957031 6.375 -8.1875 C 6.070312 -8.414062 5.59375 -8.53125 4.9375 -8.53125 C 4.3125 -8.53125 3.773438 -8.410156 3.328125 -8.171875 C 2.890625 -7.929688 2.488281 -7.570312 2.125 -7.09375 L 1.953125 -7.09375 L 1.25 -8.078125 C 1.65625 -8.597656 2.171875 -9.007812 2.796875 -9.3125 C 3.421875 -9.613281 4.132812 -9.765625 4.9375 -9.765625 C 6.0625 -9.765625 6.890625 -9.515625 7.421875 -9.015625 C 7.960938 -8.523438 8.234375 -7.84375 8.234375 -6.96875 L 8.234375 -1.890625 C 8.234375 -1.359375 8.460938 -1.09375 8.921875 -1.09375 C 9.066406 -1.09375 9.207031 -1.117188 9.34375 -1.171875 L 9.46875 -1.125 L 9.640625 -0.140625 C 9.535156 -0.078125 9.394531 -0.03125 9.21875 0 C 9.050781 0.0390625 8.878906 0.0625 8.703125 0.0625 C 8.171875 0.0625 7.769531 -0.0507812 7.5 -0.28125 C 7.226562 -0.507812 7.054688 -0.847656 6.984375 -1.296875 L 6.796875 -1.328125 C 6.523438 -0.816406 6.15625 -0.4375 5.6875 -0.1875 C 5.226562 0.0625 4.648438 0.1875 3.953125 0.1875 Z M 4.265625 -0.953125 C 4.796875 -0.953125 5.253906 -1.070312 5.640625 -1.3125 C 6.035156 -1.5625 6.335938 -1.910156 6.546875 -2.359375 C 6.753906 -2.804688 6.859375 -3.320312 6.859375 -3.90625 L 6.859375 -5.125 L 6.703125 -5.15625 C 6.484375 -5 6.21875 -4.867188 5.90625 -4.765625 C 5.601562 -4.671875 5.175781 -4.582031 4.625 -4.5 C 4.070312 -4.425781 3.628906 -4.3125 3.296875 -4.15625 C 2.972656 -4 2.738281 -3.800781 2.59375 -3.5625 C 2.457031 -3.320312 2.390625 -3.023438 2.390625 -2.671875 C 2.390625 -2.109375 2.554688 -1.679688 2.890625 -1.390625 C 3.222656 -1.097656 3.679688 -0.953125 4.265625 -0.953125 Z M 4.265625 -0.953125 "/></g></g></g><g fill="#000000" fill-opacity="1"><g transform="translate(252.82232, 235.293793)"><g><path d="M 6.484375 -1.515625 L 6.9375 -0.5 C 6.707031 -0.28125 6.40625 -0.113281 6.03125 0 C 5.664062 0.125 5.269531 0.1875 4.84375 0.1875 C 3.019531 0.1875 2.109375 -0.738281 2.109375 -2.59375 L 2.109375 -8.421875 L 0.4375 -8.421875 L 0.4375 -9.59375 L 2.109375 -9.59375 L 2.109375 -11.625 L 3.515625 -11.859375 L 3.515625 -9.59375 L 6.609375 -9.59375 L 6.609375 -8.421875 L 3.515625 -8.421875 L 3.515625 -2.734375 C 3.515625 -1.640625 3.992188 -1.09375 4.953125 -1.09375 C 5.472656 -1.09375 5.921875 -1.234375 6.296875 -1.515625 Z M 6.484375 -1.515625 "/></g></g></g><g fill="#000000" fill-opacity="1"><g transform="translate(262.183735, 235.293793)"><g><path d="M 4.734375 0.1875 C 3.648438 0.1875 2.84375 -0.0976562 2.3125 -0.671875 C 1.78125 -1.242188 1.515625 -2.085938 1.515625 -3.203125 L 1.515625 -9.578125 L 2.9375 -9.578125 L 2.9375 -3.234375 C 2.9375 -1.773438 3.617188 -1.046875 4.984375 -1.046875 C 5.859375 -1.046875 6.546875 -1.328125 7.046875 -1.890625 C 7.546875 -2.460938 7.796875 -3.390625 7.796875 -4.671875 L 7.796875 -9.578125 L 9.21875 -9.578125 L 9.21875 0 L 7.875 0 L 7.875 -1.5 L 7.703125 -1.546875 C 7.367188 -0.960938 6.972656 -0.523438 6.515625 -0.234375 C 6.054688 0.046875 5.460938 0.1875 4.734375 0.1875 Z M 4.734375 0.1875 "/></g></g></g><g fill="#000000" fill-opacity="1"><g transform="translate(275.132484, 235.293793)"><g><path d="M 1.671875 0 L 1.671875 -9.578125 L 3.015625 -9.578125 L 3.015625 -8.078125 L 3.203125 -8.03125 C 3.640625 -9.125 4.476562 -9.671875 5.71875 -9.671875 C 6.375 -9.671875 6.863281 -9.550781 7.1875 -9.3125 L 6.828125 -8.109375 L 6.640625 -8.078125 C 6.285156 -8.253906 5.894531 -8.34375 5.46875 -8.34375 C 4.695312 -8.34375 4.101562 -8.054688 3.6875 -7.484375 C 3.28125 -6.910156 3.078125 -5.984375 3.078125 -4.703125 L 3.078125 0 Z M 1.671875 0 "/></g></g></g><g fill="#000000" fill-opacity="1"><g transform="translate(284.59812, 235.293793)"><g><path d="M 9.140625 -4.46875 L 2.546875 -4.46875 C 2.585938 -3.300781 2.863281 -2.445312 3.375 -1.90625 C 3.894531 -1.363281 4.609375 -1.09375 5.515625 -1.09375 C 6.203125 -1.09375 6.753906 -1.210938 7.171875 -1.453125 C 7.585938 -1.691406 7.914062 -2.070312 8.15625 -2.59375 L 8.328125 -2.59375 L 9.25 -2.046875 C 8.976562 -1.359375 8.535156 -0.8125 7.921875 -0.40625 C 7.304688 -0.0078125 6.503906 0.1875 5.515625 0.1875 C 4.585938 0.1875 3.789062 0.00390625 3.125 -0.359375 C 2.457031 -0.722656 1.941406 -1.273438 1.578125 -2.015625 C 1.222656 -2.765625 1.046875 -3.6875 1.046875 -4.78125 C 1.046875 -5.875 1.234375 -6.789062 1.609375 -7.53125 C 1.992188 -8.28125 2.515625 -8.835938 3.171875 -9.203125 C 3.828125 -9.578125 4.582031 -9.765625 5.4375 -9.765625 C 6.65625 -9.765625 7.609375 -9.414062 8.296875 -8.71875 C 8.992188 -8.03125 9.34375 -7.003906 9.34375 -5.640625 C 9.34375 -5.109375 9.332031 -4.753906 9.3125 -4.578125 Z M 7.953125 -5.640625 C 7.929688 -6.660156 7.703125 -7.398438 7.265625 -7.859375 C 6.835938 -8.328125 6.226562 -8.5625 5.4375 -8.5625 C 4.59375 -8.5625 3.929688 -8.328125 3.453125 -7.859375 C 2.972656 -7.398438 2.679688 -6.660156 2.578125 -5.640625 Z M 7.953125 -5.640625 "/></g></g></g></svg>