<svg xmlns="http://www.w3.org/2000/svg" xmlns:xlink="http://www.w3.org/1999/xlink" width="500" zoomAndPan="magnify" viewBox="0 0 375 374.999991" height="500" preserveAspectRatio="xMidYMid meet" version="1.0"><defs><g/><clipPath id="3841c28712"><path d="M 10.578125 145.996094 L 364.578125 145.996094 L 364.578125 253.371094 L 10.578125 253.371094 Z M 10.578125 145.996094 " clip-rule="nonzero"/></clipPath><clipPath id="b6df36570c"><path d="M 27.828125 145.996094 L 347.171875 145.996094 C 351.746094 145.996094 356.136719 147.8125 359.371094 151.046875 C 362.605469 154.28125 364.421875 158.671875 364.421875 163.246094 L 364.421875 236.121094 C 364.421875 240.695312 362.605469 245.082031 359.371094 248.316406 C 356.136719 251.554688 351.746094 253.371094 347.171875 253.371094 L 27.828125 253.371094 C 23.253906 253.371094 18.863281 251.554688 15.628906 248.316406 C 12.394531 245.082031 10.578125 240.695312 10.578125 236.121094 L 10.578125 163.246094 C 10.578125 158.671875 12.394531 154.28125 15.628906 151.046875 C 18.863281 147.8125 23.253906 145.996094 27.828125 145.996094 Z M 27.828125 145.996094 " clip-rule="nonzero"/></clipPath></defs><g clip-path="url(#3841c28712)"><g clip-path="url(#b6df36570c)"><path fill="#ffffff" d="M 10.578125 145.996094 L 364.578125 145.996094 L 364.578125 253.371094 L 10.578125 253.371094 Z M 10.578125 145.996094 " fill-opacity="1" fill-rule="nonzero"/></g></g><g fill="#851d19" fill-opacity="1"><g transform="translate(47.728898, 208.986845)"><g><path d="M 32.21875 -48.625 C 32.5 -48.539062 32.765625 -48.390625 33.015625 -48.171875 C 33.273438 -47.953125 33.472656 -47.691406 33.609375 -47.390625 C 33.753906 -47.085938 33.828125 -46.78125 33.828125 -46.46875 C 33.828125 -45.507812 33.289062 -44.8125 32.21875 -44.375 C 30.976562 -43.851562 29.019531 -43.570312 26.34375 -43.53125 C 27.78125 -36.144531 28.222656 -26.425781 27.671875 -14.375 C 27.671875 -14.09375 27.648438 -13.34375 27.609375 -12.125 C 27.566406 -10.90625 27.523438 -10.085938 27.484375 -9.671875 C 27.441406 -9.253906 27.390625 -8.492188 27.328125 -7.390625 C 27.273438 -6.296875 27.21875 -5.488281 27.15625 -4.96875 C 27.09375 -4.445312 27 -3.707031 26.875 -2.75 C 26.757812 -1.789062 26.625 -0.984375 26.46875 -0.328125 C 26.3125 0.328125 26.117188 1.050781 25.890625 1.84375 C 25.671875 2.644531 25.441406 3.390625 25.203125 4.078125 C 23.929688 7.503906 22.335938 10.015625 20.421875 11.609375 C 17.785156 13.804688 14.789062 14.925781 11.4375 14.96875 C 9.519531 15.007812 7.648438 14.585938 5.828125 13.703125 C 4.015625 12.828125 2.492188 11.648438 1.265625 10.171875 C -0.929688 7.503906 -1.671875 4.351562 -0.953125 0.71875 C -0.628906 -0.957031 0.132812 -2.34375 1.34375 -3.4375 C 2.5625 -4.539062 3.988281 -5.09375 5.625 -5.09375 C 7.382812 -5.050781 8.851562 -4.410156 10.03125 -3.171875 C 11.207031 -1.929688 11.515625 -0.472656 10.953125 1.203125 C 10.753906 1.878906 10.316406 2.316406 9.640625 2.515625 C 8.960938 2.710938 8.34375 2.640625 7.78125 2.296875 C 7.226562 1.960938 6.988281 1.4375 7.0625 0.71875 C 7.0625 0.4375 7.050781 0.207031 7.03125 0.03125 C 7.019531 -0.144531 6.960938 -0.300781 6.859375 -0.4375 C 6.753906 -0.582031 6.625 -0.691406 6.46875 -0.765625 C 6.3125 -0.847656 6.09375 -0.910156 5.8125 -0.953125 C 4.851562 -1.078125 4.113281 -0.757812 3.59375 0 C 2.914062 1 2.625 2.15625 2.71875 3.46875 C 2.820312 4.789062 3.210938 5.953125 3.890625 6.953125 C 5.492188 9.097656 7.867188 9.894531 11.015625 9.34375 C 11.660156 9.21875 12.257812 9.054688 12.8125 8.859375 C 12.8125 8.859375 12.859375 8.835938 12.953125 8.796875 C 13.054688 8.753906 13.148438 8.722656 13.234375 8.703125 C 13.316406 8.691406 13.359375 8.6875 13.359375 8.6875 C 13.597656 8.5625 13.796875 8.457031 13.953125 8.375 C 14.191406 8.257812 14.429688 8.125 14.671875 7.96875 C 14.671875 7.96875 14.707031 7.9375 14.78125 7.875 C 14.863281 7.8125 14.9375 7.757812 15 7.71875 C 15.0625 7.675781 15.09375 7.640625 15.09375 7.609375 C 15.40625 7.367188 15.664062 7.128906 15.875 6.890625 C 15.875 6.890625 15.921875 6.835938 16.015625 6.734375 C 16.117188 6.640625 16.195312 6.550781 16.25 6.46875 C 16.3125 6.382812 16.34375 6.34375 16.34375 6.34375 C 16.507812 6.101562 16.609375 5.960938 16.640625 5.921875 C 16.960938 5.484375 17.265625 5.023438 17.546875 4.546875 C 17.660156 4.265625 17.859375 3.847656 18.140625 3.296875 C 18.140625 3.296875 18.160156 3.253906 18.203125 3.171875 C 18.203125 3.171875 18.222656 3.128906 18.265625 3.046875 C 18.265625 2.972656 18.300781 2.84375 18.375 2.65625 C 18.457031 2.476562 18.519531 2.351562 18.5625 2.28125 C 19.164062 0.4375 19.664062 -1.800781 20.0625 -4.4375 C 20.101562 -4.507812 20.125 -4.566406 20.125 -4.609375 C 20.125 -4.804688 20.144531 -4.925781 20.1875 -4.96875 C 20.21875 -5.289062 20.234375 -5.59375 20.234375 -5.875 C 20.316406 -6.382812 20.378906 -6.960938 20.421875 -7.609375 C 20.578125 -9.203125 20.675781 -10.238281 20.71875 -10.71875 C 21.082031 -14.945312 21.363281 -18.757812 21.5625 -22.15625 C 21.632812 -23.507812 21.691406 -24.90625 21.734375 -26.34375 C 21.773438 -27.78125 21.796875 -29.242188 21.796875 -30.734375 C 21.796875 -32.234375 21.785156 -33.59375 21.765625 -34.8125 C 21.742188 -36.03125 21.734375 -37.488281 21.734375 -39.1875 C 21.734375 -40.882812 21.734375 -42.269531 21.734375 -43.34375 C 20.140625 -43.3125 18.582031 -43.273438 17.0625 -43.234375 C 13.394531 -43.148438 10.757812 -43.085938 9.15625 -43.046875 C 8.882812 -43.003906 8.285156 -42.941406 7.359375 -42.859375 C 6.441406 -42.785156 5.703125 -42.738281 5.140625 -42.71875 C 4.585938 -42.695312 3.960938 -42.765625 3.265625 -42.921875 C 2.566406 -43.085938 2.019531 -43.347656 1.625 -43.703125 C 1.144531 -44.265625 0.921875 -44.84375 0.953125 -45.4375 C 0.992188 -46.039062 1.21875 -46.625 1.625 -47.1875 C 1.738281 -47.34375 1.875 -47.476562 2.03125 -47.59375 C 2.195312 -47.71875 2.378906 -47.816406 2.578125 -47.890625 C 2.773438 -47.972656 2.960938 -48.046875 3.140625 -48.109375 C 3.328125 -48.171875 3.546875 -48.210938 3.796875 -48.234375 C 4.054688 -48.253906 4.265625 -48.269531 4.421875 -48.28125 C 4.585938 -48.300781 4.800781 -48.3125 5.0625 -48.3125 C 5.320312 -48.3125 5.53125 -48.332031 5.6875 -48.375 C 6.289062 -48.414062 7.507812 -48.457031 9.34375 -48.5 C 11.132812 -48.582031 13.707031 -48.640625 17.0625 -48.671875 C 21.53125 -48.753906 24.1875 -48.796875 25.03125 -48.796875 C 25.382812 -48.835938 25.851562 -48.867188 26.4375 -48.890625 C 27.019531 -48.910156 27.519531 -48.929688 27.9375 -48.953125 C 28.351562 -48.972656 28.820312 -48.984375 29.34375 -48.984375 C 29.863281 -48.984375 30.363281 -48.953125 30.84375 -48.890625 C 31.320312 -48.828125 31.78125 -48.738281 32.21875 -48.625 Z M 32.21875 -48.625 "/></g></g></g><g fill="#851d19" fill-opacity="1"><g transform="translate(78.500848, 208.986845)"><g><path d="M 25.625 -23.296875 C 26.019531 -23.648438 26.5 -23.6875 27.0625 -23.40625 C 27.625 -23.125 27.804688 -22.707031 27.609375 -22.15625 C 27.367188 -21.4375 27.023438 -20.675781 26.578125 -19.875 C 26.140625 -19.082031 25.628906 -18.273438 25.046875 -17.453125 C 24.472656 -16.628906 23.828125 -15.921875 23.109375 -15.328125 C 22.390625 -14.734375 21.648438 -14.253906 20.890625 -13.890625 C 20.140625 -13.535156 19.332031 -13.414062 18.46875 -13.53125 C 17.613281 -13.65625 16.804688 -14.054688 16.046875 -14.734375 C 15.328125 -15.367188 14.769531 -16.1875 14.375 -17.1875 C 12.894531 -15.707031 11.175781 -14.910156 9.21875 -14.796875 C 7.5 -14.671875 5.976562 -15.066406 4.65625 -15.984375 C 3.34375 -16.898438 2.40625 -18.066406 1.84375 -19.484375 C 1.289062 -20.898438 1.023438 -22.445312 1.046875 -24.125 C 1.066406 -25.800781 1.457031 -27.320312 2.21875 -28.6875 C 2.9375 -30.082031 3.992188 -31.207031 5.390625 -32.0625 C 6.785156 -32.914062 8.257812 -33.328125 9.8125 -33.296875 C 12.445312 -33.296875 14.566406 -32.335938 16.171875 -30.421875 C 16.285156 -30.691406 16.484375 -31.117188 16.765625 -31.703125 C 17.046875 -32.285156 17.242188 -32.695312 17.359375 -32.9375 C 17.640625 -33.570312 18.148438 -33.726562 18.890625 -33.40625 C 19.628906 -33.09375 19.878906 -32.59375 19.640625 -31.90625 C 18.835938 -29.394531 18.21875 -27.003906 17.78125 -24.734375 C 17.144531 -21.617188 17.285156 -19.363281 18.203125 -17.96875 C 18.484375 -17.519531 18.820312 -17.242188 19.21875 -17.140625 C 19.613281 -17.046875 20.007812 -17.117188 20.40625 -17.359375 C 20.8125 -17.597656 21.210938 -17.90625 21.609375 -18.28125 C 22.015625 -18.664062 22.425781 -19.128906 22.84375 -19.671875 C 23.257812 -20.210938 23.625 -20.710938 23.9375 -21.171875 C 24.257812 -21.628906 24.582031 -22.054688 24.90625 -22.453125 C 25.226562 -22.847656 25.46875 -23.128906 25.625 -23.296875 Z M 8.375 -20 C 8.695312 -19.84375 9.023438 -19.765625 9.359375 -19.765625 C 9.703125 -19.765625 10.015625 -19.800781 10.296875 -19.875 C 10.578125 -19.957031 10.859375 -20.085938 11.140625 -20.265625 C 11.421875 -20.441406 11.671875 -20.628906 11.890625 -20.828125 C 12.109375 -21.035156 12.347656 -21.285156 12.609375 -21.578125 C 12.867188 -21.878906 13.078125 -22.140625 13.234375 -22.359375 C 13.390625 -22.578125 13.566406 -22.847656 13.765625 -23.171875 C 13.804688 -23.410156 13.847656 -23.628906 13.890625 -23.828125 C 14.085938 -24.984375 14.425781 -26.222656 14.90625 -27.546875 C 12.675781 -29.378906 10.703125 -29.796875 8.984375 -28.796875 C 8.097656 -28.273438 7.4375 -27.519531 7 -26.53125 C 6.644531 -25.8125 6.445312 -25.007812 6.40625 -24.125 C 6.40625 -23.8125 6.40625 -23.515625 6.40625 -23.234375 C 6.40625 -23.066406 6.40625 -22.984375 6.40625 -22.984375 C 6.445312 -22.953125 6.46875 -22.875 6.46875 -22.75 C 6.507812 -22.550781 6.566406 -22.3125 6.640625 -22.03125 C 6.722656 -21.832031 6.785156 -21.691406 6.828125 -21.609375 C 7.222656 -20.816406 7.738281 -20.28125 8.375 -20 Z M 8.375 -20 "/></g></g></g><g fill="#851d19" fill-opacity="1"><g transform="translate(100.053189, 208.986845)"><g><path d="M 20.125 -23.171875 C 20.800781 -23.367188 21.269531 -23.148438 21.53125 -22.515625 C 21.789062 -21.878906 21.640625 -21.359375 21.078125 -20.953125 C 20.753906 -20.753906 19.816406 -20.316406 18.265625 -19.640625 C 17.859375 -19.484375 17.316406 -19.234375 16.640625 -18.890625 C 15.960938 -18.546875 15.523438 -18.335938 15.328125 -18.265625 C 15.046875 -18.140625 14.578125 -17.925781 13.921875 -17.625 C 13.265625 -17.332031 12.753906 -17.101562 12.390625 -16.9375 C 14.066406 -12.90625 14.148438 -9.710938 12.640625 -7.359375 C 11.992188 -6.328125 11.140625 -5.5625 10.078125 -5.0625 C 9.023438 -4.5625 7.960938 -4.488281 6.890625 -4.84375 C 5.847656 -5.164062 4.976562 -5.785156 4.28125 -6.703125 C 3.582031 -7.617188 3.171875 -8.617188 3.046875 -9.703125 C 2.734375 -12.378906 3.875 -14.851562 6.46875 -17.125 C 6.46875 -17.125 6.445312 -17.144531 6.40625 -17.1875 C 6.363281 -17.257812 6.34375 -17.316406 6.34375 -17.359375 C 5.707031 -18.597656 5.28125 -19.476562 5.0625 -20 C 4.84375 -20.519531 4.550781 -21.285156 4.1875 -22.296875 C 3.832031 -23.316406 3.59375 -24.25 3.46875 -25.09375 C 2.988281 -28.164062 3.6875 -30.617188 5.5625 -32.453125 C 6.363281 -33.253906 7.441406 -33.710938 8.796875 -33.828125 C 10.160156 -33.953125 11.320312 -33.710938 12.28125 -33.109375 C 13.15625 -32.585938 13.832031 -31.859375 14.3125 -30.921875 C 14.789062 -29.984375 14.96875 -29.015625 14.84375 -28.015625 C 14.6875 -26.898438 14.160156 -26.03125 13.265625 -25.40625 C 12.367188 -24.789062 11.398438 -24.785156 10.359375 -25.390625 C 9.753906 -25.828125 9.582031 -26.375 9.84375 -27.03125 C 10.101562 -27.6875 10.613281 -27.9375 11.375 -27.78125 C 11.851562 -27.664062 12.070312 -27.882812 12.03125 -28.4375 C 11.957031 -29.195312 11.679688 -29.773438 11.203125 -30.171875 C 11.117188 -30.210938 11.054688 -30.234375 11.015625 -30.234375 C 10.097656 -30.710938 9.398438 -30.351562 8.921875 -29.15625 C 8.765625 -28.757812 8.675781 -28.3125 8.65625 -27.8125 C 8.632812 -27.3125 8.648438 -26.851562 8.703125 -26.4375 C 8.765625 -26.019531 8.882812 -25.519531 9.0625 -24.9375 C 9.25 -24.351562 9.398438 -23.898438 9.515625 -23.578125 C 9.640625 -23.265625 9.820312 -22.832031 10.0625 -22.28125 C 10.132812 -22.113281 10.171875 -21.992188 10.171875 -21.921875 C 10.378906 -21.441406 10.679688 -20.78125 11.078125 -19.9375 C 12.316406 -20.539062 13.671875 -21.082031 15.140625 -21.5625 C 18.378906 -22.632812 20.039062 -23.171875 20.125 -23.171875 Z M 9.046875 -10.484375 C 9.117188 -11.117188 8.796875 -12.195312 8.078125 -13.71875 C 8.078125 -13.75 8.066406 -13.785156 8.046875 -13.828125 C 8.023438 -13.867188 8.015625 -13.910156 8.015625 -13.953125 C 6.859375 -12.628906 6.421875 -11.390625 6.703125 -10.234375 C 6.898438 -9.398438 7.304688 -9.03125 7.921875 -9.125 C 8.546875 -9.226562 8.921875 -9.679688 9.046875 -10.484375 Z M 9.046875 -10.484375 "/></g></g></g><g fill="#851d19" fill-opacity="1"><g transform="translate(115.798365, 208.986845)"><g><path d="M 24.484375 -24.0625 C 24.890625 -24.820312 25.476562 -25.007812 26.25 -24.625 C 27.03125 -24.25 27.34375 -23.664062 27.1875 -22.875 C 26.90625 -21.195312 26.203125 -19.628906 25.078125 -18.171875 C 23.960938 -16.710938 22.671875 -15.765625 21.203125 -15.328125 C 19.878906 -14.929688 18.597656 -15.019531 17.359375 -15.59375 C 16.117188 -16.175781 15.203125 -17.085938 14.609375 -18.328125 C 13.929688 -19.765625 13.789062 -21.539062 14.1875 -23.65625 C 14.269531 -23.96875 14.421875 -24.484375 14.640625 -25.203125 C 14.859375 -25.921875 14.988281 -26.441406 15.03125 -26.765625 C 15.070312 -27.085938 15.050781 -27.644531 14.96875 -28.4375 C 14.613281 -29.875 14.054688 -30.613281 13.296875 -30.65625 C 12.015625 -30.738281 10.992188 -29.582031 10.234375 -27.1875 C 9.597656 -25.1875 9.300781 -23.148438 9.34375 -21.078125 C 9.382812 -20.441406 9.441406 -19.742188 9.515625 -18.984375 C 9.597656 -18.222656 9.707031 -17.421875 9.84375 -16.578125 C 9.988281 -15.742188 10.082031 -15.046875 10.125 -14.484375 C 10.195312 -13.847656 9.992188 -13.289062 9.515625 -12.8125 C 9.035156 -12.332031 8.5 -12.035156 7.90625 -11.921875 C 7.269531 -11.835938 6.691406 -11.972656 6.171875 -12.328125 C 5.648438 -12.691406 5.289062 -13.171875 5.09375 -13.765625 C 3.289062 -19.441406 2.234375 -25.148438 1.921875 -30.890625 C 1.597656 -36.046875 1.914062 -41.097656 2.875 -46.046875 C 3.351562 -48.597656 4.210938 -50.394531 5.453125 -51.4375 C 6.367188 -52.1875 7.34375 -52.601562 8.375 -52.6875 C 9.414062 -52.769531 10.4375 -52.507812 11.4375 -51.90625 C 12.238281 -51.394531 12.804688 -50.660156 13.140625 -49.703125 C 13.484375 -48.742188 13.59375 -47.691406 13.46875 -46.546875 C 13.351562 -45.410156 13.175781 -44.375 12.9375 -43.4375 C 12.695312 -42.5 12.414062 -41.570312 12.09375 -40.65625 C 10.8125 -37.257812 9.175781 -34.601562 7.1875 -32.6875 C 7.226562 -31.726562 7.285156 -30.789062 7.359375 -29.875 C 7.960938 -30.875 8.769531 -31.757812 9.78125 -32.53125 C 10.800781 -33.3125 11.832031 -33.765625 12.875 -33.890625 C 13.03125 -33.929688 13.171875 -33.953125 13.296875 -33.953125 C 14.410156 -33.953125 15.445312 -33.617188 16.40625 -32.953125 C 17.363281 -32.296875 18.082031 -31.46875 18.5625 -30.46875 C 19.394531 -28.71875 19.492188 -26.484375 18.859375 -23.765625 C 18.742188 -22.210938 18.804688 -21.15625 19.046875 -20.59375 L 19.15625 -20.359375 C 19.195312 -20.273438 19.238281 -20.210938 19.28125 -20.171875 L 19.40625 -20.125 C 19.519531 -20.082031 19.675781 -20.039062 19.875 -20 C 19.875 -20 19.929688 -19.988281 20.046875 -19.96875 C 20.171875 -19.945312 20.253906 -19.9375 20.296875 -19.9375 C 20.421875 -19.9375 20.679688 -19.957031 21.078125 -20 L 21.25 -20 C 21.488281 -20.113281 21.75 -20.289062 22.03125 -20.53125 C 22.789062 -21.132812 23.609375 -22.3125 24.484375 -24.0625 Z M 8.328125 -47.90625 C 8.117188 -47.425781 7.957031 -46.664062 7.84375 -45.625 C 7.445312 -42.945312 7.207031 -40.191406 7.125 -37.359375 C 8.320312 -39.429688 9.179688 -41.566406 9.703125 -43.765625 C 10.460938 -46.921875 10.460938 -48.738281 9.703125 -49.21875 C 9.660156 -49.21875 9.597656 -49.195312 9.515625 -49.15625 C 9.273438 -49.070312 9.078125 -48.972656 8.921875 -48.859375 C 8.722656 -48.660156 8.523438 -48.34375 8.328125 -47.90625 Z M 8.328125 -47.90625 "/></g></g></g><g fill="#851d19" fill-opacity="1"><g transform="translate(137.171103, 208.986845)"><g><path d="M 26.40625 -22.75 C 26.757812 -23.1875 27.234375 -23.234375 27.828125 -22.890625 C 28.429688 -22.554688 28.632812 -22.113281 28.4375 -21.5625 C 27.957031 -20.363281 27.609375 -19.523438 27.390625 -19.046875 C 27.171875 -18.566406 26.800781 -17.851562 26.28125 -16.90625 C 25.757812 -15.96875 25.195312 -15.203125 24.59375 -14.609375 C 24 -14.015625 23.328125 -13.535156 22.578125 -13.171875 C 20.773438 -12.335938 19.035156 -12.347656 17.359375 -13.203125 C 15.679688 -14.054688 14.6875 -15.460938 14.375 -17.421875 C 14.289062 -17.859375 14.226562 -18.347656 14.1875 -18.890625 C 14.144531 -19.429688 14.132812 -19.878906 14.15625 -20.234375 C 14.175781 -20.597656 14.195312 -21.097656 14.21875 -21.734375 C 14.238281 -22.367188 14.25 -22.828125 14.25 -23.109375 C 14.332031 -23.828125 14.34375 -24.710938 14.28125 -25.765625 C 14.21875 -26.828125 14.007812 -27.695312 13.65625 -28.375 C 13.332031 -28.9375 12.941406 -29.296875 12.484375 -29.453125 C 12.023438 -29.617188 11.554688 -29.609375 11.078125 -29.421875 C 10.597656 -29.242188 10.140625 -28.914062 9.703125 -28.4375 C 8.660156 -27.476562 7.976562 -26.378906 7.65625 -25.140625 C 7.738281 -24.148438 7.78125 -23.492188 7.78125 -23.171875 C 7.820312 -22.609375 7.878906 -21.898438 7.953125 -21.046875 C 8.035156 -20.191406 8.109375 -19.453125 8.171875 -18.828125 C 8.234375 -18.210938 8.28125 -17.503906 8.3125 -16.703125 C 8.351562 -15.898438 8.359375 -15.179688 8.328125 -14.546875 C 8.285156 -13.753906 7.953125 -13.15625 7.328125 -12.75 C 6.710938 -12.351562 6.054688 -12.265625 5.359375 -12.484375 C 4.660156 -12.703125 4.210938 -13.191406 4.015625 -13.953125 C 3.535156 -15.703125 3.210938 -18.695312 3.046875 -22.9375 C 2.890625 -26.800781 3.070312 -29.753906 3.59375 -31.796875 C 3.75 -32.585938 4.285156 -32.984375 5.203125 -32.984375 C 6.128906 -32.984375 6.691406 -32.585938 6.890625 -31.796875 C 6.960938 -31.316406 7.0625 -30.753906 7.1875 -30.109375 C 8.101562 -31.066406 9.082031 -31.769531 10.125 -32.21875 C 11.914062 -32.9375 13.566406 -32.832031 15.078125 -31.90625 C 16.597656 -30.988281 17.679688 -29.613281 18.328125 -27.78125 C 18.804688 -26.382812 19.046875 -24.367188 19.046875 -21.734375 C 19.046875 -21.648438 19.023438 -21.328125 18.984375 -20.765625 C 18.941406 -20.210938 18.921875 -19.742188 18.921875 -19.359375 C 18.921875 -18.984375 18.976562 -18.585938 19.09375 -18.171875 C 19.21875 -17.753906 19.398438 -17.460938 19.640625 -17.296875 C 20.441406 -16.703125 21.617188 -17.164062 23.171875 -18.6875 C 23.410156 -18.925781 23.648438 -19.171875 23.890625 -19.421875 C 24.128906 -19.679688 24.347656 -19.953125 24.546875 -20.234375 C 24.742188 -20.515625 24.941406 -20.785156 25.140625 -21.046875 C 25.347656 -21.304688 25.570312 -21.59375 25.8125 -21.90625 C 26.050781 -22.226562 26.25 -22.507812 26.40625 -22.75 Z M 26.40625 -22.75 "/></g></g></g><g fill="#851d19" fill-opacity="1"><g transform="translate(158.903036, 208.986845)"><g><path d="M 31.796875 -18.734375 C 32.992188 -18.734375 33.84375 -18.242188 34.34375 -17.265625 C 34.84375 -16.296875 34.84375 -15.3125 34.34375 -14.3125 C 33.84375 -13.3125 32.992188 -12.8125 31.796875 -12.8125 L 5.875 -12.8125 C 4.675781 -12.8125 3.828125 -13.3125 3.328125 -14.3125 C 2.828125 -15.3125 2.828125 -16.296875 3.328125 -17.265625 C 3.828125 -18.242188 4.675781 -18.734375 5.875 -18.734375 Z M 31.796875 -18.734375 "/></g></g></g><g fill="#851d19" fill-opacity="1"><g transform="translate(196.559761, 208.986845)"><g><path d="M 21.5 -23.234375 C 21.894531 -23.753906 22.410156 -23.820312 23.046875 -23.4375 C 23.691406 -23.0625 23.894531 -22.570312 23.65625 -21.96875 C 22.769531 -19.851562 21.425781 -18.046875 19.625 -16.546875 C 17.832031 -15.054688 15.84375 -14.113281 13.65625 -13.71875 C 11.375 -13.351562 9.535156 -13.410156 8.140625 -13.890625 C 5.984375 -14.722656 4.367188 -16.160156 3.296875 -18.203125 C 2.578125 -19.640625 2.144531 -21.195312 2 -22.875 C 1.863281 -24.550781 2.082031 -26.207031 2.65625 -27.84375 C 3.238281 -29.476562 4.191406 -30.753906 5.515625 -31.671875 C 7.503906 -33.066406 9.5 -33.503906 11.5 -32.984375 C 13.570312 -32.429688 14.585938 -30.894531 14.546875 -28.375 C 14.546875 -26.382812 13.976562 -24.660156 12.84375 -23.203125 C 11.707031 -21.742188 10.203125 -20.835938 8.328125 -20.484375 C 8.835938 -19.554688 9.5625 -18.984375 10.5 -18.765625 C 11.445312 -18.546875 12.578125 -18.5 13.890625 -18.625 C 15.367188 -18.78125 16.503906 -19.140625 17.296875 -19.703125 C 19.378906 -21.179688 20.78125 -22.359375 21.5 -23.234375 Z M 10.359375 -29.09375 C 9.203125 -28.65625 8.382812 -27.804688 7.90625 -26.546875 C 7.425781 -25.296875 7.304688 -23.988281 7.546875 -22.625 C 9.265625 -23.1875 10.5 -24.1875 11.25 -25.625 C 11.769531 -26.539062 11.972656 -27.457031 11.859375 -28.375 C 11.816406 -28.894531 11.675781 -29.203125 11.4375 -29.296875 C 11.195312 -29.398438 10.835938 -29.332031 10.359375 -29.09375 Z M 10.359375 -29.09375 "/></g></g></g><g fill="#851d19" fill-opacity="1"><g transform="translate(214.520043, 208.986845)"><g><path d="M 31.796875 -18.734375 C 32.992188 -18.734375 33.84375 -18.242188 34.34375 -17.265625 C 34.84375 -16.296875 34.84375 -15.3125 34.34375 -14.3125 C 33.84375 -13.3125 32.992188 -12.8125 31.796875 -12.8125 L 5.875 -12.8125 C 4.675781 -12.8125 3.828125 -13.3125 3.328125 -14.3125 C 2.828125 -15.3125 2.828125 -16.296875 3.328125 -17.265625 C 3.828125 -18.242188 4.675781 -18.734375 5.875 -18.734375 Z M 31.796875 -18.734375 "/></g></g></g><g fill="#851d19" fill-opacity="1"><g transform="translate(252.176768, 208.986845)"><g><path d="M 46.46875 8.140625 C 48.625 10.578125 48.941406 13.648438 47.421875 17.359375 C 46.304688 20.160156 43.832031 22.359375 40 23.953125 C 38.164062 24.628906 36.335938 24.785156 34.515625 24.421875 C 32.703125 24.066406 31.035156 23.289062 29.515625 22.09375 C 28.484375 21.289062 27.578125 20.34375 26.796875 19.25 C 26.015625 18.15625 25.34375 16.878906 24.78125 15.421875 C 24.226562 13.960938 23.800781 12.710938 23.5 11.671875 C 23.195312 10.640625 22.847656 9.300781 22.453125 7.65625 C 22.171875 6.46875 21.640625 4.023438 20.859375 0.328125 C 20.085938 -3.359375 19.441406 -6.179688 18.921875 -8.140625 C 18.285156 -10.378906 17.46875 -12.316406 16.46875 -13.953125 C 16.382812 -14.109375 16.242188 -14.304688 16.046875 -14.546875 L 16.046875 -14.609375 C 15.929688 -14.734375 15.789062 -14.894531 15.625 -15.09375 C 15.550781 -15.164062 15.410156 -15.300781 15.203125 -15.5 C 15.203125 -15.539062 15.203125 -15.5625 15.203125 -15.5625 C 14.890625 -15.84375 14.632812 -16.0625 14.4375 -16.21875 C 13.789062 -16.738281 13.148438 -17.097656 12.515625 -17.296875 C 12.234375 -17.335938 12.015625 -17.359375 11.859375 -17.359375 C 11.578125 -17.398438 11.316406 -17.484375 11.078125 -17.609375 C 10.835938 -17.609375 10.597656 -17.585938 10.359375 -17.546875 C 10.160156 -17.460938 9.960938 -17.441406 9.765625 -17.484375 C 9.765625 -16.285156 9.742188 -14.578125 9.703125 -12.359375 C 9.660156 -10.148438 9.640625 -8.785156 9.640625 -8.265625 C 9.640625 -6.671875 9.617188 -4.914062 9.578125 -3 C 9.503906 -0.320312 9.347656 1.4375 9.109375 2.28125 C 8.785156 3.238281 8.132812 3.71875 7.15625 3.71875 C 6.175781 3.71875 5.53125 3.238281 5.21875 2.28125 C 5.09375 1.875 4.988281 1.398438 4.90625 0.859375 C 4.832031 0.328125 4.785156 -0.078125 4.765625 -0.359375 C 4.742188 -0.640625 4.722656 -1.164062 4.703125 -1.9375 C 4.679688 -2.71875 4.671875 -3.148438 4.671875 -3.234375 C 4.628906 -4.953125 4.585938 -6.707031 4.546875 -8.5 C 4.515625 -13.613281 4.515625 -17.109375 4.546875 -18.984375 C 4.585938 -27.566406 4.867188 -34.671875 5.390625 -40.296875 C 5.472656 -41.015625 5.78125 -41.515625 6.3125 -41.796875 C 6.851562 -42.078125 7.398438 -42.078125 7.953125 -41.796875 C 8.515625 -41.515625 8.835938 -41.015625 8.921875 -40.296875 C 9.484375 -35.066406 9.765625 -28.519531 9.765625 -20.65625 C 10.484375 -20.9375 11.222656 -21.097656 11.984375 -21.140625 C 13.253906 -21.535156 14.148438 -21.894531 14.671875 -22.21875 C 14.953125 -22.414062 15.238281 -22.644531 15.53125 -22.90625 C 15.832031 -23.164062 16.160156 -23.472656 16.515625 -23.828125 C 16.878906 -24.191406 17.144531 -24.453125 17.3125 -24.609375 C 19.144531 -26.285156 20.617188 -28.117188 21.734375 -30.109375 C 22.054688 -30.671875 22.335938 -31.210938 22.578125 -31.734375 C 22.578125 -31.734375 22.585938 -31.757812 22.609375 -31.8125 C 22.628906 -31.875 22.644531 -31.945312 22.65625 -32.03125 C 22.675781 -32.113281 22.707031 -32.203125 22.75 -32.296875 C 22.789062 -32.398438 22.832031 -32.488281 22.875 -32.5625 C 22.914062 -32.644531 22.9375 -32.6875 22.9375 -32.6875 C 23.132812 -33.289062 23.289062 -33.832031 23.40625 -34.3125 C 23.445312 -34.425781 23.488281 -34.582031 23.53125 -34.78125 C 23.570312 -34.988281 23.59375 -35.128906 23.59375 -35.203125 C 23.59375 -35.242188 23.613281 -35.34375 23.65625 -35.5 C 23.695312 -36.019531 23.71875 -36.5625 23.71875 -37.125 C 23.71875 -37.164062 23.695312 -37.34375 23.65625 -37.65625 L 23.65625 -38.078125 L 23.65625 -38.015625 C 23.53125 -38.535156 23.429688 -38.992188 23.359375 -39.390625 C 23.273438 -39.597656 23.191406 -39.835938 23.109375 -40.109375 C 23.066406 -40.109375 23.046875 -40.128906 23.046875 -40.171875 C 22.691406 -40.847656 22.414062 -41.304688 22.21875 -41.546875 C 22.132812 -41.671875 22.070312 -41.789062 22.03125 -41.90625 C 21.914062 -42.03125 21.835938 -42.09375 21.796875 -42.09375 C 21.035156 -42.851562 20.457031 -43.390625 20.0625 -43.703125 C 18.625 -44.785156 16.96875 -45.585938 15.09375 -46.109375 C 11.613281 -47.097656 8.179688 -46.578125 4.796875 -44.546875 C 3.078125 -43.503906 1.695312 -42.195312 0.65625 -40.625 C -0.375 -39.050781 -0.789062 -37.34375 -0.59375 -35.5 C -0.507812 -34.945312 -0.71875 -34.519531 -1.21875 -34.21875 C -1.71875 -33.914062 -2.25 -33.84375 -2.8125 -34 C -3.375 -34.164062 -3.691406 -34.53125 -3.765625 -35.09375 C -4.171875 -37.800781 -3.601562 -40.28125 -2.0625 -42.53125 C -0.53125 -44.789062 1.550781 -46.71875 4.1875 -48.3125 C 8.625 -50.988281 13.296875 -51.890625 18.203125 -51.015625 C 21.078125 -50.492188 23.582031 -49.429688 25.71875 -47.828125 C 27.851562 -46.234375 29.398438 -44.125 30.359375 -41.5 C 31.078125 -39.582031 31.351562 -37.59375 31.1875 -35.53125 C 31.03125 -33.476562 30.550781 -31.515625 29.75 -29.640625 C 28.957031 -27.765625 27.941406 -26.023438 26.703125 -24.421875 C 24.472656 -21.628906 22.179688 -19.773438 19.828125 -18.859375 C 19.617188 -18.773438 19.394531 -18.695312 19.15625 -18.625 C 20.476562 -17.539062 21.65625 -15.882812 22.6875 -13.65625 C 24.488281 -10.019531 26.207031 -5.367188 27.84375 0.296875 C 28.082031 1.171875 28.570312 3.078125 29.3125 6.015625 C 30.050781 8.953125 30.679688 11.195312 31.203125 12.75 C 31.554688 13.75 32.050781 14.769531 32.6875 15.8125 C 33.375 16.882812 34.113281 17.738281 34.90625 18.375 C 35.988281 19.132812 37.1875 19.472656 38.5 19.390625 C 39.820312 19.316406 41.0625 18.898438 42.21875 18.140625 C 43.414062 17.335938 44.363281 16.285156 45.0625 14.984375 C 45.757812 13.691406 45.75 12.46875 45.03125 11.3125 C 44.507812 10.4375 43.726562 9.859375 42.6875 9.578125 C 41.65625 9.296875 40.71875 9.457031 39.875 10.0625 C 39.4375 10.34375 38.945312 10.398438 38.40625 10.234375 C 37.875 10.078125 37.488281 9.78125 37.25 9.34375 C 36.96875 8.863281 36.894531 8.382812 37.03125 7.90625 C 37.175781 7.425781 37.46875 7.023438 37.90625 6.703125 C 39.34375 5.742188 40.859375 5.429688 42.453125 5.765625 C 44.046875 6.109375 45.382812 6.898438 46.46875 8.140625 Z M 23.109375 -40.0625 Z M 23.109375 -40.0625 "/></g></g></g><g fill="#851d19" fill-opacity="1"><g transform="translate(284.625001, 208.986845)"><g><path d="M 25.625 -23.296875 C 26.019531 -23.648438 26.5 -23.6875 27.0625 -23.40625 C 27.625 -23.125 27.804688 -22.707031 27.609375 -22.15625 C 27.367188 -21.4375 27.023438 -20.675781 26.578125 -19.875 C 26.140625 -19.082031 25.628906 -18.273438 25.046875 -17.453125 C 24.472656 -16.628906 23.828125 -15.921875 23.109375 -15.328125 C 22.390625 -14.734375 21.648438 -14.253906 20.890625 -13.890625 C 20.140625 -13.535156 19.332031 -13.414062 18.46875 -13.53125 C 17.613281 -13.65625 16.804688 -14.054688 16.046875 -14.734375 C 15.328125 -15.367188 14.769531 -16.1875 14.375 -17.1875 C 12.894531 -15.707031 11.175781 -14.910156 9.21875 -14.796875 C 7.5 -14.671875 5.976562 -15.066406 4.65625 -15.984375 C 3.34375 -16.898438 2.40625 -18.066406 1.84375 -19.484375 C 1.289062 -20.898438 1.023438 -22.445312 1.046875 -24.125 C 1.066406 -25.800781 1.457031 -27.320312 2.21875 -28.6875 C 2.9375 -30.082031 3.992188 -31.207031 5.390625 -32.0625 C 6.785156 -32.914062 8.257812 -33.328125 9.8125 -33.296875 C 12.445312 -33.296875 14.566406 -32.335938 16.171875 -30.421875 C 16.285156 -30.691406 16.484375 -31.117188 16.765625 -31.703125 C 17.046875 -32.285156 17.242188 -32.695312 17.359375 -32.9375 C 17.640625 -33.570312 18.148438 -33.726562 18.890625 -33.40625 C 19.628906 -33.09375 19.878906 -32.59375 19.640625 -31.90625 C 18.835938 -29.394531 18.21875 -27.003906 17.78125 -24.734375 C 17.144531 -21.617188 17.285156 -19.363281 18.203125 -17.96875 C 18.484375 -17.519531 18.820312 -17.242188 19.21875 -17.140625 C 19.613281 -17.046875 20.007812 -17.117188 20.40625 -17.359375 C 20.8125 -17.597656 21.210938 -17.90625 21.609375 -18.28125 C 22.015625 -18.664062 22.425781 -19.128906 22.84375 -19.671875 C 23.257812 -20.210938 23.625 -20.710938 23.9375 -21.171875 C 24.257812 -21.628906 24.582031 -22.054688 24.90625 -22.453125 C 25.226562 -22.847656 25.46875 -23.128906 25.625 -23.296875 Z M 8.375 -20 C 8.695312 -19.84375 9.023438 -19.765625 9.359375 -19.765625 C 9.703125 -19.765625 10.015625 -19.800781 10.296875 -19.875 C 10.578125 -19.957031 10.859375 -20.085938 11.140625 -20.265625 C 11.421875 -20.441406 11.671875 -20.628906 11.890625 -20.828125 C 12.109375 -21.035156 12.347656 -21.285156 12.609375 -21.578125 C 12.867188 -21.878906 13.078125 -22.140625 13.234375 -22.359375 C 13.390625 -22.578125 13.566406 -22.847656 13.765625 -23.171875 C 13.804688 -23.410156 13.847656 -23.628906 13.890625 -23.828125 C 14.085938 -24.984375 14.425781 -26.222656 14.90625 -27.546875 C 12.675781 -29.378906 10.703125 -29.796875 8.984375 -28.796875 C 8.097656 -28.273438 7.4375 -27.519531 7 -26.53125 C 6.644531 -25.8125 6.445312 -25.007812 6.40625 -24.125 C 6.40625 -23.8125 6.40625 -23.515625 6.40625 -23.234375 C 6.40625 -23.066406 6.40625 -22.984375 6.40625 -22.984375 C 6.445312 -22.953125 6.46875 -22.875 6.46875 -22.75 C 6.507812 -22.550781 6.566406 -22.3125 6.640625 -22.03125 C 6.722656 -21.832031 6.785156 -21.691406 6.828125 -21.609375 C 7.222656 -20.816406 7.738281 -20.28125 8.375 -20 Z M 8.375 -20 "/></g></g></g><g fill="#851d19" fill-opacity="1"><g transform="translate(306.177355, 208.986845)"><g><path d="M 18.328125 -14.96875 C 18.835938 -14.613281 19.101562 -14.125 19.125 -13.5 C 19.144531 -12.882812 18.878906 -12.394531 18.328125 -12.03125 C 17.804688 -11.71875 17.195312 -11.507812 16.5 -11.40625 C 15.800781 -11.300781 14.921875 -11.25 13.859375 -11.25 C 12.804688 -11.25 12.140625 -11.234375 11.859375 -11.203125 C 11.734375 -11.203125 11.421875 -11.191406 10.921875 -11.171875 C 10.421875 -11.148438 10.035156 -11.117188 9.765625 -11.078125 C 9.765625 -11.078125 9.703125 -11.066406 9.578125 -11.046875 C 9.460938 -11.023438 9.40625 -11.015625 9.40625 -11.015625 C 9.320312 -11.015625 9.21875 -10.992188 9.09375 -10.953125 L 8.734375 -10.890625 C 8.097656 -10.773438 7.5625 -10.6875 7.125 -10.625 C 6.6875 -10.5625 6.144531 -10.539062 5.5 -10.5625 C 4.863281 -10.582031 4.328125 -10.660156 3.890625 -10.796875 C 3.453125 -10.941406 3.03125 -11.210938 2.625 -11.609375 C 2.226562 -12.015625 1.953125 -12.515625 1.796875 -13.109375 C 1.710938 -13.390625 1.671875 -13.671875 1.671875 -13.953125 C 1.671875 -14.234375 1.703125 -14.519531 1.765625 -14.8125 C 1.828125 -15.113281 1.882812 -15.382812 1.9375 -15.625 C 2 -15.863281 2.109375 -16.140625 2.265625 -16.453125 C 2.429688 -16.773438 2.550781 -17.035156 2.625 -17.234375 C 2.707031 -17.441406 2.835938 -17.710938 3.015625 -18.046875 C 3.203125 -18.390625 3.332031 -18.617188 3.40625 -18.734375 C 4.332031 -20.578125 5.273438 -22.296875 6.234375 -23.890625 C 7.304688 -25.648438 8.441406 -27.304688 9.640625 -28.859375 C 9.960938 -29.253906 10.34375 -29.671875 10.78125 -30.109375 C 10.019531 -30.234375 9.28125 -30.316406 8.5625 -30.359375 C 8.40625 -30.398438 6.445312 -30.359375 2.6875 -30.234375 C 2.25 -30.234375 1.910156 -30.421875 1.671875 -30.796875 C 1.429688 -31.179688 1.367188 -31.582031 1.484375 -32 C 1.609375 -32.414062 1.890625 -32.664062 2.328125 -32.75 C 4.566406 -33.1875 7.082031 -33.503906 9.875 -33.703125 C 10.519531 -33.742188 11.71875 -33.742188 13.46875 -33.703125 C 14.625 -33.703125 15.382812 -33.582031 15.75 -33.34375 C 16.46875 -32.945312 16.894531 -32.347656 17.03125 -31.546875 C 17.175781 -30.753906 17.117188 -30 16.859375 -29.28125 C 16.597656 -28.5625 16.25 -27.882812 15.8125 -27.25 C 13.894531 -24.40625 12.65625 -22.523438 12.09375 -21.609375 C 10.894531 -19.691406 9.738281 -17.578125 8.625 -15.265625 C 8.695312 -15.304688 8.753906 -15.328125 8.796875 -15.328125 C 8.878906 -15.328125 9.5625 -15.347656 10.84375 -15.390625 C 11.15625 -15.429688 11.75 -15.488281 12.625 -15.5625 C 13.507812 -15.644531 14.21875 -15.695312 14.75 -15.71875 C 15.289062 -15.738281 15.910156 -15.6875 16.609375 -15.5625 C 17.304688 -15.445312 17.878906 -15.25 18.328125 -14.96875 Z M 18.328125 -14.96875 "/></g></g></g><g fill="#851d19" fill-opacity="1"><g transform="translate(324.137637, 208.986845)"><g><path d="M 25.625 -23.296875 C 26.019531 -23.648438 26.5 -23.6875 27.0625 -23.40625 C 27.625 -23.125 27.804688 -22.707031 27.609375 -22.15625 C 27.367188 -21.4375 27.023438 -20.675781 26.578125 -19.875 C 26.140625 -19.082031 25.628906 -18.273438 25.046875 -17.453125 C 24.472656 -16.628906 23.828125 -15.921875 23.109375 -15.328125 C 22.390625 -14.734375 21.648438 -14.253906 20.890625 -13.890625 C 20.140625 -13.535156 19.332031 -13.414062 18.46875 -13.53125 C 17.613281 -13.65625 16.804688 -14.054688 16.046875 -14.734375 C 15.328125 -15.367188 14.769531 -16.1875 14.375 -17.1875 C 12.894531 -15.707031 11.175781 -14.910156 9.21875 -14.796875 C 7.5 -14.671875 5.976562 -15.066406 4.65625 -15.984375 C 3.34375 -16.898438 2.40625 -18.066406 1.84375 -19.484375 C 1.289062 -20.898438 1.023438 -22.445312 1.046875 -24.125 C 1.066406 -25.800781 1.457031 -27.320312 2.21875 -28.6875 C 2.9375 -30.082031 3.992188 -31.207031 5.390625 -32.0625 C 6.785156 -32.914062 8.257812 -33.328125 9.8125 -33.296875 C 12.445312 -33.296875 14.566406 -32.335938 16.171875 -30.421875 C 16.285156 -30.691406 16.484375 -31.117188 16.765625 -31.703125 C 17.046875 -32.285156 17.242188 -32.695312 17.359375 -32.9375 C 17.640625 -33.570312 18.148438 -33.726562 18.890625 -33.40625 C 19.628906 -33.09375 19.878906 -32.59375 19.640625 -31.90625 C 18.835938 -29.394531 18.21875 -27.003906 17.78125 -24.734375 C 17.144531 -21.617188 17.285156 -19.363281 18.203125 -17.96875 C 18.484375 -17.519531 18.820312 -17.242188 19.21875 -17.140625 C 19.613281 -17.046875 20.007812 -17.117188 20.40625 -17.359375 C 20.8125 -17.597656 21.210938 -17.90625 21.609375 -18.28125 C 22.015625 -18.664062 22.425781 -19.128906 22.84375 -19.671875 C 23.257812 -20.210938 23.625 -20.710938 23.9375 -21.171875 C 24.257812 -21.628906 24.582031 -22.054688 24.90625 -22.453125 C 25.226562 -22.847656 25.46875 -23.128906 25.625 -23.296875 Z M 8.375 -20 C 8.695312 -19.84375 9.023438 -19.765625 9.359375 -19.765625 C 9.703125 -19.765625 10.015625 -19.800781 10.296875 -19.875 C 10.578125 -19.957031 10.859375 -20.085938 11.140625 -20.265625 C 11.421875 -20.441406 11.671875 -20.628906 11.890625 -20.828125 C 12.109375 -21.035156 12.347656 -21.285156 12.609375 -21.578125 C 12.867188 -21.878906 13.078125 -22.140625 13.234375 -22.359375 C 13.390625 -22.578125 13.566406 -22.847656 13.765625 -23.171875 C 13.804688 -23.410156 13.847656 -23.628906 13.890625 -23.828125 C 14.085938 -24.984375 14.425781 -26.222656 14.90625 -27.546875 C 12.675781 -29.378906 10.703125 -29.796875 8.984375 -28.796875 C 8.097656 -28.273438 7.4375 -27.519531 7 -26.53125 C 6.644531 -25.8125 6.445312 -25.007812 6.40625 -24.125 C 6.40625 -23.8125 6.40625 -23.515625 6.40625 -23.234375 C 6.40625 -23.066406 6.40625 -22.984375 6.40625 -22.984375 C 6.445312 -22.953125 6.46875 -22.875 6.46875 -22.75 C 6.507812 -22.550781 6.566406 -22.3125 6.640625 -22.03125 C 6.722656 -21.832031 6.785156 -21.691406 6.828125 -21.609375 C 7.222656 -20.816406 7.738281 -20.28125 8.375 -20 Z M 8.375 -20 "/></g></g></g><g fill="#000000" fill-opacity="1"><g transform="translate(90.230359, 236.411753)"><g><path d="M 10.8125 0.1875 C 8.8125 0.1875 7.289062 -0.0351562 6.25 -0.484375 C 5.207031 -0.929688 4.488281 -1.625 4.09375 -2.5625 C 3.695312 -3.507812 3.472656 -4.722656 3.421875 -6.203125 L 2.671875 -26.546875 L 5.71875 -26.546875 L 6.46875 -7.390625 C 6.519531 -6.179688 6.632812 -5.25 6.8125 -4.59375 C 7 -3.9375 7.421875 -3.484375 8.078125 -3.234375 C 8.734375 -2.984375 9.769531 -2.859375 11.1875 -2.859375 C 11.707031 -2.859375 12.082031 -2.710938 12.3125 -2.421875 C 12.550781 -2.140625 12.671875 -1.800781 12.671875 -1.40625 C 12.671875 -1.007812 12.5 -0.644531 12.15625 -0.3125 C 11.8125 0.0195312 11.363281 0.1875 10.8125 0.1875 Z M 10.8125 0.1875 "/></g></g></g><g fill="#000000" fill-opacity="1"><g transform="translate(101.062923, 236.411753)"><g><path d="M 17.984375 0.671875 C 15.335938 0.671875 13.203125 0.550781 11.578125 0.3125 C 9.953125 0.0820312 8.71875 -0.269531 7.875 -0.75 C 7.03125 -1.238281 6.453125 -1.859375 6.140625 -2.609375 C 5.535156 -1.734375 4.90625 -1.101562 4.25 -0.71875 C 3.59375 -0.34375 2.910156 -0.0976562 2.203125 0.015625 C 1.503906 0.128906 0.769531 0.1875 0 0.1875 L 0.375 -2.859375 C 1.539062 -2.859375 2.429688 -3.085938 3.046875 -3.546875 C 3.671875 -4.003906 4.160156 -4.765625 4.515625 -5.828125 C 4.878906 -6.898438 5.28125 -8.363281 5.71875 -10.21875 L 8.4375 -9.515625 C 8.1875 -8.648438 7.992188 -7.863281 7.859375 -7.15625 C 7.722656 -6.445312 7.65625 -5.929688 7.65625 -5.609375 C 7.65625 -4.921875 7.847656 -4.347656 8.234375 -3.890625 C 8.617188 -3.429688 9.414062 -3.085938 10.625 -2.859375 C 11.425781 -4.097656 12.367188 -5.351562 13.453125 -6.625 C 14.546875 -7.90625 15.734375 -9.078125 17.015625 -10.140625 C 18.304688 -11.210938 19.648438 -12.078125 21.046875 -12.734375 C 22.453125 -13.390625 23.875 -13.71875 25.3125 -13.71875 C 26.675781 -13.71875 27.847656 -13.4375 28.828125 -12.875 C 29.804688 -12.320312 30.5625 -11.570312 31.09375 -10.625 C 31.625 -9.6875 31.890625 -8.625 31.890625 -7.4375 C 31.890625 -5.96875 31.457031 -4.617188 30.59375 -3.390625 C 29.726562 -2.171875 28.285156 -1.1875 26.265625 -0.4375 C 24.242188 0.300781 21.484375 0.671875 17.984375 0.671875 Z M 25.09375 -10.671875 C 23.976562 -10.671875 22.851562 -10.390625 21.71875 -9.828125 C 20.59375 -9.273438 19.519531 -8.5625 18.5 -7.6875 C 17.488281 -6.820312 16.570312 -5.925781 15.75 -5 C 14.9375 -4.070312 14.257812 -3.234375 13.71875 -2.484375 C 15.03125 -2.410156 16.675781 -2.375 18.65625 -2.375 C 21.925781 -2.375 24.472656 -2.773438 26.296875 -3.578125 C 28.117188 -4.390625 29.03125 -5.578125 29.03125 -7.140625 C 29.03125 -7.679688 28.894531 -8.21875 28.625 -8.75 C 28.351562 -9.28125 27.925781 -9.734375 27.34375 -10.109375 C 26.757812 -10.484375 26.007812 -10.671875 25.09375 -10.671875 Z M 24.234375 -17.546875 C 23.710938 -17.546875 23.269531 -17.722656 22.90625 -18.078125 C 22.550781 -18.441406 22.375 -18.867188 22.375 -19.359375 C 22.375 -19.859375 22.550781 -20.289062 22.90625 -20.65625 C 23.269531 -21.03125 23.710938 -21.21875 24.234375 -21.21875 C 24.722656 -21.21875 25.144531 -21.03125 25.5 -20.65625 C 25.863281 -20.289062 26.046875 -19.859375 26.046875 -19.359375 C 26.046875 -18.867188 25.863281 -18.441406 25.5 -18.078125 C 25.144531 -17.722656 24.722656 -17.546875 24.234375 -17.546875 Z M 24.234375 -17.546875 "/></g></g></g><g fill="#000000" fill-opacity="1"><g transform="translate(134.638295, 236.411753)"><g><path d="M 0.15625 8.546875 L -0.921875 5.71875 C 1.578125 4.925781 3.5 3.984375 4.84375 2.890625 C 6.195312 1.804688 7.128906 0.664062 7.640625 -0.53125 C 8.148438 -1.738281 8.40625 -2.890625 8.40625 -3.984375 C 8.40625 -4.671875 8.328125 -5.335938 8.171875 -5.984375 C 8.023438 -6.628906 7.765625 -7.359375 7.390625 -8.171875 C 7.023438 -8.992188 6.507812 -10.007812 5.84375 -11.21875 L 8.546875 -12.59375 C 9.492188 -10.988281 10.171875 -9.46875 10.578125 -8.03125 C 10.984375 -6.59375 11.1875 -5.328125 11.1875 -4.234375 C 11.1875 -2.671875 10.929688 -1.257812 10.421875 0 C 9.921875 1.257812 9.253906 2.378906 8.421875 3.359375 C 7.585938 4.335938 6.679688 5.171875 5.703125 5.859375 C 4.722656 6.554688 3.742188 7.128906 2.765625 7.578125 C 1.785156 8.023438 0.914062 8.347656 0.15625 8.546875 Z M 0.15625 8.546875 "/></g></g></g><g fill="#000000" fill-opacity="1"><g transform="translate(148.295131, 236.411753)"><g><path d="M 19.734375 -11.640625 C 20.484375 -11.640625 21.007812 -11.332031 21.3125 -10.71875 C 21.625 -10.113281 21.625 -9.5 21.3125 -8.875 C 21.007812 -8.257812 20.484375 -7.953125 19.734375 -7.953125 L 3.640625 -7.953125 C 2.898438 -7.953125 2.375 -8.257812 2.0625 -8.875 C 1.75 -9.5 1.75 -10.113281 2.0625 -10.71875 C 2.375 -11.332031 2.898438 -11.640625 3.640625 -11.640625 Z M 19.734375 -11.640625 "/></g></g></g><g fill="#000000" fill-opacity="1"><g transform="translate(171.688269, 236.411753)"><g><path d="M 1.109375 0.03125 C 1.109375 -0.851562 1.234375 -1.84375 1.484375 -2.9375 C 1.734375 -4.03125 2.128906 -5.234375 2.671875 -6.546875 L 5.359375 -5.5 C 4.960938 -4.457031 4.660156 -3.503906 4.453125 -2.640625 C 4.253906 -1.773438 4.15625 -0.96875 4.15625 -0.21875 C 4.15625 1.164062 4.492188 2.28125 5.171875 3.125 C 5.859375 3.96875 6.78125 4.585938 7.9375 4.984375 C 9.09375 5.378906 10.363281 5.578125 11.75 5.578125 C 14 5.578125 15.757812 5.265625 17.03125 4.640625 C 18.3125 4.023438 19.21875 3.210938 19.75 2.203125 C 20.289062 1.203125 20.5625 0.144531 20.5625 -0.96875 C 20.5625 -2.601562 20.378906 -4.109375 20.015625 -5.484375 C 19.660156 -6.859375 19.269531 -8.273438 18.84375 -9.734375 L 21.859375 -10.5625 C 22.253906 -9.144531 22.523438 -8.117188 22.671875 -7.484375 C 22.816406 -6.859375 22.953125 -6.347656 23.078125 -5.953125 C 23.359375 -5.035156 23.71875 -4.359375 24.15625 -3.921875 C 24.601562 -3.484375 25.113281 -3.195312 25.6875 -3.0625 C 26.257812 -2.925781 26.863281 -2.859375 27.5 -2.859375 C 28.019531 -2.859375 28.398438 -2.710938 28.640625 -2.421875 C 28.878906 -2.140625 29 -1.800781 29 -1.40625 C 29 -1.007812 28.820312 -0.644531 28.46875 -0.3125 C 28.125 0.0195312 27.679688 0.1875 27.140625 0.1875 C 26.367188 0.1875 25.691406 0.0820312 25.109375 -0.125 C 24.523438 -0.34375 24.035156 -0.609375 23.640625 -0.921875 C 23.515625 0.285156 23.226562 1.457031 22.78125 2.59375 C 22.34375 3.738281 21.671875 4.765625 20.765625 5.671875 C 19.859375 6.578125 18.660156 7.296875 17.171875 7.828125 C 15.679688 8.359375 13.835938 8.625 11.640625 8.625 C 9.773438 8.625 8.039062 8.3125 6.4375 7.6875 C 4.84375 7.070312 3.554688 6.128906 2.578125 4.859375 C 1.597656 3.597656 1.109375 1.988281 1.109375 0.03125 Z M 12.34375 -14.796875 C 11.820312 -14.796875 11.378906 -14.972656 11.015625 -15.328125 C 10.660156 -15.691406 10.484375 -16.117188 10.484375 -16.609375 C 10.484375 -17.109375 10.660156 -17.539062 11.015625 -17.90625 C 11.378906 -18.28125 11.820312 -18.46875 12.34375 -18.46875 C 12.832031 -18.46875 13.253906 -18.28125 13.609375 -17.90625 C 13.972656 -17.539062 14.15625 -17.109375 14.15625 -16.609375 C 14.15625 -16.117188 13.972656 -15.691406 13.609375 -15.328125 C 13.253906 -14.972656 12.832031 -14.796875 12.34375 -14.796875 Z M 12.34375 -14.796875 "/></g></g></g><g fill="#000000" fill-opacity="1"><g transform="translate(198.834717, 236.411753)"><g><path d="M 0 0.1875 L 0.375 -2.859375 C 1.164062 -2.859375 1.804688 -2.914062 2.296875 -3.03125 C 2.796875 -3.144531 3.210938 -3.429688 3.546875 -3.890625 C 3.878906 -4.347656 4.191406 -5.070312 4.484375 -6.0625 C 4.785156 -7.050781 5.132812 -8.4375 5.53125 -10.21875 L 8.328125 -9.4375 C 8.179688 -8.789062 8.007812 -8.035156 7.8125 -7.171875 C 7.613281 -6.304688 7.515625 -5.523438 7.515625 -4.828125 C 7.515625 -4.210938 7.75 -3.726562 8.21875 -3.375 C 8.6875 -3.03125 9.539062 -2.859375 10.78125 -2.859375 C 11.519531 -2.859375 12.125 -2.921875 12.59375 -3.046875 C 13.070312 -3.171875 13.460938 -3.46875 13.765625 -3.9375 C 14.078125 -4.40625 14.359375 -5.15625 14.609375 -6.1875 C 14.859375 -7.21875 15.117188 -8.648438 15.390625 -10.484375 L 18.21875 -9.96875 C 18.144531 -9.519531 18.050781 -8.972656 17.9375 -8.328125 C 17.820312 -7.679688 17.726562 -7.039062 17.65625 -6.40625 C 17.582031 -5.78125 17.546875 -5.253906 17.546875 -4.828125 C 17.546875 -4.484375 17.625 -4.15625 17.78125 -3.84375 C 17.945312 -3.53125 18.269531 -3.285156 18.75 -3.109375 C 19.238281 -2.941406 19.960938 -2.859375 20.921875 -2.859375 C 22.160156 -2.859375 23.054688 -3.113281 23.609375 -3.625 C 24.171875 -4.132812 24.453125 -4.929688 24.453125 -6.015625 C 24.453125 -6.859375 24.425781 -7.785156 24.375 -8.796875 C 24.332031 -9.816406 24.210938 -11.097656 24.015625 -12.640625 L 26.71875 -12.828125 C 26.875 -10.816406 27.039062 -9.164062 27.21875 -7.875 C 27.40625 -6.59375 27.675781 -5.582031 28.03125 -4.84375 C 28.394531 -4.113281 28.882812 -3.597656 29.5 -3.296875 C 30.125 -3.003906 30.945312 -2.859375 31.96875 -2.859375 C 32.488281 -2.859375 32.863281 -2.710938 33.09375 -2.421875 C 33.332031 -2.140625 33.453125 -1.800781 33.453125 -1.40625 C 33.453125 -1.007812 33.273438 -0.644531 32.921875 -0.3125 C 32.578125 0.0195312 32.132812 0.1875 31.59375 0.1875 C 30.207031 0.1875 29.0625 -0.117188 28.15625 -0.734375 C 27.25 -1.359375 26.585938 -2.140625 26.171875 -3.078125 C 25.671875 -1.765625 24.921875 -0.890625 23.921875 -0.453125 C 22.921875 -0.0234375 21.8125 0.1875 20.59375 0.1875 C 19.332031 0.1875 18.332031 0.0078125 17.59375 -0.34375 C 16.863281 -0.707031 16.328125 -1.257812 15.984375 -2 C 15.390625 -1.113281 14.675781 -0.523438 13.84375 -0.234375 C 13.007812 0.046875 11.835938 0.1875 10.328125 0.1875 C 9.804688 0.1875 9.253906 0.125 8.671875 0 C 8.097656 -0.125 7.5625 -0.363281 7.0625 -0.71875 C 6.5625 -1.082031 6.175781 -1.625 5.90625 -2.34375 C 5.257812 -1.25 4.457031 -0.550781 3.5 -0.25 C 2.550781 0.0390625 1.382812 0.1875 0 0.1875 Z M 16.015625 -20.25 C 15.492188 -20.25 15.050781 -20.425781 14.6875 -20.78125 C 14.332031 -21.144531 14.15625 -21.578125 14.15625 -22.078125 C 14.15625 -22.566406 14.332031 -23 14.6875 -23.375 C 15.050781 -23.75 15.492188 -23.9375 16.015625 -23.9375 C 16.515625 -23.9375 16.941406 -23.75 17.296875 -23.375 C 17.660156 -23 17.84375 -22.566406 17.84375 -22.078125 C 17.84375 -21.578125 17.660156 -21.144531 17.296875 -20.78125 C 16.941406 -20.425781 16.515625 -20.25 16.015625 -20.25 Z M 13.484375 -16.171875 C 12.960938 -16.171875 12.519531 -16.347656 12.15625 -16.703125 C 11.800781 -17.066406 11.625 -17.492188 11.625 -17.984375 C 11.625 -18.484375 11.800781 -18.914062 12.15625 -19.28125 C 12.519531 -19.65625 12.960938 -19.84375 13.484375 -19.84375 C 13.984375 -19.84375 14.410156 -19.65625 14.765625 -19.28125 C 15.128906 -18.914062 15.3125 -18.484375 15.3125 -17.984375 C 15.3125 -17.492188 15.128906 -17.066406 14.765625 -16.703125 C 14.410156 -16.347656 13.984375 -16.171875 13.484375 -16.171875 Z M 18.546875 -16.171875 C 18.023438 -16.171875 17.582031 -16.347656 17.21875 -16.703125 C 16.863281 -17.066406 16.6875 -17.492188 16.6875 -17.984375 C 16.6875 -18.484375 16.863281 -18.914062 17.21875 -19.28125 C 17.582031 -19.65625 18.023438 -19.84375 18.546875 -19.84375 C 19.035156 -19.84375 19.457031 -19.65625 19.8125 -19.28125 C 20.175781 -18.914062 20.359375 -18.484375 20.359375 -17.984375 C 20.359375 -17.492188 20.175781 -17.066406 19.8125 -16.703125 C 19.457031 -16.347656 19.035156 -16.171875 18.546875 -16.171875 Z M 18.546875 -16.171875 "/></g></g></g><g fill="#000000" fill-opacity="1"><g transform="translate(230.440536, 236.411753)"><g><path d="M 0 0.1875 L 0.328125 -2.859375 C 2.878906 -2.859375 5.359375 -3.234375 7.765625 -3.984375 C 10.171875 -4.742188 12.363281 -5.820312 14.34375 -7.21875 C 13.382812 -8.050781 12.203125 -8.726562 10.796875 -9.25 C 9.398438 -9.769531 7.859375 -10.03125 6.171875 -10.03125 C 5.546875 -10.03125 5 -10 4.53125 -9.9375 C 4.0625 -9.875 3.492188 -9.769531 2.828125 -9.625 L 2.234375 -12.453125 C 3.617188 -12.867188 4.929688 -13.078125 6.171875 -13.078125 C 7.460938 -13.078125 8.625 -12.921875 9.65625 -12.609375 C 10.695312 -12.304688 11.644531 -11.929688 12.5 -11.484375 C 13.363281 -11.035156 14.171875 -10.585938 14.921875 -10.140625 C 15.679688 -9.703125 16.421875 -9.328125 17.140625 -9.015625 C 17.859375 -8.703125 18.597656 -8.546875 19.359375 -8.546875 L 20.140625 -8.546875 L 20.40625 -5.875 C 19.144531 -5.875 17.992188 -5.664062 16.953125 -5.25 C 15.910156 -4.84375 14.863281 -4.335938 13.8125 -3.734375 C 12.757812 -3.128906 11.601562 -2.53125 10.34375 -1.9375 C 9.09375 -1.34375 7.640625 -0.835938 5.984375 -0.421875 C 4.328125 -0.015625 2.332031 0.1875 0 0.1875 Z M 10.375 6.90625 C 9.851562 6.90625 9.410156 6.722656 9.046875 6.359375 C 8.691406 6.003906 8.515625 5.582031 8.515625 5.09375 C 8.515625 4.59375 8.691406 4.15625 9.046875 3.78125 C 9.410156 3.414062 9.851562 3.234375 10.375 3.234375 C 10.863281 3.234375 11.285156 3.414062 11.640625 3.78125 C 12.003906 4.15625 12.1875 4.59375 12.1875 5.09375 C 12.1875 5.582031 12.003906 6.003906 11.640625 6.359375 C 11.285156 6.722656 10.863281 6.90625 10.375 6.90625 Z M 10.375 6.90625 "/></g></g></g></svg>