<svg xmlns="http://www.w3.org/2000/svg" xmlns:xlink="http://www.w3.org/1999/xlink" width="500" zoomAndPan="magnify" viewBox="0 0 375 374.999991" height="500" preserveAspectRatio="xMidYMid meet" version="1.0"><defs><g/><clipPath id="47ff35ca90"><path d="M 119.640625 147.792969 L 299.640625 147.792969 L 299.640625 249 L 119.640625 249 Z M 119.640625 147.792969 " clip-rule="nonzero"/></clipPath><clipPath id="62a9bd4874"><path d="M 113.878906 147.792969 L 305.128906 147.792969 L 305.128906 167 L 113.878906 167 Z M 113.878906 147.792969 " clip-rule="nonzero"/></clipPath><clipPath id="5923acb83a"><path d="M 113.878906 166 L 305.128906 166 L 305.128906 186 L 113.878906 186 Z M 113.878906 166 " clip-rule="nonzero"/></clipPath><clipPath id="cbb5b83d76"><path d="M 113.878906 185 L 305.128906 185 L 305.128906 204 L 113.878906 204 Z M 113.878906 185 " clip-rule="nonzero"/></clipPath><clipPath id="a8a0fe7420"><path d="M 113.878906 203 L 305.128906 203 L 305.128906 223 L 113.878906 223 Z M 113.878906 203 " clip-rule="nonzero"/></clipPath><clipPath id="279793577d"><path d="M 113.878906 222 L 305.128906 222 L 305.128906 241 L 113.878906 241 Z M 113.878906 222 " clip-rule="nonzero"/></clipPath><clipPath id="d0a6f0f2fd"><path d="M 113.878906 240 L 305.128906 240 L 305.128906 260 L 113.878906 260 Z M 113.878906 240 " clip-rule="nonzero"/></clipPath><clipPath id="7d83b936bb"><path d="M 113.878906 259 L 305.128906 259 L 305.128906 279 L 113.878906 279 Z M 113.878906 259 " clip-rule="nonzero"/></clipPath><clipPath id="a97c60ef3e"><path d="M 113.878906 278 L 305.128906 278 L 305.128906 296.292969 L 113.878906 296.292969 Z M 113.878906 278 " clip-rule="nonzero"/></clipPath></defs><g clip-path="url(#47ff35ca90)"><path fill="#000000" d="M 209.464844 147.949219 C 209.464844 147.949219 202.914062 155.648438 199.585938 159.449219 C 173.234375 189.527344 119.640625 202.578125 119.640625 248.882812 L 299.621094 248.882812 C 299.621094 202.527344 246.070312 189.390625 219.53125 159.433594 C 216.15625 155.621094 209.464844 147.949219 209.464844 147.949219 Z M 209.464844 147.949219 " fill-opacity="1" fill-rule="nonzero"/></g><g clip-path="url(#62a9bd4874)"><path fill="#ffffff" d="M 294.644531 158.996094 L 283.898438 147.855469 L 273.152344 158.996094 L 262.40625 147.855469 L 251.664062 158.996094 L 240.917969 147.855469 L 230.171875 158.996094 L 219.429688 147.855469 L 208.683594 158.996094 L 197.9375 147.855469 L 187.191406 158.996094 L 176.449219 147.855469 L 165.703125 158.996094 L 154.957031 147.855469 L 144.210938 158.996094 L 133.46875 147.855469 L 122.722656 158.996094 L 113.878906 149.828125 L 113.878906 157.277344 L 122.722656 166.445312 L 133.46875 155.304688 L 144.210938 166.445312 L 154.957031 155.304688 L 165.703125 166.445312 L 176.449219 155.304688 L 187.191406 166.445312 L 197.9375 155.304688 L 208.683594 166.445312 L 219.429688 155.304688 L 230.171875 166.445312 L 240.917969 155.304688 L 251.664062 166.445312 L 262.40625 155.304688 L 273.152344 166.445312 L 283.898438 155.304688 L 294.644531 166.445312 L 305.339844 155.351562 L 305.339844 147.925781 Z M 294.644531 158.996094 " fill-opacity="1" fill-rule="nonzero"/></g><g clip-path="url(#5923acb83a)"><path fill="#ffffff" d="M 283.898438 166.445312 L 273.152344 177.609375 L 262.40625 166.445312 L 251.664062 177.609375 L 240.917969 166.445312 L 230.171875 177.609375 L 219.429688 166.445312 L 208.683594 177.609375 L 197.9375 166.445312 L 187.191406 177.609375 L 176.449219 166.445312 L 165.703125 177.609375 L 154.957031 166.445312 L 144.210938 177.609375 L 133.46875 166.445312 L 122.722656 177.609375 L 113.878906 168.417969 L 113.878906 175.867188 L 122.722656 185.035156 L 133.46875 173.894531 L 144.210938 185.035156 L 154.957031 173.894531 L 165.703125 185.035156 L 176.449219 173.894531 L 187.191406 185.035156 L 197.9375 173.894531 L 208.683594 185.035156 L 219.429688 173.894531 L 230.171875 185.035156 L 240.917969 173.894531 L 251.664062 185.035156 L 262.40625 173.894531 L 273.152344 185.035156 L 283.898438 173.894531 L 294.644531 185.035156 L 305.339844 173.941406 L 305.339844 166.515625 L 294.644531 177.609375 Z M 283.898438 166.445312 " fill-opacity="1" fill-rule="nonzero"/></g><g clip-path="url(#cbb5b83d76)"><path fill="#ffffff" d="M 283.898438 185.035156 L 273.152344 196.195312 L 262.40625 185.035156 L 251.664062 196.195312 L 240.917969 185.035156 L 230.171875 196.195312 L 219.429688 185.035156 L 208.683594 196.195312 L 197.9375 185.035156 L 187.191406 196.195312 L 176.449219 185.035156 L 165.703125 196.195312 L 154.957031 185.035156 L 144.210938 196.195312 L 133.46875 185.035156 L 122.722656 196.195312 L 113.878906 187.007812 L 113.878906 194.457031 L 122.722656 203.648438 L 133.46875 192.484375 L 144.210938 203.648438 L 154.957031 192.484375 L 165.703125 203.648438 L 176.449219 192.484375 L 187.191406 203.648438 L 197.9375 192.484375 L 208.683594 203.648438 L 219.429688 192.484375 L 230.171875 203.648438 L 240.917969 192.484375 L 251.664062 203.648438 L 262.40625 192.484375 L 273.152344 203.648438 L 283.898438 192.484375 L 294.644531 203.648438 L 305.339844 192.554688 L 305.339844 185.105469 L 294.644531 196.195312 Z M 283.898438 185.035156 " fill-opacity="1" fill-rule="nonzero"/></g><g clip-path="url(#a8a0fe7420)"><path fill="#ffffff" d="M 283.898438 203.648438 L 273.152344 214.785156 L 262.40625 203.648438 L 251.664062 214.785156 L 240.917969 203.648438 L 230.171875 214.785156 L 219.429688 203.648438 L 208.683594 214.785156 L 197.9375 203.648438 L 187.191406 214.785156 L 176.449219 203.648438 L 165.703125 214.785156 L 154.957031 203.648438 L 144.210938 214.785156 L 133.46875 203.648438 L 122.722656 214.785156 L 113.878906 205.621094 L 113.878906 213.046875 L 122.722656 222.234375 L 133.46875 211.074219 L 144.210938 222.234375 L 154.957031 211.074219 L 165.703125 222.234375 L 176.449219 211.074219 L 187.191406 222.234375 L 197.9375 211.074219 L 208.683594 222.234375 L 219.429688 211.074219 L 230.171875 222.234375 L 240.917969 211.074219 L 251.664062 222.234375 L 262.40625 211.074219 L 273.152344 222.234375 L 283.898438 211.074219 L 294.644531 222.234375 L 305.339844 211.144531 L 305.339844 203.691406 L 294.644531 214.785156 Z M 283.898438 203.648438 " fill-opacity="1" fill-rule="nonzero"/></g><g clip-path="url(#279793577d)"><path fill="#ffffff" d="M 283.898438 222.234375 L 273.152344 233.375 L 262.40625 222.234375 L 251.664062 233.375 L 240.917969 222.234375 L 230.171875 233.375 L 219.429688 222.234375 L 208.683594 233.375 L 197.9375 222.234375 L 187.191406 233.375 L 176.449219 222.234375 L 165.703125 233.375 L 154.957031 222.234375 L 144.210938 233.375 L 133.46875 222.234375 L 122.722656 233.375 L 113.878906 224.207031 L 113.878906 231.636719 L 122.722656 240.824219 L 133.46875 229.664062 L 144.210938 240.824219 L 154.957031 229.664062 L 165.703125 240.824219 L 176.449219 229.664062 L 187.191406 240.824219 L 197.9375 229.664062 L 208.683594 240.824219 L 219.429688 229.664062 L 230.171875 240.824219 L 240.917969 229.664062 L 251.664062 240.824219 L 262.40625 229.664062 L 273.152344 240.824219 L 283.898438 229.664062 L 294.644531 240.824219 L 305.339844 229.730469 L 305.339844 222.28125 L 294.644531 233.375 Z M 283.898438 222.234375 " fill-opacity="1" fill-rule="nonzero"/></g><g clip-path="url(#d0a6f0f2fd)"><path fill="#ffffff" d="M 283.898438 240.824219 L 273.152344 251.964844 L 262.40625 240.824219 L 251.664062 251.964844 L 240.917969 240.824219 L 230.171875 251.964844 L 219.429688 240.824219 L 208.683594 251.964844 L 197.9375 240.824219 L 187.191406 251.964844 L 176.449219 240.824219 L 165.703125 251.964844 L 154.957031 240.824219 L 144.210938 251.964844 L 133.46875 240.824219 L 122.722656 251.964844 L 113.878906 242.796875 L 113.878906 250.246094 L 122.722656 259.414062 L 133.46875 248.273438 L 144.210938 259.414062 L 154.957031 248.273438 L 165.703125 259.414062 L 176.449219 248.273438 L 187.191406 259.414062 L 197.9375 248.273438 L 208.683594 259.414062 L 219.429688 248.273438 L 230.171875 259.414062 L 240.917969 248.273438 L 251.664062 259.414062 L 262.40625 248.273438 L 273.152344 259.414062 L 283.898438 248.273438 L 294.644531 259.414062 L 305.339844 248.320312 L 305.339844 240.871094 L 294.644531 251.964844 Z M 283.898438 240.824219 " fill-opacity="1" fill-rule="nonzero"/></g><g clip-path="url(#7d83b936bb)"><path fill="#ffffff" d="M 283.898438 259.414062 L 273.152344 270.578125 L 262.40625 259.414062 L 251.664062 270.578125 L 240.917969 259.414062 L 230.171875 270.578125 L 219.429688 259.414062 L 208.683594 270.578125 L 197.9375 259.414062 L 187.191406 270.578125 L 176.449219 259.414062 L 165.703125 270.578125 L 154.957031 259.414062 L 144.210938 270.578125 L 133.46875 259.414062 L 122.722656 270.578125 L 113.878906 261.386719 L 113.878906 268.835938 L 122.722656 278.003906 L 133.46875 266.863281 L 144.210938 278.003906 L 154.957031 266.863281 L 165.703125 278.003906 L 176.449219 266.863281 L 187.191406 278.003906 L 197.9375 266.863281 L 208.683594 278.003906 L 219.429688 266.863281 L 230.171875 278.003906 L 240.917969 266.863281 L 251.664062 278.003906 L 262.40625 266.863281 L 273.152344 278.003906 L 283.898438 266.863281 L 294.644531 278.003906 L 305.339844 266.910156 L 305.339844 259.484375 L 294.644531 270.578125 Z M 283.898438 259.414062 " fill-opacity="1" fill-rule="nonzero"/></g><g clip-path="url(#a97c60ef3e)"><path fill="#ffffff" d="M 283.898438 278.003906 L 273.152344 289.164062 L 262.40625 278.003906 L 251.664062 289.164062 L 240.917969 278.003906 L 230.171875 289.164062 L 219.429688 278.003906 L 208.683594 289.164062 L 197.9375 278.003906 L 187.191406 289.164062 L 176.449219 278.003906 L 165.703125 289.164062 L 154.957031 278.003906 L 144.210938 289.164062 L 133.46875 278.003906 L 122.722656 289.164062 L 113.878906 279.976562 L 113.878906 287.425781 L 122.722656 296.59375 L 133.46875 285.453125 L 144.210938 296.59375 L 154.957031 285.453125 L 165.703125 296.59375 L 176.449219 285.453125 L 187.191406 296.59375 L 197.9375 285.453125 L 208.683594 296.59375 L 219.429688 285.453125 L 230.171875 296.59375 L 240.917969 285.453125 L 251.664062 296.59375 L 262.40625 285.453125 L 273.152344 296.59375 L 283.898438 285.453125 L 294.644531 296.59375 L 305.339844 285.5 L 305.339844 278.074219 L 294.644531 289.164062 Z M 283.898438 278.003906 " fill-opacity="1" fill-rule="nonzero"/></g><g fill="#000000" fill-opacity="1"><g transform="translate(236.288149, 43.675075)"><g><path d="M 6.703125 -12.0625 L 6.703125 -10.8125 L 2.5625 -10.8125 L 2.5625 -7.234375 L 6.578125 -7.234375 L 6.578125 -5.984375 L 2.5625 -5.984375 L 2.5625 0 L 1.21875 0 L 1.21875 -12.0625 Z M 6.703125 -12.0625 "/></g></g></g><g fill="#000000" fill-opacity="1"><g transform="translate(243.934312, 43.675075)"><g><path d="M 0.546875 -3.75 C 0.546875 -4.457031 0.71875 -5.117188 1.0625 -5.734375 C 1.414062 -6.359375 1.894531 -6.847656 2.5 -7.203125 C 3.113281 -7.554688 3.78125 -7.734375 4.5 -7.734375 C 5.207031 -7.734375 5.863281 -7.554688 6.46875 -7.203125 C 7.070312 -6.847656 7.550781 -6.363281 7.90625 -5.75 C 8.269531 -5.132812 8.453125 -4.46875 8.453125 -3.75 C 8.453125 -3.03125 8.273438 -2.363281 7.921875 -1.75 C 7.566406 -1.132812 7.082031 -0.65625 6.46875 -0.3125 C 5.863281 0.03125 5.207031 0.203125 4.5 0.203125 C 3.78125 0.203125 3.113281 0.03125 2.5 -0.3125 C 1.882812 -0.664062 1.40625 -1.148438 1.0625 -1.765625 C 0.71875 -2.378906 0.546875 -3.039062 0.546875 -3.75 Z M 4.484375 -6.546875 C 3.722656 -6.546875 3.085938 -6.273438 2.578125 -5.734375 C 2.078125 -5.191406 1.828125 -4.535156 1.828125 -3.765625 C 1.828125 -3.179688 1.960938 -2.664062 2.234375 -2.21875 C 2.515625 -1.78125 2.851562 -1.460938 3.25 -1.265625 C 3.65625 -1.066406 4.070312 -0.96875 4.5 -0.96875 C 4.988281 -0.96875 5.4375 -1.082031 5.84375 -1.3125 C 6.25 -1.539062 6.570312 -1.867188 6.8125 -2.296875 C 7.050781 -2.734375 7.171875 -3.222656 7.171875 -3.765625 C 7.171875 -4.253906 7.0625 -4.710938 6.84375 -5.140625 C 6.625 -5.566406 6.304688 -5.90625 5.890625 -6.15625 C 5.472656 -6.414062 5.003906 -6.546875 4.484375 -6.546875 Z M 4.484375 -6.546875 "/></g></g></g><g fill="#000000" fill-opacity="1"><g transform="translate(252.924149, 43.675075)"><g><path d="M 7.234375 0 L 5.953125 0 L 5.953125 -4.390625 C 5.953125 -5.140625 5.835938 -5.6875 5.609375 -6.03125 C 5.378906 -6.375 4.96875 -6.546875 4.375 -6.546875 C 3.6875 -6.546875 3.203125 -6.3125 2.921875 -5.84375 C 2.640625 -5.375 2.5 -4.660156 2.5 -3.703125 L 2.5 0 L 1.21875 0 L 1.21875 -7.515625 L 2.5 -7.515625 L 2.5 -6.609375 L 2.53125 -6.609375 C 2.789062 -6.972656 3.09375 -7.25 3.4375 -7.4375 C 3.789062 -7.632812 4.203125 -7.734375 4.671875 -7.734375 C 5.515625 -7.734375 6.148438 -7.472656 6.578125 -6.953125 C 7.015625 -6.429688 7.234375 -5.628906 7.234375 -4.546875 Z M 7.234375 0 "/></g></g></g><g fill="#000000" fill-opacity="1"><g transform="translate(261.370117, 43.675075)"><g><path d="M 2.5625 -10.21875 L 2.5625 -7.515625 L 3.90625 -7.515625 L 3.90625 -6.34375 L 2.5625 -6.34375 L 2.5625 0 L 1.28125 0 L 1.28125 -6.34375 L 0.5 -6.34375 L 0.5 -7.515625 L 1.28125 -7.515625 L 1.28125 -10.21875 Z M 2.5625 -10.21875 "/></g></g></g><g fill="#000000" fill-opacity="1"><g transform="translate(265.210022, 43.675075)"><g/></g></g><g fill="#000000" fill-opacity="1"><g transform="translate(270.13684, 43.675075)"><g/></g></g><g fill="#000000" fill-opacity="1"><g transform="translate(275.06549, 43.675075)"><g><path d="M 6.796875 -6.453125 L 6.796875 -7.515625 L 8.078125 -7.515625 L 8.078125 0 L 6.796875 0 L 6.796875 -1.046875 L 6.765625 -1.046875 C 6.109375 -0.210938 5.242188 0.203125 4.171875 0.203125 C 3.128906 0.203125 2.269531 -0.175781 1.59375 -0.9375 C 0.914062 -1.707031 0.578125 -2.644531 0.578125 -3.75 C 0.578125 -4.894531 0.914062 -5.84375 1.59375 -6.59375 C 2.28125 -7.351562 3.144531 -7.734375 4.1875 -7.734375 C 4.707031 -7.734375 5.1875 -7.617188 5.625 -7.390625 C 6.070312 -7.171875 6.453125 -6.859375 6.765625 -6.453125 Z M 4.34375 -6.546875 C 3.65625 -6.546875 3.070312 -6.28125 2.59375 -5.75 C 2.125 -5.226562 1.890625 -4.59375 1.890625 -3.84375 C 1.890625 -3.03125 2.117188 -2.347656 2.578125 -1.796875 C 3.046875 -1.242188 3.640625 -0.96875 4.359375 -0.96875 C 5.109375 -0.96875 5.710938 -1.226562 6.171875 -1.75 C 6.628906 -2.28125 6.859375 -2.972656 6.859375 -3.828125 C 6.859375 -4.597656 6.625 -5.242188 6.15625 -5.765625 C 5.6875 -6.285156 5.082031 -6.546875 4.34375 -6.546875 Z M 4.34375 -6.546875 "/></g></g></g><g fill="#000000" fill-opacity="1"><g transform="translate(284.295275, 43.675075)"><g><path d="M 2.46875 -13.203125 L 2.46875 0 L 1.1875 0 L 1.1875 -13.203125 Z M 2.46875 -13.203125 "/></g></g></g><g fill="#000000" fill-opacity="1"><g transform="translate(287.926405, 43.675075)"><g><path d="M 2.46875 -13.203125 L 2.46875 0 L 1.1875 0 L 1.1875 -13.203125 Z M 2.46875 -13.203125 "/></g></g></g><g fill="#000000" fill-opacity="1"><g transform="translate(291.557535, 43.675075)"><g/></g></g><g fill="#000000" fill-opacity="1"><g transform="translate(296.484354, 43.675075)"><g><path d="M 3.3125 -4.453125 L 3.3125 -3.265625 L 0.03125 -3.265625 L 0.03125 -4.453125 Z M 3.3125 -4.453125 "/></g></g></g><g fill="#000000" fill-opacity="1"><g transform="translate(299.811552, 43.675075)"><g/></g></g><g fill="#000000" fill-opacity="1"><g transform="translate(304.73837, 43.675075)"><g><path d="M 6.703125 -12.0625 L 6.703125 -10.8125 L 2.5625 -10.8125 L 2.5625 -7.234375 L 6.578125 -7.234375 L 6.578125 -5.984375 L 2.5625 -5.984375 L 2.5625 0 L 1.21875 0 L 1.21875 -12.0625 Z M 6.703125 -12.0625 "/></g></g></g><g fill="#000000" fill-opacity="1"><g transform="translate(312.384534, 43.675075)"><g><path d="M 2.40625 -7.515625 L 2.40625 -3.21875 C 2.40625 -2.425781 2.523438 -1.851562 2.765625 -1.5 C 3.015625 -1.144531 3.457031 -0.96875 4.09375 -0.96875 C 4.726562 -0.96875 5.171875 -1.140625 5.421875 -1.484375 C 5.671875 -1.835938 5.796875 -2.394531 5.796875 -3.15625 L 5.796875 -7.515625 L 7.078125 -7.515625 L 7.078125 -3.109375 C 7.078125 -2.015625 6.828125 -1.1875 6.328125 -0.625 C 5.828125 -0.0703125 5.082031 0.203125 4.09375 0.203125 C 3.101562 0.203125 2.359375 -0.078125 1.859375 -0.640625 C 1.367188 -1.203125 1.125 -2.023438 1.125 -3.109375 L 1.125 -7.515625 Z M 2.40625 -7.515625 "/></g></g></g><g fill="#000000" fill-opacity="1"><g transform="translate(320.574566, 43.675075)"><g><path d="M 2.5625 -10.21875 L 2.5625 -7.515625 L 3.90625 -7.515625 L 3.90625 -6.34375 L 2.5625 -6.34375 L 2.5625 0 L 1.28125 0 L 1.28125 -6.34375 L 0.5 -6.34375 L 0.5 -7.515625 L 1.28125 -7.515625 L 1.28125 -10.21875 Z M 2.5625 -10.21875 "/></g></g></g><g fill="#000000" fill-opacity="1"><g transform="translate(324.413647, 43.675075)"><g><path d="M 2.40625 -7.515625 L 2.40625 -3.21875 C 2.40625 -2.425781 2.523438 -1.851562 2.765625 -1.5 C 3.015625 -1.144531 3.457031 -0.96875 4.09375 -0.96875 C 4.726562 -0.96875 5.171875 -1.140625 5.421875 -1.484375 C 5.671875 -1.835938 5.796875 -2.394531 5.796875 -3.15625 L 5.796875 -7.515625 L 7.078125 -7.515625 L 7.078125 -3.109375 C 7.078125 -2.015625 6.828125 -1.1875 6.328125 -0.625 C 5.828125 -0.0703125 5.082031 0.203125 4.09375 0.203125 C 3.101562 0.203125 2.359375 -0.078125 1.859375 -0.640625 C 1.367188 -1.203125 1.125 -2.023438 1.125 -3.109375 L 1.125 -7.515625 Z M 2.40625 -7.515625 "/></g></g></g><g fill="#000000" fill-opacity="1"><g transform="translate(332.603679, 43.675075)"><g><path d="M 4.671875 -6.203125 C 4.546875 -6.304688 4.425781 -6.390625 4.3125 -6.453125 C 4.195312 -6.515625 4.0625 -6.546875 3.90625 -6.546875 C 3.425781 -6.546875 3.0625 -6.332031 2.8125 -5.90625 C 2.5625 -5.476562 2.4375 -4.789062 2.4375 -3.84375 L 2.4375 0 L 1.15625 0 L 1.15625 -7.515625 L 2.4375 -7.515625 L 2.4375 -6.703125 L 2.46875 -6.703125 C 2.769531 -7.117188 3.039062 -7.394531 3.28125 -7.53125 C 3.519531 -7.664062 3.800781 -7.734375 4.125 -7.734375 C 4.320312 -7.734375 4.519531 -7.695312 4.71875 -7.625 C 4.914062 -7.5625 5.101562 -7.476562 5.28125 -7.375 Z M 4.671875 -6.203125 "/></g></g></g><g fill="#000000" fill-opacity="1"><g transform="translate(337.962386, 43.675075)"><g><path d="M 6.796875 -6.453125 L 6.796875 -7.515625 L 8.078125 -7.515625 L 8.078125 0 L 6.796875 0 L 6.796875 -1.046875 L 6.765625 -1.046875 C 6.109375 -0.210938 5.242188 0.203125 4.171875 0.203125 C 3.128906 0.203125 2.269531 -0.175781 1.59375 -0.9375 C 0.914062 -1.707031 0.578125 -2.644531 0.578125 -3.75 C 0.578125 -4.894531 0.914062 -5.84375 1.59375 -6.59375 C 2.28125 -7.351562 3.144531 -7.734375 4.1875 -7.734375 C 4.707031 -7.734375 5.1875 -7.617188 5.625 -7.390625 C 6.070312 -7.171875 6.453125 -6.859375 6.765625 -6.453125 Z M 4.34375 -6.546875 C 3.65625 -6.546875 3.070312 -6.28125 2.59375 -5.75 C 2.125 -5.226562 1.890625 -4.59375 1.890625 -3.84375 C 1.890625 -3.03125 2.117188 -2.347656 2.578125 -1.796875 C 3.046875 -1.242188 3.640625 -0.96875 4.359375 -0.96875 C 5.109375 -0.96875 5.710938 -1.226562 6.171875 -1.75 C 6.628906 -2.28125 6.859375 -2.972656 6.859375 -3.828125 C 6.859375 -4.597656 6.625 -5.242188 6.15625 -5.765625 C 5.6875 -6.285156 5.082031 -6.546875 4.34375 -6.546875 Z M 4.34375 -6.546875 "/></g></g></g><g fill="#000000" fill-opacity="1"><g transform="translate(225.428543, 74.989214)"><g><path d="M 8.609375 -12.984375 C 8.679688 -12.960938 8.75 -12.921875 8.8125 -12.859375 C 8.882812 -12.804688 8.941406 -12.738281 8.984375 -12.65625 C 9.023438 -12.582031 9.046875 -12.503906 9.046875 -12.421875 C 9.046875 -12.160156 8.898438 -11.972656 8.609375 -11.859375 C 8.273438 -11.710938 7.753906 -11.632812 7.046875 -11.625 C 7.421875 -9.65625 7.535156 -7.0625 7.390625 -3.84375 C 7.390625 -3.769531 7.382812 -3.566406 7.375 -3.234375 C 7.363281 -2.910156 7.351562 -2.691406 7.34375 -2.578125 C 7.332031 -2.472656 7.316406 -2.269531 7.296875 -1.96875 C 7.285156 -1.675781 7.269531 -1.460938 7.25 -1.328125 C 7.238281 -1.191406 7.21875 -0.992188 7.1875 -0.734375 C 7.15625 -0.484375 7.113281 -0.269531 7.0625 -0.09375 C 7.019531 0.0820312 6.96875 0.273438 6.90625 0.484375 C 6.851562 0.703125 6.796875 0.90625 6.734375 1.09375 C 6.390625 2.007812 5.960938 2.679688 5.453125 3.109375 C 4.753906 3.691406 3.957031 3.988281 3.0625 4 C 2.539062 4.007812 2.035156 3.894531 1.546875 3.65625 C 1.066406 3.425781 0.660156 3.113281 0.328125 2.71875 C -0.253906 2 -0.445312 1.15625 -0.25 0.1875 C -0.164062 -0.257812 0.0351562 -0.628906 0.359375 -0.921875 C 0.679688 -1.210938 1.0625 -1.359375 1.5 -1.359375 C 1.96875 -1.347656 2.359375 -1.175781 2.671875 -0.84375 C 2.992188 -0.519531 3.078125 -0.132812 2.921875 0.3125 C 2.867188 0.5 2.75 0.617188 2.5625 0.671875 C 2.382812 0.722656 2.222656 0.703125 2.078125 0.609375 C 1.929688 0.523438 1.867188 0.382812 1.890625 0.1875 C 1.890625 0.113281 1.882812 0.0507812 1.875 0 C 1.875 -0.0390625 1.859375 -0.078125 1.828125 -0.109375 C 1.804688 -0.148438 1.769531 -0.179688 1.71875 -0.203125 C 1.675781 -0.222656 1.617188 -0.238281 1.546875 -0.25 C 1.296875 -0.28125 1.097656 -0.195312 0.953125 0 C 0.773438 0.269531 0.695312 0.578125 0.71875 0.921875 C 0.75 1.273438 0.859375 1.585938 1.046875 1.859375 C 1.460938 2.429688 2.09375 2.644531 2.9375 2.5 C 3.113281 2.46875 3.273438 2.425781 3.421875 2.375 C 3.421875 2.375 3.429688 2.367188 3.453125 2.359375 C 3.484375 2.347656 3.507812 2.335938 3.53125 2.328125 C 3.550781 2.316406 3.5625 2.3125 3.5625 2.3125 C 3.625 2.28125 3.679688 2.253906 3.734375 2.234375 C 3.796875 2.203125 3.859375 2.164062 3.921875 2.125 C 3.921875 2.125 3.929688 2.113281 3.953125 2.09375 C 3.972656 2.082031 3.988281 2.070312 4 2.0625 C 4.019531 2.050781 4.03125 2.039062 4.03125 2.03125 C 4.113281 1.96875 4.179688 1.90625 4.234375 1.84375 C 4.234375 1.84375 4.242188 1.828125 4.265625 1.796875 C 4.296875 1.773438 4.320312 1.753906 4.34375 1.734375 C 4.363281 1.710938 4.375 1.703125 4.375 1.703125 C 4.414062 1.628906 4.441406 1.585938 4.453125 1.578125 C 4.535156 1.460938 4.613281 1.34375 4.6875 1.21875 C 4.71875 1.144531 4.769531 1.03125 4.84375 0.875 C 4.84375 0.875 4.847656 0.863281 4.859375 0.84375 C 4.859375 0.84375 4.863281 0.832031 4.875 0.8125 C 4.875 0.789062 4.882812 0.753906 4.90625 0.703125 C 4.925781 0.660156 4.941406 0.628906 4.953125 0.609375 C 5.117188 0.117188 5.253906 -0.476562 5.359375 -1.1875 C 5.367188 -1.207031 5.375 -1.222656 5.375 -1.234375 C 5.375 -1.285156 5.378906 -1.316406 5.390625 -1.328125 C 5.398438 -1.410156 5.40625 -1.488281 5.40625 -1.5625 C 5.425781 -1.707031 5.441406 -1.863281 5.453125 -2.03125 C 5.492188 -2.457031 5.519531 -2.734375 5.53125 -2.859375 C 5.625 -3.992188 5.703125 -5.015625 5.765625 -5.921875 C 5.785156 -6.285156 5.800781 -6.65625 5.8125 -7.03125 C 5.820312 -7.414062 5.828125 -7.804688 5.828125 -8.203125 C 5.828125 -8.609375 5.820312 -8.972656 5.8125 -9.296875 C 5.8125 -9.628906 5.8125 -10.019531 5.8125 -10.46875 C 5.8125 -10.925781 5.8125 -11.296875 5.8125 -11.578125 C 5.382812 -11.566406 4.96875 -11.554688 4.5625 -11.546875 C 3.582031 -11.523438 2.878906 -11.507812 2.453125 -11.5 C 2.367188 -11.488281 2.203125 -11.472656 1.953125 -11.453125 C 1.710938 -11.429688 1.519531 -11.414062 1.375 -11.40625 C 1.226562 -11.40625 1.0625 -11.425781 0.875 -11.46875 C 0.6875 -11.507812 0.539062 -11.582031 0.4375 -11.6875 C 0.300781 -11.832031 0.238281 -11.984375 0.25 -12.140625 C 0.257812 -12.304688 0.320312 -12.460938 0.4375 -12.609375 C 0.46875 -12.648438 0.503906 -12.6875 0.546875 -12.71875 C 0.585938 -12.75 0.632812 -12.773438 0.6875 -12.796875 C 0.738281 -12.816406 0.785156 -12.832031 0.828125 -12.84375 C 0.878906 -12.863281 0.941406 -12.875 1.015625 -12.875 C 1.085938 -12.882812 1.144531 -12.890625 1.1875 -12.890625 C 1.226562 -12.898438 1.28125 -12.90625 1.34375 -12.90625 C 1.414062 -12.90625 1.472656 -12.910156 1.515625 -12.921875 C 1.679688 -12.929688 2.007812 -12.941406 2.5 -12.953125 C 2.976562 -12.972656 3.664062 -12.992188 4.5625 -13.015625 C 5.757812 -13.035156 6.46875 -13.046875 6.6875 -13.046875 C 6.78125 -13.054688 6.90625 -13.0625 7.0625 -13.0625 C 7.21875 -13.070312 7.347656 -13.078125 7.453125 -13.078125 C 7.566406 -13.085938 7.691406 -13.09375 7.828125 -13.09375 C 7.972656 -13.09375 8.109375 -13.082031 8.234375 -13.0625 C 8.367188 -13.050781 8.492188 -13.023438 8.609375 -12.984375 Z M 8.609375 -12.984375 "/></g></g></g><g fill="#000000" fill-opacity="1"><g transform="translate(233.650573, 74.989214)"><g><path d="M 6.84375 -6.21875 C 6.957031 -6.320312 7.085938 -6.332031 7.234375 -6.25 C 7.378906 -6.175781 7.425781 -6.066406 7.375 -5.921875 C 7.3125 -5.722656 7.21875 -5.515625 7.09375 -5.296875 C 6.976562 -5.085938 6.84375 -4.875 6.6875 -4.65625 C 6.539062 -4.445312 6.367188 -4.257812 6.171875 -4.09375 C 5.984375 -3.9375 5.785156 -3.804688 5.578125 -3.703125 C 5.378906 -3.609375 5.164062 -3.578125 4.9375 -3.609375 C 4.707031 -3.640625 4.488281 -3.75 4.28125 -3.9375 C 4.09375 -4.101562 3.945312 -4.320312 3.84375 -4.59375 C 3.445312 -4.195312 2.988281 -3.984375 2.46875 -3.953125 C 2.007812 -3.921875 1.601562 -4.023438 1.25 -4.265625 C 0.894531 -4.515625 0.640625 -4.828125 0.484375 -5.203125 C 0.335938 -5.585938 0.265625 -6.003906 0.265625 -6.453125 C 0.273438 -6.898438 0.382812 -7.300781 0.59375 -7.65625 C 0.78125 -8.03125 1.0625 -8.332031 1.4375 -8.5625 C 1.8125 -8.789062 2.207031 -8.898438 2.625 -8.890625 C 3.332031 -8.890625 3.894531 -8.632812 4.3125 -8.125 C 4.351562 -8.195312 4.410156 -8.3125 4.484375 -8.46875 C 4.554688 -8.625 4.609375 -8.734375 4.640625 -8.796875 C 4.710938 -8.972656 4.847656 -9.015625 5.046875 -8.921875 C 5.242188 -8.835938 5.3125 -8.707031 5.25 -8.53125 C 5.03125 -7.851562 4.863281 -7.210938 4.75 -6.609375 C 4.582031 -5.773438 4.617188 -5.171875 4.859375 -4.796875 C 4.929688 -4.679688 5.019531 -4.609375 5.125 -4.578125 C 5.238281 -4.554688 5.347656 -4.578125 5.453125 -4.640625 C 5.554688 -4.703125 5.660156 -4.785156 5.765625 -4.890625 C 5.878906 -4.992188 5.988281 -5.113281 6.09375 -5.25 C 6.207031 -5.394531 6.304688 -5.53125 6.390625 -5.65625 C 6.484375 -5.78125 6.570312 -5.894531 6.65625 -6 C 6.738281 -6.101562 6.800781 -6.175781 6.84375 -6.21875 Z M 2.234375 -5.34375 C 2.328125 -5.300781 2.414062 -5.28125 2.5 -5.28125 C 2.59375 -5.28125 2.675781 -5.289062 2.75 -5.3125 C 2.820312 -5.332031 2.894531 -5.363281 2.96875 -5.40625 C 3.050781 -5.457031 3.117188 -5.507812 3.171875 -5.5625 C 3.234375 -5.613281 3.296875 -5.679688 3.359375 -5.765625 C 3.429688 -5.847656 3.488281 -5.914062 3.53125 -5.96875 C 3.570312 -6.03125 3.625 -6.101562 3.6875 -6.1875 C 3.695312 -6.25 3.707031 -6.3125 3.71875 -6.375 C 3.769531 -6.675781 3.859375 -7.003906 3.984375 -7.359375 C 3.390625 -7.847656 2.863281 -7.960938 2.40625 -7.703125 C 2.164062 -7.554688 1.988281 -7.351562 1.875 -7.09375 C 1.78125 -6.894531 1.726562 -6.679688 1.71875 -6.453125 C 1.71875 -6.359375 1.71875 -6.273438 1.71875 -6.203125 C 1.71875 -6.160156 1.71875 -6.140625 1.71875 -6.140625 C 1.726562 -6.128906 1.734375 -6.109375 1.734375 -6.078125 C 1.742188 -6.023438 1.757812 -5.960938 1.78125 -5.890625 C 1.800781 -5.835938 1.816406 -5.800781 1.828125 -5.78125 C 1.929688 -5.5625 2.066406 -5.414062 2.234375 -5.34375 Z M 2.234375 -5.34375 "/></g></g></g><g fill="#000000" fill-opacity="1"><g transform="translate(239.409194, 74.989214)"><g><path d="M 5.375 -6.1875 C 5.550781 -6.238281 5.675781 -6.179688 5.75 -6.015625 C 5.820312 -5.847656 5.78125 -5.707031 5.625 -5.59375 C 5.539062 -5.539062 5.289062 -5.425781 4.875 -5.25 C 4.769531 -5.207031 4.625 -5.140625 4.4375 -5.046875 C 4.257812 -4.953125 4.144531 -4.894531 4.09375 -4.875 C 4.019531 -4.84375 3.894531 -4.785156 3.71875 -4.703125 C 3.539062 -4.628906 3.40625 -4.570312 3.3125 -4.53125 C 3.757812 -3.445312 3.78125 -2.59375 3.375 -1.96875 C 3.207031 -1.6875 2.976562 -1.476562 2.6875 -1.34375 C 2.40625 -1.21875 2.125 -1.203125 1.84375 -1.296875 C 1.5625 -1.378906 1.328125 -1.539062 1.140625 -1.78125 C 0.953125 -2.03125 0.84375 -2.300781 0.8125 -2.59375 C 0.726562 -3.300781 1.035156 -3.960938 1.734375 -4.578125 C 1.734375 -4.578125 1.726562 -4.582031 1.71875 -4.59375 C 1.707031 -4.613281 1.703125 -4.628906 1.703125 -4.640625 C 1.523438 -4.972656 1.40625 -5.207031 1.34375 -5.34375 C 1.289062 -5.476562 1.210938 -5.679688 1.109375 -5.953125 C 1.015625 -6.234375 0.953125 -6.484375 0.921875 -6.703125 C 0.796875 -7.523438 0.984375 -8.179688 1.484375 -8.671875 C 1.703125 -8.878906 1.988281 -9 2.34375 -9.03125 C 2.707031 -9.070312 3.019531 -9.007812 3.28125 -8.84375 C 3.507812 -8.707031 3.6875 -8.515625 3.8125 -8.265625 C 3.945312 -8.015625 4 -7.753906 3.96875 -7.484375 C 3.925781 -7.191406 3.785156 -6.960938 3.546875 -6.796875 C 3.304688 -6.628906 3.046875 -6.625 2.765625 -6.78125 C 2.609375 -6.894531 2.5625 -7.039062 2.625 -7.21875 C 2.695312 -7.394531 2.835938 -7.460938 3.046875 -7.421875 C 3.171875 -7.390625 3.226562 -7.445312 3.21875 -7.59375 C 3.195312 -7.800781 3.117188 -7.957031 2.984375 -8.0625 C 2.960938 -8.070312 2.945312 -8.078125 2.9375 -8.078125 C 2.695312 -8.203125 2.515625 -8.109375 2.390625 -7.796875 C 2.335938 -7.679688 2.304688 -7.554688 2.296875 -7.421875 C 2.296875 -7.296875 2.304688 -7.175781 2.328125 -7.0625 C 2.347656 -6.945312 2.378906 -6.8125 2.421875 -6.65625 C 2.472656 -6.507812 2.515625 -6.390625 2.546875 -6.296875 C 2.578125 -6.210938 2.625 -6.097656 2.6875 -5.953125 C 2.707031 -5.910156 2.71875 -5.878906 2.71875 -5.859375 C 2.769531 -5.722656 2.847656 -5.546875 2.953125 -5.328125 C 3.285156 -5.484375 3.648438 -5.628906 4.046875 -5.765625 C 4.910156 -6.046875 5.351562 -6.1875 5.375 -6.1875 Z M 2.421875 -2.796875 C 2.441406 -2.972656 2.351562 -3.257812 2.15625 -3.65625 C 2.15625 -3.675781 2.148438 -3.691406 2.140625 -3.703125 C 2.140625 -3.710938 2.140625 -3.722656 2.140625 -3.734375 C 1.835938 -3.378906 1.722656 -3.046875 1.796875 -2.734375 C 1.847656 -2.515625 1.957031 -2.414062 2.125 -2.4375 C 2.289062 -2.46875 2.390625 -2.585938 2.421875 -2.796875 Z M 2.421875 -2.796875 "/></g></g></g><g fill="#000000" fill-opacity="1"><g transform="translate(243.616179, 74.989214)"><g><path d="M 6.546875 -6.4375 C 6.648438 -6.632812 6.804688 -6.679688 7.015625 -6.578125 C 7.222656 -6.484375 7.304688 -6.328125 7.265625 -6.109375 C 7.191406 -5.660156 7.003906 -5.238281 6.703125 -4.84375 C 6.398438 -4.457031 6.050781 -4.207031 5.65625 -4.09375 C 5.3125 -3.988281 4.972656 -4.015625 4.640625 -4.171875 C 4.304688 -4.328125 4.0625 -4.566406 3.90625 -4.890625 C 3.71875 -5.273438 3.679688 -5.75 3.796875 -6.3125 C 3.816406 -6.40625 3.851562 -6.546875 3.90625 -6.734375 C 3.96875 -6.929688 4.003906 -7.070312 4.015625 -7.15625 C 4.023438 -7.238281 4.019531 -7.382812 4 -7.59375 C 3.90625 -7.976562 3.753906 -8.175781 3.546875 -8.1875 C 3.210938 -8.207031 2.941406 -7.898438 2.734375 -7.265625 C 2.566406 -6.734375 2.488281 -6.1875 2.5 -5.625 C 2.507812 -5.457031 2.523438 -5.269531 2.546875 -5.0625 C 2.566406 -4.863281 2.59375 -4.648438 2.625 -4.421875 C 2.664062 -4.203125 2.691406 -4.019531 2.703125 -3.875 C 2.722656 -3.695312 2.671875 -3.546875 2.546875 -3.421875 C 2.421875 -3.296875 2.273438 -3.21875 2.109375 -3.1875 C 1.941406 -3.164062 1.785156 -3.203125 1.640625 -3.296875 C 1.503906 -3.390625 1.410156 -3.519531 1.359375 -3.6875 C 0.878906 -5.195312 0.597656 -6.71875 0.515625 -8.25 C 0.429688 -9.625 0.515625 -10.972656 0.765625 -12.296875 C 0.890625 -12.984375 1.117188 -13.46875 1.453125 -13.75 C 1.703125 -13.945312 1.960938 -14.054688 2.234375 -14.078125 C 2.515625 -14.097656 2.789062 -14.03125 3.0625 -13.875 C 3.269531 -13.726562 3.414062 -13.523438 3.5 -13.265625 C 3.59375 -13.015625 3.625 -12.738281 3.59375 -12.4375 C 3.5625 -12.132812 3.515625 -11.859375 3.453125 -11.609375 C 3.390625 -11.359375 3.316406 -11.109375 3.234375 -10.859375 C 2.890625 -9.953125 2.453125 -9.242188 1.921875 -8.734375 C 1.929688 -8.484375 1.945312 -8.234375 1.96875 -7.984375 C 2.125 -8.253906 2.335938 -8.492188 2.609375 -8.703125 C 2.890625 -8.910156 3.164062 -9.03125 3.4375 -9.0625 C 3.476562 -9.070312 3.515625 -9.078125 3.546875 -9.078125 C 3.847656 -9.078125 4.125 -8.988281 4.375 -8.8125 C 4.632812 -8.632812 4.828125 -8.410156 4.953125 -8.140625 C 5.179688 -7.671875 5.210938 -7.078125 5.046875 -6.359375 C 5.003906 -5.941406 5.019531 -5.65625 5.09375 -5.5 L 5.125 -5.4375 C 5.132812 -5.414062 5.144531 -5.398438 5.15625 -5.390625 L 5.1875 -5.375 C 5.21875 -5.363281 5.257812 -5.351562 5.3125 -5.34375 C 5.3125 -5.34375 5.328125 -5.335938 5.359375 -5.328125 C 5.390625 -5.328125 5.410156 -5.328125 5.421875 -5.328125 C 5.453125 -5.328125 5.519531 -5.332031 5.625 -5.34375 L 5.6875 -5.34375 C 5.75 -5.375 5.816406 -5.421875 5.890625 -5.484375 C 6.085938 -5.648438 6.304688 -5.96875 6.546875 -6.4375 Z M 2.21875 -12.796875 C 2.164062 -12.671875 2.125 -12.46875 2.09375 -12.1875 C 1.988281 -11.476562 1.925781 -10.742188 1.90625 -9.984375 C 2.226562 -10.535156 2.457031 -11.109375 2.59375 -11.703125 C 2.789062 -12.535156 2.789062 -13.019531 2.59375 -13.15625 C 2.582031 -13.15625 2.566406 -13.148438 2.546875 -13.140625 C 2.484375 -13.117188 2.429688 -13.09375 2.390625 -13.0625 C 2.328125 -13 2.269531 -12.910156 2.21875 -12.796875 Z M 2.21875 -12.796875 "/></g></g></g><g fill="#000000" fill-opacity="1"><g transform="translate(249.326804, 74.989214)"><g><path d="M 7.0625 -6.078125 C 7.15625 -6.191406 7.28125 -6.203125 7.4375 -6.109375 C 7.601562 -6.023438 7.65625 -5.910156 7.59375 -5.765625 C 7.46875 -5.441406 7.375 -5.210938 7.3125 -5.078125 C 7.257812 -4.953125 7.160156 -4.765625 7.015625 -4.515625 C 6.878906 -4.265625 6.734375 -4.054688 6.578125 -3.890625 C 6.421875 -3.734375 6.238281 -3.609375 6.03125 -3.515625 C 5.550781 -3.296875 5.085938 -3.300781 4.640625 -3.53125 C 4.191406 -3.757812 3.925781 -4.132812 3.84375 -4.65625 C 3.820312 -4.769531 3.804688 -4.898438 3.796875 -5.046875 C 3.785156 -5.191406 3.78125 -5.3125 3.78125 -5.40625 C 3.789062 -5.5 3.796875 -5.628906 3.796875 -5.796875 C 3.804688 -5.972656 3.8125 -6.097656 3.8125 -6.171875 C 3.832031 -6.367188 3.832031 -6.609375 3.8125 -6.890625 C 3.800781 -7.171875 3.742188 -7.398438 3.640625 -7.578125 C 3.554688 -7.734375 3.453125 -7.832031 3.328125 -7.875 C 3.210938 -7.914062 3.085938 -7.910156 2.953125 -7.859375 C 2.828125 -7.816406 2.707031 -7.726562 2.59375 -7.59375 C 2.3125 -7.34375 2.128906 -7.050781 2.046875 -6.71875 C 2.066406 -6.445312 2.078125 -6.269531 2.078125 -6.1875 C 2.085938 -6.039062 2.101562 -5.851562 2.125 -5.625 C 2.144531 -5.394531 2.160156 -5.195312 2.171875 -5.03125 C 2.191406 -4.863281 2.207031 -4.671875 2.21875 -4.453125 C 2.226562 -4.242188 2.226562 -4.054688 2.21875 -3.890625 C 2.207031 -3.671875 2.117188 -3.507812 1.953125 -3.40625 C 1.796875 -3.300781 1.625 -3.273438 1.4375 -3.328125 C 1.25 -3.390625 1.128906 -3.523438 1.078125 -3.734375 C 0.941406 -4.203125 0.851562 -5 0.8125 -6.125 C 0.769531 -7.164062 0.816406 -7.957031 0.953125 -8.5 C 1.003906 -8.707031 1.148438 -8.8125 1.390625 -8.8125 C 1.640625 -8.8125 1.789062 -8.707031 1.84375 -8.5 C 1.863281 -8.363281 1.890625 -8.210938 1.921875 -8.046875 C 2.160156 -8.304688 2.421875 -8.492188 2.703125 -8.609375 C 3.179688 -8.796875 3.625 -8.765625 4.03125 -8.515625 C 4.4375 -8.273438 4.722656 -7.910156 4.890625 -7.421875 C 5.023438 -7.046875 5.09375 -6.507812 5.09375 -5.8125 C 5.09375 -5.789062 5.085938 -5.703125 5.078125 -5.546875 C 5.066406 -5.398438 5.0625 -5.273438 5.0625 -5.171875 C 5.0625 -5.078125 5.078125 -4.972656 5.109375 -4.859375 C 5.140625 -4.742188 5.1875 -4.664062 5.25 -4.625 C 5.457031 -4.46875 5.769531 -4.585938 6.1875 -4.984375 C 6.25 -5.054688 6.3125 -5.125 6.375 -5.1875 C 6.445312 -5.257812 6.507812 -5.332031 6.5625 -5.40625 C 6.613281 -5.476562 6.664062 -5.550781 6.71875 -5.625 C 6.769531 -5.695312 6.828125 -5.773438 6.890625 -5.859375 C 6.953125 -5.941406 7.007812 -6.015625 7.0625 -6.078125 Z M 7.0625 -6.078125 "/></g></g></g><g fill="#000000" fill-opacity="1"><g transform="translate(255.13341, 74.989214)"><g><path d="M 5.75 -6.203125 C 5.851562 -6.347656 5.988281 -6.367188 6.15625 -6.265625 C 6.332031 -6.160156 6.382812 -6.03125 6.3125 -5.875 C 6.082031 -5.3125 5.726562 -4.828125 5.25 -4.421875 C 4.769531 -4.023438 4.234375 -3.769531 3.640625 -3.65625 C 3.035156 -3.5625 2.546875 -3.582031 2.171875 -3.71875 C 1.597656 -3.9375 1.164062 -4.316406 0.875 -4.859375 C 0.6875 -5.242188 0.570312 -5.660156 0.53125 -6.109375 C 0.5 -6.554688 0.554688 -7 0.703125 -7.4375 C 0.859375 -7.875 1.113281 -8.21875 1.46875 -8.46875 C 2 -8.84375 2.535156 -8.957031 3.078125 -8.8125 C 3.628906 -8.664062 3.898438 -8.253906 3.890625 -7.578125 C 3.890625 -7.046875 3.734375 -6.582031 3.421875 -6.1875 C 3.117188 -5.800781 2.71875 -5.5625 2.21875 -5.46875 C 2.363281 -5.226562 2.5625 -5.078125 2.8125 -5.015625 C 3.0625 -4.953125 3.363281 -4.9375 3.71875 -4.96875 C 4.101562 -5.019531 4.40625 -5.117188 4.625 -5.265625 C 5.175781 -5.660156 5.550781 -5.972656 5.75 -6.203125 Z M 2.765625 -7.78125 C 2.453125 -7.65625 2.234375 -7.425781 2.109375 -7.09375 C 1.984375 -6.757812 1.953125 -6.410156 2.015625 -6.046875 C 2.472656 -6.191406 2.804688 -6.457031 3.015625 -6.84375 C 3.148438 -7.09375 3.203125 -7.335938 3.171875 -7.578125 C 3.160156 -7.722656 3.117188 -7.804688 3.046875 -7.828125 C 2.984375 -7.859375 2.890625 -7.84375 2.765625 -7.78125 Z M 2.765625 -7.78125 "/></g></g></g><g fill="#000000" fill-opacity="1"><g transform="translate(259.93226, 74.989214)"><g/></g></g><g fill="#000000" fill-opacity="1"><g transform="translate(263.723344, 74.989214)"><g><path d="M 12.421875 2.171875 C 12.992188 2.828125 13.078125 3.648438 12.671875 4.640625 C 12.367188 5.390625 11.707031 5.976562 10.6875 6.40625 C 10.195312 6.582031 9.707031 6.625 9.21875 6.53125 C 8.738281 6.4375 8.296875 6.226562 7.890625 5.90625 C 7.609375 5.6875 7.363281 5.429688 7.15625 5.140625 C 6.945312 4.847656 6.769531 4.503906 6.625 4.109375 C 6.476562 3.722656 6.363281 3.390625 6.28125 3.109375 C 6.195312 2.835938 6.101562 2.484375 6 2.046875 C 5.925781 1.722656 5.785156 1.066406 5.578125 0.078125 C 5.367188 -0.898438 5.195312 -1.648438 5.0625 -2.171875 C 4.882812 -2.773438 4.664062 -3.296875 4.40625 -3.734375 C 4.382812 -3.773438 4.34375 -3.828125 4.28125 -3.890625 L 4.28125 -3.90625 C 4.25 -3.9375 4.210938 -3.976562 4.171875 -4.03125 C 4.148438 -4.050781 4.113281 -4.085938 4.0625 -4.140625 C 4.0625 -4.148438 4.0625 -4.15625 4.0625 -4.15625 C 3.976562 -4.226562 3.910156 -4.289062 3.859375 -4.34375 C 3.679688 -4.476562 3.507812 -4.570312 3.34375 -4.625 C 3.269531 -4.632812 3.210938 -4.640625 3.171875 -4.640625 C 3.097656 -4.648438 3.023438 -4.671875 2.953125 -4.703125 C 2.890625 -4.703125 2.828125 -4.695312 2.765625 -4.6875 C 2.710938 -4.664062 2.660156 -4.660156 2.609375 -4.671875 C 2.609375 -4.347656 2.601562 -3.890625 2.59375 -3.296875 C 2.582031 -2.710938 2.578125 -2.347656 2.578125 -2.203125 C 2.578125 -1.773438 2.570312 -1.304688 2.5625 -0.796875 C 2.539062 -0.0859375 2.5 0.378906 2.4375 0.609375 C 2.34375 0.859375 2.164062 0.984375 1.90625 0.984375 C 1.644531 0.984375 1.472656 0.859375 1.390625 0.609375 C 1.359375 0.503906 1.332031 0.378906 1.3125 0.234375 C 1.289062 0.0859375 1.273438 -0.0195312 1.265625 -0.09375 C 1.265625 -0.164062 1.257812 -0.304688 1.25 -0.515625 C 1.25 -0.722656 1.25 -0.835938 1.25 -0.859375 C 1.238281 -1.316406 1.226562 -1.785156 1.21875 -2.265625 C 1.207031 -3.628906 1.207031 -4.566406 1.21875 -5.078125 C 1.226562 -7.367188 1.300781 -9.265625 1.4375 -10.765625 C 1.457031 -10.960938 1.539062 -11.097656 1.6875 -11.171875 C 1.832031 -11.242188 1.976562 -11.242188 2.125 -11.171875 C 2.28125 -11.097656 2.367188 -10.960938 2.390625 -10.765625 C 2.535156 -9.367188 2.609375 -7.617188 2.609375 -5.515625 C 2.796875 -5.585938 2.992188 -5.628906 3.203125 -5.640625 C 3.546875 -5.753906 3.785156 -5.851562 3.921875 -5.9375 C 3.992188 -5.988281 4.066406 -6.046875 4.140625 -6.109375 C 4.222656 -6.179688 4.3125 -6.265625 4.40625 -6.359375 C 4.507812 -6.460938 4.582031 -6.535156 4.625 -6.578125 C 5.113281 -7.023438 5.507812 -7.515625 5.8125 -8.046875 C 5.894531 -8.191406 5.96875 -8.335938 6.03125 -8.484375 C 6.03125 -8.484375 6.03125 -8.488281 6.03125 -8.5 C 6.039062 -8.519531 6.046875 -8.539062 6.046875 -8.5625 C 6.054688 -8.582031 6.066406 -8.601562 6.078125 -8.625 C 6.085938 -8.65625 6.097656 -8.679688 6.109375 -8.703125 C 6.117188 -8.722656 6.125 -8.734375 6.125 -8.734375 C 6.175781 -8.890625 6.21875 -9.035156 6.25 -9.171875 C 6.257812 -9.203125 6.269531 -9.242188 6.28125 -9.296875 C 6.289062 -9.347656 6.296875 -9.382812 6.296875 -9.40625 C 6.296875 -9.414062 6.300781 -9.441406 6.3125 -9.484375 C 6.320312 -9.628906 6.328125 -9.773438 6.328125 -9.921875 C 6.328125 -9.929688 6.320312 -9.976562 6.3125 -10.0625 L 6.3125 -10.171875 L 6.3125 -10.15625 C 6.28125 -10.300781 6.253906 -10.425781 6.234375 -10.53125 C 6.210938 -10.582031 6.191406 -10.644531 6.171875 -10.71875 C 6.160156 -10.71875 6.15625 -10.722656 6.15625 -10.734375 C 6.0625 -10.921875 5.988281 -11.046875 5.9375 -11.109375 C 5.914062 -11.140625 5.898438 -11.171875 5.890625 -11.203125 C 5.859375 -11.234375 5.835938 -11.25 5.828125 -11.25 C 5.617188 -11.445312 5.460938 -11.59375 5.359375 -11.6875 C 4.972656 -11.96875 4.53125 -12.175781 4.03125 -12.3125 C 3.101562 -12.582031 2.1875 -12.445312 1.28125 -11.90625 C 0.820312 -11.625 0.453125 -11.269531 0.171875 -10.84375 C -0.0976562 -10.425781 -0.207031 -9.972656 -0.15625 -9.484375 C -0.132812 -9.335938 -0.191406 -9.222656 -0.328125 -9.140625 C -0.460938 -9.066406 -0.601562 -9.050781 -0.75 -9.09375 C -0.894531 -9.132812 -0.984375 -9.226562 -1.015625 -9.375 C -1.117188 -10.101562 -0.960938 -10.765625 -0.546875 -11.359375 C -0.140625 -11.960938 0.414062 -12.476562 1.125 -12.90625 C 2.300781 -13.625 3.546875 -13.863281 4.859375 -13.625 C 5.628906 -13.488281 6.300781 -13.207031 6.875 -12.78125 C 7.445312 -12.351562 7.859375 -11.789062 8.109375 -11.09375 C 8.304688 -10.570312 8.378906 -10.035156 8.328125 -9.484375 C 8.285156 -8.941406 8.15625 -8.421875 7.9375 -7.921875 C 7.726562 -7.421875 7.460938 -6.957031 7.140625 -6.53125 C 6.535156 -5.78125 5.921875 -5.285156 5.296875 -5.046875 C 5.242188 -5.023438 5.1875 -5 5.125 -4.96875 C 5.46875 -4.6875 5.78125 -4.242188 6.0625 -3.640625 C 6.539062 -2.671875 7 -1.429688 7.4375 0.078125 C 7.5 0.316406 7.628906 0.828125 7.828125 1.609375 C 8.023438 2.390625 8.191406 2.988281 8.328125 3.40625 C 8.429688 3.675781 8.566406 3.945312 8.734375 4.21875 C 8.910156 4.507812 9.109375 4.738281 9.328125 4.90625 C 9.617188 5.113281 9.9375 5.207031 10.28125 5.1875 C 10.632812 5.164062 10.96875 5.050781 11.28125 4.84375 C 11.601562 4.632812 11.851562 4.351562 12.03125 4 C 12.21875 3.65625 12.21875 3.332031 12.03125 3.03125 C 11.894531 2.789062 11.6875 2.632812 11.40625 2.5625 C 11.125 2.488281 10.875 2.53125 10.65625 2.6875 C 10.539062 2.757812 10.410156 2.773438 10.265625 2.734375 C 10.117188 2.691406 10.015625 2.613281 9.953125 2.5 C 9.878906 2.363281 9.859375 2.234375 9.890625 2.109375 C 9.929688 1.984375 10.007812 1.878906 10.125 1.796875 C 10.507812 1.535156 10.914062 1.453125 11.34375 1.546875 C 11.769531 1.640625 12.128906 1.847656 12.421875 2.171875 Z M 6.171875 -10.703125 Z M 6.171875 -10.703125 "/></g></g></g><g fill="#000000" fill-opacity="1"><g transform="translate(272.393262, 74.989214)"><g><path d="M 8.0625 -0.78125 C 8.101562 0.0390625 8.097656 0.617188 8.046875 0.953125 C 8.003906 1.179688 7.882812 1.332031 7.6875 1.40625 C 7.488281 1.476562 7.285156 1.46875 7.078125 1.375 C 6.867188 1.289062 6.738281 1.148438 6.6875 0.953125 C 6.644531 0.804688 6.609375 0.644531 6.578125 0.46875 C 6.554688 0.300781 6.539062 0.15625 6.53125 0.03125 C 6.519531 -0.0820312 6.507812 -0.242188 6.5 -0.453125 C 6.488281 -0.671875 6.476562 -0.828125 6.46875 -0.921875 C 6.457031 -1.054688 6.441406 -1.234375 6.421875 -1.453125 C 6.410156 -1.679688 6.398438 -1.890625 6.390625 -2.078125 C 6.378906 -2.273438 6.367188 -2.453125 6.359375 -2.609375 C 6.285156 -3.429688 6.1875 -4.554688 6.0625 -5.984375 C 6.050781 -6.035156 6.035156 -6.175781 6.015625 -6.40625 C 5.992188 -6.644531 5.976562 -6.828125 5.96875 -6.953125 C 5.914062 -6.941406 5.859375 -6.929688 5.796875 -6.921875 C 5.742188 -6.921875 5.679688 -6.914062 5.609375 -6.90625 C 5.535156 -6.894531 5.476562 -6.882812 5.4375 -6.875 C 5.332031 -6.863281 5.210938 -6.847656 5.078125 -6.828125 C 4.953125 -6.816406 4.816406 -6.800781 4.671875 -6.78125 C 4.523438 -6.769531 4.40625 -6.757812 4.3125 -6.75 C 3.695312 -6.664062 3.085938 -6.597656 2.484375 -6.546875 C 2.441406 -6.117188 2.394531 -5.550781 2.34375 -4.84375 C 2.144531 -2.425781 2.03125 -0.96875 2 -0.46875 C 2 -0.257812 1.914062 -0.113281 1.75 -0.03125 C 1.582031 0.0390625 1.421875 0.0390625 1.265625 -0.03125 C 1.117188 -0.113281 1.046875 -0.257812 1.046875 -0.46875 C 1.003906 -2.476562 1.050781 -4.304688 1.1875 -5.953125 C 1.25 -6.710938 1.304688 -7.332031 1.359375 -7.8125 C 1.421875 -8.289062 1.53125 -8.859375 1.6875 -9.515625 C 1.851562 -10.179688 2.054688 -10.765625 2.296875 -11.265625 C 2.816406 -12.304688 3.457031 -12.945312 4.21875 -13.1875 C 4.664062 -13.320312 5.085938 -13.285156 5.484375 -13.078125 C 5.890625 -12.867188 6.207031 -12.546875 6.4375 -12.109375 C 6.820312 -11.421875 7.109375 -10.445312 7.296875 -9.1875 C 7.398438 -8.46875 7.53125 -7.351562 7.6875 -5.84375 C 7.769531 -4.914062 7.859375 -3.789062 7.953125 -2.46875 C 8.003906 -1.78125 8.039062 -1.21875 8.0625 -0.78125 Z M 5.359375 -7.984375 C 5.398438 -7.984375 5.476562 -7.992188 5.59375 -8.015625 C 5.707031 -8.035156 5.796875 -8.050781 5.859375 -8.0625 C 5.828125 -8.34375 5.789062 -8.597656 5.75 -8.828125 C 5.75 -8.878906 5.722656 -9.046875 5.671875 -9.328125 C 5.628906 -9.617188 5.597656 -9.816406 5.578125 -9.921875 C 5.566406 -10.035156 5.539062 -10.203125 5.5 -10.421875 C 5.457031 -10.640625 5.410156 -10.832031 5.359375 -11 C 5.304688 -11.164062 5.242188 -11.320312 5.171875 -11.46875 C 5.035156 -11.769531 4.878906 -11.953125 4.703125 -12.015625 C 4.472656 -12.109375 4.207031 -11.984375 3.90625 -11.640625 C 3.53125 -11.242188 3.207031 -10.492188 2.9375 -9.390625 C 2.800781 -8.816406 2.6875 -8.175781 2.59375 -7.46875 C 3.113281 -7.570312 3.644531 -7.675781 4.1875 -7.78125 C 4.875 -7.894531 5.265625 -7.960938 5.359375 -7.984375 Z M 5.359375 -7.984375 "/></g></g></g><g fill="#000000" fill-opacity="1"><g transform="translate(280.83923, 74.989214)"><g><path d="M 4.890625 -4 C 5.035156 -3.90625 5.109375 -3.773438 5.109375 -3.609375 C 5.117188 -3.441406 5.046875 -3.3125 4.890625 -3.21875 C 4.753906 -3.132812 4.59375 -3.078125 4.40625 -3.046875 C 4.21875 -3.023438 3.984375 -3.015625 3.703125 -3.015625 C 3.421875 -3.015625 3.242188 -3.003906 3.171875 -2.984375 C 3.140625 -2.984375 3.054688 -2.976562 2.921875 -2.96875 C 2.785156 -2.96875 2.679688 -2.960938 2.609375 -2.953125 C 2.609375 -2.953125 2.59375 -2.945312 2.5625 -2.9375 C 2.53125 -2.9375 2.515625 -2.9375 2.515625 -2.9375 C 2.492188 -2.9375 2.46875 -2.929688 2.4375 -2.921875 L 2.34375 -2.90625 C 2.164062 -2.875 2.019531 -2.847656 1.90625 -2.828125 C 1.789062 -2.816406 1.644531 -2.8125 1.46875 -2.8125 C 1.300781 -2.820312 1.15625 -2.84375 1.03125 -2.875 C 0.914062 -2.914062 0.804688 -2.988281 0.703125 -3.09375 C 0.597656 -3.207031 0.523438 -3.34375 0.484375 -3.5 C 0.460938 -3.570312 0.453125 -3.644531 0.453125 -3.71875 C 0.453125 -3.800781 0.457031 -3.878906 0.46875 -3.953125 C 0.488281 -4.035156 0.503906 -4.109375 0.515625 -4.171875 C 0.535156 -4.234375 0.566406 -4.304688 0.609375 -4.390625 C 0.648438 -4.484375 0.679688 -4.554688 0.703125 -4.609375 C 0.722656 -4.660156 0.753906 -4.726562 0.796875 -4.8125 C 0.847656 -4.90625 0.882812 -4.972656 0.90625 -5.015625 C 1.15625 -5.503906 1.40625 -5.960938 1.65625 -6.390625 C 1.945312 -6.859375 2.253906 -7.300781 2.578125 -7.71875 C 2.660156 -7.820312 2.757812 -7.929688 2.875 -8.046875 C 2.675781 -8.078125 2.476562 -8.097656 2.28125 -8.109375 C 2.238281 -8.117188 1.71875 -8.109375 0.71875 -8.078125 C 0.601562 -8.078125 0.515625 -8.128906 0.453125 -8.234375 C 0.390625 -8.335938 0.375 -8.441406 0.40625 -8.546875 C 0.4375 -8.660156 0.507812 -8.726562 0.625 -8.75 C 1.21875 -8.863281 1.890625 -8.953125 2.640625 -9.015625 C 2.804688 -9.023438 3.125 -9.023438 3.59375 -9.015625 C 3.90625 -9.015625 4.109375 -8.976562 4.203125 -8.90625 C 4.398438 -8.800781 4.515625 -8.640625 4.546875 -8.421875 C 4.585938 -8.210938 4.570312 -8.007812 4.5 -7.8125 C 4.4375 -7.625 4.34375 -7.445312 4.21875 -7.28125 C 3.707031 -6.519531 3.378906 -6.019531 3.234375 -5.78125 C 2.910156 -5.269531 2.597656 -4.703125 2.296875 -4.078125 C 2.328125 -4.085938 2.347656 -4.09375 2.359375 -4.09375 C 2.378906 -4.09375 2.554688 -4.097656 2.890625 -4.109375 C 2.984375 -4.117188 3.144531 -4.132812 3.375 -4.15625 C 3.613281 -4.175781 3.800781 -4.1875 3.9375 -4.1875 C 4.082031 -4.195312 4.25 -4.1875 4.4375 -4.15625 C 4.625 -4.125 4.773438 -4.070312 4.890625 -4 Z M 4.890625 -4 "/></g></g></g><g fill="#000000" fill-opacity="1"><g transform="translate(285.638081, 74.989214)"><g><path d="M 6.84375 -6.21875 C 6.957031 -6.320312 7.085938 -6.332031 7.234375 -6.25 C 7.378906 -6.175781 7.425781 -6.066406 7.375 -5.921875 C 7.3125 -5.722656 7.21875 -5.515625 7.09375 -5.296875 C 6.976562 -5.085938 6.84375 -4.875 6.6875 -4.65625 C 6.539062 -4.445312 6.367188 -4.257812 6.171875 -4.09375 C 5.984375 -3.9375 5.785156 -3.804688 5.578125 -3.703125 C 5.378906 -3.609375 5.164062 -3.578125 4.9375 -3.609375 C 4.707031 -3.640625 4.488281 -3.75 4.28125 -3.9375 C 4.09375 -4.101562 3.945312 -4.320312 3.84375 -4.59375 C 3.445312 -4.195312 2.988281 -3.984375 2.46875 -3.953125 C 2.007812 -3.921875 1.601562 -4.023438 1.25 -4.265625 C 0.894531 -4.515625 0.640625 -4.828125 0.484375 -5.203125 C 0.335938 -5.585938 0.265625 -6.003906 0.265625 -6.453125 C 0.273438 -6.898438 0.382812 -7.300781 0.59375 -7.65625 C 0.78125 -8.03125 1.0625 -8.332031 1.4375 -8.5625 C 1.8125 -8.789062 2.207031 -8.898438 2.625 -8.890625 C 3.332031 -8.890625 3.894531 -8.632812 4.3125 -8.125 C 4.351562 -8.195312 4.410156 -8.3125 4.484375 -8.46875 C 4.554688 -8.625 4.609375 -8.734375 4.640625 -8.796875 C 4.710938 -8.972656 4.847656 -9.015625 5.046875 -8.921875 C 5.242188 -8.835938 5.3125 -8.707031 5.25 -8.53125 C 5.03125 -7.851562 4.863281 -7.210938 4.75 -6.609375 C 4.582031 -5.773438 4.617188 -5.171875 4.859375 -4.796875 C 4.929688 -4.679688 5.019531 -4.609375 5.125 -4.578125 C 5.238281 -4.554688 5.347656 -4.578125 5.453125 -4.640625 C 5.554688 -4.703125 5.660156 -4.785156 5.765625 -4.890625 C 5.878906 -4.992188 5.988281 -5.113281 6.09375 -5.25 C 6.207031 -5.394531 6.304688 -5.53125 6.390625 -5.65625 C 6.484375 -5.78125 6.570312 -5.894531 6.65625 -6 C 6.738281 -6.101562 6.800781 -6.175781 6.84375 -6.21875 Z M 2.234375 -5.34375 C 2.328125 -5.300781 2.414062 -5.28125 2.5 -5.28125 C 2.59375 -5.28125 2.675781 -5.289062 2.75 -5.3125 C 2.820312 -5.332031 2.894531 -5.363281 2.96875 -5.40625 C 3.050781 -5.457031 3.117188 -5.507812 3.171875 -5.5625 C 3.234375 -5.613281 3.296875 -5.679688 3.359375 -5.765625 C 3.429688 -5.847656 3.488281 -5.914062 3.53125 -5.96875 C 3.570312 -6.03125 3.625 -6.101562 3.6875 -6.1875 C 3.695312 -6.25 3.707031 -6.3125 3.71875 -6.375 C 3.769531 -6.675781 3.859375 -7.003906 3.984375 -7.359375 C 3.390625 -7.847656 2.863281 -7.960938 2.40625 -7.703125 C 2.164062 -7.554688 1.988281 -7.351562 1.875 -7.09375 C 1.78125 -6.894531 1.726562 -6.679688 1.71875 -6.453125 C 1.71875 -6.359375 1.71875 -6.273438 1.71875 -6.203125 C 1.71875 -6.160156 1.71875 -6.140625 1.71875 -6.140625 C 1.726562 -6.128906 1.734375 -6.109375 1.734375 -6.078125 C 1.742188 -6.023438 1.757812 -5.960938 1.78125 -5.890625 C 1.800781 -5.835938 1.816406 -5.800781 1.828125 -5.78125 C 1.929688 -5.5625 2.066406 -5.414062 2.234375 -5.34375 Z M 2.234375 -5.34375 "/></g></g></g><g fill="#000000" fill-opacity="1"><g transform="translate(291.396701, 74.989214)"><g/></g></g><g fill="#000000" fill-opacity="1"><g transform="translate(295.187786, 74.989214)"><g><path d="M 8.5 -5.015625 C 8.8125 -5.015625 9.035156 -4.878906 9.171875 -4.609375 C 9.304688 -4.347656 9.304688 -4.082031 9.171875 -3.8125 C 9.035156 -3.550781 8.8125 -3.421875 8.5 -3.421875 L 1.5625 -3.421875 C 1.25 -3.421875 1.023438 -3.550781 0.890625 -3.8125 C 0.753906 -4.082031 0.753906 -4.347656 0.890625 -4.609375 C 1.023438 -4.878906 1.25 -5.015625 1.5625 -5.015625 Z M 8.5 -5.015625 "/></g></g></g><g fill="#000000" fill-opacity="1"><g transform="translate(305.249373, 74.989214)"><g><path d="M 8.5 -5.015625 C 8.8125 -5.015625 9.035156 -4.878906 9.171875 -4.609375 C 9.304688 -4.347656 9.304688 -4.082031 9.171875 -3.8125 C 9.035156 -3.550781 8.8125 -3.421875 8.5 -3.421875 L 1.5625 -3.421875 C 1.25 -3.421875 1.023438 -3.550781 0.890625 -3.8125 C 0.753906 -4.082031 0.753906 -4.347656 0.890625 -4.609375 C 1.023438 -4.878906 1.25 -5.015625 1.5625 -5.015625 Z M 8.5 -5.015625 "/></g></g></g><g fill="#000000" fill-opacity="1"><g transform="translate(315.310961, 74.989214)"><g><path d="M 8.5 -5.015625 C 8.8125 -5.015625 9.035156 -4.878906 9.171875 -4.609375 C 9.304688 -4.347656 9.304688 -4.082031 9.171875 -3.8125 C 9.035156 -3.550781 8.8125 -3.421875 8.5 -3.421875 L 1.5625 -3.421875 C 1.25 -3.421875 1.023438 -3.550781 0.890625 -3.8125 C 0.753906 -4.082031 0.753906 -4.347656 0.890625 -4.609375 C 1.023438 -4.878906 1.25 -5.015625 1.5625 -5.015625 Z M 8.5 -5.015625 "/></g></g></g><g fill="#000000" fill-opacity="1"><g transform="translate(325.372548, 74.989214)"><g><path d="M 12.421875 2.171875 C 12.992188 2.828125 13.078125 3.648438 12.671875 4.640625 C 12.367188 5.390625 11.707031 5.976562 10.6875 6.40625 C 10.195312 6.582031 9.707031 6.625 9.21875 6.53125 C 8.738281 6.4375 8.296875 6.226562 7.890625 5.90625 C 7.609375 5.6875 7.363281 5.429688 7.15625 5.140625 C 6.945312 4.847656 6.769531 4.503906 6.625 4.109375 C 6.476562 3.722656 6.363281 3.390625 6.28125 3.109375 C 6.195312 2.835938 6.101562 2.484375 6 2.046875 C 5.925781 1.722656 5.785156 1.066406 5.578125 0.078125 C 5.367188 -0.898438 5.195312 -1.648438 5.0625 -2.171875 C 4.882812 -2.773438 4.664062 -3.296875 4.40625 -3.734375 C 4.382812 -3.773438 4.34375 -3.828125 4.28125 -3.890625 L 4.28125 -3.90625 C 4.25 -3.9375 4.210938 -3.976562 4.171875 -4.03125 C 4.148438 -4.050781 4.113281 -4.085938 4.0625 -4.140625 C 4.0625 -4.148438 4.0625 -4.15625 4.0625 -4.15625 C 3.976562 -4.226562 3.910156 -4.289062 3.859375 -4.34375 C 3.679688 -4.476562 3.507812 -4.570312 3.34375 -4.625 C 3.269531 -4.632812 3.210938 -4.640625 3.171875 -4.640625 C 3.097656 -4.648438 3.023438 -4.671875 2.953125 -4.703125 C 2.890625 -4.703125 2.828125 -4.695312 2.765625 -4.6875 C 2.710938 -4.664062 2.660156 -4.660156 2.609375 -4.671875 C 2.609375 -4.347656 2.601562 -3.890625 2.59375 -3.296875 C 2.582031 -2.710938 2.578125 -2.347656 2.578125 -2.203125 C 2.578125 -1.773438 2.570312 -1.304688 2.5625 -0.796875 C 2.539062 -0.0859375 2.5 0.378906 2.4375 0.609375 C 2.34375 0.859375 2.164062 0.984375 1.90625 0.984375 C 1.644531 0.984375 1.472656 0.859375 1.390625 0.609375 C 1.359375 0.503906 1.332031 0.378906 1.3125 0.234375 C 1.289062 0.0859375 1.273438 -0.0195312 1.265625 -0.09375 C 1.265625 -0.164062 1.257812 -0.304688 1.25 -0.515625 C 1.25 -0.722656 1.25 -0.835938 1.25 -0.859375 C 1.238281 -1.316406 1.226562 -1.785156 1.21875 -2.265625 C 1.207031 -3.628906 1.207031 -4.566406 1.21875 -5.078125 C 1.226562 -7.367188 1.300781 -9.265625 1.4375 -10.765625 C 1.457031 -10.960938 1.539062 -11.097656 1.6875 -11.171875 C 1.832031 -11.242188 1.976562 -11.242188 2.125 -11.171875 C 2.28125 -11.097656 2.367188 -10.960938 2.390625 -10.765625 C 2.535156 -9.367188 2.609375 -7.617188 2.609375 -5.515625 C 2.796875 -5.585938 2.992188 -5.628906 3.203125 -5.640625 C 3.546875 -5.753906 3.785156 -5.851562 3.921875 -5.9375 C 3.992188 -5.988281 4.066406 -6.046875 4.140625 -6.109375 C 4.222656 -6.179688 4.3125 -6.265625 4.40625 -6.359375 C 4.507812 -6.460938 4.582031 -6.535156 4.625 -6.578125 C 5.113281 -7.023438 5.507812 -7.515625 5.8125 -8.046875 C 5.894531 -8.191406 5.96875 -8.335938 6.03125 -8.484375 C 6.03125 -8.484375 6.03125 -8.488281 6.03125 -8.5 C 6.039062 -8.519531 6.046875 -8.539062 6.046875 -8.5625 C 6.054688 -8.582031 6.066406 -8.601562 6.078125 -8.625 C 6.085938 -8.65625 6.097656 -8.679688 6.109375 -8.703125 C 6.117188 -8.722656 6.125 -8.734375 6.125 -8.734375 C 6.175781 -8.890625 6.21875 -9.035156 6.25 -9.171875 C 6.257812 -9.203125 6.269531 -9.242188 6.28125 -9.296875 C 6.289062 -9.347656 6.296875 -9.382812 6.296875 -9.40625 C 6.296875 -9.414062 6.300781 -9.441406 6.3125 -9.484375 C 6.320312 -9.628906 6.328125 -9.773438 6.328125 -9.921875 C 6.328125 -9.929688 6.320312 -9.976562 6.3125 -10.0625 L 6.3125 -10.171875 L 6.3125 -10.15625 C 6.28125 -10.300781 6.253906 -10.425781 6.234375 -10.53125 C 6.210938 -10.582031 6.191406 -10.644531 6.171875 -10.71875 C 6.160156 -10.71875 6.15625 -10.722656 6.15625 -10.734375 C 6.0625 -10.921875 5.988281 -11.046875 5.9375 -11.109375 C 5.914062 -11.140625 5.898438 -11.171875 5.890625 -11.203125 C 5.859375 -11.234375 5.835938 -11.25 5.828125 -11.25 C 5.617188 -11.445312 5.460938 -11.59375 5.359375 -11.6875 C 4.972656 -11.96875 4.53125 -12.175781 4.03125 -12.3125 C 3.101562 -12.582031 2.1875 -12.445312 1.28125 -11.90625 C 0.820312 -11.625 0.453125 -11.269531 0.171875 -10.84375 C -0.0976562 -10.425781 -0.207031 -9.972656 -0.15625 -9.484375 C -0.132812 -9.335938 -0.191406 -9.222656 -0.328125 -9.140625 C -0.460938 -9.066406 -0.601562 -9.050781 -0.75 -9.09375 C -0.894531 -9.132812 -0.984375 -9.226562 -1.015625 -9.375 C -1.117188 -10.101562 -0.960938 -10.765625 -0.546875 -11.359375 C -0.140625 -11.960938 0.414062 -12.476562 1.125 -12.90625 C 2.300781 -13.625 3.546875 -13.863281 4.859375 -13.625 C 5.628906 -13.488281 6.300781 -13.207031 6.875 -12.78125 C 7.445312 -12.351562 7.859375 -11.789062 8.109375 -11.09375 C 8.304688 -10.570312 8.378906 -10.035156 8.328125 -9.484375 C 8.285156 -8.941406 8.15625 -8.421875 7.9375 -7.921875 C 7.726562 -7.421875 7.460938 -6.957031 7.140625 -6.53125 C 6.535156 -5.78125 5.921875 -5.285156 5.296875 -5.046875 C 5.242188 -5.023438 5.1875 -5 5.125 -4.96875 C 5.46875 -4.6875 5.78125 -4.242188 6.0625 -3.640625 C 6.539062 -2.671875 7 -1.429688 7.4375 0.078125 C 7.5 0.316406 7.628906 0.828125 7.828125 1.609375 C 8.023438 2.390625 8.191406 2.988281 8.328125 3.40625 C 8.429688 3.675781 8.566406 3.945312 8.734375 4.21875 C 8.910156 4.507812 9.109375 4.738281 9.328125 4.90625 C 9.617188 5.113281 9.9375 5.207031 10.28125 5.1875 C 10.632812 5.164062 10.96875 5.050781 11.28125 4.84375 C 11.601562 4.632812 11.851562 4.351562 12.03125 4 C 12.21875 3.65625 12.21875 3.332031 12.03125 3.03125 C 11.894531 2.789062 11.6875 2.632812 11.40625 2.5625 C 11.125 2.488281 10.875 2.53125 10.65625 2.6875 C 10.539062 2.757812 10.410156 2.773438 10.265625 2.734375 C 10.117188 2.691406 10.015625 2.613281 9.953125 2.5 C 9.878906 2.363281 9.859375 2.234375 9.890625 2.109375 C 9.929688 1.984375 10.007812 1.878906 10.125 1.796875 C 10.507812 1.535156 10.914062 1.453125 11.34375 1.546875 C 11.769531 1.640625 12.128906 1.847656 12.421875 2.171875 Z M 6.171875 -10.703125 Z M 6.171875 -10.703125 "/></g></g></g><g fill="#000000" fill-opacity="1"><g transform="translate(334.042466, 74.989214)"><g><path d="M 6.84375 -6.21875 C 6.957031 -6.320312 7.085938 -6.332031 7.234375 -6.25 C 7.378906 -6.175781 7.425781 -6.066406 7.375 -5.921875 C 7.3125 -5.722656 7.21875 -5.515625 7.09375 -5.296875 C 6.976562 -5.085938 6.84375 -4.875 6.6875 -4.65625 C 6.539062 -4.445312 6.367188 -4.257812 6.171875 -4.09375 C 5.984375 -3.9375 5.785156 -3.804688 5.578125 -3.703125 C 5.378906 -3.609375 5.164062 -3.578125 4.9375 -3.609375 C 4.707031 -3.640625 4.488281 -3.75 4.28125 -3.9375 C 4.09375 -4.101562 3.945312 -4.320312 3.84375 -4.59375 C 3.445312 -4.195312 2.988281 -3.984375 2.46875 -3.953125 C 2.007812 -3.921875 1.601562 -4.023438 1.25 -4.265625 C 0.894531 -4.515625 0.640625 -4.828125 0.484375 -5.203125 C 0.335938 -5.585938 0.265625 -6.003906 0.265625 -6.453125 C 0.273438 -6.898438 0.382812 -7.300781 0.59375 -7.65625 C 0.78125 -8.03125 1.0625 -8.332031 1.4375 -8.5625 C 1.8125 -8.789062 2.207031 -8.898438 2.625 -8.890625 C 3.332031 -8.890625 3.894531 -8.632812 4.3125 -8.125 C 4.351562 -8.195312 4.410156 -8.3125 4.484375 -8.46875 C 4.554688 -8.625 4.609375 -8.734375 4.640625 -8.796875 C 4.710938 -8.972656 4.847656 -9.015625 5.046875 -8.921875 C 5.242188 -8.835938 5.3125 -8.707031 5.25 -8.53125 C 5.03125 -7.851562 4.863281 -7.210938 4.75 -6.609375 C 4.582031 -5.773438 4.617188 -5.171875 4.859375 -4.796875 C 4.929688 -4.679688 5.019531 -4.609375 5.125 -4.578125 C 5.238281 -4.554688 5.347656 -4.578125 5.453125 -4.640625 C 5.554688 -4.703125 5.660156 -4.785156 5.765625 -4.890625 C 5.878906 -4.992188 5.988281 -5.113281 6.09375 -5.25 C 6.207031 -5.394531 6.304688 -5.53125 6.390625 -5.65625 C 6.484375 -5.78125 6.570312 -5.894531 6.65625 -6 C 6.738281 -6.101562 6.800781 -6.175781 6.84375 -6.21875 Z M 2.234375 -5.34375 C 2.328125 -5.300781 2.414062 -5.28125 2.5 -5.28125 C 2.59375 -5.28125 2.675781 -5.289062 2.75 -5.3125 C 2.820312 -5.332031 2.894531 -5.363281 2.96875 -5.40625 C 3.050781 -5.457031 3.117188 -5.507812 3.171875 -5.5625 C 3.234375 -5.613281 3.296875 -5.679688 3.359375 -5.765625 C 3.429688 -5.847656 3.488281 -5.914062 3.53125 -5.96875 C 3.570312 -6.03125 3.625 -6.101562 3.6875 -6.1875 C 3.695312 -6.25 3.707031 -6.3125 3.71875 -6.375 C 3.769531 -6.675781 3.859375 -7.003906 3.984375 -7.359375 C 3.390625 -7.847656 2.863281 -7.960938 2.40625 -7.703125 C 2.164062 -7.554688 1.988281 -7.351562 1.875 -7.09375 C 1.78125 -6.894531 1.726562 -6.679688 1.71875 -6.453125 C 1.71875 -6.359375 1.71875 -6.273438 1.71875 -6.203125 C 1.71875 -6.160156 1.71875 -6.140625 1.71875 -6.140625 C 1.726562 -6.128906 1.734375 -6.109375 1.734375 -6.078125 C 1.742188 -6.023438 1.757812 -5.960938 1.78125 -5.890625 C 1.800781 -5.835938 1.816406 -5.800781 1.828125 -5.78125 C 1.929688 -5.5625 2.066406 -5.414062 2.234375 -5.34375 Z M 2.234375 -5.34375 "/></g></g></g><g fill="#000000" fill-opacity="1"><g transform="translate(339.801087, 74.989214)"><g><path d="M 4.15625 -5.875 C 4.3125 -6.007812 4.460938 -6.019531 4.609375 -5.90625 C 4.765625 -5.789062 4.800781 -5.640625 4.71875 -5.453125 C 4.601562 -5.210938 4.46875 -4.984375 4.3125 -4.765625 C 4.15625 -4.554688 3.972656 -4.359375 3.765625 -4.171875 C 3.566406 -3.992188 3.359375 -3.851562 3.140625 -3.75 C 2.921875 -3.644531 2.679688 -3.601562 2.421875 -3.625 C 2.160156 -3.644531 1.898438 -3.742188 1.640625 -3.921875 C 1.347656 -4.109375 1.117188 -4.375 0.953125 -4.71875 C 0.796875 -5.070312 0.722656 -5.4375 0.734375 -5.8125 C 0.742188 -6.039062 0.78125 -6.425781 0.84375 -6.96875 C 0.90625 -7.53125 0.976562 -7.921875 1.0625 -8.140625 C 1.125 -8.328125 1.242188 -8.445312 1.421875 -8.5 C 1.597656 -8.5625 1.757812 -8.539062 1.90625 -8.4375 C 2.050781 -8.34375 2.125 -8.195312 2.125 -8 C 2.144531 -7.695312 2.109375 -7.09375 2.015625 -6.1875 C 1.960938 -5.613281 2.03125 -5.191406 2.21875 -4.921875 C 2.34375 -4.785156 2.472656 -4.710938 2.609375 -4.703125 C 2.742188 -4.691406 2.890625 -4.738281 3.046875 -4.84375 C 3.210938 -4.957031 3.351562 -5.066406 3.46875 -5.171875 C 3.582031 -5.273438 3.710938 -5.410156 3.859375 -5.578125 C 4.015625 -5.742188 4.113281 -5.84375 4.15625 -5.875 Z M 2.3125 -9.5625 C 2.207031 -9.351562 2.023438 -9.25 1.765625 -9.25 C 1.515625 -9.25 1.335938 -9.351562 1.234375 -9.5625 C 1.140625 -9.78125 1.140625 -9.992188 1.234375 -10.203125 C 1.335938 -10.410156 1.515625 -10.515625 1.765625 -10.515625 C 2.023438 -10.515625 2.207031 -10.410156 2.3125 -10.203125 C 2.425781 -9.992188 2.425781 -9.78125 2.3125 -9.5625 Z M 2.3125 -9.5625 "/></g></g></g><g fill="#000000" fill-opacity="1"><g transform="translate(343.000317, 74.989214)"><g><path d="M 5.0625 -5.703125 C 5.195312 -5.835938 5.363281 -5.847656 5.5625 -5.734375 C 5.757812 -5.628906 5.820312 -5.476562 5.75 -5.28125 C 5.375 -4.25 4.8125 -3.550781 4.0625 -3.1875 C 3.695312 -2.96875 3.28125 -2.859375 2.8125 -2.859375 C 2.351562 -2.867188 1.957031 -3.015625 1.625 -3.296875 C 1.40625 -3.484375 1.21875 -3.71875 1.0625 -4 C 0.914062 -4.28125 0.8125 -4.585938 0.75 -4.921875 C 0.695312 -5.265625 0.660156 -5.570312 0.640625 -5.84375 C 0.628906 -6.113281 0.625 -6.425781 0.625 -6.78125 C 0.632812 -7.632812 0.769531 -8.675781 1.03125 -9.90625 C 1.226562 -10.90625 1.46875 -11.757812 1.75 -12.46875 C 1.851562 -12.707031 1.984375 -12.914062 2.140625 -13.09375 C 2.304688 -13.269531 2.5 -13.390625 2.71875 -13.453125 C 2.945312 -13.515625 3.179688 -13.46875 3.421875 -13.3125 C 3.597656 -13.21875 3.734375 -13.078125 3.828125 -12.890625 C 3.929688 -12.710938 3.992188 -12.5 4.015625 -12.25 C 4.035156 -12.007812 4.039062 -11.800781 4.03125 -11.625 C 4.03125 -11.457031 4.019531 -11.257812 4 -11.03125 C 3.863281 -9.46875 3.25 -7.894531 2.15625 -6.3125 C 2.164062 -6.125 2.175781 -5.925781 2.1875 -5.71875 C 2.1875 -5.71875 2.191406 -5.691406 2.203125 -5.640625 L 2.203125 -5.609375 C 2.210938 -5.554688 2.21875 -5.519531 2.21875 -5.5 C 2.238281 -5.394531 2.257812 -5.300781 2.28125 -5.21875 C 2.300781 -5.113281 2.335938 -4.992188 2.390625 -4.859375 C 2.398438 -4.847656 2.40625 -4.832031 2.40625 -4.8125 C 2.40625 -4.8125 2.410156 -4.8125 2.421875 -4.8125 C 2.441406 -4.75 2.460938 -4.695312 2.484375 -4.65625 C 2.492188 -4.644531 2.503906 -4.625 2.515625 -4.59375 C 2.535156 -4.570312 2.550781 -4.550781 2.5625 -4.53125 C 2.582031 -4.507812 2.59375 -4.5 2.59375 -4.5 C 2.625 -4.46875 2.640625 -4.445312 2.640625 -4.4375 C 2.648438 -4.425781 2.660156 -4.421875 2.671875 -4.421875 C 2.710938 -4.390625 2.753906 -4.351562 2.796875 -4.3125 C 2.804688 -4.3125 2.816406 -4.304688 2.828125 -4.296875 C 2.835938 -4.296875 2.84375 -4.296875 2.84375 -4.296875 C 2.925781 -4.265625 3.007812 -4.25 3.09375 -4.25 C 3.28125 -4.25 3.492188 -4.316406 3.734375 -4.453125 C 3.890625 -4.546875 4.035156 -4.65625 4.171875 -4.78125 C 4.316406 -4.914062 4.476562 -5.078125 4.65625 -5.265625 C 4.832031 -5.460938 4.96875 -5.609375 5.0625 -5.703125 Z M 2.671875 -11.0625 C 2.378906 -9.738281 2.207031 -8.554688 2.15625 -7.515625 C 2.789062 -8.703125 3.164062 -9.828125 3.28125 -10.890625 C 3.3125 -11.285156 3.3125 -11.671875 3.28125 -12.046875 C 3.269531 -12.109375 3.25 -12.195312 3.21875 -12.3125 C 3.195312 -12.425781 3.1875 -12.492188 3.1875 -12.515625 L 3.140625 -12.609375 C 3.109375 -12.585938 3.09375 -12.578125 3.09375 -12.578125 C 3.019531 -12.492188 2.957031 -12.378906 2.90625 -12.234375 C 2.863281 -12.097656 2.832031 -11.96875 2.8125 -11.84375 C 2.789062 -11.71875 2.765625 -11.570312 2.734375 -11.40625 C 2.710938 -11.25 2.691406 -11.132812 2.671875 -11.0625 Z M 2.671875 -11.0625 "/></g></g></g><g fill="#000000" fill-opacity="1"><g transform="translate(347.111332, 74.989214)"><g><path d="M 5.75 -6.203125 C 5.851562 -6.347656 5.988281 -6.367188 6.15625 -6.265625 C 6.332031 -6.160156 6.382812 -6.03125 6.3125 -5.875 C 6.082031 -5.3125 5.726562 -4.828125 5.25 -4.421875 C 4.769531 -4.023438 4.234375 -3.769531 3.640625 -3.65625 C 3.035156 -3.5625 2.546875 -3.582031 2.171875 -3.71875 C 1.597656 -3.9375 1.164062 -4.316406 0.875 -4.859375 C 0.6875 -5.242188 0.570312 -5.660156 0.53125 -6.109375 C 0.5 -6.554688 0.554688 -7 0.703125 -7.4375 C 0.859375 -7.875 1.113281 -8.21875 1.46875 -8.46875 C 2 -8.84375 2.535156 -8.957031 3.078125 -8.8125 C 3.628906 -8.664062 3.898438 -8.253906 3.890625 -7.578125 C 3.890625 -7.046875 3.734375 -6.582031 3.421875 -6.1875 C 3.117188 -5.800781 2.71875 -5.5625 2.21875 -5.46875 C 2.363281 -5.226562 2.5625 -5.078125 2.8125 -5.015625 C 3.0625 -4.953125 3.363281 -4.9375 3.71875 -4.96875 C 4.101562 -5.019531 4.40625 -5.117188 4.625 -5.265625 C 5.175781 -5.660156 5.550781 -5.972656 5.75 -6.203125 Z M 2.765625 -7.78125 C 2.453125 -7.65625 2.234375 -7.425781 2.109375 -7.09375 C 1.984375 -6.757812 1.953125 -6.410156 2.015625 -6.046875 C 2.472656 -6.191406 2.804688 -6.457031 3.015625 -6.84375 C 3.148438 -7.09375 3.203125 -7.335938 3.171875 -7.578125 C 3.160156 -7.722656 3.117188 -7.804688 3.046875 -7.828125 C 2.984375 -7.859375 2.890625 -7.84375 2.765625 -7.78125 Z M 2.765625 -7.78125 "/></g></g></g><g fill="#000000" fill-opacity="1"><g transform="translate(351.910182, 74.989214)"><g><path d="M 5.875 -1.03125 C 6.125 0.726562 6.050781 2.171875 5.65625 3.296875 C 5.394531 4.054688 4.988281 4.628906 4.4375 5.015625 C 4.0625 5.273438 3.625 5.441406 3.125 5.515625 C 2.625 5.585938 2.15625 5.550781 1.71875 5.40625 C 1.363281 5.289062 1.046875 5.09375 0.765625 4.8125 C 0.492188 4.539062 0.285156 4.226562 0.140625 3.875 C -0.00390625 3.53125 -0.0664062 3.160156 -0.046875 2.765625 C -0.0351562 2.367188 0.0703125 2.015625 0.28125 1.703125 C 0.539062 1.304688 0.890625 1.050781 1.328125 0.9375 C 1.765625 0.820312 2.171875 0.925781 2.546875 1.25 C 2.734375 1.4375 2.84375 1.679688 2.875 1.984375 C 2.914062 2.296875 2.851562 2.566406 2.6875 2.796875 C 2.53125 3.035156 2.289062 3.144531 1.96875 3.125 C 1.75 3.101562 1.628906 2.992188 1.609375 2.796875 C 1.585938 2.597656 1.675781 2.457031 1.875 2.375 C 2.039062 2.300781 2.085938 2.191406 2.015625 2.046875 C 1.953125 1.910156 1.832031 1.851562 1.65625 1.875 C 1.394531 1.90625 1.203125 2.078125 1.078125 2.390625 C 0.972656 2.609375 0.945312 2.835938 1 3.078125 C 1.050781 3.328125 1.15625 3.550781 1.3125 3.75 C 1.644531 4.175781 2.113281 4.316406 2.71875 4.171875 C 3.0625 4.109375 3.335938 4.003906 3.546875 3.859375 C 3.597656 3.816406 3.625 3.796875 3.625 3.796875 C 3.6875 3.742188 3.734375 3.695312 3.765625 3.65625 C 3.785156 3.632812 3.8125 3.609375 3.84375 3.578125 C 3.84375 3.578125 3.847656 3.566406 3.859375 3.546875 C 3.867188 3.535156 3.875 3.53125 3.875 3.53125 C 4.300781 2.894531 4.519531 1.953125 4.53125 0.703125 C 4.53125 0.210938 4.5 -0.285156 4.4375 -0.796875 C 4.4375 -0.828125 4.4375 -0.847656 4.4375 -0.859375 C 4.414062 -0.960938 4.398438 -1.066406 4.390625 -1.171875 C 4.347656 -1.359375 4.3125 -1.5625 4.28125 -1.78125 C 4.21875 -2.257812 4.164062 -2.6875 4.125 -3.0625 C 4.082031 -3.425781 4.054688 -3.671875 4.046875 -3.796875 C 3.640625 -3.316406 3.15625 -3.066406 2.59375 -3.046875 C 2.269531 -3.035156 1.957031 -3.113281 1.65625 -3.28125 C 1.363281 -3.445312 1.125 -3.671875 0.9375 -3.953125 C 0.75 -4.234375 0.625 -4.53125 0.5625 -4.84375 C 0.488281 -5.238281 0.460938 -5.765625 0.484375 -6.421875 C 0.503906 -7.285156 0.570312 -7.894531 0.6875 -8.25 C 0.769531 -8.519531 0.953125 -8.65625 1.234375 -8.65625 C 1.523438 -8.65625 1.710938 -8.519531 1.796875 -8.25 C 1.847656 -8.050781 1.882812 -7.832031 1.90625 -7.59375 C 1.9375 -7.351562 1.953125 -7.128906 1.953125 -6.921875 C 1.953125 -6.710938 1.953125 -6.488281 1.953125 -6.25 C 1.953125 -6.019531 1.957031 -5.796875 1.96875 -5.578125 C 1.96875 -5.460938 1.972656 -5.347656 1.984375 -5.234375 C 2.003906 -5.117188 2.035156 -4.988281 2.078125 -4.84375 C 2.117188 -4.707031 2.1875 -4.597656 2.28125 -4.515625 C 2.375 -4.429688 2.476562 -4.394531 2.59375 -4.40625 C 2.738281 -4.414062 2.867188 -4.460938 2.984375 -4.546875 C 3.097656 -4.640625 3.1875 -4.769531 3.25 -4.9375 C 3.320312 -5.113281 3.375 -5.253906 3.40625 -5.359375 C 3.445312 -5.460938 3.484375 -5.601562 3.515625 -5.78125 C 3.648438 -6.300781 3.734375 -6.691406 3.765625 -6.953125 C 3.773438 -7.035156 3.785156 -7.164062 3.796875 -7.34375 C 3.804688 -7.53125 3.820312 -7.6875 3.84375 -7.8125 C 3.863281 -7.945312 3.898438 -8.066406 3.953125 -8.171875 C 3.960938 -8.191406 3.972656 -8.210938 3.984375 -8.234375 C 3.992188 -8.242188 4 -8.253906 4 -8.265625 C 4 -8.285156 4 -8.300781 4 -8.3125 C 4.019531 -8.414062 4.0625 -8.492188 4.125 -8.546875 C 4.1875 -8.609375 4.257812 -8.644531 4.34375 -8.65625 C 4.4375 -8.675781 4.523438 -8.675781 4.609375 -8.65625 C 4.691406 -8.644531 4.765625 -8.609375 4.828125 -8.546875 C 4.890625 -8.484375 4.929688 -8.40625 4.953125 -8.3125 C 5.046875 -7.945312 5.113281 -7.554688 5.15625 -7.140625 C 5.207031 -6.734375 5.253906 -6.242188 5.296875 -5.671875 C 5.335938 -5.109375 5.367188 -4.71875 5.390625 -4.5 C 5.441406 -4.007812 5.601562 -2.851562 5.875 -1.03125 Z M 5.875 -1.03125 "/></g></g></g><g fill="#000000" fill-opacity="1"><g transform="translate(245.581117, 118.090891)"><g><path d="M 8.078125 -13.203125 L 8.078125 0 L 6.796875 0 L 6.796875 -1.046875 L 6.765625 -1.046875 C 6.441406 -0.628906 6.054688 -0.316406 5.609375 -0.109375 C 5.171875 0.0976562 4.691406 0.203125 4.171875 0.203125 C 3.492188 0.203125 2.875 0.0234375 2.3125 -0.328125 C 1.757812 -0.679688 1.332031 -1.160156 1.03125 -1.765625 C 0.726562 -2.367188 0.578125 -3.03125 0.578125 -3.75 C 0.578125 -4.476562 0.726562 -5.148438 1.03125 -5.765625 C 1.332031 -6.378906 1.757812 -6.859375 2.3125 -7.203125 C 2.875 -7.554688 3.5 -7.734375 4.1875 -7.734375 C 4.695312 -7.734375 5.175781 -7.617188 5.625 -7.390625 C 6.070312 -7.171875 6.453125 -6.859375 6.765625 -6.453125 L 6.796875 -6.453125 L 6.796875 -13.203125 Z M 4.34375 -6.546875 C 3.644531 -6.546875 3.0625 -6.28125 2.59375 -5.75 C 2.125 -5.21875 1.890625 -4.582031 1.890625 -3.84375 C 1.890625 -3.019531 2.117188 -2.332031 2.578125 -1.78125 C 3.035156 -1.238281 3.628906 -0.96875 4.359375 -0.96875 C 5.097656 -0.96875 5.695312 -1.226562 6.15625 -1.75 C 6.625 -2.28125 6.859375 -2.972656 6.859375 -3.828125 C 6.859375 -4.640625 6.617188 -5.296875 6.140625 -5.796875 C 5.671875 -6.296875 5.070312 -6.546875 4.34375 -6.546875 Z M 4.34375 -6.546875 "/></g></g></g><g fill="#000000" fill-opacity="1"><g transform="translate(254.810902, 118.090891)"><g><path d="M 0.546875 -3.75 C 0.546875 -4.457031 0.71875 -5.117188 1.0625 -5.734375 C 1.414062 -6.359375 1.894531 -6.847656 2.5 -7.203125 C 3.113281 -7.554688 3.78125 -7.734375 4.5 -7.734375 C 5.207031 -7.734375 5.863281 -7.554688 6.46875 -7.203125 C 7.070312 -6.847656 7.550781 -6.363281 7.90625 -5.75 C 8.269531 -5.132812 8.453125 -4.46875 8.453125 -3.75 C 8.453125 -3.03125 8.273438 -2.363281 7.921875 -1.75 C 7.566406 -1.132812 7.082031 -0.65625 6.46875 -0.3125 C 5.863281 0.03125 5.207031 0.203125 4.5 0.203125 C 3.78125 0.203125 3.113281 0.03125 2.5 -0.3125 C 1.882812 -0.664062 1.40625 -1.148438 1.0625 -1.765625 C 0.71875 -2.378906 0.546875 -3.039062 0.546875 -3.75 Z M 4.484375 -6.546875 C 3.722656 -6.546875 3.085938 -6.273438 2.578125 -5.734375 C 2.078125 -5.191406 1.828125 -4.535156 1.828125 -3.765625 C 1.828125 -3.179688 1.960938 -2.664062 2.234375 -2.21875 C 2.515625 -1.78125 2.851562 -1.460938 3.25 -1.265625 C 3.65625 -1.066406 4.070312 -0.96875 4.5 -0.96875 C 4.988281 -0.96875 5.4375 -1.082031 5.84375 -1.3125 C 6.25 -1.539062 6.570312 -1.867188 6.8125 -2.296875 C 7.050781 -2.734375 7.171875 -3.222656 7.171875 -3.765625 C 7.171875 -4.253906 7.0625 -4.710938 6.84375 -5.140625 C 6.625 -5.566406 6.304688 -5.90625 5.890625 -6.15625 C 5.472656 -6.414062 5.003906 -6.546875 4.484375 -6.546875 Z M 4.484375 -6.546875 "/></g></g></g><g fill="#000000" fill-opacity="1"><g transform="translate(263.800739, 118.090891)"><g><path d="M 6.421875 -6.484375 C 6.640625 -6.878906 6.945312 -7.1875 7.34375 -7.40625 C 7.75 -7.625 8.191406 -7.734375 8.671875 -7.734375 C 9.460938 -7.734375 10.0625 -7.460938 10.46875 -6.921875 C 10.875 -6.390625 11.078125 -5.632812 11.078125 -4.65625 L 11.078125 0 L 9.796875 0 L 9.796875 -4.46875 C 9.796875 -5.21875 9.679688 -5.75 9.453125 -6.0625 C 9.234375 -6.382812 8.890625 -6.546875 8.421875 -6.546875 C 7.859375 -6.546875 7.441406 -6.34375 7.171875 -5.9375 C 6.910156 -5.53125 6.78125 -4.90625 6.78125 -4.0625 L 6.78125 0 L 5.5 0 L 5.5 -4.34375 C 5.5 -5.101562 5.382812 -5.660156 5.15625 -6.015625 C 4.925781 -6.367188 4.59375 -6.546875 4.15625 -6.546875 C 3.613281 -6.546875 3.203125 -6.335938 2.921875 -5.921875 C 2.640625 -5.515625 2.5 -4.863281 2.5 -3.96875 L 2.5 0 L 1.21875 0 L 1.21875 -7.515625 L 2.5 -7.515625 L 2.5 -6.703125 L 2.53125 -6.703125 C 2.726562 -7.015625 2.984375 -7.265625 3.296875 -7.453125 C 3.609375 -7.640625 3.957031 -7.734375 4.34375 -7.734375 C 4.769531 -7.734375 5.171875 -7.625 5.546875 -7.40625 C 5.921875 -7.1875 6.210938 -6.878906 6.421875 -6.484375 Z M 6.421875 -6.484375 "/></g></g></g><g fill="#000000" fill-opacity="1"><g transform="translate(276.085788, 118.090891)"><g><path d="M 7.765625 -3.484375 L 1.859375 -3.484375 C 1.878906 -2.742188 2.125 -2.140625 2.59375 -1.671875 C 3.0625 -1.203125 3.632812 -0.96875 4.3125 -0.96875 C 4.800781 -0.96875 5.226562 -1.09375 5.59375 -1.34375 C 5.957031 -1.59375 6.296875 -1.988281 6.609375 -2.53125 L 7.703125 -1.90625 C 7.335938 -1.226562 6.859375 -0.707031 6.265625 -0.34375 C 5.671875 0.0195312 4.988281 0.203125 4.21875 0.203125 C 3.488281 0.203125 2.835938 0.03125 2.265625 -0.3125 C 1.703125 -0.664062 1.273438 -1.140625 0.984375 -1.734375 C 0.691406 -2.328125 0.546875 -2.96875 0.546875 -3.65625 C 0.546875 -4.425781 0.691406 -5.117188 0.984375 -5.734375 C 1.273438 -6.359375 1.695312 -6.847656 2.25 -7.203125 C 2.8125 -7.554688 3.457031 -7.734375 4.1875 -7.734375 C 4.90625 -7.734375 5.535156 -7.554688 6.078125 -7.203125 C 6.628906 -6.859375 7.050781 -6.378906 7.34375 -5.765625 C 7.632812 -5.160156 7.78125 -4.484375 7.78125 -3.734375 C 7.78125 -3.648438 7.773438 -3.566406 7.765625 -3.484375 Z M 6.421875 -4.578125 C 6.304688 -5.160156 6.039062 -5.632812 5.625 -6 C 5.21875 -6.363281 4.742188 -6.546875 4.203125 -6.546875 C 3.679688 -6.546875 3.191406 -6.351562 2.734375 -5.96875 C 2.273438 -5.59375 2.003906 -5.128906 1.921875 -4.578125 Z M 6.421875 -4.578125 "/></g></g></g><g fill="#000000" fill-opacity="1"><g transform="translate(284.387789, 118.090891)"><g/></g></g><g fill="#000000" fill-opacity="1"><g transform="translate(289.314608, 118.090891)"><g><path d="M 8.15625 -7.515625 L 2.75 -1.1875 L 7.9375 -1.1875 L 7.9375 0 L 0.15625 0 L 5.578125 -6.34375 L 1.171875 -6.34375 L 1.171875 -7.515625 Z M 8.15625 -7.515625 "/></g></g></g><g fill="#000000" fill-opacity="1"><g transform="translate(297.616609, 118.090891)"><g><path d="M 2.734375 -7.515625 L 2.734375 0 L 1.453125 0 L 1.453125 -7.515625 Z M 1.1875 -10.390625 C 1.1875 -10.617188 1.28125 -10.820312 1.46875 -11 C 1.65625 -11.175781 1.863281 -11.265625 2.09375 -11.265625 C 2.34375 -11.265625 2.554688 -11.175781 2.734375 -11 C 2.921875 -10.820312 3.015625 -10.617188 3.015625 -10.390625 C 3.015625 -10.109375 2.921875 -9.878906 2.734375 -9.703125 C 2.554688 -9.523438 2.34375 -9.4375 2.09375 -9.4375 C 1.851562 -9.4375 1.640625 -9.519531 1.453125 -9.6875 C 1.273438 -9.863281 1.1875 -10.097656 1.1875 -10.390625 Z M 1.1875 -10.390625 "/></g></g></g><g fill="#000000" fill-opacity="1"><g transform="translate(301.807607, 118.090891)"><g><path d="M 6.71875 -6.453125 L 6.71875 -7.515625 L 8 -7.515625 L 8 0.265625 C 8 1.523438 7.644531 2.492188 6.9375 3.171875 C 6.238281 3.847656 5.363281 4.1875 4.3125 4.1875 C 3.25 4.1875 2.375 3.867188 1.6875 3.234375 C 1 2.597656 0.644531 1.765625 0.625 0.734375 L 1.90625 0.734375 C 1.90625 1.398438 2.125 1.945312 2.5625 2.375 C 3.007812 2.800781 3.59375 3.015625 4.3125 3.015625 C 5.101562 3.015625 5.703125 2.765625 6.109375 2.265625 C 6.515625 1.773438 6.71875 0.96875 6.71875 -0.15625 L 6.71875 -1.046875 L 6.6875 -1.046875 C 6.382812 -0.660156 6 -0.351562 5.53125 -0.125 C 5.070312 0.09375 4.585938 0.203125 4.078125 0.203125 C 3.390625 0.203125 2.769531 0.03125 2.21875 -0.3125 C 1.675781 -0.664062 1.253906 -1.144531 0.953125 -1.75 C 0.648438 -2.351562 0.5 -3.015625 0.5 -3.734375 C 0.5 -4.460938 0.65625 -5.132812 0.96875 -5.75 C 1.28125 -6.363281 1.710938 -6.847656 2.265625 -7.203125 C 2.828125 -7.554688 3.445312 -7.734375 4.125 -7.734375 C 4.644531 -7.734375 5.125 -7.617188 5.5625 -7.390625 C 6 -7.171875 6.375 -6.859375 6.6875 -6.453125 Z M 4.25 -6.546875 C 3.800781 -6.546875 3.390625 -6.425781 3.015625 -6.1875 C 2.648438 -5.957031 2.359375 -5.628906 2.140625 -5.203125 C 1.921875 -4.785156 1.8125 -4.332031 1.8125 -3.84375 C 1.8125 -3.019531 2.039062 -2.332031 2.5 -1.78125 C 2.957031 -1.238281 3.546875 -0.96875 4.265625 -0.96875 C 5.023438 -0.96875 5.632812 -1.234375 6.09375 -1.765625 C 6.550781 -2.304688 6.78125 -2.992188 6.78125 -3.828125 C 6.78125 -4.628906 6.539062 -5.28125 6.0625 -5.78125 C 5.59375 -6.289062 4.988281 -6.546875 4.25 -6.546875 Z M 4.25 -6.546875 "/></g></g></g><g fill="#000000" fill-opacity="1"><g transform="translate(311.085377, 118.090891)"><g><path d="M 8.15625 -7.515625 L 2.75 -1.1875 L 7.9375 -1.1875 L 7.9375 0 L 0.15625 0 L 5.578125 -6.34375 L 1.171875 -6.34375 L 1.171875 -7.515625 Z M 8.15625 -7.515625 "/></g></g></g><g fill="#000000" fill-opacity="1"><g transform="translate(319.387379, 118.090891)"><g><path d="M 6.796875 -6.453125 L 6.796875 -7.515625 L 8.078125 -7.515625 L 8.078125 0 L 6.796875 0 L 6.796875 -1.046875 L 6.765625 -1.046875 C 6.109375 -0.210938 5.242188 0.203125 4.171875 0.203125 C 3.128906 0.203125 2.269531 -0.175781 1.59375 -0.9375 C 0.914062 -1.707031 0.578125 -2.644531 0.578125 -3.75 C 0.578125 -4.894531 0.914062 -5.84375 1.59375 -6.59375 C 2.28125 -7.351562 3.144531 -7.734375 4.1875 -7.734375 C 4.707031 -7.734375 5.1875 -7.617188 5.625 -7.390625 C 6.070312 -7.171875 6.453125 -6.859375 6.765625 -6.453125 Z M 4.34375 -6.546875 C 3.65625 -6.546875 3.070312 -6.28125 2.59375 -5.75 C 2.125 -5.226562 1.890625 -4.59375 1.890625 -3.84375 C 1.890625 -3.03125 2.117188 -2.347656 2.578125 -1.796875 C 3.046875 -1.242188 3.640625 -0.96875 4.359375 -0.96875 C 5.109375 -0.96875 5.710938 -1.226562 6.171875 -1.75 C 6.628906 -2.28125 6.859375 -2.972656 6.859375 -3.828125 C 6.859375 -4.597656 6.625 -5.242188 6.15625 -5.765625 C 5.6875 -6.285156 5.082031 -6.546875 4.34375 -6.546875 Z M 4.34375 -6.546875 "/></g></g></g><g fill="#000000" fill-opacity="1"><g transform="translate(328.617164, 118.090891)"><g><path d="M 6.71875 -6.453125 L 6.71875 -7.515625 L 8 -7.515625 L 8 0.265625 C 8 1.523438 7.644531 2.492188 6.9375 3.171875 C 6.238281 3.847656 5.363281 4.1875 4.3125 4.1875 C 3.25 4.1875 2.375 3.867188 1.6875 3.234375 C 1 2.597656 0.644531 1.765625 0.625 0.734375 L 1.90625 0.734375 C 1.90625 1.398438 2.125 1.945312 2.5625 2.375 C 3.007812 2.800781 3.59375 3.015625 4.3125 3.015625 C 5.101562 3.015625 5.703125 2.765625 6.109375 2.265625 C 6.515625 1.773438 6.71875 0.96875 6.71875 -0.15625 L 6.71875 -1.046875 L 6.6875 -1.046875 C 6.382812 -0.660156 6 -0.351562 5.53125 -0.125 C 5.070312 0.09375 4.585938 0.203125 4.078125 0.203125 C 3.390625 0.203125 2.769531 0.03125 2.21875 -0.3125 C 1.675781 -0.664062 1.253906 -1.144531 0.953125 -1.75 C 0.648438 -2.351562 0.5 -3.015625 0.5 -3.734375 C 0.5 -4.460938 0.65625 -5.132812 0.96875 -5.75 C 1.28125 -6.363281 1.710938 -6.847656 2.265625 -7.203125 C 2.828125 -7.554688 3.445312 -7.734375 4.125 -7.734375 C 4.644531 -7.734375 5.125 -7.617188 5.5625 -7.390625 C 6 -7.171875 6.375 -6.859375 6.6875 -6.453125 Z M 4.25 -6.546875 C 3.800781 -6.546875 3.390625 -6.425781 3.015625 -6.1875 C 2.648438 -5.957031 2.359375 -5.628906 2.140625 -5.203125 C 1.921875 -4.785156 1.8125 -4.332031 1.8125 -3.84375 C 1.8125 -3.019531 2.039062 -2.332031 2.5 -1.78125 C 2.957031 -1.238281 3.546875 -0.96875 4.265625 -0.96875 C 5.023438 -0.96875 5.632812 -1.234375 6.09375 -1.765625 C 6.550781 -2.304688 6.78125 -2.992188 6.78125 -3.828125 C 6.78125 -4.628906 6.539062 -5.28125 6.0625 -5.78125 C 5.59375 -6.289062 4.988281 -6.546875 4.25 -6.546875 Z M 4.25 -6.546875 "/></g></g></g></svg>