<svg xmlns="http://www.w3.org/2000/svg" xmlns:xlink="http://www.w3.org/1999/xlink" width="200" zoomAndPan="magnify" viewBox="0 0 150 56.249996" height="75" preserveAspectRatio="xMidYMid meet" version="1.0"><defs><g/><clipPath id="655d07f973"><path d="M 4.554688 6.429688 L 144.070312 6.429688 L 144.070312 48.863281 L 4.554688 48.863281 Z M 4.554688 6.429688 " clip-rule="nonzero"/></clipPath><clipPath id="2c979e1f8e"><path d="M 8.539062 6.597656 L 140.191406 6.597656 C 141.203125 6.597656 142.175781 7 142.890625 7.714844 C 143.605469 8.429688 144.007812 9.402344 144.007812 10.414062 L 144.007812 45.046875 C 144.007812 46.058594 143.605469 47.03125 142.890625 47.746094 C 142.175781 48.460938 141.203125 48.863281 140.191406 48.863281 L 8.539062 48.863281 C 7.527344 48.863281 6.554688 48.460938 5.839844 47.746094 C 5.125 47.03125 4.722656 46.058594 4.722656 45.046875 L 4.722656 10.414062 C 4.722656 9.402344 5.125 8.429688 5.839844 7.714844 C 6.554688 7 7.527344 6.597656 8.539062 6.597656 Z M 8.539062 6.597656 " clip-rule="nonzero"/></clipPath></defs><g clip-path="url(#655d07f973)"><g clip-path="url(#2c979e1f8e)"><path fill="#ffffff" d="M 4.722656 6.597656 L 144.070312 6.597656 L 144.070312 48.863281 L 4.722656 48.863281 Z M 4.722656 6.597656 " fill-opacity="1" fill-rule="nonzero"/></g></g><g fill="#851d19" fill-opacity="1"><g transform="translate(19.345816, 31.392049)"><g><path d="M 12.6875 -19.125 C 12.789062 -19.09375 12.894531 -19.035156 13 -18.953125 C 13.101562 -18.867188 13.179688 -18.765625 13.234375 -18.640625 C 13.296875 -18.523438 13.328125 -18.40625 13.328125 -18.28125 C 13.328125 -17.90625 13.113281 -17.628906 12.6875 -17.453125 C 12.195312 -17.253906 11.425781 -17.144531 10.375 -17.125 C 10.9375 -14.21875 11.109375 -10.394531 10.890625 -5.65625 C 10.890625 -5.539062 10.878906 -5.242188 10.859375 -4.765625 C 10.847656 -4.285156 10.832031 -3.960938 10.8125 -3.796875 C 10.800781 -3.640625 10.785156 -3.34375 10.765625 -2.90625 C 10.742188 -2.476562 10.71875 -2.160156 10.6875 -1.953125 C 10.664062 -1.753906 10.628906 -1.460938 10.578125 -1.078125 C 10.535156 -0.703125 10.484375 -0.382812 10.421875 -0.125 C 10.359375 0.132812 10.28125 0.421875 10.1875 0.734375 C 10.101562 1.046875 10.015625 1.335938 9.921875 1.609375 C 9.421875 2.953125 8.796875 3.941406 8.046875 4.578125 C 7.003906 5.429688 5.828125 5.867188 4.515625 5.890625 C 3.753906 5.910156 3.015625 5.742188 2.296875 5.390625 C 1.585938 5.046875 0.988281 4.582031 0.5 4 C -0.363281 2.945312 -0.65625 1.707031 -0.375 0.28125 C -0.25 -0.375 0.0507812 -0.914062 0.53125 -1.34375 C 1.007812 -1.78125 1.570312 -2 2.21875 -2 C 2.914062 -1.988281 3.492188 -1.738281 3.953125 -1.25 C 4.421875 -0.757812 4.539062 -0.1875 4.3125 0.46875 C 4.238281 0.738281 4.066406 0.910156 3.796875 0.984375 C 3.535156 1.066406 3.289062 1.039062 3.0625 0.90625 C 2.84375 0.769531 2.75 0.5625 2.78125 0.28125 C 2.78125 0.175781 2.773438 0.0859375 2.765625 0.015625 C 2.765625 -0.0546875 2.742188 -0.117188 2.703125 -0.171875 C 2.660156 -0.234375 2.609375 -0.28125 2.546875 -0.3125 C 2.484375 -0.34375 2.398438 -0.363281 2.296875 -0.375 C 1.921875 -0.425781 1.628906 -0.300781 1.421875 0 C 1.148438 0.394531 1.035156 0.847656 1.078125 1.359375 C 1.117188 1.878906 1.273438 2.335938 1.546875 2.734375 C 2.171875 3.578125 3.101562 3.890625 4.34375 3.671875 C 4.59375 3.628906 4.828125 3.566406 5.046875 3.484375 C 5.046875 3.484375 5.066406 3.472656 5.109375 3.453125 C 5.148438 3.441406 5.1875 3.429688 5.21875 3.421875 C 5.25 3.421875 5.265625 3.421875 5.265625 3.421875 C 5.359375 3.367188 5.4375 3.328125 5.5 3.296875 C 5.59375 3.253906 5.6875 3.203125 5.78125 3.140625 C 5.78125 3.140625 5.796875 3.125 5.828125 3.09375 C 5.859375 3.070312 5.882812 3.050781 5.90625 3.03125 C 5.9375 3.019531 5.953125 3.007812 5.953125 3 C 6.078125 2.894531 6.175781 2.796875 6.25 2.703125 C 6.25 2.703125 6.269531 2.679688 6.3125 2.640625 C 6.351562 2.609375 6.382812 2.578125 6.40625 2.546875 C 6.425781 2.515625 6.4375 2.5 6.4375 2.5 C 6.5 2.40625 6.539062 2.347656 6.5625 2.328125 C 6.6875 2.160156 6.800781 1.984375 6.90625 1.796875 C 6.957031 1.679688 7.035156 1.515625 7.140625 1.296875 C 7.140625 1.296875 7.148438 1.28125 7.171875 1.25 C 7.171875 1.25 7.175781 1.234375 7.1875 1.203125 C 7.1875 1.171875 7.203125 1.117188 7.234375 1.046875 C 7.265625 0.972656 7.289062 0.921875 7.3125 0.890625 C 7.550781 0.171875 7.75 -0.707031 7.90625 -1.75 C 7.914062 -1.78125 7.921875 -1.800781 7.921875 -1.8125 C 7.921875 -1.894531 7.929688 -1.941406 7.953125 -1.953125 C 7.960938 -2.078125 7.96875 -2.195312 7.96875 -2.3125 C 8 -2.507812 8.023438 -2.738281 8.046875 -3 C 8.109375 -3.625 8.144531 -4.03125 8.15625 -4.21875 C 8.300781 -5.882812 8.410156 -7.382812 8.484375 -8.71875 C 8.515625 -9.25 8.535156 -9.796875 8.546875 -10.359375 C 8.566406 -10.929688 8.578125 -11.507812 8.578125 -12.09375 C 8.578125 -12.6875 8.570312 -13.222656 8.5625 -13.703125 C 8.5625 -14.179688 8.5625 -14.753906 8.5625 -15.421875 C 8.5625 -16.085938 8.5625 -16.632812 8.5625 -17.0625 C 7.9375 -17.039062 7.320312 -17.023438 6.71875 -17.015625 C 5.28125 -16.984375 4.242188 -16.957031 3.609375 -16.9375 C 3.503906 -16.925781 3.269531 -16.90625 2.90625 -16.875 C 2.539062 -16.84375 2.25 -16.820312 2.03125 -16.8125 C 1.8125 -16.800781 1.5625 -16.828125 1.28125 -16.890625 C 1.007812 -16.953125 0.796875 -17.054688 0.640625 -17.203125 C 0.453125 -17.421875 0.363281 -17.644531 0.375 -17.875 C 0.394531 -18.113281 0.484375 -18.34375 0.640625 -18.5625 C 0.691406 -18.625 0.75 -18.675781 0.8125 -18.71875 C 0.875 -18.769531 0.941406 -18.8125 1.015625 -18.84375 C 1.097656 -18.875 1.171875 -18.898438 1.234375 -18.921875 C 1.304688 -18.953125 1.394531 -18.96875 1.5 -18.96875 C 1.601562 -18.976562 1.6875 -18.988281 1.75 -19 C 1.8125 -19.007812 1.894531 -19.015625 2 -19.015625 C 2.101562 -19.015625 2.1875 -19.019531 2.25 -19.03125 C 2.476562 -19.050781 2.957031 -19.066406 3.6875 -19.078125 C 4.394531 -19.109375 5.40625 -19.132812 6.71875 -19.15625 C 8.476562 -19.1875 9.523438 -19.203125 9.859375 -19.203125 C 9.992188 -19.222656 10.175781 -19.234375 10.40625 -19.234375 C 10.632812 -19.242188 10.832031 -19.253906 11 -19.265625 C 11.164062 -19.273438 11.347656 -19.28125 11.546875 -19.28125 C 11.753906 -19.28125 11.953125 -19.265625 12.140625 -19.234375 C 12.328125 -19.210938 12.507812 -19.175781 12.6875 -19.125 Z M 12.6875 -19.125 "/></g></g></g><g fill="#851d19" fill-opacity="1"><g transform="translate(31.458764, 31.392049)"><g><path d="M 10.078125 -9.171875 C 10.242188 -9.304688 10.4375 -9.316406 10.65625 -9.203125 C 10.875 -9.097656 10.941406 -8.9375 10.859375 -8.71875 C 10.765625 -8.4375 10.628906 -8.132812 10.453125 -7.8125 C 10.285156 -7.5 10.085938 -7.179688 9.859375 -6.859375 C 9.628906 -6.546875 9.375 -6.269531 9.09375 -6.03125 C 8.8125 -5.789062 8.519531 -5.597656 8.21875 -5.453125 C 7.925781 -5.316406 7.609375 -5.269531 7.265625 -5.3125 C 6.929688 -5.363281 6.613281 -5.523438 6.3125 -5.796875 C 6.03125 -6.046875 5.8125 -6.367188 5.65625 -6.765625 C 5.070312 -6.179688 4.394531 -5.863281 3.625 -5.8125 C 2.945312 -5.769531 2.347656 -5.925781 1.828125 -6.28125 C 1.316406 -6.644531 0.953125 -7.101562 0.734375 -7.65625 C 0.515625 -8.21875 0.40625 -8.828125 0.40625 -9.484375 C 0.414062 -10.148438 0.570312 -10.75 0.875 -11.28125 C 1.15625 -11.832031 1.566406 -12.273438 2.109375 -12.609375 C 2.660156 -12.953125 3.242188 -13.113281 3.859375 -13.09375 C 4.898438 -13.09375 5.734375 -12.71875 6.359375 -11.96875 C 6.410156 -12.082031 6.488281 -12.25 6.59375 -12.46875 C 6.707031 -12.695312 6.785156 -12.859375 6.828125 -12.953125 C 6.941406 -13.210938 7.144531 -13.273438 7.4375 -13.140625 C 7.726562 -13.015625 7.828125 -12.820312 7.734375 -12.5625 C 7.410156 -11.570312 7.164062 -10.628906 7 -9.734375 C 6.75 -8.503906 6.800781 -7.613281 7.15625 -7.0625 C 7.269531 -6.894531 7.40625 -6.789062 7.5625 -6.75 C 7.71875 -6.707031 7.875 -6.734375 8.03125 -6.828125 C 8.1875 -6.921875 8.34375 -7.039062 8.5 -7.1875 C 8.65625 -7.34375 8.816406 -7.523438 8.984375 -7.734375 C 9.148438 -7.953125 9.296875 -8.148438 9.421875 -8.328125 C 9.546875 -8.503906 9.671875 -8.671875 9.796875 -8.828125 C 9.921875 -8.992188 10.015625 -9.109375 10.078125 -9.171875 Z M 3.296875 -7.875 C 3.421875 -7.8125 3.550781 -7.78125 3.6875 -7.78125 C 3.820312 -7.78125 3.941406 -7.796875 4.046875 -7.828125 C 4.160156 -7.859375 4.269531 -7.90625 4.375 -7.96875 C 4.488281 -8.039062 4.585938 -8.113281 4.671875 -8.1875 C 4.765625 -8.269531 4.859375 -8.367188 4.953125 -8.484375 C 5.054688 -8.609375 5.140625 -8.710938 5.203125 -8.796875 C 5.265625 -8.890625 5.335938 -9 5.421875 -9.125 C 5.429688 -9.21875 5.445312 -9.300781 5.46875 -9.375 C 5.539062 -9.832031 5.671875 -10.320312 5.859375 -10.84375 C 4.984375 -11.5625 4.207031 -11.722656 3.53125 -11.328125 C 3.1875 -11.128906 2.925781 -10.832031 2.75 -10.4375 C 2.613281 -10.15625 2.535156 -9.84375 2.515625 -9.5 C 2.515625 -9.375 2.515625 -9.253906 2.515625 -9.140625 C 2.515625 -9.078125 2.515625 -9.046875 2.515625 -9.046875 C 2.535156 -9.035156 2.546875 -9.003906 2.546875 -8.953125 C 2.554688 -8.867188 2.578125 -8.773438 2.609375 -8.671875 C 2.640625 -8.585938 2.664062 -8.53125 2.6875 -8.5 C 2.84375 -8.1875 3.046875 -7.976562 3.296875 -7.875 Z M 3.296875 -7.875 "/></g></g></g><g fill="#851d19" fill-opacity="1"><g transform="translate(39.942541, 31.392049)"><g><path d="M 7.921875 -9.125 C 8.179688 -9.195312 8.363281 -9.109375 8.46875 -8.859375 C 8.570312 -8.609375 8.515625 -8.40625 8.296875 -8.25 C 8.171875 -8.164062 7.800781 -7.992188 7.1875 -7.734375 C 7.03125 -7.671875 6.816406 -7.570312 6.546875 -7.4375 C 6.285156 -7.300781 6.113281 -7.21875 6.03125 -7.1875 C 5.914062 -7.132812 5.726562 -7.050781 5.46875 -6.9375 C 5.21875 -6.820312 5.019531 -6.734375 4.875 -6.671875 C 5.53125 -5.078125 5.5625 -3.816406 4.96875 -2.890625 C 4.71875 -2.484375 4.382812 -2.179688 3.96875 -1.984375 C 3.550781 -1.796875 3.128906 -1.769531 2.703125 -1.90625 C 2.296875 -2.03125 1.953125 -2.273438 1.671875 -2.640625 C 1.398438 -3.003906 1.242188 -3.394531 1.203125 -3.8125 C 1.078125 -4.863281 1.523438 -5.835938 2.546875 -6.734375 C 2.546875 -6.734375 2.535156 -6.742188 2.515625 -6.765625 C 2.503906 -6.796875 2.5 -6.816406 2.5 -6.828125 C 2.25 -7.316406 2.078125 -7.660156 1.984375 -7.859375 C 1.898438 -8.066406 1.785156 -8.367188 1.640625 -8.765625 C 1.503906 -9.171875 1.410156 -9.539062 1.359375 -9.875 C 1.171875 -11.082031 1.445312 -12.046875 2.1875 -12.765625 C 2.5 -13.078125 2.921875 -13.257812 3.453125 -13.3125 C 3.992188 -13.363281 4.453125 -13.269531 4.828125 -13.03125 C 5.171875 -12.820312 5.4375 -12.53125 5.625 -12.15625 C 5.820312 -11.789062 5.894531 -11.414062 5.84375 -11.03125 C 5.78125 -10.59375 5.570312 -10.25 5.21875 -10 C 4.863281 -9.757812 4.484375 -9.753906 4.078125 -9.984375 C 3.835938 -10.160156 3.769531 -10.378906 3.875 -10.640625 C 3.976562 -10.898438 4.179688 -11 4.484375 -10.9375 C 4.671875 -10.882812 4.753906 -10.96875 4.734375 -11.1875 C 4.703125 -11.488281 4.59375 -11.71875 4.40625 -11.875 C 4.375 -11.894531 4.347656 -11.90625 4.328125 -11.90625 C 3.972656 -12.09375 3.703125 -11.945312 3.515625 -11.46875 C 3.453125 -11.3125 3.414062 -11.132812 3.40625 -10.9375 C 3.394531 -10.75 3.398438 -10.570312 3.421875 -10.40625 C 3.453125 -10.238281 3.5 -10.039062 3.5625 -9.8125 C 3.632812 -9.582031 3.691406 -9.40625 3.734375 -9.28125 C 3.785156 -9.15625 3.859375 -8.984375 3.953125 -8.765625 C 3.984375 -8.703125 4 -8.65625 4 -8.625 C 4.082031 -8.4375 4.203125 -8.175781 4.359375 -7.84375 C 4.847656 -8.082031 5.382812 -8.296875 5.96875 -8.484375 C 7.238281 -8.910156 7.890625 -9.125 7.921875 -9.125 Z M 3.5625 -4.125 C 3.59375 -4.375 3.46875 -4.796875 3.1875 -5.390625 C 3.1875 -5.410156 3.179688 -5.425781 3.171875 -5.4375 C 3.160156 -5.457031 3.15625 -5.472656 3.15625 -5.484375 C 2.695312 -4.972656 2.523438 -4.488281 2.640625 -4.03125 C 2.710938 -3.695312 2.867188 -3.550781 3.109375 -3.59375 C 3.359375 -3.632812 3.507812 -3.8125 3.5625 -4.125 Z M 3.5625 -4.125 "/></g></g></g><g fill="#851d19" fill-opacity="1"><g transform="translate(46.140409, 31.392049)"><g><path d="M 9.640625 -9.46875 C 9.796875 -9.769531 10.023438 -9.84375 10.328125 -9.6875 C 10.640625 -9.539062 10.765625 -9.3125 10.703125 -9 C 10.585938 -8.34375 10.3125 -7.726562 9.875 -7.15625 C 9.4375 -6.582031 8.925781 -6.207031 8.34375 -6.03125 C 7.820312 -5.875 7.316406 -5.910156 6.828125 -6.140625 C 6.347656 -6.367188 5.988281 -6.722656 5.75 -7.203125 C 5.476562 -7.773438 5.421875 -8.476562 5.578125 -9.3125 C 5.609375 -9.4375 5.664062 -9.640625 5.75 -9.921875 C 5.84375 -10.203125 5.894531 -10.40625 5.90625 -10.53125 C 5.925781 -10.65625 5.921875 -10.875 5.890625 -11.1875 C 5.742188 -11.757812 5.523438 -12.050781 5.234375 -12.0625 C 4.734375 -12.09375 4.332031 -11.640625 4.03125 -10.703125 C 3.78125 -9.910156 3.660156 -9.109375 3.671875 -8.296875 C 3.691406 -8.046875 3.71875 -7.769531 3.75 -7.46875 C 3.78125 -7.164062 3.820312 -6.847656 3.875 -6.515625 C 3.925781 -6.191406 3.960938 -5.921875 3.984375 -5.703125 C 4.015625 -5.453125 3.9375 -5.234375 3.75 -5.046875 C 3.5625 -4.859375 3.347656 -4.738281 3.109375 -4.6875 C 2.859375 -4.65625 2.628906 -4.707031 2.421875 -4.84375 C 2.222656 -4.988281 2.082031 -5.179688 2 -5.421875 C 1.289062 -7.648438 0.875 -9.894531 0.75 -12.15625 C 0.625 -14.1875 0.75 -16.175781 1.125 -18.125 C 1.3125 -19.125 1.648438 -19.828125 2.140625 -20.234375 C 2.503906 -20.535156 2.890625 -20.703125 3.296875 -20.734375 C 3.703125 -20.765625 4.101562 -20.660156 4.5 -20.421875 C 4.8125 -20.222656 5.035156 -19.929688 5.171875 -19.546875 C 5.304688 -19.171875 5.347656 -18.757812 5.296875 -18.3125 C 5.253906 -17.863281 5.1875 -17.457031 5.09375 -17.09375 C 5 -16.726562 4.890625 -16.363281 4.765625 -16 C 4.253906 -14.664062 3.609375 -13.617188 2.828125 -12.859375 C 2.835938 -12.484375 2.859375 -12.113281 2.890625 -11.75 C 3.128906 -12.144531 3.445312 -12.492188 3.84375 -12.796875 C 4.25 -13.109375 4.65625 -13.289062 5.0625 -13.34375 C 5.125 -13.351562 5.179688 -13.359375 5.234375 -13.359375 C 5.671875 -13.359375 6.078125 -13.226562 6.453125 -12.96875 C 6.828125 -12.707031 7.109375 -12.382812 7.296875 -12 C 7.628906 -11.300781 7.671875 -10.421875 7.421875 -9.359375 C 7.367188 -8.742188 7.394531 -8.328125 7.5 -8.109375 L 7.546875 -8.015625 C 7.554688 -7.984375 7.570312 -7.957031 7.59375 -7.9375 L 7.640625 -7.921875 C 7.679688 -7.898438 7.742188 -7.882812 7.828125 -7.875 C 7.828125 -7.875 7.847656 -7.867188 7.890625 -7.859375 C 7.941406 -7.847656 7.972656 -7.84375 7.984375 -7.84375 C 8.035156 -7.84375 8.140625 -7.851562 8.296875 -7.875 L 8.359375 -7.875 C 8.453125 -7.914062 8.554688 -7.984375 8.671875 -8.078125 C 8.972656 -8.316406 9.296875 -8.78125 9.640625 -9.46875 Z M 3.28125 -18.84375 C 3.195312 -18.65625 3.132812 -18.359375 3.09375 -17.953125 C 2.925781 -16.898438 2.828125 -15.816406 2.796875 -14.703125 C 3.273438 -15.515625 3.613281 -16.351562 3.8125 -17.21875 C 4.113281 -18.457031 4.113281 -19.175781 3.8125 -19.375 C 3.800781 -19.375 3.78125 -19.363281 3.75 -19.34375 C 3.65625 -19.3125 3.578125 -19.273438 3.515625 -19.234375 C 3.429688 -19.148438 3.351562 -19.019531 3.28125 -18.84375 Z M 3.28125 -18.84375 "/></g></g></g><g fill="#851d19" fill-opacity="1"><g transform="translate(54.553489, 31.392049)"><g><path d="M 10.390625 -8.953125 C 10.535156 -9.128906 10.722656 -9.148438 10.953125 -9.015625 C 11.191406 -8.878906 11.269531 -8.703125 11.1875 -8.484375 C 11 -8.015625 10.863281 -7.679688 10.78125 -7.484375 C 10.695312 -7.296875 10.550781 -7.019531 10.34375 -6.65625 C 10.132812 -6.289062 9.910156 -5.988281 9.671875 -5.75 C 9.441406 -5.507812 9.179688 -5.320312 8.890625 -5.1875 C 8.179688 -4.851562 7.492188 -4.851562 6.828125 -5.1875 C 6.171875 -5.53125 5.78125 -6.085938 5.65625 -6.859375 C 5.625 -7.023438 5.597656 -7.210938 5.578125 -7.421875 C 5.566406 -7.640625 5.5625 -7.816406 5.5625 -7.953125 C 5.570312 -8.097656 5.582031 -8.296875 5.59375 -8.546875 C 5.601562 -8.804688 5.609375 -8.988281 5.609375 -9.09375 C 5.640625 -9.375 5.640625 -9.722656 5.609375 -10.140625 C 5.585938 -10.554688 5.507812 -10.898438 5.375 -11.171875 C 5.25 -11.390625 5.09375 -11.53125 4.90625 -11.59375 C 4.726562 -11.65625 4.546875 -11.648438 4.359375 -11.578125 C 4.171875 -11.503906 3.988281 -11.375 3.8125 -11.1875 C 3.40625 -10.8125 3.140625 -10.378906 3.015625 -9.890625 C 3.046875 -9.503906 3.0625 -9.25 3.0625 -9.125 C 3.082031 -8.894531 3.109375 -8.613281 3.140625 -8.28125 C 3.171875 -7.945312 3.195312 -7.65625 3.21875 -7.40625 C 3.238281 -7.164062 3.253906 -6.890625 3.265625 -6.578125 C 3.285156 -6.265625 3.289062 -5.976562 3.28125 -5.71875 C 3.257812 -5.40625 3.125 -5.171875 2.875 -5.015625 C 2.632812 -4.859375 2.378906 -4.820312 2.109375 -4.90625 C 1.835938 -5 1.660156 -5.191406 1.578125 -5.484375 C 1.390625 -6.179688 1.265625 -7.363281 1.203125 -9.03125 C 1.140625 -10.550781 1.207031 -11.710938 1.40625 -12.515625 C 1.476562 -12.828125 1.691406 -12.984375 2.046875 -12.984375 C 2.410156 -12.984375 2.628906 -12.828125 2.703125 -12.515625 C 2.734375 -12.328125 2.773438 -12.109375 2.828125 -11.859375 C 3.191406 -12.234375 3.578125 -12.503906 3.984375 -12.671875 C 4.691406 -12.953125 5.34375 -12.910156 5.9375 -12.546875 C 6.53125 -12.191406 6.953125 -11.65625 7.203125 -10.9375 C 7.398438 -10.382812 7.5 -9.585938 7.5 -8.546875 C 7.5 -8.515625 7.488281 -8.390625 7.46875 -8.171875 C 7.457031 -7.953125 7.453125 -7.769531 7.453125 -7.625 C 7.453125 -7.476562 7.472656 -7.320312 7.515625 -7.15625 C 7.566406 -6.988281 7.640625 -6.875 7.734375 -6.8125 C 8.046875 -6.570312 8.507812 -6.75 9.125 -7.34375 C 9.21875 -7.445312 9.3125 -7.546875 9.40625 -7.640625 C 9.5 -7.742188 9.582031 -7.847656 9.65625 -7.953125 C 9.738281 -8.066406 9.816406 -8.175781 9.890625 -8.28125 C 9.972656 -8.382812 10.0625 -8.5 10.15625 -8.625 C 10.25 -8.75 10.328125 -8.859375 10.390625 -8.953125 Z M 10.390625 -8.953125 "/></g></g></g><g fill="#851d19" fill-opacity="1"><g transform="translate(63.10796, 31.392049)"><g><path d="M 12.515625 -7.375 C 12.984375 -7.375 13.316406 -7.179688 13.515625 -6.796875 C 13.710938 -6.410156 13.710938 -6.019531 13.515625 -5.625 C 13.316406 -5.238281 12.984375 -5.046875 12.515625 -5.046875 L 2.3125 -5.046875 C 1.84375 -5.046875 1.507812 -5.238281 1.3125 -5.625 C 1.113281 -6.019531 1.113281 -6.410156 1.3125 -6.796875 C 1.507812 -7.179688 1.84375 -7.375 2.3125 -7.375 Z M 12.515625 -7.375 "/></g></g></g><g fill="#851d19" fill-opacity="1"><g transform="translate(77.931002, 31.392049)"><g><path d="M 8.453125 -9.140625 C 8.609375 -9.347656 8.8125 -9.375 9.0625 -9.21875 C 9.320312 -9.070312 9.40625 -8.878906 9.3125 -8.640625 C 8.957031 -7.816406 8.425781 -7.109375 7.71875 -6.515625 C 7.019531 -5.921875 6.238281 -5.546875 5.375 -5.390625 C 4.476562 -5.253906 3.753906 -5.28125 3.203125 -5.46875 C 2.359375 -5.800781 1.722656 -6.363281 1.296875 -7.15625 C 1.015625 -7.726562 0.84375 -8.34375 0.78125 -9 C 0.726562 -9.65625 0.816406 -10.304688 1.046875 -10.953125 C 1.273438 -11.597656 1.648438 -12.101562 2.171875 -12.46875 C 2.953125 -13.019531 3.738281 -13.191406 4.53125 -12.984375 C 5.34375 -12.765625 5.738281 -12.160156 5.71875 -11.171875 C 5.71875 -10.378906 5.492188 -9.695312 5.046875 -9.125 C 4.597656 -8.550781 4.007812 -8.195312 3.28125 -8.0625 C 3.476562 -7.695312 3.757812 -7.46875 4.125 -7.375 C 4.5 -7.289062 4.945312 -7.273438 5.46875 -7.328125 C 6.050781 -7.390625 6.5 -7.53125 6.8125 -7.75 C 7.625 -8.332031 8.171875 -8.796875 8.453125 -9.140625 Z M 4.078125 -11.453125 C 3.617188 -11.273438 3.296875 -10.9375 3.109375 -10.4375 C 2.921875 -9.945312 2.875 -9.4375 2.96875 -8.90625 C 3.644531 -9.125 4.132812 -9.515625 4.4375 -10.078125 C 4.632812 -10.441406 4.710938 -10.804688 4.671875 -11.171875 C 4.648438 -11.367188 4.59375 -11.488281 4.5 -11.53125 C 4.40625 -11.570312 4.265625 -11.546875 4.078125 -11.453125 Z M 4.078125 -11.453125 "/></g></g></g><g fill="#851d19" fill-opacity="1"><g transform="translate(85.000816, 31.392049)"><g><path d="M 12.515625 -7.375 C 12.984375 -7.375 13.316406 -7.179688 13.515625 -6.796875 C 13.710938 -6.410156 13.710938 -6.019531 13.515625 -5.625 C 13.316406 -5.238281 12.984375 -5.046875 12.515625 -5.046875 L 2.3125 -5.046875 C 1.84375 -5.046875 1.507812 -5.238281 1.3125 -5.625 C 1.113281 -6.019531 1.113281 -6.410156 1.3125 -6.796875 C 1.507812 -7.179688 1.84375 -7.375 2.3125 -7.375 Z M 12.515625 -7.375 "/></g></g></g><g fill="#851d19" fill-opacity="1"><g transform="translate(99.823858, 31.392049)"><g><path d="M 18.296875 3.203125 C 19.140625 4.160156 19.265625 5.367188 18.671875 6.828125 C 18.234375 7.929688 17.257812 8.796875 15.75 9.421875 C 15.019531 9.691406 14.296875 9.753906 13.578125 9.609375 C 12.867188 9.472656 12.21875 9.164062 11.625 8.6875 C 11.21875 8.375 10.859375 8 10.546875 7.5625 C 10.242188 7.132812 9.984375 6.632812 9.765625 6.0625 C 9.546875 5.488281 9.375 5 9.25 4.59375 C 9.132812 4.1875 9 3.660156 8.84375 3.015625 C 8.726562 2.546875 8.519531 1.582031 8.21875 0.125 C 7.914062 -1.320312 7.660156 -2.429688 7.453125 -3.203125 C 7.203125 -4.085938 6.878906 -4.847656 6.484375 -5.484375 C 6.453125 -5.546875 6.398438 -5.625 6.328125 -5.71875 L 6.328125 -5.75 C 6.273438 -5.789062 6.21875 -5.851562 6.15625 -5.9375 C 6.125 -5.96875 6.070312 -6.023438 6 -6.109375 C 6 -6.117188 6 -6.125 6 -6.125 C 5.863281 -6.238281 5.757812 -6.328125 5.6875 -6.390625 C 5.4375 -6.585938 5.1875 -6.726562 4.9375 -6.8125 C 4.820312 -6.820312 4.734375 -6.828125 4.671875 -6.828125 C 4.566406 -6.847656 4.460938 -6.878906 4.359375 -6.921875 C 4.265625 -6.921875 4.171875 -6.914062 4.078125 -6.90625 C 4.003906 -6.875 3.925781 -6.863281 3.84375 -6.875 C 3.84375 -6.40625 3.832031 -5.734375 3.8125 -4.859375 C 3.800781 -3.992188 3.796875 -3.457031 3.796875 -3.25 C 3.796875 -2.625 3.789062 -1.929688 3.78125 -1.171875 C 3.75 -0.117188 3.6875 0.566406 3.59375 0.890625 C 3.46875 1.265625 3.210938 1.453125 2.828125 1.453125 C 2.441406 1.453125 2.1875 1.265625 2.0625 0.890625 C 2.007812 0.734375 1.96875 0.550781 1.9375 0.34375 C 1.90625 0.132812 1.882812 -0.0234375 1.875 -0.140625 C 1.875 -0.253906 1.867188 -0.460938 1.859375 -0.765625 C 1.847656 -1.066406 1.84375 -1.234375 1.84375 -1.265625 C 1.832031 -1.941406 1.816406 -2.632812 1.796875 -3.34375 C 1.785156 -5.351562 1.785156 -6.726562 1.796875 -7.46875 C 1.816406 -10.84375 1.925781 -13.640625 2.125 -15.859375 C 2.15625 -16.140625 2.273438 -16.332031 2.484375 -16.4375 C 2.703125 -16.550781 2.921875 -16.550781 3.140625 -16.4375 C 3.359375 -16.332031 3.484375 -16.140625 3.515625 -15.859375 C 3.734375 -13.796875 3.84375 -11.21875 3.84375 -8.125 C 4.125 -8.238281 4.414062 -8.300781 4.71875 -8.3125 C 5.21875 -8.46875 5.570312 -8.609375 5.78125 -8.734375 C 5.894531 -8.816406 6.007812 -8.910156 6.125 -9.015625 C 6.238281 -9.117188 6.363281 -9.238281 6.5 -9.375 C 6.644531 -9.519531 6.75 -9.625 6.8125 -9.6875 C 7.539062 -10.34375 8.125 -11.066406 8.5625 -11.859375 C 8.6875 -12.078125 8.796875 -12.285156 8.890625 -12.484375 C 8.890625 -12.484375 8.894531 -12.492188 8.90625 -12.515625 C 8.914062 -12.546875 8.921875 -12.578125 8.921875 -12.609375 C 8.929688 -12.640625 8.941406 -12.671875 8.953125 -12.703125 C 8.972656 -12.742188 8.988281 -12.78125 9 -12.8125 C 9.019531 -12.84375 9.03125 -12.859375 9.03125 -12.859375 C 9.113281 -13.097656 9.175781 -13.3125 9.21875 -13.5 C 9.238281 -13.550781 9.253906 -13.613281 9.265625 -13.6875 C 9.285156 -13.769531 9.296875 -13.828125 9.296875 -13.859375 C 9.296875 -13.867188 9.300781 -13.90625 9.3125 -13.96875 C 9.332031 -14.175781 9.34375 -14.390625 9.34375 -14.609375 C 9.34375 -14.617188 9.332031 -14.691406 9.3125 -14.828125 L 9.3125 -14.984375 L 9.3125 -14.96875 C 9.269531 -15.164062 9.234375 -15.34375 9.203125 -15.5 C 9.171875 -15.582031 9.140625 -15.675781 9.109375 -15.78125 C 9.085938 -15.78125 9.078125 -15.789062 9.078125 -15.8125 C 8.929688 -16.082031 8.820312 -16.265625 8.75 -16.359375 C 8.71875 -16.398438 8.691406 -16.445312 8.671875 -16.5 C 8.628906 -16.539062 8.597656 -16.5625 8.578125 -16.5625 C 8.285156 -16.863281 8.0625 -17.078125 7.90625 -17.203125 C 7.332031 -17.628906 6.679688 -17.941406 5.953125 -18.140625 C 4.578125 -18.535156 3.222656 -18.332031 1.890625 -17.53125 C 1.210938 -17.125 0.671875 -16.609375 0.265625 -15.984375 C -0.140625 -15.367188 -0.304688 -14.695312 -0.234375 -13.96875 C -0.203125 -13.75 -0.28125 -13.582031 -0.46875 -13.46875 C -0.664062 -13.351562 -0.875 -13.328125 -1.09375 -13.390625 C -1.3125 -13.453125 -1.441406 -13.59375 -1.484375 -13.8125 C -1.640625 -14.875 -1.410156 -15.847656 -0.796875 -16.734375 C -0.191406 -17.628906 0.625 -18.390625 1.65625 -19.015625 C 3.394531 -20.066406 5.234375 -20.421875 7.171875 -20.078125 C 8.296875 -19.867188 9.28125 -19.453125 10.125 -18.828125 C 10.96875 -18.203125 11.578125 -17.367188 11.953125 -16.328125 C 12.234375 -15.578125 12.34375 -14.796875 12.28125 -13.984375 C 12.21875 -13.171875 12.03125 -12.394531 11.71875 -11.65625 C 11.40625 -10.925781 11.003906 -10.242188 10.515625 -9.609375 C 9.640625 -8.515625 8.738281 -7.785156 7.8125 -7.421875 C 7.726562 -7.390625 7.640625 -7.359375 7.546875 -7.328125 C 8.066406 -6.898438 8.53125 -6.25 8.9375 -5.375 C 9.644531 -3.945312 10.320312 -2.113281 10.96875 0.125 C 11.0625 0.46875 11.253906 1.210938 11.546875 2.359375 C 11.835938 3.515625 12.082031 4.398438 12.28125 5.015625 C 12.425781 5.410156 12.625 5.8125 12.875 6.21875 C 13.132812 6.644531 13.425781 6.984375 13.75 7.234375 C 14.164062 7.535156 14.632812 7.671875 15.15625 7.640625 C 15.675781 7.609375 16.164062 7.441406 16.625 7.140625 C 17.09375 6.828125 17.460938 6.414062 17.734375 5.90625 C 18.015625 5.394531 18.015625 4.910156 17.734375 4.453125 C 17.523438 4.109375 17.210938 3.878906 16.796875 3.765625 C 16.390625 3.660156 16.023438 3.722656 15.703125 3.953125 C 15.523438 4.066406 15.332031 4.09375 15.125 4.03125 C 14.914062 3.96875 14.757812 3.847656 14.65625 3.671875 C 14.550781 3.484375 14.523438 3.296875 14.578125 3.109375 C 14.628906 2.921875 14.742188 2.765625 14.921875 2.640625 C 15.484375 2.265625 16.078125 2.140625 16.703125 2.265625 C 17.335938 2.398438 17.867188 2.710938 18.296875 3.203125 Z M 9.109375 -15.765625 Z M 9.109375 -15.765625 "/></g></g></g><g fill="#851d19" fill-opacity="1"><g transform="translate(112.596651, 31.392049)"><g><path d="M 10.078125 -9.171875 C 10.242188 -9.304688 10.4375 -9.316406 10.65625 -9.203125 C 10.875 -9.097656 10.941406 -8.9375 10.859375 -8.71875 C 10.765625 -8.4375 10.628906 -8.132812 10.453125 -7.8125 C 10.285156 -7.5 10.085938 -7.179688 9.859375 -6.859375 C 9.628906 -6.546875 9.375 -6.269531 9.09375 -6.03125 C 8.8125 -5.789062 8.519531 -5.597656 8.21875 -5.453125 C 7.925781 -5.316406 7.609375 -5.269531 7.265625 -5.3125 C 6.929688 -5.363281 6.613281 -5.523438 6.3125 -5.796875 C 6.03125 -6.046875 5.8125 -6.367188 5.65625 -6.765625 C 5.070312 -6.179688 4.394531 -5.863281 3.625 -5.8125 C 2.945312 -5.769531 2.347656 -5.925781 1.828125 -6.28125 C 1.316406 -6.644531 0.953125 -7.101562 0.734375 -7.65625 C 0.515625 -8.21875 0.40625 -8.828125 0.40625 -9.484375 C 0.414062 -10.148438 0.570312 -10.75 0.875 -11.28125 C 1.15625 -11.832031 1.566406 -12.273438 2.109375 -12.609375 C 2.660156 -12.953125 3.242188 -13.113281 3.859375 -13.09375 C 4.898438 -13.09375 5.734375 -12.71875 6.359375 -11.96875 C 6.410156 -12.082031 6.488281 -12.25 6.59375 -12.46875 C 6.707031 -12.695312 6.785156 -12.859375 6.828125 -12.953125 C 6.941406 -13.210938 7.144531 -13.273438 7.4375 -13.140625 C 7.726562 -13.015625 7.828125 -12.820312 7.734375 -12.5625 C 7.410156 -11.570312 7.164062 -10.628906 7 -9.734375 C 6.75 -8.503906 6.800781 -7.613281 7.15625 -7.0625 C 7.269531 -6.894531 7.40625 -6.789062 7.5625 -6.75 C 7.71875 -6.707031 7.875 -6.734375 8.03125 -6.828125 C 8.1875 -6.921875 8.34375 -7.039062 8.5 -7.1875 C 8.65625 -7.34375 8.816406 -7.523438 8.984375 -7.734375 C 9.148438 -7.953125 9.296875 -8.148438 9.421875 -8.328125 C 9.546875 -8.503906 9.671875 -8.671875 9.796875 -8.828125 C 9.921875 -8.992188 10.015625 -9.109375 10.078125 -9.171875 Z M 3.296875 -7.875 C 3.421875 -7.8125 3.550781 -7.78125 3.6875 -7.78125 C 3.820312 -7.78125 3.941406 -7.796875 4.046875 -7.828125 C 4.160156 -7.859375 4.269531 -7.90625 4.375 -7.96875 C 4.488281 -8.039062 4.585938 -8.113281 4.671875 -8.1875 C 4.765625 -8.269531 4.859375 -8.367188 4.953125 -8.484375 C 5.054688 -8.609375 5.140625 -8.710938 5.203125 -8.796875 C 5.265625 -8.890625 5.335938 -9 5.421875 -9.125 C 5.429688 -9.21875 5.445312 -9.300781 5.46875 -9.375 C 5.539062 -9.832031 5.671875 -10.320312 5.859375 -10.84375 C 4.984375 -11.5625 4.207031 -11.722656 3.53125 -11.328125 C 3.1875 -11.128906 2.925781 -10.832031 2.75 -10.4375 C 2.613281 -10.15625 2.535156 -9.84375 2.515625 -9.5 C 2.515625 -9.375 2.515625 -9.253906 2.515625 -9.140625 C 2.515625 -9.078125 2.515625 -9.046875 2.515625 -9.046875 C 2.535156 -9.035156 2.546875 -9.003906 2.546875 -8.953125 C 2.554688 -8.867188 2.578125 -8.773438 2.609375 -8.671875 C 2.640625 -8.585938 2.664062 -8.53125 2.6875 -8.5 C 2.84375 -8.1875 3.046875 -7.976562 3.296875 -7.875 Z M 3.296875 -7.875 "/></g></g></g><g fill="#851d19" fill-opacity="1"><g transform="translate(121.080434, 31.392049)"><g><path d="M 7.203125 -5.890625 C 7.410156 -5.742188 7.519531 -5.550781 7.53125 -5.3125 C 7.539062 -5.070312 7.429688 -4.878906 7.203125 -4.734375 C 7.003906 -4.609375 6.765625 -4.523438 6.484375 -4.484375 C 6.210938 -4.453125 5.867188 -4.4375 5.453125 -4.4375 C 5.035156 -4.4375 4.773438 -4.425781 4.671875 -4.40625 C 4.617188 -4.40625 4.492188 -4.398438 4.296875 -4.390625 C 4.097656 -4.378906 3.945312 -4.367188 3.84375 -4.359375 C 3.84375 -4.359375 3.816406 -4.351562 3.765625 -4.34375 C 3.722656 -4.332031 3.703125 -4.328125 3.703125 -4.328125 C 3.671875 -4.328125 3.628906 -4.320312 3.578125 -4.3125 L 3.4375 -4.28125 C 3.1875 -4.238281 2.972656 -4.203125 2.796875 -4.171875 C 2.628906 -4.148438 2.421875 -4.144531 2.171875 -4.15625 C 1.921875 -4.164062 1.707031 -4.195312 1.53125 -4.25 C 1.351562 -4.300781 1.1875 -4.40625 1.03125 -4.5625 C 0.875 -4.726562 0.765625 -4.925781 0.703125 -5.15625 C 0.671875 -5.269531 0.65625 -5.378906 0.65625 -5.484375 C 0.65625 -5.597656 0.664062 -5.710938 0.6875 -5.828125 C 0.71875 -5.953125 0.742188 -6.0625 0.765625 -6.15625 C 0.785156 -6.25 0.828125 -6.359375 0.890625 -6.484375 C 0.953125 -6.609375 1 -6.707031 1.03125 -6.78125 C 1.0625 -6.863281 1.113281 -6.96875 1.1875 -7.09375 C 1.257812 -7.226562 1.3125 -7.320312 1.34375 -7.375 C 1.707031 -8.09375 2.078125 -8.769531 2.453125 -9.40625 C 2.878906 -10.09375 3.328125 -10.742188 3.796875 -11.359375 C 3.921875 -11.515625 4.066406 -11.679688 4.234375 -11.859375 C 3.941406 -11.898438 3.65625 -11.929688 3.375 -11.953125 C 3.3125 -11.960938 2.539062 -11.945312 1.0625 -11.90625 C 0.882812 -11.90625 0.75 -11.976562 0.65625 -12.125 C 0.5625 -12.269531 0.535156 -12.425781 0.578125 -12.59375 C 0.628906 -12.757812 0.742188 -12.859375 0.921875 -12.890625 C 1.796875 -13.054688 2.785156 -13.179688 3.890625 -13.265625 C 4.140625 -13.285156 4.609375 -13.285156 5.296875 -13.265625 C 5.753906 -13.265625 6.054688 -13.21875 6.203125 -13.125 C 6.484375 -12.96875 6.648438 -12.734375 6.703125 -12.421875 C 6.753906 -12.109375 6.726562 -11.804688 6.625 -11.515625 C 6.53125 -11.234375 6.394531 -10.96875 6.21875 -10.71875 C 5.46875 -9.601562 4.984375 -8.863281 4.765625 -8.5 C 4.285156 -7.75 3.828125 -6.921875 3.390625 -6.015625 C 3.421875 -6.023438 3.445312 -6.03125 3.46875 -6.03125 C 3.5 -6.03125 3.765625 -6.039062 4.265625 -6.0625 C 4.390625 -6.070312 4.625 -6.09375 4.96875 -6.125 C 5.3125 -6.15625 5.585938 -6.175781 5.796875 -6.1875 C 6.015625 -6.195312 6.257812 -6.175781 6.53125 -6.125 C 6.8125 -6.082031 7.035156 -6.003906 7.203125 -5.890625 Z M 7.203125 -5.890625 "/></g></g></g><g fill="#851d19" fill-opacity="1"><g transform="translate(128.150247, 31.392049)"><g><path d="M 10.078125 -9.171875 C 10.242188 -9.304688 10.4375 -9.316406 10.65625 -9.203125 C 10.875 -9.097656 10.941406 -8.9375 10.859375 -8.71875 C 10.765625 -8.4375 10.628906 -8.132812 10.453125 -7.8125 C 10.285156 -7.5 10.085938 -7.179688 9.859375 -6.859375 C 9.628906 -6.546875 9.375 -6.269531 9.09375 -6.03125 C 8.8125 -5.789062 8.519531 -5.597656 8.21875 -5.453125 C 7.925781 -5.316406 7.609375 -5.269531 7.265625 -5.3125 C 6.929688 -5.363281 6.613281 -5.523438 6.3125 -5.796875 C 6.03125 -6.046875 5.8125 -6.367188 5.65625 -6.765625 C 5.070312 -6.179688 4.394531 -5.863281 3.625 -5.8125 C 2.945312 -5.769531 2.347656 -5.925781 1.828125 -6.28125 C 1.316406 -6.644531 0.953125 -7.101562 0.734375 -7.65625 C 0.515625 -8.21875 0.40625 -8.828125 0.40625 -9.484375 C 0.414062 -10.148438 0.570312 -10.75 0.875 -11.28125 C 1.15625 -11.832031 1.566406 -12.273438 2.109375 -12.609375 C 2.660156 -12.953125 3.242188 -13.113281 3.859375 -13.09375 C 4.898438 -13.09375 5.734375 -12.71875 6.359375 -11.96875 C 6.410156 -12.082031 6.488281 -12.25 6.59375 -12.46875 C 6.707031 -12.695312 6.785156 -12.859375 6.828125 -12.953125 C 6.941406 -13.210938 7.144531 -13.273438 7.4375 -13.140625 C 7.726562 -13.015625 7.828125 -12.820312 7.734375 -12.5625 C 7.410156 -11.570312 7.164062 -10.628906 7 -9.734375 C 6.75 -8.503906 6.800781 -7.613281 7.15625 -7.0625 C 7.269531 -6.894531 7.40625 -6.789062 7.5625 -6.75 C 7.71875 -6.707031 7.875 -6.734375 8.03125 -6.828125 C 8.1875 -6.921875 8.34375 -7.039062 8.5 -7.1875 C 8.65625 -7.34375 8.816406 -7.523438 8.984375 -7.734375 C 9.148438 -7.953125 9.296875 -8.148438 9.421875 -8.328125 C 9.546875 -8.503906 9.671875 -8.671875 9.796875 -8.828125 C 9.921875 -8.992188 10.015625 -9.109375 10.078125 -9.171875 Z M 3.296875 -7.875 C 3.421875 -7.8125 3.550781 -7.78125 3.6875 -7.78125 C 3.820312 -7.78125 3.941406 -7.796875 4.046875 -7.828125 C 4.160156 -7.859375 4.269531 -7.90625 4.375 -7.96875 C 4.488281 -8.039062 4.585938 -8.113281 4.671875 -8.1875 C 4.765625 -8.269531 4.859375 -8.367188 4.953125 -8.484375 C 5.054688 -8.609375 5.140625 -8.710938 5.203125 -8.796875 C 5.265625 -8.890625 5.335938 -9 5.421875 -9.125 C 5.429688 -9.21875 5.445312 -9.300781 5.46875 -9.375 C 5.539062 -9.832031 5.671875 -10.320312 5.859375 -10.84375 C 4.984375 -11.5625 4.207031 -11.722656 3.53125 -11.328125 C 3.1875 -11.128906 2.925781 -10.832031 2.75 -10.4375 C 2.613281 -10.15625 2.535156 -9.84375 2.515625 -9.5 C 2.515625 -9.375 2.515625 -9.253906 2.515625 -9.140625 C 2.515625 -9.078125 2.515625 -9.046875 2.515625 -9.046875 C 2.535156 -9.035156 2.546875 -9.003906 2.546875 -8.953125 C 2.554688 -8.867188 2.578125 -8.773438 2.609375 -8.671875 C 2.640625 -8.585938 2.664062 -8.53125 2.6875 -8.5 C 2.84375 -8.1875 3.046875 -7.976562 3.296875 -7.875 Z M 3.296875 -7.875 "/></g></g></g><g fill="#000000" fill-opacity="1"><g transform="translate(36.075924, 42.18748)"><g><path d="M 4.25 0.078125 C 3.46875 0.078125 2.867188 -0.0078125 2.453125 -0.1875 C 2.046875 -0.363281 1.765625 -0.632812 1.609375 -1 C 1.453125 -1.375 1.363281 -1.851562 1.34375 -2.4375 L 1.046875 -10.4375 L 2.25 -10.4375 L 2.546875 -2.90625 C 2.566406 -2.425781 2.613281 -2.054688 2.6875 -1.796875 C 2.757812 -1.546875 2.921875 -1.367188 3.171875 -1.265625 C 3.429688 -1.171875 3.84375 -1.125 4.40625 -1.125 C 4.601562 -1.125 4.75 -1.066406 4.84375 -0.953125 C 4.9375 -0.847656 4.984375 -0.71875 4.984375 -0.5625 C 4.984375 -0.40625 4.914062 -0.257812 4.78125 -0.125 C 4.644531 0.0078125 4.46875 0.078125 4.25 0.078125 Z M 4.25 0.078125 "/></g></g></g><g fill="#000000" fill-opacity="1"><g transform="translate(40.340012, 42.18748)"><g><path d="M 7.078125 0.265625 C 6.035156 0.265625 5.191406 0.21875 4.546875 0.125 C 3.910156 0.03125 3.425781 -0.109375 3.09375 -0.296875 C 2.769531 -0.484375 2.539062 -0.726562 2.40625 -1.03125 C 2.175781 -0.6875 1.929688 -0.4375 1.671875 -0.28125 C 1.410156 -0.132812 1.140625 -0.0390625 0.859375 0 C 0.585938 0.0507812 0.300781 0.078125 0 0.078125 L 0.140625 -1.125 C 0.597656 -1.125 0.945312 -1.210938 1.1875 -1.390625 C 1.4375 -1.578125 1.628906 -1.878906 1.765625 -2.296875 C 1.910156 -2.710938 2.070312 -3.285156 2.25 -4.015625 L 3.3125 -3.75 C 3.21875 -3.40625 3.144531 -3.09375 3.09375 -2.8125 C 3.039062 -2.539062 3.015625 -2.335938 3.015625 -2.203125 C 3.015625 -1.929688 3.085938 -1.703125 3.234375 -1.515625 C 3.390625 -1.335938 3.707031 -1.207031 4.1875 -1.125 C 4.5 -1.613281 4.867188 -2.109375 5.296875 -2.609375 C 5.722656 -3.109375 6.1875 -3.566406 6.6875 -3.984375 C 7.195312 -4.410156 7.726562 -4.75 8.28125 -5 C 8.832031 -5.257812 9.390625 -5.390625 9.953125 -5.390625 C 10.492188 -5.390625 10.957031 -5.28125 11.34375 -5.0625 C 11.726562 -4.84375 12.023438 -4.546875 12.234375 -4.171875 C 12.441406 -3.804688 12.546875 -3.390625 12.546875 -2.921875 C 12.546875 -2.347656 12.375 -1.816406 12.03125 -1.328125 C 11.695312 -0.847656 11.128906 -0.460938 10.328125 -0.171875 C 9.535156 0.117188 8.453125 0.265625 7.078125 0.265625 Z M 9.875 -4.203125 C 9.4375 -4.203125 8.992188 -4.09375 8.546875 -3.875 C 8.109375 -3.65625 7.6875 -3.375 7.28125 -3.03125 C 6.882812 -2.6875 6.523438 -2.332031 6.203125 -1.96875 C 5.878906 -1.601562 5.609375 -1.273438 5.390625 -0.984375 C 5.910156 -0.953125 6.5625 -0.9375 7.34375 -0.9375 C 8.625 -0.9375 9.625 -1.09375 10.34375 -1.40625 C 11.0625 -1.726562 11.421875 -2.195312 11.421875 -2.8125 C 11.421875 -3.019531 11.363281 -3.226562 11.25 -3.4375 C 11.144531 -3.65625 10.976562 -3.835938 10.75 -3.984375 C 10.519531 -4.128906 10.226562 -4.203125 9.875 -4.203125 Z M 9.53125 -6.90625 C 9.320312 -6.90625 9.144531 -6.972656 9 -7.109375 C 8.863281 -7.253906 8.796875 -7.425781 8.796875 -7.625 C 8.796875 -7.8125 8.863281 -7.976562 9 -8.125 C 9.144531 -8.269531 9.320312 -8.34375 9.53125 -8.34375 C 9.726562 -8.34375 9.894531 -8.269531 10.03125 -8.125 C 10.175781 -7.976562 10.25 -7.8125 10.25 -7.625 C 10.25 -7.425781 10.175781 -7.253906 10.03125 -7.109375 C 9.894531 -6.972656 9.726562 -6.90625 9.53125 -6.90625 Z M 9.53125 -6.90625 "/></g></g></g><g fill="#000000" fill-opacity="1"><g transform="translate(53.556487, 42.18748)"><g><path d="M 0.0625 3.359375 L -0.359375 2.25 C 0.617188 1.9375 1.375 1.566406 1.90625 1.140625 C 2.4375 0.710938 2.800781 0.265625 3 -0.203125 C 3.207031 -0.679688 3.3125 -1.132812 3.3125 -1.5625 C 3.3125 -1.832031 3.28125 -2.09375 3.21875 -2.34375 C 3.15625 -2.601562 3.050781 -2.894531 2.90625 -3.21875 C 2.757812 -3.539062 2.554688 -3.941406 2.296875 -4.421875 L 3.359375 -4.953125 C 3.734375 -4.316406 4 -3.71875 4.15625 -3.15625 C 4.320312 -2.59375 4.40625 -2.097656 4.40625 -1.671875 C 4.40625 -1.054688 4.300781 -0.5 4.09375 0 C 3.894531 0.5 3.632812 0.941406 3.3125 1.328125 C 2.988281 1.710938 2.632812 2.039062 2.25 2.3125 C 1.863281 2.582031 1.476562 2.804688 1.09375 2.984375 C 0.707031 3.160156 0.363281 3.285156 0.0625 3.359375 Z M 0.0625 3.359375 "/></g></g></g><g fill="#000000" fill-opacity="1"><g transform="translate(58.932309, 42.18748)"><g><path d="M 7.765625 -4.578125 C 8.054688 -4.578125 8.257812 -4.457031 8.375 -4.21875 C 8.5 -3.976562 8.5 -3.734375 8.375 -3.484375 C 8.257812 -3.242188 8.054688 -3.125 7.765625 -3.125 L 1.4375 -3.125 C 1.144531 -3.125 0.9375 -3.242188 0.8125 -3.484375 C 0.6875 -3.734375 0.6875 -3.976562 0.8125 -4.21875 C 0.9375 -4.457031 1.144531 -4.578125 1.4375 -4.578125 Z M 7.765625 -4.578125 "/></g></g></g><g fill="#000000" fill-opacity="1"><g transform="translate(68.14069, 42.18748)"><g><path d="M 0.4375 0.015625 C 0.4375 -0.335938 0.484375 -0.726562 0.578125 -1.15625 C 0.679688 -1.582031 0.835938 -2.054688 1.046875 -2.578125 L 2.109375 -2.171875 C 1.953125 -1.753906 1.832031 -1.375 1.75 -1.03125 C 1.675781 -0.695312 1.640625 -0.382812 1.640625 -0.09375 C 1.640625 0.457031 1.769531 0.894531 2.03125 1.21875 C 2.300781 1.550781 2.660156 1.796875 3.109375 1.953125 C 3.566406 2.109375 4.070312 2.1875 4.625 2.1875 C 5.507812 2.1875 6.203125 2.066406 6.703125 1.828125 C 7.203125 1.585938 7.554688 1.269531 7.765625 0.875 C 7.984375 0.476562 8.09375 0.0625 8.09375 -0.375 C 8.09375 -1.019531 8.019531 -1.613281 7.875 -2.15625 C 7.726562 -2.695312 7.578125 -3.253906 7.421875 -3.828125 L 8.59375 -4.15625 C 8.75 -3.59375 8.859375 -3.1875 8.921875 -2.9375 C 8.984375 -2.695312 9.035156 -2.5 9.078125 -2.34375 C 9.191406 -1.976562 9.332031 -1.707031 9.5 -1.53125 C 9.675781 -1.363281 9.875 -1.253906 10.09375 -1.203125 C 10.320312 -1.148438 10.566406 -1.125 10.828125 -1.125 C 11.023438 -1.125 11.171875 -1.066406 11.265625 -0.953125 C 11.359375 -0.847656 11.40625 -0.71875 11.40625 -0.5625 C 11.40625 -0.40625 11.335938 -0.257812 11.203125 -0.125 C 11.066406 0.0078125 10.890625 0.078125 10.671875 0.078125 C 10.367188 0.078125 10.101562 0.0351562 9.875 -0.046875 C 9.644531 -0.128906 9.453125 -0.234375 9.296875 -0.359375 C 9.253906 0.109375 9.144531 0.566406 8.96875 1.015625 C 8.789062 1.472656 8.523438 1.878906 8.171875 2.234375 C 7.816406 2.585938 7.34375 2.867188 6.75 3.078125 C 6.164062 3.285156 5.441406 3.390625 4.578125 3.390625 C 3.847656 3.390625 3.164062 3.265625 2.53125 3.015625 C 1.90625 2.773438 1.398438 2.40625 1.015625 1.90625 C 0.628906 1.414062 0.4375 0.785156 0.4375 0.015625 Z M 4.859375 -5.828125 C 4.648438 -5.828125 4.472656 -5.894531 4.328125 -6.03125 C 4.191406 -6.175781 4.125 -6.347656 4.125 -6.546875 C 4.125 -6.734375 4.191406 -6.898438 4.328125 -7.046875 C 4.472656 -7.191406 4.648438 -7.265625 4.859375 -7.265625 C 5.054688 -7.265625 5.222656 -7.191406 5.359375 -7.046875 C 5.503906 -6.898438 5.578125 -6.734375 5.578125 -6.546875 C 5.578125 -6.347656 5.503906 -6.175781 5.359375 -6.03125 C 5.222656 -5.894531 5.054688 -5.828125 4.859375 -5.828125 Z M 4.859375 -5.828125 "/></g></g></g><g fill="#000000" fill-opacity="1"><g transform="translate(78.82651, 42.18748)"><g><path d="M 0 0.078125 L 0.140625 -1.125 C 0.453125 -1.125 0.707031 -1.144531 0.90625 -1.1875 C 1.101562 -1.226562 1.265625 -1.335938 1.390625 -1.515625 C 1.523438 -1.703125 1.648438 -1.988281 1.765625 -2.375 C 1.878906 -2.769531 2.015625 -3.316406 2.171875 -4.015625 L 3.28125 -3.71875 C 3.21875 -3.457031 3.144531 -3.15625 3.0625 -2.8125 C 2.988281 -2.476562 2.953125 -2.175781 2.953125 -1.90625 C 2.953125 -1.65625 3.046875 -1.460938 3.234375 -1.328125 C 3.421875 -1.191406 3.753906 -1.125 4.234375 -1.125 C 4.535156 -1.125 4.773438 -1.144531 4.953125 -1.1875 C 5.140625 -1.238281 5.289062 -1.359375 5.40625 -1.546875 C 5.53125 -1.734375 5.640625 -2.03125 5.734375 -2.4375 C 5.835938 -2.84375 5.945312 -3.40625 6.0625 -4.125 L 7.171875 -3.921875 C 7.140625 -3.742188 7.097656 -3.523438 7.046875 -3.265625 C 7.003906 -3.015625 6.96875 -2.765625 6.9375 -2.515625 C 6.914062 -2.273438 6.90625 -2.070312 6.90625 -1.90625 C 6.90625 -1.769531 6.9375 -1.640625 7 -1.515625 C 7.0625 -1.390625 7.1875 -1.289062 7.375 -1.21875 C 7.5625 -1.15625 7.847656 -1.125 8.234375 -1.125 C 8.722656 -1.125 9.078125 -1.222656 9.296875 -1.421875 C 9.515625 -1.617188 9.625 -1.9375 9.625 -2.375 C 9.625 -2.695312 9.613281 -3.054688 9.59375 -3.453125 C 9.570312 -3.859375 9.523438 -4.363281 9.453125 -4.96875 L 10.515625 -5.046875 C 10.578125 -4.253906 10.644531 -3.601562 10.71875 -3.09375 C 10.789062 -2.59375 10.894531 -2.195312 11.03125 -1.90625 C 11.175781 -1.625 11.367188 -1.421875 11.609375 -1.296875 C 11.859375 -1.179688 12.179688 -1.125 12.578125 -1.125 C 12.785156 -1.125 12.929688 -1.066406 13.015625 -0.953125 C 13.109375 -0.847656 13.15625 -0.71875 13.15625 -0.5625 C 13.15625 -0.40625 13.085938 -0.257812 12.953125 -0.125 C 12.816406 0.0078125 12.644531 0.078125 12.4375 0.078125 C 11.882812 0.078125 11.429688 -0.0390625 11.078125 -0.28125 C 10.722656 -0.53125 10.460938 -0.84375 10.296875 -1.21875 C 10.097656 -0.695312 9.800781 -0.347656 9.40625 -0.171875 C 9.007812 -0.00390625 8.578125 0.078125 8.109375 0.078125 C 7.609375 0.078125 7.210938 0.0078125 6.921875 -0.125 C 6.640625 -0.269531 6.425781 -0.492188 6.28125 -0.796875 C 6.050781 -0.441406 5.769531 -0.207031 5.4375 -0.09375 C 5.113281 0.0195312 4.65625 0.078125 4.0625 0.078125 C 3.863281 0.078125 3.648438 0.0507812 3.421875 0 C 3.191406 -0.0507812 2.976562 -0.144531 2.78125 -0.28125 C 2.582031 -0.425781 2.429688 -0.640625 2.328125 -0.921875 C 2.066406 -0.492188 1.75 -0.21875 1.375 -0.09375 C 1 0.0195312 0.539062 0.078125 0 0.078125 Z M 6.3125 -7.96875 C 6.101562 -7.96875 5.925781 -8.035156 5.78125 -8.171875 C 5.644531 -8.316406 5.578125 -8.488281 5.578125 -8.6875 C 5.578125 -8.875 5.644531 -9.039062 5.78125 -9.1875 C 5.925781 -9.332031 6.101562 -9.40625 6.3125 -9.40625 C 6.5 -9.40625 6.664062 -9.332031 6.8125 -9.1875 C 6.957031 -9.039062 7.03125 -8.875 7.03125 -8.6875 C 7.03125 -8.488281 6.957031 -8.316406 6.8125 -8.171875 C 6.664062 -8.035156 6.5 -7.96875 6.3125 -7.96875 Z M 5.3125 -6.359375 C 5.101562 -6.359375 4.925781 -6.425781 4.78125 -6.5625 C 4.644531 -6.707031 4.578125 -6.878906 4.578125 -7.078125 C 4.578125 -7.265625 4.644531 -7.429688 4.78125 -7.578125 C 4.925781 -7.722656 5.101562 -7.796875 5.3125 -7.796875 C 5.507812 -7.796875 5.675781 -7.722656 5.8125 -7.578125 C 5.957031 -7.429688 6.03125 -7.265625 6.03125 -7.078125 C 6.03125 -6.878906 5.957031 -6.707031 5.8125 -6.5625 C 5.675781 -6.425781 5.507812 -6.359375 5.3125 -6.359375 Z M 7.296875 -6.359375 C 7.097656 -6.359375 6.925781 -6.425781 6.78125 -6.5625 C 6.644531 -6.707031 6.578125 -6.878906 6.578125 -7.078125 C 6.578125 -7.265625 6.644531 -7.429688 6.78125 -7.578125 C 6.925781 -7.722656 7.097656 -7.796875 7.296875 -7.796875 C 7.492188 -7.796875 7.660156 -7.722656 7.796875 -7.578125 C 7.941406 -7.429688 8.015625 -7.265625 8.015625 -7.078125 C 8.015625 -6.878906 7.941406 -6.707031 7.796875 -6.5625 C 7.660156 -6.425781 7.492188 -6.359375 7.296875 -6.359375 Z M 7.296875 -6.359375 "/></g></g></g><g fill="#000000" fill-opacity="1"><g transform="translate(91.267698, 42.18748)"><g><path d="M 0 0.078125 L 0.125 -1.125 C 1.132812 -1.125 2.109375 -1.269531 3.046875 -1.5625 C 3.992188 -1.863281 4.859375 -2.289062 5.640625 -2.84375 C 5.265625 -3.164062 4.800781 -3.429688 4.25 -3.640625 C 3.695312 -3.847656 3.085938 -3.953125 2.421875 -3.953125 C 2.179688 -3.953125 1.96875 -3.9375 1.78125 -3.90625 C 1.59375 -3.882812 1.367188 -3.84375 1.109375 -3.78125 L 0.875 -4.90625 C 1.425781 -5.0625 1.941406 -5.140625 2.421875 -5.140625 C 2.929688 -5.140625 3.390625 -5.078125 3.796875 -4.953125 C 4.210938 -4.835938 4.585938 -4.691406 4.921875 -4.515625 C 5.253906 -4.335938 5.566406 -4.160156 5.859375 -3.984375 C 6.160156 -3.816406 6.453125 -3.671875 6.734375 -3.546875 C 7.023438 -3.421875 7.320312 -3.359375 7.625 -3.359375 L 7.921875 -3.359375 L 8.03125 -2.3125 C 7.53125 -2.3125 7.078125 -2.226562 6.671875 -2.0625 C 6.265625 -1.90625 5.851562 -1.707031 5.4375 -1.46875 C 5.019531 -1.226562 4.5625 -0.988281 4.0625 -0.75 C 3.570312 -0.519531 3 -0.320312 2.34375 -0.15625 C 1.695312 0 0.914062 0.078125 0 0.078125 Z M 4.078125 2.71875 C 3.867188 2.71875 3.691406 2.644531 3.546875 2.5 C 3.410156 2.363281 3.34375 2.195312 3.34375 2 C 3.34375 1.800781 3.410156 1.628906 3.546875 1.484375 C 3.691406 1.335938 3.867188 1.265625 4.078125 1.265625 C 4.273438 1.265625 4.441406 1.335938 4.578125 1.484375 C 4.722656 1.628906 4.796875 1.800781 4.796875 2 C 4.796875 2.195312 4.722656 2.363281 4.578125 2.5 C 4.441406 2.644531 4.273438 2.71875 4.078125 2.71875 Z M 4.078125 2.71875 "/></g></g></g></svg>