<svg xmlns="http://www.w3.org/2000/svg" xmlns:xlink="http://www.w3.org/1999/xlink" width="200" zoomAndPan="magnify" viewBox="0 0 150 56.249996" height="75" preserveAspectRatio="xMidYMid meet" version="1.0"><defs><g/><clipPath id="c58420972b"><path d="M 59.519531 14.570312 L 99.363281 14.570312 L 99.363281 36.980469 L 59.519531 36.980469 Z M 59.519531 14.570312 " clip-rule="nonzero"/></clipPath><clipPath id="59cd2c0fd7"><path d="M 58.246094 14.570312 L 100.578125 14.570312 L 100.578125 19 L 58.246094 19 Z M 58.246094 14.570312 " clip-rule="nonzero"/></clipPath><clipPath id="23b21f32e9"><path d="M 58.246094 18 L 100.578125 18 L 100.578125 23 L 58.246094 23 Z M 58.246094 18 " clip-rule="nonzero"/></clipPath><clipPath id="5f186f0c61"><path d="M 58.246094 22 L 100.578125 22 L 100.578125 27 L 58.246094 27 Z M 58.246094 22 " clip-rule="nonzero"/></clipPath><clipPath id="81d1d0f27c"><path d="M 58.246094 26 L 100.578125 26 L 100.578125 32 L 58.246094 32 Z M 58.246094 26 " clip-rule="nonzero"/></clipPath><clipPath id="05d1812f70"><path d="M 58.246094 31 L 100.578125 31 L 100.578125 36 L 58.246094 36 Z M 58.246094 31 " clip-rule="nonzero"/></clipPath><clipPath id="fca7c79fde"><path d="M 58.246094 35 L 100.578125 35 L 100.578125 40 L 58.246094 40 Z M 58.246094 35 " clip-rule="nonzero"/></clipPath><clipPath id="144987af06"><path d="M 58.246094 39 L 100.578125 39 L 100.578125 44 L 58.246094 44 Z M 58.246094 39 " clip-rule="nonzero"/></clipPath><clipPath id="0ef7872da5"><path d="M 58.246094 43 L 100.578125 43 L 100.578125 47.441406 L 58.246094 47.441406 Z M 58.246094 43 " clip-rule="nonzero"/></clipPath></defs><g clip-path="url(#c58420972b)"><path fill="#000000" d="M 79.402344 14.601562 C 79.402344 14.601562 77.953125 16.308594 77.214844 17.148438 C 71.382812 23.804688 59.519531 26.695312 59.519531 36.945312 L 99.359375 36.945312 C 99.359375 26.683594 87.507812 23.777344 81.632812 17.144531 C 80.882812 16.300781 79.402344 14.601562 79.402344 14.601562 Z M 79.402344 14.601562 " fill-opacity="1" fill-rule="nonzero"/></g><g clip-path="url(#59cd2c0fd7)"><path fill="#ffffff" d="M 98.257812 17.046875 L 95.878906 14.582031 L 93.5 17.046875 L 91.121094 14.582031 L 88.746094 17.046875 L 86.367188 14.582031 L 83.988281 17.046875 L 81.609375 14.582031 L 79.230469 17.046875 L 76.851562 14.582031 L 74.472656 17.046875 L 72.09375 14.582031 L 69.714844 17.046875 L 67.339844 14.582031 L 64.960938 17.046875 L 62.582031 14.582031 L 60.203125 17.046875 L 58.246094 15.019531 L 58.246094 16.667969 L 60.203125 18.699219 L 62.582031 16.230469 L 64.960938 18.699219 L 67.339844 16.230469 L 69.714844 18.699219 L 72.09375 16.230469 L 74.472656 18.699219 L 76.851562 16.230469 L 79.230469 18.699219 L 81.609375 16.230469 L 83.988281 18.699219 L 86.367188 16.230469 L 88.746094 18.699219 L 91.121094 16.230469 L 93.5 18.699219 L 95.878906 16.230469 L 98.257812 18.699219 L 100.625 16.242188 L 100.625 14.597656 Z M 98.257812 17.046875 " fill-opacity="1" fill-rule="nonzero"/></g><g clip-path="url(#23b21f32e9)"><path fill="#ffffff" d="M 95.878906 18.699219 L 93.5 21.167969 L 91.121094 18.699219 L 88.746094 21.167969 L 86.367188 18.699219 L 83.988281 21.167969 L 81.609375 18.699219 L 79.230469 21.167969 L 76.851562 18.699219 L 74.472656 21.167969 L 72.09375 18.699219 L 69.714844 21.167969 L 67.339844 18.699219 L 64.960938 21.167969 L 62.582031 18.699219 L 60.203125 21.167969 L 58.246094 19.132812 L 58.246094 20.785156 L 60.203125 22.8125 L 62.582031 20.347656 L 64.960938 22.8125 L 67.339844 20.347656 L 69.714844 22.8125 L 72.09375 20.347656 L 74.472656 22.8125 L 76.851562 20.347656 L 79.230469 22.8125 L 81.609375 20.347656 L 83.988281 22.8125 L 86.367188 20.347656 L 88.746094 22.8125 L 91.121094 20.347656 L 93.5 22.8125 L 95.878906 20.347656 L 98.257812 22.8125 L 100.625 20.355469 L 100.625 18.714844 L 98.257812 21.167969 Z M 95.878906 18.699219 " fill-opacity="1" fill-rule="nonzero"/></g><g clip-path="url(#5f186f0c61)"><path fill="#ffffff" d="M 95.878906 22.8125 L 93.5 25.285156 L 91.121094 22.8125 L 88.746094 25.285156 L 86.367188 22.8125 L 83.988281 25.285156 L 81.609375 22.8125 L 79.230469 25.285156 L 76.851562 22.8125 L 74.472656 25.285156 L 72.09375 22.8125 L 69.714844 25.285156 L 67.339844 22.8125 L 64.960938 25.285156 L 62.582031 22.8125 L 60.203125 25.285156 L 58.246094 23.25 L 58.246094 24.898438 L 60.203125 26.933594 L 62.582031 24.460938 L 64.960938 26.933594 L 67.339844 24.460938 L 69.714844 26.933594 L 72.09375 24.460938 L 74.472656 26.933594 L 76.851562 24.460938 L 79.230469 26.933594 L 81.609375 24.460938 L 83.988281 26.933594 L 86.367188 24.460938 L 88.746094 26.933594 L 91.121094 24.460938 L 93.5 26.933594 L 95.878906 24.460938 L 98.257812 26.933594 L 100.625 24.476562 L 100.625 22.828125 L 98.257812 25.285156 Z M 95.878906 22.8125 " fill-opacity="1" fill-rule="nonzero"/></g><g clip-path="url(#81d1d0f27c)"><path fill="#ffffff" d="M 95.878906 26.933594 L 93.5 29.398438 L 91.121094 26.933594 L 88.746094 29.398438 L 86.367188 26.933594 L 83.988281 29.398438 L 81.609375 26.933594 L 79.230469 29.398438 L 76.851562 26.933594 L 74.472656 29.398438 L 72.09375 26.933594 L 69.714844 29.398438 L 67.339844 26.933594 L 64.960938 29.398438 L 62.582031 26.933594 L 60.203125 29.398438 L 58.246094 27.367188 L 58.246094 29.011719 L 60.203125 31.046875 L 62.582031 28.578125 L 64.960938 31.046875 L 67.339844 28.578125 L 69.714844 31.046875 L 72.09375 28.578125 L 74.472656 31.046875 L 76.851562 28.578125 L 79.230469 31.046875 L 81.609375 28.578125 L 83.988281 31.046875 L 86.367188 28.578125 L 88.746094 31.046875 L 91.121094 28.578125 L 93.5 31.046875 L 95.878906 28.578125 L 98.257812 31.046875 L 100.625 28.589844 L 100.625 26.941406 L 98.257812 29.398438 Z M 95.878906 26.933594 " fill-opacity="1" fill-rule="nonzero"/></g><g clip-path="url(#05d1812f70)"><path fill="#ffffff" d="M 95.878906 31.046875 L 93.5 33.511719 L 91.121094 31.046875 L 88.746094 33.511719 L 86.367188 31.046875 L 83.988281 33.511719 L 81.609375 31.046875 L 79.230469 33.511719 L 76.851562 31.046875 L 74.472656 33.511719 L 72.09375 31.046875 L 69.714844 33.511719 L 67.339844 31.046875 L 64.960938 33.511719 L 62.582031 31.046875 L 60.203125 33.511719 L 58.246094 31.484375 L 58.246094 33.128906 L 60.203125 35.160156 L 62.582031 32.691406 L 64.960938 35.160156 L 67.339844 32.691406 L 69.714844 35.160156 L 72.09375 32.691406 L 74.472656 35.160156 L 76.851562 32.691406 L 79.230469 35.160156 L 81.609375 32.691406 L 83.988281 35.160156 L 86.367188 32.691406 L 88.746094 35.160156 L 91.121094 32.691406 L 93.5 35.160156 L 95.878906 32.691406 L 98.257812 35.160156 L 100.625 32.707031 L 100.625 31.058594 L 98.257812 33.511719 Z M 95.878906 31.046875 " fill-opacity="1" fill-rule="nonzero"/></g><g clip-path="url(#fca7c79fde)"><path fill="#ffffff" d="M 95.878906 35.160156 L 93.5 37.628906 L 91.121094 35.160156 L 88.746094 37.628906 L 86.367188 35.160156 L 83.988281 37.628906 L 81.609375 35.160156 L 79.230469 37.628906 L 76.851562 35.160156 L 74.472656 37.628906 L 72.09375 35.160156 L 69.714844 37.628906 L 67.339844 35.160156 L 64.960938 37.628906 L 62.582031 35.160156 L 60.203125 37.628906 L 58.246094 35.597656 L 58.246094 37.246094 L 60.203125 39.277344 L 62.582031 36.8125 L 64.960938 39.277344 L 67.339844 36.8125 L 69.714844 39.277344 L 72.09375 36.8125 L 74.472656 39.277344 L 76.851562 36.8125 L 79.230469 39.277344 L 81.609375 36.8125 L 83.988281 39.277344 L 86.367188 36.8125 L 88.746094 39.277344 L 91.121094 36.8125 L 93.5 39.277344 L 95.878906 36.8125 L 98.257812 39.277344 L 100.625 36.820312 L 100.625 35.171875 L 98.257812 37.628906 Z M 95.878906 35.160156 " fill-opacity="1" fill-rule="nonzero"/></g><g clip-path="url(#144987af06)"><path fill="#ffffff" d="M 95.878906 39.277344 L 93.5 41.746094 L 91.121094 39.277344 L 88.746094 41.746094 L 86.367188 39.277344 L 83.988281 41.746094 L 81.609375 39.277344 L 79.230469 41.746094 L 76.851562 39.277344 L 74.472656 41.746094 L 72.09375 39.277344 L 69.714844 41.746094 L 67.339844 39.277344 L 64.960938 41.746094 L 62.582031 39.277344 L 60.203125 41.746094 L 58.246094 39.714844 L 58.246094 41.363281 L 60.203125 43.390625 L 62.582031 40.925781 L 64.960938 43.390625 L 67.339844 40.925781 L 69.714844 43.390625 L 72.09375 40.925781 L 74.472656 43.390625 L 76.851562 40.925781 L 79.230469 43.390625 L 81.609375 40.925781 L 83.988281 43.390625 L 86.367188 40.925781 L 88.746094 43.390625 L 91.121094 40.925781 L 93.5 43.390625 L 95.878906 40.925781 L 98.257812 43.390625 L 100.625 40.9375 L 100.625 39.292969 L 98.257812 41.746094 Z M 95.878906 39.277344 " fill-opacity="1" fill-rule="nonzero"/></g><g clip-path="url(#0ef7872da5)"><path fill="#ffffff" d="M 95.878906 43.390625 L 93.5 45.863281 L 91.121094 43.390625 L 88.746094 45.863281 L 86.367188 43.390625 L 83.988281 45.863281 L 81.609375 43.390625 L 79.230469 45.863281 L 76.851562 43.390625 L 74.472656 45.863281 L 72.09375 43.390625 L 69.714844 45.863281 L 67.339844 43.390625 L 64.960938 45.863281 L 62.582031 43.390625 L 60.203125 45.863281 L 58.246094 43.828125 L 58.246094 45.476562 L 60.203125 47.507812 L 62.582031 45.039062 L 64.960938 47.507812 L 67.339844 45.039062 L 69.714844 47.507812 L 72.09375 45.039062 L 74.472656 47.507812 L 76.851562 45.039062 L 79.230469 47.507812 L 81.609375 45.039062 L 83.988281 47.507812 L 86.367188 45.039062 L 88.746094 47.507812 L 91.121094 45.039062 L 93.5 47.507812 L 95.878906 45.039062 L 98.257812 47.507812 L 100.625 45.050781 L 100.625 43.40625 L 98.257812 45.863281 Z M 95.878906 43.390625 " fill-opacity="1" fill-rule="nonzero"/></g><g fill="#000000" fill-opacity="1"><g transform="translate(103.065963, 5.639538)"><g><path d="M 1.484375 -2.671875 L 1.484375 -2.390625 L 0.5625 -2.390625 L 0.5625 -1.609375 L 1.453125 -1.609375 L 1.453125 -1.328125 L 0.5625 -1.328125 L 0.5625 0 L 0.265625 0 L 0.265625 -2.671875 Z M 1.484375 -2.671875 "/></g></g></g><g fill="#000000" fill-opacity="1"><g transform="translate(104.758482, 5.639538)"><g><path d="M 0.125 -0.828125 C 0.125 -0.984375 0.160156 -1.128906 0.234375 -1.265625 C 0.316406 -1.410156 0.425781 -1.519531 0.5625 -1.59375 C 0.695312 -1.675781 0.84375 -1.71875 1 -1.71875 C 1.15625 -1.71875 1.300781 -1.675781 1.4375 -1.59375 C 1.570312 -1.519531 1.675781 -1.414062 1.75 -1.28125 C 1.832031 -1.144531 1.875 -0.992188 1.875 -0.828125 C 1.875 -0.671875 1.832031 -0.523438 1.75 -0.390625 C 1.675781 -0.253906 1.570312 -0.144531 1.4375 -0.0625 C 1.300781 0.0078125 1.15625 0.046875 1 0.046875 C 0.84375 0.046875 0.691406 0.0078125 0.546875 -0.0625 C 0.410156 -0.144531 0.304688 -0.253906 0.234375 -0.390625 C 0.160156 -0.523438 0.125 -0.671875 0.125 -0.828125 Z M 1 -1.453125 C 0.820312 -1.453125 0.675781 -1.390625 0.5625 -1.265625 C 0.457031 -1.148438 0.40625 -1.003906 0.40625 -0.828125 C 0.40625 -0.703125 0.4375 -0.585938 0.5 -0.484375 C 0.5625 -0.390625 0.632812 -0.320312 0.71875 -0.28125 C 0.8125 -0.238281 0.90625 -0.21875 1 -0.21875 C 1.101562 -0.21875 1.195312 -0.242188 1.28125 -0.296875 C 1.375 -0.347656 1.445312 -0.421875 1.5 -0.515625 C 1.5625 -0.609375 1.59375 -0.710938 1.59375 -0.828125 C 1.59375 -0.941406 1.566406 -1.046875 1.515625 -1.140625 C 1.460938 -1.234375 1.390625 -1.304688 1.296875 -1.359375 C 1.210938 -1.421875 1.113281 -1.453125 1 -1.453125 Z M 1 -1.453125 "/></g></g></g><g fill="#000000" fill-opacity="1"><g transform="translate(106.74843, 5.639538)"><g><path d="M 1.609375 0 L 1.3125 0 L 1.3125 -0.96875 C 1.3125 -1.132812 1.285156 -1.253906 1.234375 -1.328125 C 1.191406 -1.410156 1.101562 -1.453125 0.96875 -1.453125 C 0.8125 -1.453125 0.703125 -1.398438 0.640625 -1.296875 C 0.578125 -1.191406 0.546875 -1.03125 0.546875 -0.8125 L 0.546875 0 L 0.265625 0 L 0.265625 -1.671875 L 0.546875 -1.671875 L 0.546875 -1.46875 L 0.5625 -1.46875 C 0.625 -1.539062 0.691406 -1.597656 0.765625 -1.640625 C 0.835938 -1.691406 0.925781 -1.71875 1.03125 -1.71875 C 1.21875 -1.71875 1.359375 -1.660156 1.453125 -1.546875 C 1.554688 -1.429688 1.609375 -1.25 1.609375 -1 Z M 1.609375 0 "/></g></g></g><g fill="#000000" fill-opacity="1"><g transform="translate(108.61799, 5.639538)"><g><path d="M 0.5625 -2.265625 L 0.5625 -1.671875 L 0.859375 -1.671875 L 0.859375 -1.40625 L 0.5625 -1.40625 L 0.5625 0 L 0.28125 0 L 0.28125 -1.40625 L 0.109375 -1.40625 L 0.109375 -1.671875 L 0.28125 -1.671875 L 0.28125 -2.265625 Z M 0.5625 -2.265625 "/></g></g></g><g fill="#000000" fill-opacity="1"><g transform="translate(109.467974, 5.639538)"><g/></g></g><g fill="#000000" fill-opacity="1"><g transform="translate(110.558551, 5.639538)"><g/></g></g><g fill="#000000" fill-opacity="1"><g transform="translate(111.649534, 5.639538)"><g><path d="M 1.5 -1.421875 L 1.5 -1.671875 L 1.796875 -1.671875 L 1.796875 0 L 1.5 0 L 1.5 -0.234375 C 1.351562 -0.046875 1.160156 0.046875 0.921875 0.046875 C 0.691406 0.046875 0.5 -0.0351562 0.34375 -0.203125 C 0.195312 -0.378906 0.125 -0.585938 0.125 -0.828125 C 0.125 -1.085938 0.195312 -1.300781 0.34375 -1.46875 C 0.5 -1.632812 0.691406 -1.71875 0.921875 -1.71875 C 1.046875 -1.71875 1.15625 -1.691406 1.25 -1.640625 C 1.34375 -1.585938 1.425781 -1.515625 1.5 -1.421875 Z M 0.96875 -1.453125 C 0.8125 -1.453125 0.679688 -1.394531 0.578125 -1.28125 C 0.472656 -1.164062 0.421875 -1.019531 0.421875 -0.84375 C 0.421875 -0.664062 0.472656 -0.515625 0.578125 -0.390625 C 0.679688 -0.273438 0.8125 -0.21875 0.96875 -0.21875 C 1.132812 -0.21875 1.265625 -0.273438 1.359375 -0.390625 C 1.460938 -0.503906 1.515625 -0.65625 1.515625 -0.84375 C 1.515625 -1.019531 1.460938 -1.164062 1.359375 -1.28125 C 1.253906 -1.394531 1.125 -1.453125 0.96875 -1.453125 Z M 0.96875 -1.453125 "/></g></g></g><g fill="#000000" fill-opacity="1"><g transform="translate(113.692596, 5.639538)"><g><path d="M 0.546875 -2.921875 L 0.546875 0 L 0.265625 0 L 0.265625 -2.921875 Z M 0.546875 -2.921875 "/></g></g></g><g fill="#000000" fill-opacity="1"><g transform="translate(114.496366, 5.639538)"><g><path d="M 0.546875 -2.921875 L 0.546875 0 L 0.265625 0 L 0.265625 -2.921875 Z M 0.546875 -2.921875 "/></g></g></g><g fill="#000000" fill-opacity="1"><g transform="translate(115.300136, 5.639538)"><g/></g></g><g fill="#000000" fill-opacity="1"><g transform="translate(116.390714, 5.639538)"><g><path d="M 0.734375 -0.984375 L 0.734375 -0.71875 L 0 -0.71875 L 0 -0.984375 Z M 0.734375 -0.984375 "/></g></g></g><g fill="#000000" fill-opacity="1"><g transform="translate(117.127207, 5.639538)"><g/></g></g><g fill="#000000" fill-opacity="1"><g transform="translate(118.217785, 5.639538)"><g><path d="M 1.484375 -2.671875 L 1.484375 -2.390625 L 0.5625 -2.390625 L 0.5625 -1.609375 L 1.453125 -1.609375 L 1.453125 -1.328125 L 0.5625 -1.328125 L 0.5625 0 L 0.265625 0 L 0.265625 -2.671875 Z M 1.484375 -2.671875 "/></g></g></g><g fill="#000000" fill-opacity="1"><g transform="translate(119.910304, 5.639538)"><g><path d="M 0.53125 -1.671875 L 0.53125 -0.71875 C 0.53125 -0.539062 0.554688 -0.410156 0.609375 -0.328125 C 0.660156 -0.253906 0.757812 -0.21875 0.90625 -0.21875 C 1.050781 -0.21875 1.148438 -0.253906 1.203125 -0.328125 C 1.253906 -0.410156 1.28125 -0.535156 1.28125 -0.703125 L 1.28125 -1.671875 L 1.5625 -1.671875 L 1.5625 -0.6875 C 1.5625 -0.445312 1.503906 -0.265625 1.390625 -0.140625 C 1.285156 -0.015625 1.125 0.046875 0.90625 0.046875 C 0.6875 0.046875 0.519531 -0.015625 0.40625 -0.140625 C 0.300781 -0.265625 0.25 -0.445312 0.25 -0.6875 L 0.25 -1.671875 Z M 0.53125 -1.671875 "/></g></g></g><g fill="#000000" fill-opacity="1"><g transform="translate(121.723211, 5.639538)"><g><path d="M 0.5625 -2.265625 L 0.5625 -1.671875 L 0.859375 -1.671875 L 0.859375 -1.40625 L 0.5625 -1.40625 L 0.5625 0 L 0.28125 0 L 0.28125 -1.40625 L 0.109375 -1.40625 L 0.109375 -1.671875 L 0.28125 -1.671875 L 0.28125 -2.265625 Z M 0.5625 -2.265625 "/></g></g></g><g fill="#000000" fill-opacity="1"><g transform="translate(122.573012, 5.639538)"><g><path d="M 0.53125 -1.671875 L 0.53125 -0.71875 C 0.53125 -0.539062 0.554688 -0.410156 0.609375 -0.328125 C 0.660156 -0.253906 0.757812 -0.21875 0.90625 -0.21875 C 1.050781 -0.21875 1.148438 -0.253906 1.203125 -0.328125 C 1.253906 -0.410156 1.28125 -0.535156 1.28125 -0.703125 L 1.28125 -1.671875 L 1.5625 -1.671875 L 1.5625 -0.6875 C 1.5625 -0.445312 1.503906 -0.265625 1.390625 -0.140625 C 1.285156 -0.015625 1.125 0.046875 0.90625 0.046875 C 0.6875 0.046875 0.519531 -0.015625 0.40625 -0.140625 C 0.300781 -0.265625 0.25 -0.445312 0.25 -0.6875 L 0.25 -1.671875 Z M 0.53125 -1.671875 "/></g></g></g><g fill="#000000" fill-opacity="1"><g transform="translate(124.38592, 5.639538)"><g><path d="M 1.03125 -1.375 C 1.007812 -1.394531 0.984375 -1.410156 0.953125 -1.421875 C 0.929688 -1.441406 0.898438 -1.453125 0.859375 -1.453125 C 0.753906 -1.453125 0.675781 -1.40625 0.625 -1.3125 C 0.570312 -1.21875 0.546875 -1.0625 0.546875 -0.84375 L 0.546875 0 L 0.25 0 L 0.25 -1.671875 L 0.546875 -1.671875 L 0.546875 -1.484375 C 0.617188 -1.578125 0.679688 -1.640625 0.734375 -1.671875 C 0.785156 -1.703125 0.847656 -1.71875 0.921875 -1.71875 C 0.960938 -1.71875 1.003906 -1.707031 1.046875 -1.6875 C 1.085938 -1.675781 1.128906 -1.660156 1.171875 -1.640625 Z M 1.03125 -1.375 "/></g></g></g><g fill="#000000" fill-opacity="1"><g transform="translate(125.572098, 5.639538)"><g><path d="M 1.5 -1.421875 L 1.5 -1.671875 L 1.796875 -1.671875 L 1.796875 0 L 1.5 0 L 1.5 -0.234375 C 1.351562 -0.046875 1.160156 0.046875 0.921875 0.046875 C 0.691406 0.046875 0.5 -0.0351562 0.34375 -0.203125 C 0.195312 -0.378906 0.125 -0.585938 0.125 -0.828125 C 0.125 -1.085938 0.195312 -1.300781 0.34375 -1.46875 C 0.5 -1.632812 0.691406 -1.71875 0.921875 -1.71875 C 1.046875 -1.71875 1.15625 -1.691406 1.25 -1.640625 C 1.34375 -1.585938 1.425781 -1.515625 1.5 -1.421875 Z M 0.96875 -1.453125 C 0.8125 -1.453125 0.679688 -1.394531 0.578125 -1.28125 C 0.472656 -1.164062 0.421875 -1.019531 0.421875 -0.84375 C 0.421875 -0.664062 0.472656 -0.515625 0.578125 -0.390625 C 0.679688 -0.273438 0.8125 -0.21875 0.96875 -0.21875 C 1.132812 -0.21875 1.265625 -0.273438 1.359375 -0.390625 C 1.460938 -0.503906 1.515625 -0.65625 1.515625 -0.84375 C 1.515625 -1.019531 1.460938 -1.164062 1.359375 -1.28125 C 1.253906 -1.394531 1.125 -1.453125 0.96875 -1.453125 Z M 0.96875 -1.453125 "/></g></g></g><g fill="#000000" fill-opacity="1"><g transform="translate(100.662128, 12.571114)"><g><path d="M 1.90625 -2.875 C 1.914062 -2.875 1.925781 -2.863281 1.9375 -2.84375 C 1.957031 -2.832031 1.972656 -2.816406 1.984375 -2.796875 C 1.992188 -2.785156 2 -2.769531 2 -2.75 C 2 -2.695312 1.96875 -2.65625 1.90625 -2.625 C 1.832031 -2.59375 1.71875 -2.578125 1.5625 -2.578125 C 1.644531 -2.140625 1.671875 -1.5625 1.640625 -0.84375 C 1.640625 -0.832031 1.632812 -0.789062 1.625 -0.71875 C 1.625 -0.644531 1.625 -0.59375 1.625 -0.5625 C 1.625 -0.539062 1.617188 -0.5 1.609375 -0.4375 C 1.609375 -0.375 1.601562 -0.328125 1.59375 -0.296875 C 1.59375 -0.265625 1.585938 -0.21875 1.578125 -0.15625 C 1.578125 -0.101562 1.570312 -0.0546875 1.5625 -0.015625 C 1.550781 0.015625 1.539062 0.0546875 1.53125 0.109375 C 1.519531 0.160156 1.503906 0.203125 1.484375 0.234375 C 1.410156 0.441406 1.316406 0.59375 1.203125 0.6875 C 1.046875 0.820312 0.867188 0.890625 0.671875 0.890625 C 0.554688 0.890625 0.445312 0.863281 0.34375 0.8125 C 0.238281 0.757812 0.148438 0.691406 0.078125 0.609375 C -0.0546875 0.441406 -0.101562 0.253906 -0.0625 0.046875 C -0.0390625 -0.0546875 0.00390625 -0.140625 0.078125 -0.203125 C 0.148438 -0.265625 0.234375 -0.296875 0.328125 -0.296875 C 0.429688 -0.296875 0.515625 -0.257812 0.578125 -0.1875 C 0.648438 -0.113281 0.671875 -0.0234375 0.640625 0.078125 C 0.628906 0.109375 0.601562 0.128906 0.5625 0.140625 C 0.519531 0.160156 0.484375 0.160156 0.453125 0.140625 C 0.421875 0.117188 0.410156 0.0859375 0.421875 0.046875 C 0.421875 0.0234375 0.414062 0.0078125 0.40625 0 C 0.40625 -0.0078125 0.398438 -0.015625 0.390625 -0.015625 C 0.390625 -0.0234375 0.382812 -0.03125 0.375 -0.03125 C 0.363281 -0.0390625 0.351562 -0.0507812 0.34375 -0.0625 C 0.28125 -0.0625 0.234375 -0.0390625 0.203125 0 C 0.171875 0.0625 0.15625 0.128906 0.15625 0.203125 C 0.164062 0.285156 0.191406 0.351562 0.234375 0.40625 C 0.328125 0.539062 0.46875 0.585938 0.65625 0.546875 C 0.6875 0.546875 0.71875 0.539062 0.75 0.53125 C 0.75 0.53125 0.75 0.523438 0.75 0.515625 C 0.757812 0.515625 0.765625 0.515625 0.765625 0.515625 C 0.773438 0.515625 0.78125 0.515625 0.78125 0.515625 C 0.800781 0.503906 0.816406 0.5 0.828125 0.5 C 0.835938 0.488281 0.847656 0.476562 0.859375 0.46875 C 0.867188 0.46875 0.875 0.460938 0.875 0.453125 C 0.882812 0.453125 0.890625 0.453125 0.890625 0.453125 C 0.910156 0.429688 0.925781 0.414062 0.9375 0.40625 C 0.9375 0.40625 0.9375 0.398438 0.9375 0.390625 C 0.945312 0.390625 0.953125 0.382812 0.953125 0.375 C 0.960938 0.375 0.96875 0.375 0.96875 0.375 C 0.976562 0.363281 0.984375 0.351562 0.984375 0.34375 C 1.003906 0.320312 1.019531 0.296875 1.03125 0.265625 C 1.039062 0.253906 1.054688 0.226562 1.078125 0.1875 C 1.078125 0.175781 1.078125 0.164062 1.078125 0.15625 C 1.085938 0.144531 1.09375 0.140625 1.09375 0.140625 C 1.132812 0.0234375 1.164062 -0.109375 1.1875 -0.265625 C 1.1875 -0.285156 1.1875 -0.296875 1.1875 -0.296875 C 1.195312 -0.316406 1.203125 -0.332031 1.203125 -0.34375 C 1.203125 -0.375 1.203125 -0.410156 1.203125 -0.453125 C 1.210938 -0.546875 1.21875 -0.609375 1.21875 -0.640625 C 1.238281 -0.890625 1.253906 -1.113281 1.265625 -1.3125 C 1.273438 -1.394531 1.28125 -1.476562 1.28125 -1.5625 C 1.28125 -1.644531 1.28125 -1.726562 1.28125 -1.8125 C 1.28125 -1.90625 1.28125 -1.988281 1.28125 -2.0625 C 1.28125 -2.132812 1.28125 -2.21875 1.28125 -2.3125 C 1.28125 -2.414062 1.28125 -2.5 1.28125 -2.5625 C 1.1875 -2.5625 1.09375 -2.5625 1 -2.5625 C 0.789062 -2.550781 0.640625 -2.546875 0.546875 -2.546875 C 0.523438 -2.546875 0.484375 -2.539062 0.421875 -2.53125 C 0.367188 -2.53125 0.328125 -2.53125 0.296875 -2.53125 C 0.265625 -2.53125 0.226562 -2.535156 0.1875 -2.546875 C 0.144531 -2.554688 0.113281 -2.570312 0.09375 -2.59375 C 0.0625 -2.625 0.046875 -2.65625 0.046875 -2.6875 C 0.0546875 -2.726562 0.0703125 -2.765625 0.09375 -2.796875 C 0.101562 -2.804688 0.109375 -2.8125 0.109375 -2.8125 C 0.117188 -2.820312 0.128906 -2.828125 0.140625 -2.828125 C 0.160156 -2.835938 0.175781 -2.84375 0.1875 -2.84375 C 0.195312 -2.851562 0.207031 -2.859375 0.21875 -2.859375 C 0.238281 -2.859375 0.25 -2.859375 0.25 -2.859375 C 0.257812 -2.859375 0.269531 -2.859375 0.28125 -2.859375 C 0.300781 -2.859375 0.316406 -2.859375 0.328125 -2.859375 C 0.367188 -2.867188 0.441406 -2.875 0.546875 -2.875 C 0.648438 -2.875 0.800781 -2.878906 1 -2.890625 C 1.269531 -2.890625 1.429688 -2.890625 1.484375 -2.890625 C 1.503906 -2.890625 1.53125 -2.890625 1.5625 -2.890625 C 1.59375 -2.890625 1.617188 -2.890625 1.640625 -2.890625 C 1.671875 -2.898438 1.703125 -2.90625 1.734375 -2.90625 C 1.765625 -2.90625 1.789062 -2.898438 1.8125 -2.890625 C 1.84375 -2.890625 1.875 -2.882812 1.90625 -2.875 Z M 1.90625 -2.875 "/></g></g></g><g fill="#000000" fill-opacity="1"><g transform="translate(102.482118, 12.571114)"><g><path d="M 1.515625 -1.375 C 1.535156 -1.394531 1.5625 -1.394531 1.59375 -1.375 C 1.632812 -1.363281 1.648438 -1.34375 1.640625 -1.3125 C 1.617188 -1.269531 1.59375 -1.222656 1.5625 -1.171875 C 1.539062 -1.128906 1.515625 -1.082031 1.484375 -1.03125 C 1.453125 -0.988281 1.414062 -0.945312 1.375 -0.90625 C 1.332031 -0.875 1.285156 -0.847656 1.234375 -0.828125 C 1.191406 -0.804688 1.144531 -0.796875 1.09375 -0.796875 C 1.039062 -0.804688 0.992188 -0.832031 0.953125 -0.875 C 0.910156 -0.90625 0.875 -0.953125 0.84375 -1.015625 C 0.757812 -0.929688 0.660156 -0.882812 0.546875 -0.875 C 0.441406 -0.863281 0.347656 -0.882812 0.265625 -0.9375 C 0.191406 -1 0.140625 -1.070312 0.109375 -1.15625 C 0.078125 -1.238281 0.0625 -1.328125 0.0625 -1.421875 C 0.0625 -1.523438 0.0820312 -1.617188 0.125 -1.703125 C 0.164062 -1.785156 0.226562 -1.847656 0.3125 -1.890625 C 0.394531 -1.941406 0.484375 -1.96875 0.578125 -1.96875 C 0.734375 -1.96875 0.859375 -1.910156 0.953125 -1.796875 C 0.960938 -1.816406 0.972656 -1.84375 0.984375 -1.875 C 1.003906 -1.90625 1.019531 -1.929688 1.03125 -1.953125 C 1.039062 -1.984375 1.066406 -1.988281 1.109375 -1.96875 C 1.160156 -1.957031 1.175781 -1.929688 1.15625 -1.890625 C 1.113281 -1.742188 1.078125 -1.601562 1.046875 -1.46875 C 1.015625 -1.28125 1.023438 -1.144531 1.078125 -1.0625 C 1.097656 -1.039062 1.117188 -1.023438 1.140625 -1.015625 C 1.160156 -1.003906 1.179688 -1.003906 1.203125 -1.015625 C 1.234375 -1.035156 1.257812 -1.054688 1.28125 -1.078125 C 1.300781 -1.109375 1.320312 -1.140625 1.34375 -1.171875 C 1.375 -1.203125 1.398438 -1.226562 1.421875 -1.25 C 1.441406 -1.28125 1.457031 -1.304688 1.46875 -1.328125 C 1.488281 -1.347656 1.503906 -1.363281 1.515625 -1.375 Z M 0.5 -1.1875 C 0.519531 -1.175781 0.535156 -1.171875 0.546875 -1.171875 C 0.566406 -1.171875 0.585938 -1.171875 0.609375 -1.171875 C 0.628906 -1.179688 0.644531 -1.191406 0.65625 -1.203125 C 0.675781 -1.210938 0.691406 -1.222656 0.703125 -1.234375 C 0.710938 -1.242188 0.722656 -1.257812 0.734375 -1.28125 C 0.753906 -1.300781 0.769531 -1.316406 0.78125 -1.328125 C 0.789062 -1.335938 0.800781 -1.351562 0.8125 -1.375 C 0.8125 -1.382812 0.816406 -1.394531 0.828125 -1.40625 C 0.835938 -1.476562 0.859375 -1.550781 0.890625 -1.625 C 0.753906 -1.738281 0.632812 -1.765625 0.53125 -1.703125 C 0.476562 -1.671875 0.441406 -1.628906 0.421875 -1.578125 C 0.398438 -1.523438 0.382812 -1.472656 0.375 -1.421875 C 0.375 -1.410156 0.375 -1.394531 0.375 -1.375 C 0.375 -1.363281 0.375 -1.359375 0.375 -1.359375 C 0.382812 -1.359375 0.390625 -1.351562 0.390625 -1.34375 C 0.390625 -1.332031 0.390625 -1.320312 0.390625 -1.3125 C 0.398438 -1.289062 0.40625 -1.28125 0.40625 -1.28125 C 0.425781 -1.226562 0.457031 -1.195312 0.5 -1.1875 Z M 0.5 -1.1875 "/></g></g></g><g fill="#000000" fill-opacity="1"><g transform="translate(103.756819, 12.571114)"><g><path d="M 1.1875 -1.375 C 1.226562 -1.382812 1.253906 -1.367188 1.265625 -1.328125 C 1.285156 -1.296875 1.28125 -1.265625 1.25 -1.234375 C 1.226562 -1.222656 1.171875 -1.195312 1.078125 -1.15625 C 1.054688 -1.15625 1.023438 -1.144531 0.984375 -1.125 C 0.941406 -1.101562 0.914062 -1.085938 0.90625 -1.078125 C 0.894531 -1.078125 0.867188 -1.066406 0.828125 -1.046875 C 0.785156 -1.023438 0.753906 -1.007812 0.734375 -1 C 0.835938 -0.757812 0.84375 -0.570312 0.75 -0.4375 C 0.707031 -0.375 0.65625 -0.328125 0.59375 -0.296875 C 0.53125 -0.265625 0.46875 -0.257812 0.40625 -0.28125 C 0.34375 -0.300781 0.289062 -0.335938 0.25 -0.390625 C 0.207031 -0.453125 0.1875 -0.515625 0.1875 -0.578125 C 0.164062 -0.734375 0.234375 -0.878906 0.390625 -1.015625 C 0.390625 -1.015625 0.382812 -1.015625 0.375 -1.015625 C 0.375 -1.023438 0.375 -1.03125 0.375 -1.03125 C 0.332031 -1.101562 0.304688 -1.15625 0.296875 -1.1875 C 0.285156 -1.21875 0.269531 -1.257812 0.25 -1.3125 C 0.226562 -1.375 0.210938 -1.429688 0.203125 -1.484375 C 0.171875 -1.671875 0.210938 -1.816406 0.328125 -1.921875 C 0.378906 -1.972656 0.441406 -2 0.515625 -2 C 0.597656 -2.007812 0.671875 -2 0.734375 -1.96875 C 0.785156 -1.9375 0.820312 -1.890625 0.84375 -1.828125 C 0.875 -1.773438 0.882812 -1.71875 0.875 -1.65625 C 0.863281 -1.59375 0.832031 -1.539062 0.78125 -1.5 C 0.726562 -1.46875 0.671875 -1.46875 0.609375 -1.5 C 0.578125 -1.53125 0.566406 -1.5625 0.578125 -1.59375 C 0.597656 -1.632812 0.628906 -1.648438 0.671875 -1.640625 C 0.703125 -1.640625 0.71875 -1.65625 0.71875 -1.6875 C 0.707031 -1.726562 0.6875 -1.757812 0.65625 -1.78125 C 0.65625 -1.789062 0.65625 -1.796875 0.65625 -1.796875 C 0.601562 -1.816406 0.5625 -1.796875 0.53125 -1.734375 C 0.519531 -1.703125 0.515625 -1.671875 0.515625 -1.640625 C 0.515625 -1.617188 0.515625 -1.59375 0.515625 -1.5625 C 0.515625 -1.539062 0.519531 -1.507812 0.53125 -1.46875 C 0.539062 -1.4375 0.550781 -1.410156 0.5625 -1.390625 C 0.570312 -1.378906 0.582031 -1.351562 0.59375 -1.3125 C 0.601562 -1.3125 0.609375 -1.304688 0.609375 -1.296875 C 0.617188 -1.265625 0.632812 -1.226562 0.65625 -1.1875 C 0.726562 -1.21875 0.804688 -1.25 0.890625 -1.28125 C 1.085938 -1.34375 1.1875 -1.375 1.1875 -1.375 Z M 0.53125 -0.625 C 0.539062 -0.65625 0.523438 -0.71875 0.484375 -0.8125 C 0.484375 -0.8125 0.476562 -0.8125 0.46875 -0.8125 C 0.46875 -0.820312 0.46875 -0.828125 0.46875 -0.828125 C 0.40625 -0.742188 0.378906 -0.671875 0.390625 -0.609375 C 0.410156 -0.554688 0.4375 -0.53125 0.46875 -0.53125 C 0.507812 -0.539062 0.53125 -0.570312 0.53125 -0.625 Z M 0.53125 -0.625 "/></g></g></g><g fill="#000000" fill-opacity="1"><g transform="translate(104.688058, 12.571114)"><g><path d="M 1.453125 -1.421875 C 1.472656 -1.472656 1.503906 -1.484375 1.546875 -1.453125 C 1.597656 -1.429688 1.617188 -1.398438 1.609375 -1.359375 C 1.585938 -1.253906 1.546875 -1.160156 1.484375 -1.078125 C 1.421875 -0.992188 1.34375 -0.9375 1.25 -0.90625 C 1.175781 -0.882812 1.101562 -0.890625 1.03125 -0.921875 C 0.957031 -0.953125 0.898438 -1.003906 0.859375 -1.078125 C 0.828125 -1.171875 0.820312 -1.28125 0.84375 -1.40625 C 0.84375 -1.414062 0.847656 -1.441406 0.859375 -1.484375 C 0.878906 -1.535156 0.890625 -1.566406 0.890625 -1.578125 C 0.890625 -1.597656 0.890625 -1.632812 0.890625 -1.6875 C 0.867188 -1.769531 0.832031 -1.8125 0.78125 -1.8125 C 0.707031 -1.820312 0.648438 -1.753906 0.609375 -1.609375 C 0.566406 -1.492188 0.546875 -1.375 0.546875 -1.25 C 0.554688 -1.207031 0.5625 -1.164062 0.5625 -1.125 C 0.570312 -1.082031 0.578125 -1.035156 0.578125 -0.984375 C 0.585938 -0.929688 0.59375 -0.890625 0.59375 -0.859375 C 0.601562 -0.816406 0.59375 -0.78125 0.5625 -0.75 C 0.53125 -0.726562 0.5 -0.710938 0.46875 -0.703125 C 0.425781 -0.703125 0.390625 -0.710938 0.359375 -0.734375 C 0.328125 -0.753906 0.304688 -0.78125 0.296875 -0.8125 C 0.191406 -1.144531 0.128906 -1.484375 0.109375 -1.828125 C 0.0859375 -2.128906 0.109375 -2.429688 0.171875 -2.734375 C 0.203125 -2.878906 0.253906 -2.984375 0.328125 -3.046875 C 0.378906 -3.085938 0.4375 -3.109375 0.5 -3.109375 C 0.5625 -3.117188 0.617188 -3.109375 0.671875 -3.078125 C 0.722656 -3.046875 0.757812 -3 0.78125 -2.9375 C 0.800781 -2.882812 0.804688 -2.820312 0.796875 -2.75 C 0.785156 -2.6875 0.773438 -2.625 0.765625 -2.5625 C 0.753906 -2.507812 0.738281 -2.457031 0.71875 -2.40625 C 0.644531 -2.207031 0.546875 -2.050781 0.421875 -1.9375 C 0.421875 -1.875 0.425781 -1.816406 0.4375 -1.765625 C 0.46875 -1.828125 0.515625 -1.878906 0.578125 -1.921875 C 0.640625 -1.972656 0.703125 -2 0.765625 -2 C 0.773438 -2.007812 0.78125 -2.015625 0.78125 -2.015625 C 0.851562 -2.015625 0.914062 -1.992188 0.96875 -1.953125 C 1.03125 -1.910156 1.070312 -1.863281 1.09375 -1.8125 C 1.144531 -1.707031 1.15625 -1.570312 1.125 -1.40625 C 1.113281 -1.3125 1.113281 -1.25 1.125 -1.21875 L 1.15625 -1.1875 C 1.15625 -1.1875 1.160156 -1.1875 1.171875 -1.1875 C 1.171875 -1.1875 1.175781 -1.1875 1.1875 -1.1875 C 1.195312 -1.1875 1.203125 -1.1875 1.203125 -1.1875 C 1.210938 -1.1875 1.226562 -1.1875 1.25 -1.1875 L 1.265625 -1.1875 C 1.273438 -1.195312 1.289062 -1.207031 1.3125 -1.21875 C 1.351562 -1.25 1.398438 -1.316406 1.453125 -1.421875 Z M 0.5 -2.84375 C 0.476562 -2.8125 0.46875 -2.765625 0.46875 -2.703125 C 0.4375 -2.546875 0.421875 -2.382812 0.421875 -2.21875 C 0.492188 -2.332031 0.546875 -2.457031 0.578125 -2.59375 C 0.617188 -2.78125 0.617188 -2.890625 0.578125 -2.921875 C 0.578125 -2.921875 0.570312 -2.914062 0.5625 -2.90625 C 0.550781 -2.90625 0.539062 -2.898438 0.53125 -2.890625 C 0.519531 -2.878906 0.507812 -2.863281 0.5 -2.84375 Z M 0.5 -2.84375 "/></g></g></g><g fill="#000000" fill-opacity="1"><g transform="translate(105.952135, 12.571114)"><g><path d="M 1.5625 -1.34375 C 1.582031 -1.375 1.609375 -1.378906 1.640625 -1.359375 C 1.679688 -1.335938 1.695312 -1.3125 1.6875 -1.28125 C 1.65625 -1.207031 1.632812 -1.15625 1.625 -1.125 C 1.613281 -1.09375 1.59375 -1.050781 1.5625 -1 C 1.53125 -0.945312 1.492188 -0.898438 1.453125 -0.859375 C 1.421875 -0.828125 1.382812 -0.800781 1.34375 -0.78125 C 1.226562 -0.726562 1.117188 -0.726562 1.015625 -0.78125 C 0.921875 -0.832031 0.863281 -0.914062 0.84375 -1.03125 C 0.84375 -1.0625 0.84375 -1.09375 0.84375 -1.125 C 0.84375 -1.15625 0.84375 -1.179688 0.84375 -1.203125 C 0.84375 -1.222656 0.84375 -1.25 0.84375 -1.28125 C 0.84375 -1.320312 0.84375 -1.351562 0.84375 -1.375 C 0.84375 -1.414062 0.84375 -1.46875 0.84375 -1.53125 C 0.84375 -1.59375 0.832031 -1.644531 0.8125 -1.6875 C 0.789062 -1.71875 0.765625 -1.738281 0.734375 -1.75 C 0.710938 -1.757812 0.6875 -1.757812 0.65625 -1.75 C 0.625 -1.738281 0.597656 -1.71875 0.578125 -1.6875 C 0.515625 -1.625 0.472656 -1.554688 0.453125 -1.484375 C 0.460938 -1.429688 0.46875 -1.394531 0.46875 -1.375 C 0.46875 -1.34375 0.46875 -1.300781 0.46875 -1.25 C 0.476562 -1.195312 0.484375 -1.148438 0.484375 -1.109375 C 0.484375 -1.078125 0.484375 -1.035156 0.484375 -0.984375 C 0.492188 -0.941406 0.5 -0.898438 0.5 -0.859375 C 0.488281 -0.816406 0.460938 -0.78125 0.421875 -0.75 C 0.390625 -0.726562 0.351562 -0.722656 0.3125 -0.734375 C 0.269531 -0.753906 0.242188 -0.785156 0.234375 -0.828125 C 0.203125 -0.929688 0.1875 -1.109375 0.1875 -1.359375 C 0.175781 -1.585938 0.1875 -1.765625 0.21875 -1.890625 C 0.226562 -1.929688 0.257812 -1.953125 0.3125 -1.953125 C 0.363281 -1.953125 0.394531 -1.929688 0.40625 -1.890625 C 0.414062 -1.859375 0.421875 -1.820312 0.421875 -1.78125 C 0.472656 -1.84375 0.53125 -1.882812 0.59375 -1.90625 C 0.707031 -1.945312 0.804688 -1.941406 0.890625 -1.890625 C 0.984375 -1.835938 1.046875 -1.753906 1.078125 -1.640625 C 1.109375 -1.554688 1.125 -1.4375 1.125 -1.28125 C 1.125 -1.28125 1.125 -1.265625 1.125 -1.234375 C 1.125 -1.203125 1.125 -1.171875 1.125 -1.140625 C 1.125 -1.117188 1.125 -1.097656 1.125 -1.078125 C 1.132812 -1.054688 1.144531 -1.039062 1.15625 -1.03125 C 1.207031 -0.988281 1.28125 -1.015625 1.375 -1.109375 C 1.382812 -1.117188 1.394531 -1.128906 1.40625 -1.140625 C 1.425781 -1.160156 1.441406 -1.175781 1.453125 -1.1875 C 1.460938 -1.207031 1.472656 -1.222656 1.484375 -1.234375 C 1.492188 -1.253906 1.503906 -1.273438 1.515625 -1.296875 C 1.535156 -1.316406 1.550781 -1.332031 1.5625 -1.34375 Z M 1.5625 -1.34375 "/></g></g></g><g fill="#000000" fill-opacity="1"><g transform="translate(107.237458, 12.571114)"><g><path d="M 1.265625 -1.375 C 1.296875 -1.40625 1.328125 -1.410156 1.359375 -1.390625 C 1.398438 -1.367188 1.414062 -1.335938 1.40625 -1.296875 C 1.351562 -1.171875 1.269531 -1.0625 1.15625 -0.96875 C 1.050781 -0.882812 0.9375 -0.832031 0.8125 -0.8125 C 0.675781 -0.789062 0.566406 -0.796875 0.484375 -0.828125 C 0.359375 -0.867188 0.257812 -0.953125 0.1875 -1.078125 C 0.144531 -1.160156 0.117188 -1.25 0.109375 -1.34375 C 0.109375 -1.445312 0.125 -1.546875 0.15625 -1.640625 C 0.1875 -1.742188 0.242188 -1.820312 0.328125 -1.875 C 0.441406 -1.957031 0.5625 -1.984375 0.6875 -1.953125 C 0.800781 -1.921875 0.859375 -1.832031 0.859375 -1.6875 C 0.859375 -1.5625 0.820312 -1.457031 0.75 -1.375 C 0.6875 -1.289062 0.601562 -1.238281 0.5 -1.21875 C 0.53125 -1.15625 0.570312 -1.117188 0.625 -1.109375 C 0.675781 -1.097656 0.742188 -1.097656 0.828125 -1.109375 C 0.910156 -1.117188 0.976562 -1.140625 1.03125 -1.171875 C 1.144531 -1.253906 1.222656 -1.320312 1.265625 -1.375 Z M 0.609375 -1.71875 C 0.546875 -1.695312 0.5 -1.648438 0.46875 -1.578125 C 0.4375 -1.503906 0.429688 -1.425781 0.453125 -1.34375 C 0.546875 -1.375 0.617188 -1.429688 0.671875 -1.515625 C 0.703125 -1.566406 0.710938 -1.625 0.703125 -1.6875 C 0.703125 -1.71875 0.691406 -1.734375 0.671875 -1.734375 C 0.660156 -1.742188 0.640625 -1.738281 0.609375 -1.71875 Z M 0.609375 -1.71875 "/></g></g></g><g fill="#000000" fill-opacity="1"><g transform="translate(108.29971, 12.571114)"><g/></g></g><g fill="#000000" fill-opacity="1"><g transform="translate(109.138886, 12.571114)"><g><path d="M 2.75 0.484375 C 2.875 0.628906 2.894531 0.8125 2.8125 1.03125 C 2.738281 1.195312 2.585938 1.328125 2.359375 1.421875 C 2.253906 1.460938 2.144531 1.472656 2.03125 1.453125 C 1.925781 1.429688 1.832031 1.382812 1.75 1.3125 C 1.6875 1.257812 1.628906 1.203125 1.578125 1.140625 C 1.535156 1.078125 1.5 1 1.46875 0.90625 C 1.4375 0.820312 1.410156 0.75 1.390625 0.6875 C 1.367188 0.625 1.347656 0.546875 1.328125 0.453125 C 1.304688 0.378906 1.269531 0.234375 1.21875 0.015625 C 1.175781 -0.203125 1.144531 -0.367188 1.125 -0.484375 C 1.082031 -0.617188 1.03125 -0.734375 0.96875 -0.828125 C 0.96875 -0.835938 0.960938 -0.847656 0.953125 -0.859375 C 0.941406 -0.867188 0.929688 -0.878906 0.921875 -0.890625 C 0.921875 -0.898438 0.910156 -0.910156 0.890625 -0.921875 C 0.878906 -0.941406 0.863281 -0.957031 0.84375 -0.96875 C 0.8125 -0.988281 0.773438 -1.007812 0.734375 -1.03125 C 0.722656 -1.03125 0.710938 -1.03125 0.703125 -1.03125 C 0.679688 -1.03125 0.664062 -1.035156 0.65625 -1.046875 C 0.632812 -1.046875 0.617188 -1.046875 0.609375 -1.046875 C 0.597656 -1.035156 0.585938 -1.03125 0.578125 -1.03125 C 0.578125 -0.957031 0.570312 -0.851562 0.5625 -0.71875 C 0.5625 -0.59375 0.5625 -0.515625 0.5625 -0.484375 C 0.5625 -0.390625 0.5625 -0.285156 0.5625 -0.171875 C 0.5625 -0.015625 0.550781 0.0859375 0.53125 0.140625 C 0.507812 0.191406 0.46875 0.21875 0.40625 0.21875 C 0.351562 0.21875 0.320312 0.191406 0.3125 0.140625 C 0.300781 0.109375 0.289062 0.078125 0.28125 0.046875 C 0.28125 0.015625 0.28125 -0.00390625 0.28125 -0.015625 C 0.28125 -0.0351562 0.273438 -0.0664062 0.265625 -0.109375 C 0.265625 -0.160156 0.265625 -0.1875 0.265625 -0.1875 C 0.265625 -0.289062 0.265625 -0.394531 0.265625 -0.5 C 0.265625 -0.800781 0.265625 -1.007812 0.265625 -1.125 C 0.265625 -1.632812 0.28125 -2.054688 0.3125 -2.390625 C 0.320312 -2.429688 0.34375 -2.457031 0.375 -2.46875 C 0.40625 -2.488281 0.4375 -2.488281 0.46875 -2.46875 C 0.5 -2.457031 0.519531 -2.429688 0.53125 -2.390625 C 0.5625 -2.078125 0.578125 -1.6875 0.578125 -1.21875 C 0.617188 -1.238281 0.660156 -1.25 0.703125 -1.25 C 0.773438 -1.269531 0.828125 -1.289062 0.859375 -1.3125 C 0.878906 -1.320312 0.894531 -1.332031 0.90625 -1.34375 C 0.925781 -1.363281 0.945312 -1.382812 0.96875 -1.40625 C 0.988281 -1.425781 1.003906 -1.441406 1.015625 -1.453125 C 1.128906 -1.554688 1.21875 -1.664062 1.28125 -1.78125 C 1.300781 -1.8125 1.316406 -1.84375 1.328125 -1.875 C 1.335938 -1.882812 1.34375 -1.890625 1.34375 -1.890625 C 1.34375 -1.898438 1.34375 -1.90625 1.34375 -1.90625 C 1.34375 -1.914062 1.34375 -1.921875 1.34375 -1.921875 C 1.351562 -1.929688 1.359375 -1.9375 1.359375 -1.9375 C 1.367188 -1.96875 1.378906 -2 1.390625 -2.03125 C 1.390625 -2.039062 1.390625 -2.050781 1.390625 -2.0625 C 1.390625 -2.070312 1.390625 -2.078125 1.390625 -2.078125 C 1.390625 -2.085938 1.390625 -2.097656 1.390625 -2.109375 C 1.398438 -2.140625 1.40625 -2.171875 1.40625 -2.203125 C 1.40625 -2.203125 1.398438 -2.210938 1.390625 -2.234375 L 1.390625 -2.25 C 1.390625 -2.28125 1.382812 -2.304688 1.375 -2.328125 C 1.375 -2.347656 1.367188 -2.363281 1.359375 -2.375 C 1.335938 -2.414062 1.320312 -2.445312 1.3125 -2.46875 C 1.3125 -2.46875 1.304688 -2.472656 1.296875 -2.484375 C 1.296875 -2.492188 1.289062 -2.5 1.28125 -2.5 C 1.238281 -2.539062 1.207031 -2.570312 1.1875 -2.59375 C 1.101562 -2.65625 1.003906 -2.703125 0.890625 -2.734375 C 0.679688 -2.785156 0.476562 -2.753906 0.28125 -2.640625 C 0.175781 -2.578125 0.09375 -2.5 0.03125 -2.40625 C -0.03125 -2.3125 -0.0507812 -2.210938 -0.03125 -2.109375 C -0.03125 -2.066406 -0.046875 -2.035156 -0.078125 -2.015625 C -0.109375 -2.003906 -0.140625 -2.003906 -0.171875 -2.015625 C -0.203125 -2.023438 -0.222656 -2.046875 -0.234375 -2.078125 C -0.253906 -2.234375 -0.21875 -2.378906 -0.125 -2.515625 C -0.03125 -2.648438 0.09375 -2.765625 0.25 -2.859375 C 0.507812 -3.015625 0.785156 -3.066406 1.078125 -3.015625 C 1.242188 -2.984375 1.390625 -2.921875 1.515625 -2.828125 C 1.640625 -2.734375 1.734375 -2.609375 1.796875 -2.453125 C 1.835938 -2.335938 1.851562 -2.21875 1.84375 -2.09375 C 1.832031 -1.976562 1.800781 -1.863281 1.75 -1.75 C 1.707031 -1.644531 1.648438 -1.546875 1.578125 -1.453125 C 1.441406 -1.285156 1.304688 -1.175781 1.171875 -1.125 C 1.160156 -1.113281 1.144531 -1.109375 1.125 -1.109375 C 1.207031 -1.035156 1.28125 -0.9375 1.34375 -0.8125 C 1.445312 -0.59375 1.546875 -0.316406 1.640625 0.015625 C 1.660156 0.0664062 1.691406 0.175781 1.734375 0.34375 C 1.773438 0.519531 1.8125 0.65625 1.84375 0.75 C 1.863281 0.8125 1.894531 0.875 1.9375 0.9375 C 1.976562 1 2.019531 1.050781 2.0625 1.09375 C 2.125 1.132812 2.191406 1.148438 2.265625 1.140625 C 2.347656 1.140625 2.425781 1.117188 2.5 1.078125 C 2.570312 1.023438 2.628906 0.957031 2.671875 0.875 C 2.710938 0.800781 2.707031 0.734375 2.65625 0.671875 C 2.632812 0.617188 2.59375 0.582031 2.53125 0.5625 C 2.46875 0.550781 2.410156 0.5625 2.359375 0.59375 C 2.328125 0.613281 2.296875 0.617188 2.265625 0.609375 C 2.234375 0.597656 2.210938 0.578125 2.203125 0.546875 C 2.179688 0.523438 2.175781 0.5 2.1875 0.46875 C 2.195312 0.4375 2.210938 0.410156 2.234375 0.390625 C 2.328125 0.335938 2.421875 0.320312 2.515625 0.34375 C 2.609375 0.363281 2.6875 0.410156 2.75 0.484375 Z M 1.359375 -2.375 Z M 1.359375 -2.375 "/></g></g></g><g fill="#000000" fill-opacity="1"><g transform="translate(111.058019, 12.571114)"><g><path d="M 1.78125 -0.171875 C 1.789062 0.00390625 1.789062 0.132812 1.78125 0.21875 C 1.769531 0.257812 1.742188 0.289062 1.703125 0.3125 C 1.660156 0.332031 1.613281 0.332031 1.5625 0.3125 C 1.519531 0.289062 1.492188 0.257812 1.484375 0.21875 C 1.472656 0.175781 1.460938 0.132812 1.453125 0.09375 C 1.453125 0.0625 1.445312 0.03125 1.4375 0 C 1.4375 -0.0195312 1.4375 -0.0507812 1.4375 -0.09375 C 1.4375 -0.144531 1.4375 -0.179688 1.4375 -0.203125 C 1.425781 -0.234375 1.421875 -0.269531 1.421875 -0.3125 C 1.421875 -0.363281 1.414062 -0.410156 1.40625 -0.453125 C 1.40625 -0.503906 1.40625 -0.546875 1.40625 -0.578125 C 1.394531 -0.753906 1.375 -1.003906 1.34375 -1.328125 C 1.34375 -1.335938 1.335938 -1.367188 1.328125 -1.421875 C 1.328125 -1.472656 1.328125 -1.515625 1.328125 -1.546875 C 1.316406 -1.546875 1.300781 -1.539062 1.28125 -1.53125 C 1.269531 -1.53125 1.253906 -1.53125 1.234375 -1.53125 C 1.222656 -1.53125 1.210938 -1.53125 1.203125 -1.53125 C 1.179688 -1.519531 1.15625 -1.515625 1.125 -1.515625 C 1.09375 -1.515625 1.0625 -1.507812 1.03125 -1.5 C 1 -1.5 0.972656 -1.5 0.953125 -1.5 C 0.816406 -1.476562 0.679688 -1.460938 0.546875 -1.453125 C 0.535156 -1.359375 0.523438 -1.234375 0.515625 -1.078125 C 0.472656 -0.535156 0.445312 -0.210938 0.4375 -0.109375 C 0.4375 -0.0546875 0.414062 -0.0195312 0.375 0 C 0.34375 0.0078125 0.3125 0.0078125 0.28125 0 C 0.25 -0.0195312 0.234375 -0.0546875 0.234375 -0.109375 C 0.222656 -0.546875 0.234375 -0.945312 0.265625 -1.3125 C 0.273438 -1.488281 0.285156 -1.628906 0.296875 -1.734375 C 0.316406 -1.835938 0.34375 -1.960938 0.375 -2.109375 C 0.40625 -2.253906 0.453125 -2.382812 0.515625 -2.5 C 0.628906 -2.726562 0.769531 -2.867188 0.9375 -2.921875 C 1.03125 -2.953125 1.117188 -2.941406 1.203125 -2.890625 C 1.296875 -2.847656 1.367188 -2.78125 1.421875 -2.6875 C 1.503906 -2.53125 1.570312 -2.3125 1.625 -2.03125 C 1.644531 -1.875 1.671875 -1.628906 1.703125 -1.296875 C 1.722656 -1.085938 1.742188 -0.835938 1.765625 -0.546875 C 1.773438 -0.390625 1.78125 -0.265625 1.78125 -0.171875 Z M 1.1875 -1.765625 C 1.195312 -1.765625 1.210938 -1.765625 1.234375 -1.765625 C 1.265625 -1.773438 1.285156 -1.78125 1.296875 -1.78125 C 1.285156 -1.84375 1.273438 -1.898438 1.265625 -1.953125 C 1.265625 -1.960938 1.257812 -2 1.25 -2.0625 C 1.25 -2.125 1.242188 -2.164062 1.234375 -2.1875 C 1.234375 -2.21875 1.226562 -2.257812 1.21875 -2.3125 C 1.207031 -2.363281 1.195312 -2.40625 1.1875 -2.4375 C 1.175781 -2.476562 1.160156 -2.515625 1.140625 -2.546875 C 1.117188 -2.609375 1.085938 -2.644531 1.046875 -2.65625 C 0.992188 -2.6875 0.929688 -2.660156 0.859375 -2.578125 C 0.773438 -2.492188 0.707031 -2.328125 0.65625 -2.078125 C 0.625 -1.953125 0.597656 -1.8125 0.578125 -1.65625 C 0.691406 -1.675781 0.804688 -1.695312 0.921875 -1.71875 C 1.078125 -1.75 1.164062 -1.765625 1.1875 -1.765625 Z M 1.1875 -1.765625 "/></g></g></g><g fill="#000000" fill-opacity="1"><g transform="translate(112.927579, 12.571114)"><g><path d="M 1.078125 -0.890625 C 1.109375 -0.867188 1.125 -0.835938 1.125 -0.796875 C 1.132812 -0.765625 1.117188 -0.738281 1.078125 -0.71875 C 1.054688 -0.695312 1.023438 -0.679688 0.984375 -0.671875 C 0.941406 -0.671875 0.890625 -0.671875 0.828125 -0.671875 C 0.765625 -0.671875 0.722656 -0.664062 0.703125 -0.65625 C 0.691406 -0.65625 0.671875 -0.65625 0.640625 -0.65625 C 0.617188 -0.65625 0.597656 -0.65625 0.578125 -0.65625 C 0.578125 -0.65625 0.570312 -0.65625 0.5625 -0.65625 C 0.550781 -0.65625 0.546875 -0.65625 0.546875 -0.65625 L 0.515625 -0.640625 C 0.484375 -0.640625 0.453125 -0.632812 0.421875 -0.625 C 0.398438 -0.625 0.367188 -0.625 0.328125 -0.625 C 0.285156 -0.625 0.25 -0.628906 0.21875 -0.640625 C 0.195312 -0.648438 0.175781 -0.664062 0.15625 -0.6875 C 0.132812 -0.707031 0.117188 -0.738281 0.109375 -0.78125 C 0.0976562 -0.789062 0.09375 -0.800781 0.09375 -0.8125 C 0.09375 -0.832031 0.09375 -0.851562 0.09375 -0.875 C 0.101562 -0.894531 0.109375 -0.910156 0.109375 -0.921875 C 0.117188 -0.941406 0.128906 -0.957031 0.140625 -0.96875 C 0.148438 -0.988281 0.15625 -1.003906 0.15625 -1.015625 C 0.15625 -1.035156 0.160156 -1.050781 0.171875 -1.0625 C 0.179688 -1.082031 0.191406 -1.097656 0.203125 -1.109375 C 0.253906 -1.210938 0.3125 -1.316406 0.375 -1.421875 C 0.4375 -1.523438 0.503906 -1.617188 0.578125 -1.703125 C 0.585938 -1.734375 0.609375 -1.757812 0.640625 -1.78125 C 0.597656 -1.789062 0.550781 -1.796875 0.5 -1.796875 C 0.5 -1.796875 0.382812 -1.796875 0.15625 -1.796875 C 0.132812 -1.796875 0.113281 -1.804688 0.09375 -1.828125 C 0.0820312 -1.847656 0.078125 -1.867188 0.078125 -1.890625 C 0.0859375 -1.921875 0.109375 -1.9375 0.140625 -1.9375 C 0.273438 -1.96875 0.421875 -1.988281 0.578125 -2 C 0.617188 -2 0.691406 -2 0.796875 -2 C 0.867188 -2 0.914062 -1.988281 0.9375 -1.96875 C 0.976562 -1.945312 1 -1.910156 1 -1.859375 C 1.007812 -1.816406 1.003906 -1.773438 0.984375 -1.734375 C 0.972656 -1.691406 0.957031 -1.648438 0.9375 -1.609375 C 0.820312 -1.441406 0.75 -1.332031 0.71875 -1.28125 C 0.644531 -1.164062 0.578125 -1.039062 0.515625 -0.90625 C 0.523438 -0.90625 0.566406 -0.90625 0.640625 -0.90625 C 0.660156 -0.914062 0.695312 -0.921875 0.75 -0.921875 C 0.800781 -0.921875 0.84375 -0.921875 0.875 -0.921875 C 0.90625 -0.929688 0.941406 -0.929688 0.984375 -0.921875 C 1.023438 -0.910156 1.054688 -0.898438 1.078125 -0.890625 Z M 1.078125 -0.890625 "/></g></g></g><g fill="#000000" fill-opacity="1"><g transform="translate(113.98983, 12.571114)"><g><path d="M 1.515625 -1.375 C 1.535156 -1.394531 1.5625 -1.394531 1.59375 -1.375 C 1.632812 -1.363281 1.648438 -1.34375 1.640625 -1.3125 C 1.617188 -1.269531 1.59375 -1.222656 1.5625 -1.171875 C 1.539062 -1.128906 1.515625 -1.082031 1.484375 -1.03125 C 1.453125 -0.988281 1.414062 -0.945312 1.375 -0.90625 C 1.332031 -0.875 1.285156 -0.847656 1.234375 -0.828125 C 1.191406 -0.804688 1.144531 -0.796875 1.09375 -0.796875 C 1.039062 -0.804688 0.992188 -0.832031 0.953125 -0.875 C 0.910156 -0.90625 0.875 -0.953125 0.84375 -1.015625 C 0.757812 -0.929688 0.660156 -0.882812 0.546875 -0.875 C 0.441406 -0.863281 0.347656 -0.882812 0.265625 -0.9375 C 0.191406 -1 0.140625 -1.070312 0.109375 -1.15625 C 0.078125 -1.238281 0.0625 -1.328125 0.0625 -1.421875 C 0.0625 -1.523438 0.0820312 -1.617188 0.125 -1.703125 C 0.164062 -1.785156 0.226562 -1.847656 0.3125 -1.890625 C 0.394531 -1.941406 0.484375 -1.96875 0.578125 -1.96875 C 0.734375 -1.96875 0.859375 -1.910156 0.953125 -1.796875 C 0.960938 -1.816406 0.972656 -1.84375 0.984375 -1.875 C 1.003906 -1.90625 1.019531 -1.929688 1.03125 -1.953125 C 1.039062 -1.984375 1.066406 -1.988281 1.109375 -1.96875 C 1.160156 -1.957031 1.175781 -1.929688 1.15625 -1.890625 C 1.113281 -1.742188 1.078125 -1.601562 1.046875 -1.46875 C 1.015625 -1.28125 1.023438 -1.144531 1.078125 -1.0625 C 1.097656 -1.039062 1.117188 -1.023438 1.140625 -1.015625 C 1.160156 -1.003906 1.179688 -1.003906 1.203125 -1.015625 C 1.234375 -1.035156 1.257812 -1.054688 1.28125 -1.078125 C 1.300781 -1.109375 1.320312 -1.140625 1.34375 -1.171875 C 1.375 -1.203125 1.398438 -1.226562 1.421875 -1.25 C 1.441406 -1.28125 1.457031 -1.304688 1.46875 -1.328125 C 1.488281 -1.347656 1.503906 -1.363281 1.515625 -1.375 Z M 0.5 -1.1875 C 0.519531 -1.175781 0.535156 -1.171875 0.546875 -1.171875 C 0.566406 -1.171875 0.585938 -1.171875 0.609375 -1.171875 C 0.628906 -1.179688 0.644531 -1.191406 0.65625 -1.203125 C 0.675781 -1.210938 0.691406 -1.222656 0.703125 -1.234375 C 0.710938 -1.242188 0.722656 -1.257812 0.734375 -1.28125 C 0.753906 -1.300781 0.769531 -1.316406 0.78125 -1.328125 C 0.789062 -1.335938 0.800781 -1.351562 0.8125 -1.375 C 0.8125 -1.382812 0.816406 -1.394531 0.828125 -1.40625 C 0.835938 -1.476562 0.859375 -1.550781 0.890625 -1.625 C 0.753906 -1.738281 0.632812 -1.765625 0.53125 -1.703125 C 0.476562 -1.671875 0.441406 -1.628906 0.421875 -1.578125 C 0.398438 -1.523438 0.382812 -1.472656 0.375 -1.421875 C 0.375 -1.410156 0.375 -1.394531 0.375 -1.375 C 0.375 -1.363281 0.375 -1.359375 0.375 -1.359375 C 0.382812 -1.359375 0.390625 -1.351562 0.390625 -1.34375 C 0.390625 -1.332031 0.390625 -1.320312 0.390625 -1.3125 C 0.398438 -1.289062 0.40625 -1.28125 0.40625 -1.28125 C 0.425781 -1.226562 0.457031 -1.195312 0.5 -1.1875 Z M 0.5 -1.1875 "/></g></g></g><g fill="#000000" fill-opacity="1"><g transform="translate(115.264532, 12.571114)"><g/></g></g><g fill="#000000" fill-opacity="1"><g transform="translate(116.103708, 12.571114)"><g><path d="M 1.890625 -1.109375 C 1.953125 -1.109375 2 -1.078125 2.03125 -1.015625 C 2.0625 -0.960938 2.0625 -0.90625 2.03125 -0.84375 C 2 -0.789062 1.953125 -0.765625 1.890625 -0.765625 L 0.34375 -0.765625 C 0.269531 -0.765625 0.21875 -0.789062 0.1875 -0.84375 C 0.164062 -0.90625 0.164062 -0.960938 0.1875 -1.015625 C 0.21875 -1.078125 0.269531 -1.109375 0.34375 -1.109375 Z M 1.890625 -1.109375 "/></g></g></g><g fill="#000000" fill-opacity="1"><g transform="translate(118.330895, 12.571114)"><g><path d="M 1.890625 -1.109375 C 1.953125 -1.109375 2 -1.078125 2.03125 -1.015625 C 2.0625 -0.960938 2.0625 -0.90625 2.03125 -0.84375 C 2 -0.789062 1.953125 -0.765625 1.890625 -0.765625 L 0.34375 -0.765625 C 0.269531 -0.765625 0.21875 -0.789062 0.1875 -0.84375 C 0.164062 -0.90625 0.164062 -0.960938 0.1875 -1.015625 C 0.21875 -1.078125 0.269531 -1.109375 0.34375 -1.109375 Z M 1.890625 -1.109375 "/></g></g></g><g fill="#000000" fill-opacity="1"><g transform="translate(120.558081, 12.571114)"><g><path d="M 1.890625 -1.109375 C 1.953125 -1.109375 2 -1.078125 2.03125 -1.015625 C 2.0625 -0.960938 2.0625 -0.90625 2.03125 -0.84375 C 2 -0.789062 1.953125 -0.765625 1.890625 -0.765625 L 0.34375 -0.765625 C 0.269531 -0.765625 0.21875 -0.789062 0.1875 -0.84375 C 0.164062 -0.90625 0.164062 -0.960938 0.1875 -1.015625 C 0.21875 -1.078125 0.269531 -1.109375 0.34375 -1.109375 Z M 1.890625 -1.109375 "/></g></g></g><g fill="#000000" fill-opacity="1"><g transform="translate(122.785267, 12.571114)"><g><path d="M 2.75 0.484375 C 2.875 0.628906 2.894531 0.8125 2.8125 1.03125 C 2.738281 1.195312 2.585938 1.328125 2.359375 1.421875 C 2.253906 1.460938 2.144531 1.472656 2.03125 1.453125 C 1.925781 1.429688 1.832031 1.382812 1.75 1.3125 C 1.6875 1.257812 1.628906 1.203125 1.578125 1.140625 C 1.535156 1.078125 1.5 1 1.46875 0.90625 C 1.4375 0.820312 1.410156 0.75 1.390625 0.6875 C 1.367188 0.625 1.347656 0.546875 1.328125 0.453125 C 1.304688 0.378906 1.269531 0.234375 1.21875 0.015625 C 1.175781 -0.203125 1.144531 -0.367188 1.125 -0.484375 C 1.082031 -0.617188 1.03125 -0.734375 0.96875 -0.828125 C 0.96875 -0.835938 0.960938 -0.847656 0.953125 -0.859375 C 0.941406 -0.867188 0.929688 -0.878906 0.921875 -0.890625 C 0.921875 -0.898438 0.910156 -0.910156 0.890625 -0.921875 C 0.878906 -0.941406 0.863281 -0.957031 0.84375 -0.96875 C 0.8125 -0.988281 0.773438 -1.007812 0.734375 -1.03125 C 0.722656 -1.03125 0.710938 -1.03125 0.703125 -1.03125 C 0.679688 -1.03125 0.664062 -1.035156 0.65625 -1.046875 C 0.632812 -1.046875 0.617188 -1.046875 0.609375 -1.046875 C 0.597656 -1.035156 0.585938 -1.03125 0.578125 -1.03125 C 0.578125 -0.957031 0.570312 -0.851562 0.5625 -0.71875 C 0.5625 -0.59375 0.5625 -0.515625 0.5625 -0.484375 C 0.5625 -0.390625 0.5625 -0.285156 0.5625 -0.171875 C 0.5625 -0.015625 0.550781 0.0859375 0.53125 0.140625 C 0.507812 0.191406 0.46875 0.21875 0.40625 0.21875 C 0.351562 0.21875 0.320312 0.191406 0.3125 0.140625 C 0.300781 0.109375 0.289062 0.078125 0.28125 0.046875 C 0.28125 0.015625 0.28125 -0.00390625 0.28125 -0.015625 C 0.28125 -0.0351562 0.273438 -0.0664062 0.265625 -0.109375 C 0.265625 -0.160156 0.265625 -0.1875 0.265625 -0.1875 C 0.265625 -0.289062 0.265625 -0.394531 0.265625 -0.5 C 0.265625 -0.800781 0.265625 -1.007812 0.265625 -1.125 C 0.265625 -1.632812 0.28125 -2.054688 0.3125 -2.390625 C 0.320312 -2.429688 0.34375 -2.457031 0.375 -2.46875 C 0.40625 -2.488281 0.4375 -2.488281 0.46875 -2.46875 C 0.5 -2.457031 0.519531 -2.429688 0.53125 -2.390625 C 0.5625 -2.078125 0.578125 -1.6875 0.578125 -1.21875 C 0.617188 -1.238281 0.660156 -1.25 0.703125 -1.25 C 0.773438 -1.269531 0.828125 -1.289062 0.859375 -1.3125 C 0.878906 -1.320312 0.894531 -1.332031 0.90625 -1.34375 C 0.925781 -1.363281 0.945312 -1.382812 0.96875 -1.40625 C 0.988281 -1.425781 1.003906 -1.441406 1.015625 -1.453125 C 1.128906 -1.554688 1.21875 -1.664062 1.28125 -1.78125 C 1.300781 -1.8125 1.316406 -1.84375 1.328125 -1.875 C 1.335938 -1.882812 1.34375 -1.890625 1.34375 -1.890625 C 1.34375 -1.898438 1.34375 -1.90625 1.34375 -1.90625 C 1.34375 -1.914062 1.34375 -1.921875 1.34375 -1.921875 C 1.351562 -1.929688 1.359375 -1.9375 1.359375 -1.9375 C 1.367188 -1.96875 1.378906 -2 1.390625 -2.03125 C 1.390625 -2.039062 1.390625 -2.050781 1.390625 -2.0625 C 1.390625 -2.070312 1.390625 -2.078125 1.390625 -2.078125 C 1.390625 -2.085938 1.390625 -2.097656 1.390625 -2.109375 C 1.398438 -2.140625 1.40625 -2.171875 1.40625 -2.203125 C 1.40625 -2.203125 1.398438 -2.210938 1.390625 -2.234375 L 1.390625 -2.25 C 1.390625 -2.28125 1.382812 -2.304688 1.375 -2.328125 C 1.375 -2.347656 1.367188 -2.363281 1.359375 -2.375 C 1.335938 -2.414062 1.320312 -2.445312 1.3125 -2.46875 C 1.3125 -2.46875 1.304688 -2.472656 1.296875 -2.484375 C 1.296875 -2.492188 1.289062 -2.5 1.28125 -2.5 C 1.238281 -2.539062 1.207031 -2.570312 1.1875 -2.59375 C 1.101562 -2.65625 1.003906 -2.703125 0.890625 -2.734375 C 0.679688 -2.785156 0.476562 -2.753906 0.28125 -2.640625 C 0.175781 -2.578125 0.09375 -2.5 0.03125 -2.40625 C -0.03125 -2.3125 -0.0507812 -2.210938 -0.03125 -2.109375 C -0.03125 -2.066406 -0.046875 -2.035156 -0.078125 -2.015625 C -0.109375 -2.003906 -0.140625 -2.003906 -0.171875 -2.015625 C -0.203125 -2.023438 -0.222656 -2.046875 -0.234375 -2.078125 C -0.253906 -2.234375 -0.21875 -2.378906 -0.125 -2.515625 C -0.03125 -2.648438 0.09375 -2.765625 0.25 -2.859375 C 0.507812 -3.015625 0.785156 -3.066406 1.078125 -3.015625 C 1.242188 -2.984375 1.390625 -2.921875 1.515625 -2.828125 C 1.640625 -2.734375 1.734375 -2.609375 1.796875 -2.453125 C 1.835938 -2.335938 1.851562 -2.21875 1.84375 -2.09375 C 1.832031 -1.976562 1.800781 -1.863281 1.75 -1.75 C 1.707031 -1.644531 1.648438 -1.546875 1.578125 -1.453125 C 1.441406 -1.285156 1.304688 -1.175781 1.171875 -1.125 C 1.160156 -1.113281 1.144531 -1.109375 1.125 -1.109375 C 1.207031 -1.035156 1.28125 -0.9375 1.34375 -0.8125 C 1.445312 -0.59375 1.546875 -0.316406 1.640625 0.015625 C 1.660156 0.0664062 1.691406 0.175781 1.734375 0.34375 C 1.773438 0.519531 1.8125 0.65625 1.84375 0.75 C 1.863281 0.8125 1.894531 0.875 1.9375 0.9375 C 1.976562 1 2.019531 1.050781 2.0625 1.09375 C 2.125 1.132812 2.191406 1.148438 2.265625 1.140625 C 2.347656 1.140625 2.425781 1.117188 2.5 1.078125 C 2.570312 1.023438 2.628906 0.957031 2.671875 0.875 C 2.710938 0.800781 2.707031 0.734375 2.65625 0.671875 C 2.632812 0.617188 2.59375 0.582031 2.53125 0.5625 C 2.46875 0.550781 2.410156 0.5625 2.359375 0.59375 C 2.328125 0.613281 2.296875 0.617188 2.265625 0.609375 C 2.234375 0.597656 2.210938 0.578125 2.203125 0.546875 C 2.179688 0.523438 2.175781 0.5 2.1875 0.46875 C 2.195312 0.4375 2.210938 0.410156 2.234375 0.390625 C 2.328125 0.335938 2.421875 0.320312 2.515625 0.34375 C 2.609375 0.363281 2.6875 0.410156 2.75 0.484375 Z M 1.359375 -2.375 Z M 1.359375 -2.375 "/></g></g></g><g fill="#000000" fill-opacity="1"><g transform="translate(124.704399, 12.571114)"><g><path d="M 1.515625 -1.375 C 1.535156 -1.394531 1.5625 -1.394531 1.59375 -1.375 C 1.632812 -1.363281 1.648438 -1.34375 1.640625 -1.3125 C 1.617188 -1.269531 1.59375 -1.222656 1.5625 -1.171875 C 1.539062 -1.128906 1.515625 -1.082031 1.484375 -1.03125 C 1.453125 -0.988281 1.414062 -0.945312 1.375 -0.90625 C 1.332031 -0.875 1.285156 -0.847656 1.234375 -0.828125 C 1.191406 -0.804688 1.144531 -0.796875 1.09375 -0.796875 C 1.039062 -0.804688 0.992188 -0.832031 0.953125 -0.875 C 0.910156 -0.90625 0.875 -0.953125 0.84375 -1.015625 C 0.757812 -0.929688 0.660156 -0.882812 0.546875 -0.875 C 0.441406 -0.863281 0.347656 -0.882812 0.265625 -0.9375 C 0.191406 -1 0.140625 -1.070312 0.109375 -1.15625 C 0.078125 -1.238281 0.0625 -1.328125 0.0625 -1.421875 C 0.0625 -1.523438 0.0820312 -1.617188 0.125 -1.703125 C 0.164062 -1.785156 0.226562 -1.847656 0.3125 -1.890625 C 0.394531 -1.941406 0.484375 -1.96875 0.578125 -1.96875 C 0.734375 -1.96875 0.859375 -1.910156 0.953125 -1.796875 C 0.960938 -1.816406 0.972656 -1.84375 0.984375 -1.875 C 1.003906 -1.90625 1.019531 -1.929688 1.03125 -1.953125 C 1.039062 -1.984375 1.066406 -1.988281 1.109375 -1.96875 C 1.160156 -1.957031 1.175781 -1.929688 1.15625 -1.890625 C 1.113281 -1.742188 1.078125 -1.601562 1.046875 -1.46875 C 1.015625 -1.28125 1.023438 -1.144531 1.078125 -1.0625 C 1.097656 -1.039062 1.117188 -1.023438 1.140625 -1.015625 C 1.160156 -1.003906 1.179688 -1.003906 1.203125 -1.015625 C 1.234375 -1.035156 1.257812 -1.054688 1.28125 -1.078125 C 1.300781 -1.109375 1.320312 -1.140625 1.34375 -1.171875 C 1.375 -1.203125 1.398438 -1.226562 1.421875 -1.25 C 1.441406 -1.28125 1.457031 -1.304688 1.46875 -1.328125 C 1.488281 -1.347656 1.503906 -1.363281 1.515625 -1.375 Z M 0.5 -1.1875 C 0.519531 -1.175781 0.535156 -1.171875 0.546875 -1.171875 C 0.566406 -1.171875 0.585938 -1.171875 0.609375 -1.171875 C 0.628906 -1.179688 0.644531 -1.191406 0.65625 -1.203125 C 0.675781 -1.210938 0.691406 -1.222656 0.703125 -1.234375 C 0.710938 -1.242188 0.722656 -1.257812 0.734375 -1.28125 C 0.753906 -1.300781 0.769531 -1.316406 0.78125 -1.328125 C 0.789062 -1.335938 0.800781 -1.351562 0.8125 -1.375 C 0.8125 -1.382812 0.816406 -1.394531 0.828125 -1.40625 C 0.835938 -1.476562 0.859375 -1.550781 0.890625 -1.625 C 0.753906 -1.738281 0.632812 -1.765625 0.53125 -1.703125 C 0.476562 -1.671875 0.441406 -1.628906 0.421875 -1.578125 C 0.398438 -1.523438 0.382812 -1.472656 0.375 -1.421875 C 0.375 -1.410156 0.375 -1.394531 0.375 -1.375 C 0.375 -1.363281 0.375 -1.359375 0.375 -1.359375 C 0.382812 -1.359375 0.390625 -1.351562 0.390625 -1.34375 C 0.390625 -1.332031 0.390625 -1.320312 0.390625 -1.3125 C 0.398438 -1.289062 0.40625 -1.28125 0.40625 -1.28125 C 0.425781 -1.226562 0.457031 -1.195312 0.5 -1.1875 Z M 0.5 -1.1875 "/></g></g></g><g fill="#000000" fill-opacity="1"><g transform="translate(125.979101, 12.571114)"><g><path d="M 0.921875 -1.296875 C 0.953125 -1.328125 0.984375 -1.328125 1.015625 -1.296875 C 1.054688 -1.273438 1.066406 -1.242188 1.046875 -1.203125 C 1.015625 -1.148438 0.984375 -1.097656 0.953125 -1.046875 C 0.921875 -1.003906 0.878906 -0.960938 0.828125 -0.921875 C 0.785156 -0.878906 0.738281 -0.847656 0.6875 -0.828125 C 0.644531 -0.804688 0.59375 -0.796875 0.53125 -0.796875 C 0.476562 -0.804688 0.421875 -0.832031 0.359375 -0.875 C 0.296875 -0.914062 0.242188 -0.972656 0.203125 -1.046875 C 0.171875 -1.117188 0.15625 -1.195312 0.15625 -1.28125 C 0.164062 -1.332031 0.175781 -1.421875 0.1875 -1.546875 C 0.195312 -1.671875 0.210938 -1.757812 0.234375 -1.8125 C 0.242188 -1.84375 0.269531 -1.863281 0.3125 -1.875 C 0.351562 -1.894531 0.390625 -1.894531 0.421875 -1.875 C 0.453125 -1.851562 0.46875 -1.820312 0.46875 -1.78125 C 0.476562 -1.707031 0.472656 -1.570312 0.453125 -1.375 C 0.429688 -1.25 0.445312 -1.15625 0.5 -1.09375 C 0.519531 -1.0625 0.546875 -1.046875 0.578125 -1.046875 C 0.609375 -1.046875 0.640625 -1.054688 0.671875 -1.078125 C 0.710938 -1.097656 0.742188 -1.117188 0.765625 -1.140625 C 0.796875 -1.171875 0.828125 -1.203125 0.859375 -1.234375 C 0.890625 -1.273438 0.910156 -1.296875 0.921875 -1.296875 Z M 0.515625 -2.109375 C 0.492188 -2.066406 0.453125 -2.046875 0.390625 -2.046875 C 0.335938 -2.046875 0.296875 -2.066406 0.265625 -2.109375 C 0.242188 -2.160156 0.242188 -2.207031 0.265625 -2.25 C 0.296875 -2.300781 0.335938 -2.328125 0.390625 -2.328125 C 0.453125 -2.328125 0.492188 -2.300781 0.515625 -2.25 C 0.535156 -2.207031 0.535156 -2.160156 0.515625 -2.109375 Z M 0.515625 -2.109375 "/></g></g></g><g fill="#000000" fill-opacity="1"><g transform="translate(126.687268, 12.571114)"><g><path d="M 1.125 -1.265625 C 1.15625 -1.296875 1.191406 -1.296875 1.234375 -1.265625 C 1.273438 -1.242188 1.285156 -1.210938 1.265625 -1.171875 C 1.191406 -0.941406 1.070312 -0.785156 0.90625 -0.703125 C 0.820312 -0.660156 0.726562 -0.640625 0.625 -0.640625 C 0.519531 -0.640625 0.429688 -0.671875 0.359375 -0.734375 C 0.304688 -0.773438 0.265625 -0.828125 0.234375 -0.890625 C 0.203125 -0.953125 0.179688 -1.019531 0.171875 -1.09375 C 0.160156 -1.164062 0.148438 -1.234375 0.140625 -1.296875 C 0.140625 -1.359375 0.140625 -1.425781 0.140625 -1.5 C 0.140625 -1.6875 0.171875 -1.921875 0.234375 -2.203125 C 0.273438 -2.421875 0.328125 -2.609375 0.390625 -2.765625 C 0.410156 -2.816406 0.4375 -2.863281 0.46875 -2.90625 C 0.507812 -2.945312 0.550781 -2.972656 0.59375 -2.984375 C 0.644531 -2.992188 0.703125 -2.984375 0.765625 -2.953125 C 0.796875 -2.929688 0.820312 -2.898438 0.84375 -2.859375 C 0.875 -2.816406 0.890625 -2.769531 0.890625 -2.71875 C 0.890625 -2.664062 0.890625 -2.617188 0.890625 -2.578125 C 0.890625 -2.535156 0.890625 -2.488281 0.890625 -2.4375 C 0.859375 -2.09375 0.722656 -1.75 0.484375 -1.40625 C 0.484375 -1.363281 0.484375 -1.316406 0.484375 -1.265625 C 0.484375 -1.265625 0.484375 -1.257812 0.484375 -1.25 C 0.492188 -1.238281 0.5 -1.226562 0.5 -1.21875 C 0.5 -1.195312 0.5 -1.175781 0.5 -1.15625 C 0.507812 -1.132812 0.519531 -1.109375 0.53125 -1.078125 C 0.53125 -1.078125 0.53125 -1.070312 0.53125 -1.0625 C 0.539062 -1.050781 0.546875 -1.039062 0.546875 -1.03125 C 0.546875 -1.03125 0.546875 -1.023438 0.546875 -1.015625 C 0.554688 -1.015625 0.5625 -1.007812 0.5625 -1 C 0.570312 -1 0.578125 -1 0.578125 -1 C 0.578125 -0.988281 0.578125 -0.984375 0.578125 -0.984375 C 0.585938 -0.984375 0.59375 -0.984375 0.59375 -0.984375 C 0.601562 -0.972656 0.613281 -0.960938 0.625 -0.953125 C 0.644531 -0.941406 0.664062 -0.9375 0.6875 -0.9375 C 0.726562 -0.9375 0.773438 -0.953125 0.828125 -0.984375 C 0.859375 -1.003906 0.890625 -1.03125 0.921875 -1.0625 C 0.953125 -1.09375 0.988281 -1.128906 1.03125 -1.171875 C 1.070312 -1.210938 1.101562 -1.242188 1.125 -1.265625 Z M 0.59375 -2.453125 C 0.53125 -2.160156 0.492188 -1.898438 0.484375 -1.671875 C 0.617188 -1.929688 0.703125 -2.179688 0.734375 -2.421875 C 0.734375 -2.503906 0.734375 -2.585938 0.734375 -2.671875 C 0.722656 -2.679688 0.710938 -2.695312 0.703125 -2.71875 C 0.703125 -2.75 0.703125 -2.769531 0.703125 -2.78125 L 0.6875 -2.796875 C 0.6875 -2.785156 0.6875 -2.78125 0.6875 -2.78125 C 0.664062 -2.769531 0.648438 -2.75 0.640625 -2.71875 C 0.628906 -2.6875 0.617188 -2.65625 0.609375 -2.625 C 0.609375 -2.59375 0.601562 -2.554688 0.59375 -2.515625 C 0.59375 -2.484375 0.59375 -2.460938 0.59375 -2.453125 Z M 0.59375 -2.453125 "/></g></g></g><g fill="#000000" fill-opacity="1"><g transform="translate(127.597263, 12.571114)"><g><path d="M 1.265625 -1.375 C 1.296875 -1.40625 1.328125 -1.410156 1.359375 -1.390625 C 1.398438 -1.367188 1.414062 -1.335938 1.40625 -1.296875 C 1.351562 -1.171875 1.269531 -1.0625 1.15625 -0.96875 C 1.050781 -0.882812 0.9375 -0.832031 0.8125 -0.8125 C 0.675781 -0.789062 0.566406 -0.796875 0.484375 -0.828125 C 0.359375 -0.867188 0.257812 -0.953125 0.1875 -1.078125 C 0.144531 -1.160156 0.117188 -1.25 0.109375 -1.34375 C 0.109375 -1.445312 0.125 -1.546875 0.15625 -1.640625 C 0.1875 -1.742188 0.242188 -1.820312 0.328125 -1.875 C 0.441406 -1.957031 0.5625 -1.984375 0.6875 -1.953125 C 0.800781 -1.921875 0.859375 -1.832031 0.859375 -1.6875 C 0.859375 -1.5625 0.820312 -1.457031 0.75 -1.375 C 0.6875 -1.289062 0.601562 -1.238281 0.5 -1.21875 C 0.53125 -1.15625 0.570312 -1.117188 0.625 -1.109375 C 0.675781 -1.097656 0.742188 -1.097656 0.828125 -1.109375 C 0.910156 -1.117188 0.976562 -1.140625 1.03125 -1.171875 C 1.144531 -1.253906 1.222656 -1.320312 1.265625 -1.375 Z M 0.609375 -1.71875 C 0.546875 -1.695312 0.5 -1.648438 0.46875 -1.578125 C 0.4375 -1.503906 0.429688 -1.425781 0.453125 -1.34375 C 0.546875 -1.375 0.617188 -1.429688 0.671875 -1.515625 C 0.703125 -1.566406 0.710938 -1.625 0.703125 -1.6875 C 0.703125 -1.71875 0.691406 -1.734375 0.671875 -1.734375 C 0.660156 -1.742188 0.640625 -1.738281 0.609375 -1.71875 Z M 0.609375 -1.71875 "/></g></g></g><g fill="#000000" fill-opacity="1"><g transform="translate(128.659514, 12.571114)"><g><path d="M 1.296875 -0.234375 C 1.359375 0.160156 1.34375 0.484375 1.25 0.734375 C 1.1875 0.898438 1.097656 1.023438 0.984375 1.109375 C 0.898438 1.171875 0.800781 1.207031 0.6875 1.21875 C 0.570312 1.238281 0.46875 1.234375 0.375 1.203125 C 0.300781 1.171875 0.234375 1.125 0.171875 1.0625 C 0.109375 1 0.0625 0.929688 0.03125 0.859375 C 0 0.785156 -0.015625 0.703125 -0.015625 0.609375 C -0.015625 0.523438 0.0078125 0.445312 0.0625 0.375 C 0.113281 0.289062 0.1875 0.234375 0.28125 0.203125 C 0.382812 0.179688 0.476562 0.207031 0.5625 0.28125 C 0.601562 0.320312 0.628906 0.375 0.640625 0.4375 C 0.648438 0.507812 0.632812 0.570312 0.59375 0.625 C 0.5625 0.675781 0.507812 0.695312 0.4375 0.6875 C 0.382812 0.6875 0.351562 0.660156 0.34375 0.609375 C 0.34375 0.566406 0.363281 0.539062 0.40625 0.53125 C 0.445312 0.507812 0.457031 0.484375 0.4375 0.453125 C 0.425781 0.421875 0.398438 0.410156 0.359375 0.421875 C 0.304688 0.421875 0.265625 0.457031 0.234375 0.53125 C 0.210938 0.582031 0.207031 0.632812 0.21875 0.6875 C 0.226562 0.738281 0.25 0.785156 0.28125 0.828125 C 0.351562 0.921875 0.457031 0.953125 0.59375 0.921875 C 0.675781 0.910156 0.738281 0.890625 0.78125 0.859375 C 0.789062 0.847656 0.796875 0.84375 0.796875 0.84375 C 0.804688 0.832031 0.816406 0.820312 0.828125 0.8125 C 0.835938 0.8125 0.84375 0.804688 0.84375 0.796875 C 0.84375 0.796875 0.84375 0.789062 0.84375 0.78125 C 0.851562 0.78125 0.859375 0.78125 0.859375 0.78125 C 0.953125 0.644531 1 0.4375 1 0.15625 C 1 0.0507812 0.992188 -0.0546875 0.984375 -0.171875 C 0.984375 -0.179688 0.984375 -0.1875 0.984375 -0.1875 C 0.972656 -0.207031 0.96875 -0.234375 0.96875 -0.265625 C 0.957031 -0.304688 0.953125 -0.347656 0.953125 -0.390625 C 0.929688 -0.492188 0.914062 -0.585938 0.90625 -0.671875 C 0.894531 -0.753906 0.890625 -0.8125 0.890625 -0.84375 C 0.804688 -0.738281 0.703125 -0.679688 0.578125 -0.671875 C 0.503906 -0.671875 0.429688 -0.6875 0.359375 -0.71875 C 0.296875 -0.757812 0.242188 -0.8125 0.203125 -0.875 C 0.160156 -0.9375 0.132812 -1.003906 0.125 -1.078125 C 0.101562 -1.160156 0.0976562 -1.273438 0.109375 -1.421875 C 0.109375 -1.609375 0.125 -1.742188 0.15625 -1.828125 C 0.164062 -1.890625 0.203125 -1.921875 0.265625 -1.921875 C 0.335938 -1.921875 0.378906 -1.890625 0.390625 -1.828125 C 0.398438 -1.785156 0.40625 -1.738281 0.40625 -1.6875 C 0.414062 -1.632812 0.421875 -1.582031 0.421875 -1.53125 C 0.421875 -1.488281 0.421875 -1.441406 0.421875 -1.390625 C 0.421875 -1.335938 0.425781 -1.285156 0.4375 -1.234375 C 0.4375 -1.210938 0.4375 -1.1875 0.4375 -1.15625 C 0.4375 -1.132812 0.441406 -1.109375 0.453125 -1.078125 C 0.460938 -1.046875 0.476562 -1.019531 0.5 -1 C 0.519531 -0.976562 0.546875 -0.96875 0.578125 -0.96875 C 0.609375 -0.976562 0.632812 -0.992188 0.65625 -1.015625 C 0.675781 -1.035156 0.691406 -1.0625 0.703125 -1.09375 C 0.722656 -1.132812 0.738281 -1.164062 0.75 -1.1875 C 0.757812 -1.207031 0.769531 -1.238281 0.78125 -1.28125 C 0.800781 -1.394531 0.816406 -1.484375 0.828125 -1.546875 C 0.828125 -1.554688 0.828125 -1.582031 0.828125 -1.625 C 0.835938 -1.664062 0.84375 -1.703125 0.84375 -1.734375 C 0.851562 -1.765625 0.863281 -1.789062 0.875 -1.8125 C 0.875 -1.8125 0.875 -1.816406 0.875 -1.828125 C 0.882812 -1.828125 0.890625 -1.828125 0.890625 -1.828125 C 0.890625 -1.835938 0.890625 -1.84375 0.890625 -1.84375 C 0.890625 -1.863281 0.894531 -1.878906 0.90625 -1.890625 C 0.925781 -1.910156 0.941406 -1.921875 0.953125 -1.921875 C 0.972656 -1.921875 0.992188 -1.921875 1.015625 -1.921875 C 1.035156 -1.921875 1.050781 -1.910156 1.0625 -1.890625 C 1.082031 -1.878906 1.09375 -1.863281 1.09375 -1.84375 C 1.113281 -1.757812 1.128906 -1.671875 1.140625 -1.578125 C 1.148438 -1.492188 1.160156 -1.390625 1.171875 -1.265625 C 1.179688 -1.140625 1.1875 -1.050781 1.1875 -1 C 1.195312 -0.882812 1.234375 -0.628906 1.296875 -0.234375 Z M 1.296875 -0.234375 "/></g></g></g><g fill="#000000" fill-opacity="1"><g transform="translate(105.123011, 22.1119)"><g><path d="M 1.796875 -2.921875 L 1.796875 0 L 1.5 0 L 1.5 -0.234375 C 1.425781 -0.140625 1.335938 -0.0664062 1.234375 -0.015625 C 1.140625 0.0234375 1.035156 0.046875 0.921875 0.046875 C 0.773438 0.046875 0.640625 0.0078125 0.515625 -0.0625 C 0.390625 -0.144531 0.289062 -0.253906 0.21875 -0.390625 C 0.15625 -0.523438 0.125 -0.671875 0.125 -0.828125 C 0.125 -0.992188 0.15625 -1.144531 0.21875 -1.28125 C 0.289062 -1.414062 0.390625 -1.519531 0.515625 -1.59375 C 0.640625 -1.675781 0.773438 -1.71875 0.921875 -1.71875 C 1.035156 -1.71875 1.140625 -1.691406 1.234375 -1.640625 C 1.335938 -1.585938 1.425781 -1.515625 1.5 -1.421875 L 1.5 -2.921875 Z M 0.96875 -1.453125 C 0.8125 -1.453125 0.679688 -1.390625 0.578125 -1.265625 C 0.472656 -1.148438 0.421875 -1.007812 0.421875 -0.84375 C 0.421875 -0.664062 0.46875 -0.515625 0.5625 -0.390625 C 0.664062 -0.273438 0.800781 -0.21875 0.96875 -0.21875 C 1.132812 -0.21875 1.265625 -0.273438 1.359375 -0.390625 C 1.460938 -0.503906 1.515625 -0.65625 1.515625 -0.84375 C 1.515625 -1.03125 1.460938 -1.175781 1.359375 -1.28125 C 1.253906 -1.394531 1.125 -1.453125 0.96875 -1.453125 Z M 0.96875 -1.453125 "/></g></g></g><g fill="#000000" fill-opacity="1"><g transform="translate(107.166073, 22.1119)"><g><path d="M 0.125 -0.828125 C 0.125 -0.984375 0.160156 -1.128906 0.234375 -1.265625 C 0.316406 -1.410156 0.425781 -1.519531 0.5625 -1.59375 C 0.695312 -1.675781 0.84375 -1.71875 1 -1.71875 C 1.15625 -1.71875 1.300781 -1.675781 1.4375 -1.59375 C 1.570312 -1.519531 1.675781 -1.414062 1.75 -1.28125 C 1.832031 -1.144531 1.875 -0.992188 1.875 -0.828125 C 1.875 -0.671875 1.832031 -0.523438 1.75 -0.390625 C 1.675781 -0.253906 1.570312 -0.144531 1.4375 -0.0625 C 1.300781 0.0078125 1.15625 0.046875 1 0.046875 C 0.84375 0.046875 0.691406 0.0078125 0.546875 -0.0625 C 0.410156 -0.144531 0.304688 -0.253906 0.234375 -0.390625 C 0.160156 -0.523438 0.125 -0.671875 0.125 -0.828125 Z M 1 -1.453125 C 0.820312 -1.453125 0.675781 -1.390625 0.5625 -1.265625 C 0.457031 -1.148438 0.40625 -1.003906 0.40625 -0.828125 C 0.40625 -0.703125 0.4375 -0.585938 0.5 -0.484375 C 0.5625 -0.390625 0.632812 -0.320312 0.71875 -0.28125 C 0.8125 -0.238281 0.90625 -0.21875 1 -0.21875 C 1.101562 -0.21875 1.195312 -0.242188 1.28125 -0.296875 C 1.375 -0.347656 1.445312 -0.421875 1.5 -0.515625 C 1.5625 -0.609375 1.59375 -0.710938 1.59375 -0.828125 C 1.59375 -0.941406 1.566406 -1.046875 1.515625 -1.140625 C 1.460938 -1.234375 1.390625 -1.304688 1.296875 -1.359375 C 1.210938 -1.421875 1.113281 -1.453125 1 -1.453125 Z M 1 -1.453125 "/></g></g></g><g fill="#000000" fill-opacity="1"><g transform="translate(109.156021, 22.1119)"><g><path d="M 1.421875 -1.4375 C 1.472656 -1.519531 1.539062 -1.585938 1.625 -1.640625 C 1.71875 -1.691406 1.816406 -1.71875 1.921875 -1.71875 C 2.097656 -1.71875 2.226562 -1.65625 2.3125 -1.53125 C 2.40625 -1.414062 2.453125 -1.25 2.453125 -1.03125 L 2.453125 0 L 2.171875 0 L 2.171875 -0.984375 C 2.171875 -1.148438 2.144531 -1.269531 2.09375 -1.34375 C 2.039062 -1.414062 1.960938 -1.453125 1.859375 -1.453125 C 1.742188 -1.453125 1.65625 -1.40625 1.59375 -1.3125 C 1.53125 -1.226562 1.5 -1.09375 1.5 -0.90625 L 1.5 0 L 1.21875 0 L 1.21875 -0.96875 C 1.21875 -1.132812 1.191406 -1.253906 1.140625 -1.328125 C 1.085938 -1.410156 1.015625 -1.453125 0.921875 -1.453125 C 0.796875 -1.453125 0.703125 -1.40625 0.640625 -1.3125 C 0.578125 -1.21875 0.546875 -1.070312 0.546875 -0.875 L 0.546875 0 L 0.265625 0 L 0.265625 -1.671875 L 0.546875 -1.671875 L 0.546875 -1.484375 L 0.5625 -1.484375 C 0.601562 -1.554688 0.65625 -1.613281 0.71875 -1.65625 C 0.789062 -1.695312 0.875 -1.71875 0.96875 -1.71875 C 1.0625 -1.71875 1.148438 -1.691406 1.234375 -1.640625 C 1.316406 -1.585938 1.378906 -1.519531 1.421875 -1.4375 Z M 1.421875 -1.4375 "/></g></g></g><g fill="#000000" fill-opacity="1"><g transform="translate(111.875383, 22.1119)"><g><path d="M 1.71875 -0.765625 L 0.40625 -0.765625 C 0.414062 -0.609375 0.472656 -0.476562 0.578125 -0.375 C 0.679688 -0.269531 0.804688 -0.21875 0.953125 -0.21875 C 1.066406 -0.21875 1.160156 -0.242188 1.234375 -0.296875 C 1.316406 -0.347656 1.394531 -0.4375 1.46875 -0.5625 L 1.703125 -0.421875 C 1.617188 -0.273438 1.507812 -0.160156 1.375 -0.078125 C 1.25 0.00390625 1.101562 0.046875 0.9375 0.046875 C 0.769531 0.046875 0.625 0.0078125 0.5 -0.0625 C 0.375 -0.144531 0.28125 -0.25 0.21875 -0.375 C 0.15625 -0.507812 0.125 -0.65625 0.125 -0.8125 C 0.125 -0.976562 0.15625 -1.128906 0.21875 -1.265625 C 0.28125 -1.410156 0.375 -1.519531 0.5 -1.59375 C 0.625 -1.675781 0.765625 -1.71875 0.921875 -1.71875 C 1.085938 -1.71875 1.226562 -1.675781 1.34375 -1.59375 C 1.46875 -1.519531 1.5625 -1.414062 1.625 -1.28125 C 1.6875 -1.144531 1.71875 -0.992188 1.71875 -0.828125 C 1.71875 -0.804688 1.71875 -0.785156 1.71875 -0.765625 Z M 1.421875 -1.015625 C 1.398438 -1.140625 1.34375 -1.242188 1.25 -1.328125 C 1.15625 -1.410156 1.050781 -1.453125 0.9375 -1.453125 C 0.820312 -1.453125 0.710938 -1.410156 0.609375 -1.328125 C 0.503906 -1.242188 0.441406 -1.140625 0.421875 -1.015625 Z M 1.421875 -1.015625 "/></g></g></g><g fill="#000000" fill-opacity="1"><g transform="translate(113.713075, 22.1119)"><g/></g></g><g fill="#000000" fill-opacity="1"><g transform="translate(114.803652, 22.1119)"><g><path d="M 1.8125 -1.671875 L 0.609375 -0.265625 L 1.765625 -0.265625 L 1.765625 0 L 0.03125 0 L 1.234375 -1.40625 L 0.265625 -1.40625 L 0.265625 -1.671875 Z M 1.8125 -1.671875 "/></g></g></g><g fill="#000000" fill-opacity="1"><g transform="translate(116.641345, 22.1119)"><g><path d="M 0.609375 -1.671875 L 0.609375 0 L 0.328125 0 L 0.328125 -1.671875 Z M 0.265625 -2.296875 C 0.265625 -2.347656 0.285156 -2.394531 0.328125 -2.4375 C 0.367188 -2.476562 0.414062 -2.5 0.46875 -2.5 C 0.519531 -2.5 0.566406 -2.476562 0.609375 -2.4375 C 0.648438 -2.394531 0.671875 -2.347656 0.671875 -2.296875 C 0.671875 -2.234375 0.648438 -2.179688 0.609375 -2.140625 C 0.566406 -2.109375 0.519531 -2.09375 0.46875 -2.09375 C 0.414062 -2.09375 0.367188 -2.109375 0.328125 -2.140625 C 0.285156 -2.179688 0.265625 -2.234375 0.265625 -2.296875 Z M 0.265625 -2.296875 "/></g></g></g><g fill="#000000" fill-opacity="1"><g transform="translate(117.569045, 22.1119)"><g><path d="M 1.484375 -1.421875 L 1.484375 -1.671875 L 1.78125 -1.671875 L 1.78125 0.0625 C 1.78125 0.34375 1.703125 0.554688 1.546875 0.703125 C 1.390625 0.847656 1.191406 0.921875 0.953125 0.921875 C 0.722656 0.921875 0.53125 0.847656 0.375 0.703125 C 0.21875 0.566406 0.140625 0.382812 0.140625 0.15625 L 0.421875 0.15625 C 0.421875 0.3125 0.46875 0.4375 0.5625 0.53125 C 0.664062 0.625 0.796875 0.671875 0.953125 0.671875 C 1.128906 0.671875 1.257812 0.613281 1.34375 0.5 C 1.4375 0.394531 1.484375 0.21875 1.484375 -0.03125 L 1.484375 -0.234375 C 1.421875 -0.148438 1.335938 -0.0820312 1.234375 -0.03125 C 1.128906 0.0195312 1.019531 0.046875 0.90625 0.046875 C 0.75 0.046875 0.609375 0.0078125 0.484375 -0.0625 C 0.367188 -0.144531 0.273438 -0.253906 0.203125 -0.390625 C 0.140625 -0.523438 0.109375 -0.671875 0.109375 -0.828125 C 0.109375 -0.992188 0.140625 -1.144531 0.203125 -1.28125 C 0.273438 -1.414062 0.375 -1.519531 0.5 -1.59375 C 0.625 -1.675781 0.765625 -1.71875 0.921875 -1.71875 C 1.035156 -1.71875 1.140625 -1.691406 1.234375 -1.640625 C 1.328125 -1.585938 1.410156 -1.515625 1.484375 -1.421875 Z M 0.9375 -1.453125 C 0.84375 -1.453125 0.753906 -1.425781 0.671875 -1.375 C 0.585938 -1.320312 0.519531 -1.25 0.46875 -1.15625 C 0.425781 -1.0625 0.40625 -0.957031 0.40625 -0.84375 C 0.40625 -0.664062 0.453125 -0.515625 0.546875 -0.390625 C 0.648438 -0.273438 0.785156 -0.21875 0.953125 -0.21875 C 1.117188 -0.21875 1.25 -0.273438 1.34375 -0.390625 C 1.445312 -0.515625 1.5 -0.664062 1.5 -0.84375 C 1.5 -1.019531 1.445312 -1.164062 1.34375 -1.28125 C 1.238281 -1.394531 1.101562 -1.453125 0.9375 -1.453125 Z M 0.9375 -1.453125 "/></g></g></g><g fill="#000000" fill-opacity="1"><g transform="translate(119.622729, 22.1119)"><g><path d="M 1.8125 -1.671875 L 0.609375 -0.265625 L 1.765625 -0.265625 L 1.765625 0 L 0.03125 0 L 1.234375 -1.40625 L 0.265625 -1.40625 L 0.265625 -1.671875 Z M 1.8125 -1.671875 "/></g></g></g><g fill="#000000" fill-opacity="1"><g transform="translate(121.460421, 22.1119)"><g><path d="M 1.5 -1.421875 L 1.5 -1.671875 L 1.796875 -1.671875 L 1.796875 0 L 1.5 0 L 1.5 -0.234375 C 1.351562 -0.046875 1.160156 0.046875 0.921875 0.046875 C 0.691406 0.046875 0.5 -0.0351562 0.34375 -0.203125 C 0.195312 -0.378906 0.125 -0.585938 0.125 -0.828125 C 0.125 -1.085938 0.195312 -1.300781 0.34375 -1.46875 C 0.5 -1.632812 0.691406 -1.71875 0.921875 -1.71875 C 1.046875 -1.71875 1.15625 -1.691406 1.25 -1.640625 C 1.34375 -1.585938 1.425781 -1.515625 1.5 -1.421875 Z M 0.96875 -1.453125 C 0.8125 -1.453125 0.679688 -1.394531 0.578125 -1.28125 C 0.472656 -1.164062 0.421875 -1.019531 0.421875 -0.84375 C 0.421875 -0.664062 0.472656 -0.515625 0.578125 -0.390625 C 0.679688 -0.273438 0.8125 -0.21875 0.96875 -0.21875 C 1.132812 -0.21875 1.265625 -0.273438 1.359375 -0.390625 C 1.460938 -0.503906 1.515625 -0.65625 1.515625 -0.84375 C 1.515625 -1.019531 1.460938 -1.164062 1.359375 -1.28125 C 1.253906 -1.394531 1.125 -1.453125 0.96875 -1.453125 Z M 0.96875 -1.453125 "/></g></g></g><g fill="#000000" fill-opacity="1"><g transform="translate(123.503483, 22.1119)"><g><path d="M 1.484375 -1.421875 L 1.484375 -1.671875 L 1.78125 -1.671875 L 1.78125 0.0625 C 1.78125 0.34375 1.703125 0.554688 1.546875 0.703125 C 1.390625 0.847656 1.191406 0.921875 0.953125 0.921875 C 0.722656 0.921875 0.53125 0.847656 0.375 0.703125 C 0.21875 0.566406 0.140625 0.382812 0.140625 0.15625 L 0.421875 0.15625 C 0.421875 0.3125 0.46875 0.4375 0.5625 0.53125 C 0.664062 0.625 0.796875 0.671875 0.953125 0.671875 C 1.128906 0.671875 1.257812 0.613281 1.34375 0.5 C 1.4375 0.394531 1.484375 0.21875 1.484375 -0.03125 L 1.484375 -0.234375 C 1.421875 -0.148438 1.335938 -0.0820312 1.234375 -0.03125 C 1.128906 0.0195312 1.019531 0.046875 0.90625 0.046875 C 0.75 0.046875 0.609375 0.0078125 0.484375 -0.0625 C 0.367188 -0.144531 0.273438 -0.253906 0.203125 -0.390625 C 0.140625 -0.523438 0.109375 -0.671875 0.109375 -0.828125 C 0.109375 -0.992188 0.140625 -1.144531 0.203125 -1.28125 C 0.273438 -1.414062 0.375 -1.519531 0.5 -1.59375 C 0.625 -1.675781 0.765625 -1.71875 0.921875 -1.71875 C 1.035156 -1.71875 1.140625 -1.691406 1.234375 -1.640625 C 1.328125 -1.585938 1.410156 -1.515625 1.484375 -1.421875 Z M 0.9375 -1.453125 C 0.84375 -1.453125 0.753906 -1.425781 0.671875 -1.375 C 0.585938 -1.320312 0.519531 -1.25 0.46875 -1.15625 C 0.425781 -1.0625 0.40625 -0.957031 0.40625 -0.84375 C 0.40625 -0.664062 0.453125 -0.515625 0.546875 -0.390625 C 0.648438 -0.273438 0.785156 -0.21875 0.953125 -0.21875 C 1.117188 -0.21875 1.25 -0.273438 1.34375 -0.390625 C 1.445312 -0.515625 1.5 -0.664062 1.5 -0.84375 C 1.5 -1.019531 1.445312 -1.164062 1.34375 -1.28125 C 1.238281 -1.394531 1.101562 -1.453125 0.9375 -1.453125 Z M 0.9375 -1.453125 "/></g></g></g></svg>