<svg xmlns="http://www.w3.org/2000/svg" xmlns:xlink="http://www.w3.org/1999/xlink" width="200" zoomAndPan="magnify" viewBox="0 0 150 56.249996" height="75" preserveAspectRatio="xMidYMid meet" version="1.0"><defs><clipPath id="778bf50372"><path d="M 4.554688 6.429688 L 144.070312 6.429688 L 144.070312 48.863281 L 4.554688 48.863281 Z M 4.554688 6.429688 " clip-rule="nonzero"/></clipPath><clipPath id="90ea41184a"><path d="M 8.539062 6.597656 L 140.191406 6.597656 C 141.203125 6.597656 142.175781 7 142.890625 7.714844 C 143.605469 8.429688 144.007812 9.402344 144.007812 10.414062 L 144.007812 45.046875 C 144.007812 46.058594 143.605469 47.03125 142.890625 47.746094 C 142.175781 48.460938 141.203125 48.863281 140.191406 48.863281 L 8.539062 48.863281 C 7.527344 48.863281 6.554688 48.460938 5.839844 47.746094 C 5.125 47.03125 4.722656 46.058594 4.722656 45.046875 L 4.722656 10.414062 C 4.722656 9.402344 5.125 8.429688 5.839844 7.714844 C 6.554688 7 7.527344 6.597656 8.539062 6.597656 Z M 8.539062 6.597656 " clip-rule="nonzero"/></clipPath><clipPath id="c53003d7d5"><path d="M 63 15 L 129 15 L 129 43.558594 L 63 43.558594 Z M 63 15 " clip-rule="nonzero"/></clipPath><clipPath id="b11f330b43"><path d="M 118 8 L 138.492188 8 L 138.492188 26 L 118 26 Z M 118 8 " clip-rule="nonzero"/></clipPath><clipPath id="a0ab48a9fd"><path d="M 107 2.113281 L 120 2.113281 L 120 13 L 107 13 Z M 107 2.113281 " clip-rule="nonzero"/></clipPath><clipPath id="6f2dbf4135"><path d="M 11.714844 12.21875 L 60.566406 12.21875 L 60.566406 44.785156 L 11.714844 44.785156 Z M 11.714844 12.21875 " clip-rule="nonzero"/></clipPath></defs><g clip-path="url(#778bf50372)"><g clip-path="url(#90ea41184a)"><path fill="#ffffff" d="M 4.722656 6.597656 L 144.070312 6.597656 L 144.070312 48.863281 L 4.722656 48.863281 Z M 4.722656 6.597656 " fill-opacity="1" fill-rule="nonzero"/></g></g><path fill="#feceab" d="M 120.265625 16.652344 L 68.503906 16.652344 C 66.128906 16.652344 64.183594 18.597656 64.183594 20.972656 L 64.183594 37.917969 C 64.183594 40.296875 66.128906 42.238281 68.503906 42.238281 L 122.996094 42.238281 C 125.371094 42.238281 127.316406 40.296875 127.316406 37.917969 L 127.316406 23.652344 C 126.773438 23.144531 126.214844 22.65625 125.644531 22.175781 C 124.914062 21.558594 124.164062 20.957031 123.433594 20.335938 C 122.21875 19.300781 120.953125 18.128906 120.265625 16.652344 Z M 100.6875 24.234375 C 102.414062 24.234375 103.828125 25.648438 103.828125 27.375 L 103.828125 31.015625 L 97.546875 31.015625 L 97.546875 27.375 C 97.546875 25.648438 98.960938 24.234375 100.6875 24.234375 Z M 81.738281 24.234375 C 83.464844 24.234375 84.878906 25.648438 84.878906 27.375 L 84.878906 31.519531 C 84.878906 33.246094 83.464844 34.660156 81.738281 34.660156 C 80.011719 34.660156 78.597656 33.246094 78.597656 31.519531 L 78.597656 27.375 C 78.59375 25.648438 80.007812 24.234375 81.738281 24.234375 Z M 69.117188 24.234375 L 72.261719 24.234375 C 73.988281 24.234375 75.402344 25.648438 75.402344 27.375 L 75.402344 31.519531 C 75.402344 33.246094 73.988281 34.660156 72.261719 34.660156 L 69.117188 34.660156 Z M 69.117188 24.234375 " fill-opacity="1" fill-rule="nonzero"/><path fill="#feceab" d="M 84.878906 27.375 C 84.878906 25.648438 83.464844 24.234375 81.738281 24.234375 C 80.011719 24.234375 78.597656 25.648438 78.597656 27.375 L 78.597656 31.519531 C 78.597656 33.246094 80.011719 34.660156 81.738281 34.660156 C 83.464844 34.660156 84.878906 33.246094 84.878906 31.519531 Z M 84.878906 27.375 " fill-opacity="1" fill-rule="nonzero"/><path fill="#feceab" d="M 75.402344 31.519531 L 75.402344 27.375 C 75.402344 25.648438 73.988281 24.234375 72.261719 24.234375 L 69.117188 24.234375 L 69.117188 34.660156 L 72.261719 34.660156 C 73.988281 34.660156 75.402344 33.246094 75.402344 31.519531 Z M 75.402344 31.519531 " fill-opacity="1" fill-rule="nonzero"/><path fill="#feceab" d="M 97.546875 27.375 L 97.546875 31.015625 L 103.828125 31.015625 L 103.828125 27.375 C 103.828125 25.648438 102.414062 24.234375 100.6875 24.234375 C 98.960938 24.234375 97.546875 25.648438 97.546875 27.375 Z M 97.546875 27.375 " fill-opacity="1" fill-rule="nonzero"/><path fill="#e11f49" d="M 112.125 10.347656 C 112.574219 10.726562 113.011719 11.117188 113.425781 11.53125 C 113.554688 11.660156 113.765625 11.660156 113.894531 11.53125 C 114.308594 11.117188 114.75 10.726562 115.195312 10.347656 C 115.597656 10.007812 116.011719 9.679688 116.410156 9.335938 C 117.097656 8.753906 117.808594 8.09375 118.179688 7.257812 C 118.371094 6.832031 118.457031 6.386719 118.457031 5.917969 C 118.457031 4.503906 117.308594 3.355469 115.894531 3.355469 C 114.785156 3.355469 114.15625 3.867188 113.660156 4.675781 C 113.160156 3.863281 112.535156 3.355469 111.425781 3.355469 C 110.007812 3.355469 108.863281 4.503906 108.863281 5.917969 C 108.863281 6.386719 108.953125 6.832031 109.140625 7.257812 C 109.511719 8.09375 110.222656 8.753906 110.90625 9.335938 C 111.308594 9.679688 111.71875 10.011719 112.125 10.347656 Z M 112.125 10.347656 " fill-opacity="1" fill-rule="evenodd"/><path fill="#e11f49" d="M 119.714844 14.128906 C 119.714844 14.976562 119.878906 15.785156 120.222656 16.558594 C 120.238281 16.589844 120.25 16.621094 120.265625 16.652344 C 120.953125 18.125 122.21875 19.296875 123.433594 20.335938 C 124.164062 20.957031 124.914062 21.558594 125.644531 22.175781 C 126.214844 22.65625 126.773438 23.144531 127.316406 23.652344 C 127.550781 23.875 127.785156 24.101562 128.011719 24.328125 C 128.246094 24.5625 128.628906 24.5625 128.863281 24.328125 C 129.617188 23.574219 130.414062 22.867188 131.226562 22.175781 C 131.960938 21.558594 132.710938 20.957031 133.4375 20.335938 C 134.683594 19.277344 135.976562 18.078125 136.652344 16.558594 C 136.996094 15.785156 137.160156 14.976562 137.160156 14.128906 C 137.160156 11.558594 135.070312 9.46875 132.496094 9.46875 C 130.484375 9.46875 129.347656 10.398438 128.4375 11.871094 C 127.53125 10.398438 126.390625 9.46875 124.375 9.46875 C 121.804688 9.46875 119.714844 11.558594 119.714844 14.128906 Z M 119.714844 14.128906 " fill-opacity="1" fill-rule="evenodd"/><g clip-path="url(#c53003d7d5)"><path fill="#303030" d="M 122.996094 43.414062 L 68.503906 43.414062 C 65.472656 43.414062 63.007812 40.949219 63.007812 37.917969 L 63.007812 20.972656 C 63.007812 17.941406 65.472656 15.476562 68.503906 15.476562 L 120.265625 15.476562 C 120.722656 15.476562 121.140625 15.742188 121.332031 16.15625 C 121.929688 17.441406 123.125 18.523438 124.195312 19.4375 C 124.589844 19.773438 124.984375 20.097656 125.382812 20.425781 C 125.722656 20.707031 126.066406 20.988281 126.402344 21.277344 C 127.050781 21.820312 127.613281 22.316406 128.117188 22.792969 C 128.355469 23.015625 128.492188 23.328125 128.492188 23.652344 L 128.492188 37.917969 C 128.492188 40.949219 126.027344 43.414062 122.996094 43.414062 Z M 68.503906 17.832031 C 66.769531 17.832031 65.359375 19.242188 65.359375 20.972656 L 65.359375 37.917969 C 65.359375 39.652344 66.769531 41.0625 68.503906 41.0625 L 122.996094 41.0625 C 124.726562 41.0625 126.136719 39.652344 126.136719 37.917969 L 126.136719 24.167969 C 125.761719 23.824219 125.347656 23.464844 124.886719 23.074219 C 124.554688 22.796875 124.21875 22.519531 123.882812 22.242188 C 123.476562 21.90625 123.074219 21.570312 122.671875 21.230469 C 121.582031 20.304688 120.378906 19.214844 119.554688 17.832031 Z M 68.503906 17.832031 " fill-opacity="1" fill-rule="nonzero"/></g><path fill="#303030" d="M 72.261719 35.835938 L 69.117188 35.835938 C 68.46875 35.835938 67.941406 35.308594 67.941406 34.660156 L 67.941406 24.234375 C 67.941406 23.585938 68.46875 23.058594 69.117188 23.058594 L 72.261719 23.058594 C 74.640625 23.058594 76.578125 24.996094 76.578125 27.375 L 76.578125 31.519531 C 76.578125 33.898438 74.640625 35.835938 72.261719 35.835938 Z M 70.296875 33.484375 L 72.261719 33.484375 C 73.34375 33.484375 74.222656 32.601562 74.222656 31.519531 L 74.222656 27.375 C 74.222656 26.292969 73.34375 25.410156 72.261719 25.410156 L 70.296875 25.410156 Z M 70.296875 33.484375 " fill-opacity="1" fill-rule="nonzero"/><path fill="#303030" d="M 81.738281 35.835938 C 79.355469 35.835938 77.417969 33.898438 77.417969 31.519531 L 77.417969 27.375 C 77.417969 24.996094 79.355469 23.058594 81.738281 23.058594 C 84.117188 23.058594 86.054688 24.996094 86.054688 27.375 L 86.054688 31.519531 C 86.054688 33.898438 84.117188 35.835938 81.738281 35.835938 Z M 81.738281 25.410156 C 80.652344 25.410156 79.773438 26.292969 79.773438 27.375 L 79.773438 31.519531 C 79.773438 32.601562 80.652344 33.484375 81.738281 33.484375 C 82.820312 33.484375 83.699219 32.601562 83.699219 31.519531 L 83.699219 27.375 C 83.699219 26.292969 82.816406 25.410156 81.738281 25.410156 Z M 81.738281 25.410156 " fill-opacity="1" fill-rule="nonzero"/><path fill="#303030" d="M 94.351562 35.835938 C 93.703125 35.835938 93.175781 35.308594 93.175781 34.660156 L 93.175781 24.234375 C 93.175781 23.585938 93.703125 23.058594 94.351562 23.058594 C 95.003906 23.058594 95.53125 23.585938 95.53125 24.234375 L 95.53125 34.660156 C 95.53125 35.308594 95.003906 35.835938 94.351562 35.835938 Z M 88.070312 35.835938 C 87.421875 35.835938 86.894531 35.308594 86.894531 34.660156 L 86.894531 24.234375 C 86.894531 23.585938 87.421875 23.058594 88.070312 23.058594 C 88.722656 23.058594 89.25 23.585938 89.25 24.234375 L 89.25 34.660156 C 89.25 35.308594 88.722656 35.835938 88.070312 35.835938 Z M 88.070312 35.835938 " fill-opacity="1" fill-rule="nonzero"/><path fill="#303030" d="M 94.355469 35.835938 C 93.957031 35.835938 93.566406 35.632812 93.347656 35.265625 L 87.0625 24.839844 C 86.730469 24.285156 86.910156 23.5625 87.464844 23.226562 C 88.019531 22.890625 88.742188 23.070312 89.082031 23.625 L 95.363281 34.050781 C 95.699219 34.605469 95.519531 35.332031 94.960938 35.667969 C 94.769531 35.78125 94.5625 35.835938 94.355469 35.835938 Z M 94.355469 35.835938 " fill-opacity="1" fill-rule="nonzero"/><path fill="#303030" d="M 103.828125 35.835938 C 103.179688 35.835938 102.652344 35.308594 102.652344 34.660156 L 102.652344 27.375 C 102.652344 26.292969 101.769531 25.410156 100.6875 25.410156 C 99.605469 25.410156 98.722656 26.292969 98.722656 27.375 L 98.722656 34.660156 C 98.722656 35.308594 98.195312 35.835938 97.546875 35.835938 C 96.898438 35.835938 96.371094 35.308594 96.371094 34.660156 L 96.371094 27.375 C 96.371094 24.996094 98.308594 23.058594 100.6875 23.058594 C 103.066406 23.058594 105.003906 24.996094 105.003906 27.375 L 105.003906 34.660156 C 105.003906 35.308594 104.480469 35.835938 103.828125 35.835938 Z M 103.828125 35.835938 " fill-opacity="1" fill-rule="nonzero"/><path fill="#303030" d="M 103.828125 32.195312 L 97.546875 32.195312 C 96.898438 32.195312 96.371094 31.667969 96.371094 31.015625 C 96.371094 30.367188 96.898438 29.839844 97.546875 29.839844 L 103.828125 29.839844 C 104.476562 29.839844 105.003906 30.367188 105.003906 31.015625 C 105.003906 31.667969 104.480469 32.195312 103.828125 32.195312 Z M 103.828125 32.195312 " fill-opacity="1" fill-rule="nonzero"/><path fill="#303030" d="M 110.566406 35.835938 C 109.914062 35.835938 109.386719 35.308594 109.386719 34.660156 L 109.386719 24.234375 C 109.386719 23.585938 109.914062 23.058594 110.566406 23.058594 C 111.214844 23.058594 111.742188 23.585938 111.742188 24.234375 L 111.742188 34.660156 C 111.742188 35.308594 111.214844 35.835938 110.566406 35.835938 Z M 110.566406 35.835938 " fill-opacity="1" fill-rule="nonzero"/><path fill="#303030" d="M 114.105469 25.410156 L 107.023438 25.410156 C 106.371094 25.410156 105.84375 24.882812 105.84375 24.234375 C 105.84375 23.585938 106.371094 23.058594 107.023438 23.058594 L 114.105469 23.058594 C 114.757812 23.058594 115.285156 23.585938 115.285156 24.234375 C 115.285156 24.882812 114.757812 25.410156 114.105469 25.410156 Z M 114.105469 25.410156 " fill-opacity="1" fill-rule="nonzero"/><path fill="#303030" d="M 122.378906 35.835938 L 117.300781 35.835938 C 116.652344 35.835938 116.125 35.308594 116.125 34.660156 L 116.125 24.234375 C 116.125 23.585938 116.652344 23.058594 117.300781 23.058594 L 122.378906 23.058594 C 123.03125 23.058594 123.558594 23.585938 123.558594 24.234375 C 123.558594 24.882812 123.03125 25.410156 122.378906 25.410156 L 118.476562 25.410156 L 118.476562 33.484375 L 122.378906 33.484375 C 123.03125 33.484375 123.558594 34.011719 123.558594 34.660156 C 123.558594 35.308594 123.03125 35.835938 122.378906 35.835938 Z M 122.378906 35.835938 " fill-opacity="1" fill-rule="nonzero"/><path fill="#303030" d="M 122.378906 30.625 L 117.300781 30.625 C 116.652344 30.625 116.125 30.097656 116.125 29.449219 C 116.125 28.796875 116.652344 28.269531 117.300781 28.269531 L 122.378906 28.269531 C 123.03125 28.269531 123.558594 28.796875 123.558594 29.449219 C 123.558594 30.097656 123.03125 30.625 122.378906 30.625 Z M 122.378906 30.625 " fill-opacity="1" fill-rule="nonzero"/><g clip-path="url(#b11f330b43)"><path fill="#303030" d="M 128.4375 25.679688 C 127.980469 25.679688 127.527344 25.507812 127.179688 25.164062 C 126.53125 24.511719 125.800781 23.851562 124.886719 23.078125 C 124.558594 22.796875 124.222656 22.523438 123.886719 22.246094 C 123.480469 21.910156 123.074219 21.574219 122.671875 21.234375 C 121.378906 20.132812 119.933594 18.808594 119.148438 17.039062 C 118.742188 16.128906 118.539062 15.152344 118.539062 14.128906 C 118.539062 10.910156 121.160156 8.292969 124.375 8.292969 C 126.320312 8.292969 127.582031 9.050781 128.4375 9.933594 C 129.292969 9.050781 130.550781 8.292969 132.496094 8.292969 C 135.714844 8.292969 138.335938 10.910156 138.335938 14.128906 C 138.335938 15.152344 138.132812 16.128906 137.726562 17.039062 C 136.941406 18.808594 135.496094 20.132812 134.203125 21.234375 C 133.800781 21.574219 133.398438 21.90625 132.992188 22.242188 C 132.65625 22.519531 132.320312 22.796875 131.988281 23.074219 C 131.074219 23.847656 130.34375 24.511719 129.695312 25.160156 C 129.347656 25.507812 128.894531 25.679688 128.4375 25.679688 Z M 124.375 10.644531 C 122.457031 10.644531 120.894531 12.210938 120.894531 14.128906 C 120.894531 14.832031 121.027344 15.46875 121.296875 16.082031 C 121.882812 17.402344 123.101562 18.507812 124.195312 19.441406 C 124.589844 19.777344 124.984375 20.101562 125.382812 20.429688 C 125.722656 20.710938 126.066406 20.992188 126.402344 21.28125 C 127.1875 21.941406 127.84375 22.527344 128.4375 23.097656 C 129.03125 22.527344 129.6875 21.941406 130.46875 21.28125 C 130.808594 20.992188 131.152344 20.710938 131.492188 20.425781 C 131.886719 20.101562 132.28125 19.773438 132.675781 19.441406 C 133.769531 18.507812 134.992188 17.402344 135.574219 16.085938 C 135.847656 15.472656 135.980469 14.832031 135.980469 14.132812 C 135.980469 12.210938 134.417969 10.648438 132.496094 10.648438 C 131.09375 10.648438 130.265625 11.148438 129.4375 12.488281 C 129.222656 12.835938 128.847656 13.050781 128.4375 13.050781 C 128.027344 13.050781 127.652344 12.835938 127.4375 12.488281 C 126.609375 11.144531 125.777344 10.644531 124.375 10.644531 Z M 124.375 10.644531 " fill-opacity="1" fill-rule="nonzero"/></g><g clip-path="url(#a0ab48a9fd)"><path fill="#303030" d="M 113.660156 12.808594 C 113.273438 12.808594 112.886719 12.660156 112.59375 12.367188 C 112.246094 12.019531 111.855469 11.664062 111.363281 11.25 C 111.183594 11.097656 111 10.945312 110.816406 10.792969 C 110.589844 10.605469 110.367188 10.421875 110.144531 10.234375 C 109.386719 9.589844 108.542969 8.8125 108.0625 7.734375 C 107.8125 7.167969 107.683594 6.558594 107.683594 5.921875 C 107.683594 3.859375 109.363281 2.179688 111.425781 2.179688 C 112.296875 2.179688 113.039062 2.417969 113.660156 2.90625 C 114.28125 2.417969 115.023438 2.179688 115.894531 2.179688 C 117.957031 2.179688 119.632812 3.859375 119.632812 5.921875 C 119.632812 6.558594 119.503906 7.171875 119.253906 7.738281 C 118.777344 8.8125 117.929688 9.589844 117.175781 10.234375 C 116.953125 10.421875 116.726562 10.605469 116.503906 10.792969 C 116.320312 10.945312 116.136719 11.09375 115.953125 11.25 C 115.464844 11.664062 115.074219 12.019531 114.726562 12.367188 C 114.433594 12.660156 114.046875 12.808594 113.660156 12.808594 Z M 111.425781 4.535156 C 110.660156 4.535156 110.039062 5.15625 110.039062 5.921875 C 110.039062 6.230469 110.09375 6.511719 110.214844 6.78125 C 110.492188 7.40625 111.113281 7.96875 111.671875 8.441406 C 111.882812 8.621094 112.097656 8.800781 112.3125 8.976562 C 112.503906 9.136719 112.695312 9.292969 112.882812 9.453125 C 113.167969 9.695312 113.425781 9.917969 113.660156 10.132812 C 113.894531 9.917969 114.152344 9.695312 114.4375 9.453125 C 114.625 9.292969 114.816406 9.136719 115.003906 8.976562 C 115.21875 8.800781 115.4375 8.621094 115.648438 8.441406 C 116.207031 7.96875 116.828125 7.40625 117.105469 6.785156 C 117.222656 6.515625 117.28125 6.234375 117.28125 5.921875 C 117.28125 5.15625 116.660156 4.535156 115.894531 4.535156 C 115.316406 4.535156 115.019531 4.722656 114.664062 5.296875 C 114.449219 5.644531 114.066406 5.859375 113.660156 5.859375 C 113.253906 5.859375 112.875 5.644531 112.660156 5.296875 C 112.300781 4.71875 112.003906 4.535156 111.425781 4.535156 Z M 111.425781 4.535156 " fill-opacity="1" fill-rule="nonzero"/></g><g clip-path="url(#6f2dbf4135)"><path fill="#000000" d="M 57.371094 12.210938 C 57.324219 12.210938 57.28125 12.21875 57.238281 12.230469 L 51.6875 13.675781 C 51.421875 13.746094 51.261719 14.019531 51.332031 14.289062 L 51.632812 15.378906 L 50.214844 15.753906 C 46.75 15.75 43.28125 15.738281 39.816406 15.734375 C 39.808594 15.734375 39.800781 15.734375 39.792969 15.734375 C 39.257812 15.757812 38.746094 15.976562 38.363281 16.347656 C 38.347656 16.355469 38.335938 16.367188 38.324219 16.378906 C 38.027344 16.671875 37.730469 16.957031 37.4375 17.25 C 37.140625 17.542969 36.839844 17.832031 36.542969 18.125 C 36.246094 18.414062 35.953125 18.707031 35.65625 18.996094 C 35.359375 19.289062 35.058594 19.578125 34.761719 19.871094 C 34.46875 20.164062 34.171875 20.449219 33.875 20.742188 C 33.855469 20.761719 33.835938 20.777344 33.820312 20.796875 C 33.542969 20.621094 33.238281 20.488281 32.917969 20.398438 L 32.914062 20.398438 C 32.453125 20.28125 31.988281 20.261719 31.542969 20.332031 C 30.203125 20.546875 29.035156 21.554688 28.648438 22.964844 C 28.007812 25.308594 28.949219 27.480469 29.996094 29.027344 C 31.046875 30.578125 32.253906 31.566406 32.253906 31.566406 C 32.367188 31.664062 32.519531 31.699219 32.664062 31.675781 C 32.664062 31.675781 32.773438 31.65625 32.945312 31.617188 C 33.117188 31.582031 33.363281 31.523438 33.660156 31.4375 C 33.960938 31.351562 34.308594 31.242188 34.691406 31.101562 C 35.074219 30.960938 35.488281 30.792969 35.914062 30.585938 C 36.335938 30.378906 36.773438 30.132812 37.199219 29.851562 C 37.308594 29.78125 37.414062 29.707031 37.515625 29.632812 C 37.621094 29.554688 37.726562 29.472656 37.828125 29.390625 C 37.933594 29.308594 38.035156 29.226562 38.132812 29.136719 C 38.234375 29.050781 38.332031 28.960938 38.429688 28.863281 C 38.480469 28.820312 38.523438 28.769531 38.570312 28.722656 C 38.621094 28.671875 38.667969 28.625 38.714844 28.578125 C 38.746094 28.539062 38.777344 28.503906 38.8125 28.464844 C 38.859375 28.453125 38.90625 28.433594 38.953125 28.417969 L 45.789062 26.609375 C 46.519531 26.445312 47 25.992188 47.425781 25.765625 C 47.433594 25.761719 47.441406 25.757812 47.449219 25.75 C 49.019531 24.796875 50.585938 23.84375 52.15625 22.894531 L 53.59375 22.511719 L 53.890625 23.578125 C 53.960938 23.847656 54.242188 24.007812 54.511719 23.9375 L 60.058594 22.488281 C 60.332031 22.417969 60.492188 22.144531 60.414062 21.878906 L 57.859375 12.585938 C 57.800781 12.367188 57.601562 12.214844 57.371094 12.210938 Z M 36.132812 12.722656 C 33.398438 12.71875 30.667969 13.410156 28.289062 14.777344 C 28.285156 14.777344 28.285156 14.777344 28.285156 14.78125 C 22.972656 17.71875 19.777344 23.851562 20.480469 29.832031 C 20.5 30.113281 20.757812 30.324219 21.042969 30.289062 C 21.328125 30.261719 21.527344 30 21.484375 29.71875 C 20.835938 24.160156 23.847656 18.378906 28.789062 15.648438 L 28.789062 15.644531 L 28.796875 15.644531 C 32.695312 13.398438 37.675781 13.105469 41.828125 14.863281 C 42.085938 14.980469 42.390625 14.863281 42.503906 14.605469 C 42.617188 14.347656 42.492188 14.042969 42.226562 13.941406 C 40.554688 13.234375 38.765625 12.835938 36.960938 12.742188 C 36.773438 12.734375 36.585938 12.726562 36.398438 12.722656 C 36.308594 12.722656 36.222656 12.722656 36.132812 12.722656 Z M 40.890625 20.828125 C 41.410156 20.84375 41.875 21.199219 42.019531 21.738281 C 42.203125 22.402344 41.820312 23.054688 41.164062 23.230469 L 39.976562 23.542969 C 39.941406 23.46875 39.90625 23.390625 39.863281 23.316406 C 39.757812 23.121094 39.632812 22.9375 39.488281 22.765625 C 39.347656 22.59375 39.1875 22.4375 39.007812 22.296875 C 38.832031 22.15625 38.640625 22.03125 38.4375 21.925781 C 38.375 21.894531 38.308594 21.867188 38.242188 21.835938 C 38.402344 21.683594 38.5625 21.523438 38.71875 21.367188 L 40.527344 20.871094 C 40.652344 20.835938 40.773438 20.824219 40.890625 20.828125 Z M 50.984375 24.703125 C 50.664062 24.714844 50.433594 25.011719 50.507812 25.320312 C 51.6875 30.6875 49.402344 36.628906 44.902344 39.871094 L 44.894531 39.875 C 40.433594 43.238281 34.015625 43.695312 29.105469 41.007812 C 28.859375 40.867188 28.546875 40.953125 28.410156 41.199219 C 28.273438 41.441406 28.363281 41.753906 28.613281 41.882812 C 33.890625 44.769531 40.710938 44.285156 45.507812 40.671875 C 50.34375 37.1875 52.765625 30.882812 51.496094 25.109375 C 51.449219 24.867188 51.234375 24.699219 50.984375 24.707031 Z M 40.5 30.074219 C 40.210938 30.082031 39.917969 30.148438 39.640625 30.28125 C 39.632812 30.289062 39.625 30.292969 39.617188 30.296875 C 37.597656 31.417969 35.597656 32.5625 33.597656 33.691406 C 33.4375 32.632812 32.503906 31.808594 31.386719 31.808594 L 21.730469 31.78125 C 21.636719 31.78125 21.542969 31.789062 21.453125 31.796875 C 21.449219 31.796875 21.445312 31.796875 21.441406 31.796875 C 21.4375 31.796875 21.433594 31.800781 21.429688 31.800781 C 21.40625 31.800781 21.378906 31.804688 21.355469 31.808594 C 21.339844 31.8125 21.324219 31.816406 21.3125 31.816406 C 21.292969 31.820312 21.269531 31.824219 21.253906 31.832031 C 21.234375 31.832031 21.214844 31.839844 21.199219 31.839844 C 21.183594 31.847656 21.167969 31.847656 21.152344 31.855469 C 21.128906 31.859375 21.109375 31.863281 21.085938 31.871094 C 21.074219 31.875 21.0625 31.878906 21.046875 31.882812 C 21.023438 31.890625 21 31.898438 20.976562 31.90625 C 20.96875 31.910156 20.960938 31.914062 20.953125 31.914062 C 20.925781 31.925781 20.894531 31.933594 20.863281 31.949219 C 20.863281 31.949219 20.859375 31.949219 20.859375 31.949219 C 20.769531 31.988281 20.6875 32.027344 20.601562 32.074219 L 18.875 33.050781 L 18.4375 33.300781 L 18.324219 32.894531 C 18.253906 32.628906 17.972656 32.472656 17.703125 32.539062 L 12.15625 33.988281 C 11.882812 34.0625 11.726562 34.335938 11.800781 34.601562 L 14.355469 43.894531 C 14.429688 44.160156 14.707031 44.320312 14.976562 44.246094 L 20.527344 42.800781 C 20.796875 42.730469 20.953125 42.457031 20.882812 42.1875 L 20.722656 41.605469 L 21.390625 41.226562 L 23.117188 40.246094 C 23.210938 40.195312 23.304688 40.15625 23.40625 40.128906 C 23.503906 40.105469 23.605469 40.089844 23.710938 40.089844 L 30.515625 40.105469 C 30.515625 40.105469 30.515625 40.105469 30.519531 40.105469 C 30.914062 40.128906 31.304688 40.046875 31.652344 39.871094 C 31.660156 39.863281 31.667969 39.863281 31.675781 39.855469 C 34.949219 38.011719 38.21875 36.152344 41.492188 34.300781 C 42.425781 33.871094 43.003906 32.839844 42.746094 31.808594 C 42.539062 30.796875 41.609375 30.101562 40.625 30.074219 C 40.582031 30.074219 40.542969 30.074219 40.5 30.074219 Z M 40.5 30.074219 " fill-opacity="1" fill-rule="nonzero"/></g><path fill="#4cbbb9" d="M 57.011719 13.324219 L 55.21875 13.792969 L 55.429688 14.558594 L 55.742188 15.6875 C 55.824219 15.960938 55.664062 16.242188 55.390625 16.316406 C 55.113281 16.390625 54.832031 16.226562 54.761719 15.953125 L 54.449219 14.820312 L 54.238281 14.046875 L 52.445312 14.515625 L 54.734375 22.839844 L 59.304688 21.652344 Z M 55.726562 17.019531 C 56.011719 17.011719 56.246094 17.238281 56.242188 17.519531 C 56.242188 17.804688 56.003906 18.027344 55.71875 18.019531 C 55.429688 18.027344 55.191406 17.800781 55.191406 17.519531 C 55.191406 17.234375 55.429688 17.007812 55.71875 17.019531 C 55.71875 17.019531 55.722656 17.019531 55.726562 17.019531 Z M 55.726562 17.019531 " fill-opacity="1" fill-rule="nonzero"/><path fill="#e8505b" d="M 32.050781 21.292969 C 32.25 21.292969 32.453125 21.3125 32.652344 21.367188 C 33.46875 21.582031 34.109375 22.230469 34.332031 23.089844 C 34.433594 23.46875 34.90625 23.59375 35.183594 23.316406 C 35.820312 22.679688 36.703125 22.433594 37.519531 22.644531 C 37.679688 22.6875 37.832031 22.746094 37.972656 22.820312 C 38.117188 22.890625 38.25 22.972656 38.371094 23.074219 C 38.492188 23.171875 38.609375 23.28125 38.707031 23.402344 C 38.808594 23.523438 38.898438 23.652344 38.976562 23.792969 C 38.976562 23.800781 38.976562 23.800781 38.980469 23.808594 L 38.933594 23.820312 C 38.929688 23.820312 38.929688 23.820312 38.929688 23.820312 C 37.722656 24.152344 38.433594 23.929688 37.230469 24.292969 C 37.21875 24.296875 37.207031 24.304688 37.195312 24.308594 C 35.84375 24.835938 35.402344 26.605469 36.324219 27.714844 C 36.601562 28.078125 36.972656 28.324219 37.382812 28.453125 C 37.320312 28.507812 37.257812 28.5625 37.195312 28.613281 C 37.101562 28.6875 37.011719 28.753906 36.917969 28.824219 C 36.824219 28.894531 36.726562 28.957031 36.632812 29.019531 C 36.25 29.277344 35.855469 29.5 35.464844 29.6875 C 35.074219 29.875 34.691406 30.035156 34.339844 30.164062 C 33.984375 30.296875 33.660156 30.398438 33.382812 30.472656 C 33.109375 30.554688 32.886719 30.605469 32.734375 30.640625 C 32.511719 30.445312 31.679688 29.714844 30.839844 28.472656 C 29.878906 27.054688 29.09375 25.179688 29.628906 23.226562 C 29.949219 22.058594 30.96875 21.296875 32.050781 21.292969 Z M 32.050781 21.292969 " fill-opacity="1" fill-rule="nonzero"/><path fill="#96bb7c" d="M 17.480469 33.636719 L 15.683594 34.105469 L 15.894531 34.871094 L 16.207031 36.003906 C 16.289062 36.269531 16.128906 36.554688 15.851562 36.628906 C 15.578125 36.699219 15.296875 36.535156 15.226562 36.265625 L 14.917969 35.132812 L 14.707031 34.359375 L 12.910156 34.828125 L 15.203125 43.15625 L 19.769531 41.960938 Z M 16.183594 37.328125 C 16.863281 37.328125 16.863281 38.328125 16.183594 38.328125 C 15.507812 38.328125 15.507812 37.328125 16.183594 37.328125 Z M 16.183594 37.328125 " fill-opacity="1" fill-rule="nonzero"/><path fill="#feceab" d="M 51.898438 16.347656 L 50.433594 16.734375 C 50.433594 16.734375 50.433594 16.734375 50.429688 16.734375 L 50.414062 16.738281 C 50.40625 16.742188 50.398438 16.742188 50.394531 16.746094 C 50.386719 16.746094 50.386719 16.746094 50.378906 16.746094 C 50.328125 16.757812 50.269531 16.761719 50.210938 16.757812 C 46.753906 16.75 43.296875 16.738281 39.839844 16.738281 C 39.550781 16.746094 39.253906 16.878906 39.046875 17.082031 C 39.042969 17.085938 39.042969 17.085938 39.039062 17.089844 C 38.746094 17.378906 38.449219 17.671875 38.148438 17.960938 C 37.851562 18.253906 37.554688 18.542969 37.261719 18.832031 C 36.964844 19.125 36.664062 19.417969 36.367188 19.707031 C 36.070312 20 35.773438 20.289062 35.480469 20.582031 C 35.183594 20.871094 34.882812 21.164062 34.585938 21.453125 C 34.585938 21.457031 34.582031 21.460938 34.578125 21.460938 C 34.757812 21.675781 34.914062 21.910156 35.042969 22.164062 C 35.652344 21.765625 36.363281 21.550781 37.078125 21.578125 C 37.222656 21.433594 37.367188 21.292969 37.511719 21.148438 C 37.6875 20.972656 37.863281 20.796875 38.042969 20.621094 C 38.089844 20.554688 38.15625 20.503906 38.226562 20.46875 C 38.273438 20.445312 38.324219 20.429688 38.375 20.421875 L 40.253906 19.90625 C 40.550781 19.824219 40.855469 19.808594 41.140625 19.847656 C 42.007812 19.96875 42.761719 20.597656 43 21.480469 C 43.320312 22.65625 42.617188 23.882812 41.425781 24.199219 L 39.199219 24.785156 L 39.195312 24.785156 C 38.011719 25.113281 38.664062 24.910156 37.5625 25.242188 C 36.902344 25.507812 36.644531 26.53125 37.109375 27.085938 C 37.117188 27.09375 37.121094 27.101562 37.128906 27.109375 C 37.449219 27.539062 38.105469 27.671875 38.625 27.46875 C 38.640625 27.464844 38.660156 27.460938 38.675781 27.453125 L 45.492188 25.648438 C 45.503906 25.648438 45.511719 25.644531 45.523438 25.644531 L 45.523438 25.640625 C 45.539062 25.636719 45.558594 25.632812 45.574219 25.632812 C 45.960938 25.539062 46.371094 25.195312 46.9375 24.886719 C 46.9375 24.886719 46.941406 24.886719 46.941406 24.886719 C 48.523438 23.925781 50.097656 22.96875 51.675781 22.011719 C 51.6875 22.003906 51.699219 21.996094 51.710938 21.988281 C 51.71875 21.984375 51.71875 21.984375 51.726562 21.984375 C 51.730469 21.980469 51.734375 21.976562 51.742188 21.976562 C 51.78125 21.957031 51.824219 21.941406 51.871094 21.933594 L 53.328125 21.546875 Z M 40.566406 31.09375 C 40.53125 31.089844 40.496094 31.089844 40.460938 31.09375 C 40.332031 31.097656 40.207031 31.128906 40.085938 31.183594 C 37.867188 32.417969 35.65625 33.6875 33.4375 34.941406 C 33.421875 34.945312 33.414062 34.949219 33.402344 34.953125 C 33.042969 35.691406 32.273438 36.203125 31.390625 36.203125 L 26.566406 36.1875 L 25.359375 36.183594 C 25.070312 36.195312 24.832031 35.964844 24.832031 35.683594 C 24.835938 35.398438 25.074219 35.171875 25.359375 35.183594 L 26.570312 35.1875 L 31.394531 35.199219 C 32.078125 35.203125 32.609375 34.679688 32.605469 34.007812 C 32.605469 33.339844 32.066406 32.808594 31.382812 32.808594 L 21.726562 32.78125 C 21.667969 32.78125 21.609375 32.785156 21.550781 32.792969 C 21.519531 32.796875 21.492188 32.804688 21.460938 32.808594 C 21.441406 32.8125 21.425781 32.816406 21.410156 32.820312 C 21.390625 32.828125 21.367188 32.832031 21.351562 32.835938 C 21.324219 32.84375 21.300781 32.855469 21.277344 32.867188 C 21.21875 32.886719 21.160156 32.910156 21.105469 32.941406 L 19.378906 33.921875 L 18.710938 34.296875 L 20.445312 40.605469 L 20.886719 40.355469 L 22.613281 39.378906 C 22.664062 39.347656 22.722656 39.324219 22.773438 39.296875 C 22.796875 39.28125 22.820312 39.273438 22.84375 39.261719 C 22.933594 39.226562 23.019531 39.195312 23.113281 39.167969 C 23.121094 39.167969 23.132812 39.167969 23.140625 39.164062 C 23.152344 39.160156 23.164062 39.15625 23.179688 39.152344 C 23.269531 39.132812 23.359375 39.113281 23.453125 39.101562 C 23.480469 39.101562 23.503906 39.097656 23.53125 39.097656 C 23.59375 39.09375 23.652344 39.089844 23.714844 39.089844 L 30.503906 39.101562 C 30.507812 39.101562 30.507812 39.101562 30.511719 39.101562 L 30.519531 39.101562 C 30.53125 39.101562 30.539062 39.101562 30.546875 39.101562 C 30.550781 39.101562 30.554688 39.101562 30.554688 39.101562 C 30.773438 39.117188 30.996094 39.074219 31.1875 38.976562 C 34.457031 37.132812 37.722656 35.28125 40.988281 33.433594 C 41.003906 33.425781 41.019531 33.417969 41.039062 33.410156 C 41.554688 33.183594 41.902344 32.570312 41.765625 32.039062 C 41.761719 32.03125 41.761719 32.019531 41.757812 32.011719 C 41.65625 31.5 41.101562 31.117188 40.566406 31.089844 Z M 40.566406 31.09375 " fill-opacity="1" fill-rule="nonzero"/></svg>