<svg xmlns="http://www.w3.org/2000/svg" xmlns:xlink="http://www.w3.org/1999/xlink" width="200" zoomAndPan="magnify" viewBox="0 0 150 56.249996" height="75" preserveAspectRatio="xMidYMid meet" version="1.0"><defs><g/><clipPath id="33083eebcb"><path d="M 6.378906 5.550781 L 143.679688 5.550781 L 143.679688 47.195312 L 6.378906 47.195312 Z M 6.378906 5.550781 " clip-rule="nonzero"/></clipPath><clipPath id="22faff4d19"><path d="M 8.933594 5.550781 L 141.066406 5.550781 C 142.476562 5.550781 143.621094 6.695312 143.621094 8.105469 L 143.621094 44.644531 C 143.621094 46.054688 142.476562 47.195312 141.066406 47.195312 L 8.933594 47.195312 C 7.523438 47.195312 6.378906 46.054688 6.378906 44.644531 L 6.378906 8.105469 C 6.378906 6.695312 7.523438 5.550781 8.933594 5.550781 Z M 8.933594 5.550781 " clip-rule="nonzero"/></clipPath></defs><g clip-path="url(#33083eebcb)"><g clip-path="url(#22faff4d19)"><path fill="#ffffff" d="M 6.378906 5.550781 L 143.679688 5.550781 L 143.679688 47.195312 L 6.378906 47.195312 Z M 6.378906 5.550781 " fill-opacity="1" fill-rule="nonzero"/></g></g><g fill="#985884" fill-opacity="1"><g transform="translate(12.447713, 29.149831)"><g><path d="M -0.46875 3.78125 L -0.46875 3.375 C 0.0703125 3.320312 0.53125 3.164062 0.90625 2.90625 C 1.28125 2.644531 1.566406 2.195312 1.765625 1.5625 C 1.960938 0.9375 2.0625 0.0546875 2.0625 -1.078125 L 2.0625 -12.09375 C 2.0625 -12.582031 2.023438 -12.941406 1.953125 -13.171875 C 1.878906 -13.410156 1.734375 -13.570312 1.515625 -13.65625 C 1.304688 -13.75 0.988281 -13.800781 0.5625 -13.8125 L 0.5625 -14.21875 C 0.894531 -14.195312 1.332031 -14.179688 1.875 -14.171875 C 2.414062 -14.160156 2.988281 -14.15625 3.59375 -14.15625 C 4.195312 -14.15625 4.78125 -14.160156 5.34375 -14.171875 C 5.914062 -14.179688 6.390625 -14.195312 6.765625 -14.21875 L 6.765625 -13.8125 C 6.347656 -13.800781 6.03125 -13.75 5.8125 -13.65625 C 5.59375 -13.570312 5.445312 -13.410156 5.375 -13.171875 C 5.300781 -12.941406 5.265625 -12.582031 5.265625 -12.09375 L 5.265625 -4.734375 C 5.265625 -4.191406 5.265625 -3.601562 5.265625 -2.96875 C 5.265625 -2.332031 5.238281 -1.710938 5.1875 -1.109375 C 5.144531 -0.503906 5.054688 0.03125 4.921875 0.5 C 4.648438 1.425781 4.066406 2.203125 3.171875 2.828125 C 2.285156 3.460938 1.070312 3.78125 -0.46875 3.78125 Z M -0.46875 3.78125 "/></g></g></g><g fill="#985884" fill-opacity="1"><g transform="translate(19.751192, 29.149831)"><g><path d="M 3.25 0.140625 C 2.644531 0.140625 2.140625 0.0234375 1.734375 -0.203125 C 1.335938 -0.429688 1.046875 -0.734375 0.859375 -1.109375 C 0.671875 -1.492188 0.578125 -1.914062 0.578125 -2.375 C 0.578125 -2.945312 0.707031 -3.410156 0.96875 -3.765625 C 1.226562 -4.128906 1.566406 -4.425781 1.984375 -4.65625 C 2.398438 -4.882812 2.835938 -5.070312 3.296875 -5.21875 C 3.765625 -5.363281 4.207031 -5.503906 4.625 -5.640625 C 5.050781 -5.785156 5.394531 -5.953125 5.65625 -6.140625 C 5.914062 -6.335938 6.046875 -6.59375 6.046875 -6.90625 L 6.046875 -8.46875 C 6.046875 -8.820312 5.988281 -9.132812 5.875 -9.40625 C 5.757812 -9.675781 5.582031 -9.882812 5.34375 -10.03125 C 5.113281 -10.1875 4.8125 -10.265625 4.4375 -10.265625 C 4.164062 -10.265625 3.894531 -10.226562 3.625 -10.15625 C 3.363281 -10.082031 3.144531 -9.957031 2.96875 -9.78125 C 3.34375 -9.644531 3.632812 -9.4375 3.84375 -9.15625 C 4.050781 -8.882812 4.15625 -8.578125 4.15625 -8.234375 C 4.15625 -7.773438 4 -7.410156 3.6875 -7.140625 C 3.375 -6.878906 3 -6.75 2.5625 -6.75 C 2.082031 -6.75 1.71875 -6.898438 1.46875 -7.203125 C 1.226562 -7.503906 1.109375 -7.867188 1.109375 -8.296875 C 1.109375 -8.679688 1.203125 -9 1.390625 -9.25 C 1.585938 -9.507812 1.859375 -9.753906 2.203125 -9.984375 C 2.578125 -10.191406 3.03125 -10.351562 3.5625 -10.46875 C 4.09375 -10.59375 4.664062 -10.65625 5.28125 -10.65625 C 5.894531 -10.65625 6.445312 -10.59375 6.9375 -10.46875 C 7.4375 -10.34375 7.851562 -10.113281 8.1875 -9.78125 C 8.5 -9.46875 8.703125 -9.085938 8.796875 -8.640625 C 8.890625 -8.191406 8.9375 -7.628906 8.9375 -6.953125 L 8.9375 -1.484375 C 8.9375 -1.148438 8.96875 -0.921875 9.03125 -0.796875 C 9.101562 -0.671875 9.21875 -0.609375 9.375 -0.609375 C 9.5 -0.609375 9.617188 -0.640625 9.734375 -0.703125 C 9.847656 -0.765625 9.96875 -0.84375 10.09375 -0.9375 L 10.296875 -0.609375 C 10.015625 -0.359375 9.691406 -0.171875 9.328125 -0.046875 C 8.960938 0.078125 8.550781 0.140625 8.09375 0.140625 C 7.59375 0.140625 7.195312 0.0703125 6.90625 -0.0625 C 6.613281 -0.207031 6.398438 -0.398438 6.265625 -0.640625 C 6.140625 -0.878906 6.078125 -1.160156 6.078125 -1.484375 C 5.765625 -0.972656 5.378906 -0.570312 4.921875 -0.28125 C 4.460938 0 3.90625 0.140625 3.25 0.140625 Z M 4.671875 -1.140625 C 4.941406 -1.140625 5.1875 -1.203125 5.40625 -1.328125 C 5.632812 -1.460938 5.847656 -1.675781 6.046875 -1.96875 L 6.046875 -6.078125 C 5.921875 -5.878906 5.75 -5.695312 5.53125 -5.53125 C 5.320312 -5.375 5.097656 -5.210938 4.859375 -5.046875 C 4.617188 -4.878906 4.382812 -4.695312 4.15625 -4.5 C 3.9375 -4.300781 3.757812 -4.050781 3.625 -3.75 C 3.5 -3.457031 3.4375 -3.101562 3.4375 -2.6875 C 3.4375 -2.164062 3.546875 -1.773438 3.765625 -1.515625 C 3.992188 -1.265625 4.296875 -1.140625 4.671875 -1.140625 Z M 4.671875 -1.140625 "/></g></g></g><g fill="#985884" fill-opacity="1"><g transform="translate(30.14461, 29.149831)"><g><path d="M 4.453125 -10.65625 C 5.015625 -10.65625 5.503906 -10.582031 5.921875 -10.4375 C 6.347656 -10.300781 6.65625 -10.171875 6.84375 -10.046875 C 7.300781 -9.734375 7.582031 -9.929688 7.6875 -10.640625 L 8.109375 -10.640625 C 8.085938 -10.265625 8.066406 -9.804688 8.046875 -9.265625 C 8.035156 -8.722656 8.03125 -8.003906 8.03125 -7.109375 L 7.609375 -7.109375 C 7.546875 -7.597656 7.421875 -8.082031 7.234375 -8.5625 C 7.046875 -9.050781 6.773438 -9.445312 6.421875 -9.75 C 6.066406 -10.0625 5.609375 -10.21875 5.046875 -10.21875 C 4.648438 -10.21875 4.316406 -10.109375 4.046875 -9.890625 C 3.785156 -9.671875 3.65625 -9.351562 3.65625 -8.9375 C 3.65625 -8.53125 3.773438 -8.175781 4.015625 -7.875 C 4.253906 -7.570312 4.5625 -7.285156 4.9375 -7.015625 C 5.320312 -6.742188 5.722656 -6.453125 6.140625 -6.140625 C 6.585938 -5.804688 6.988281 -5.472656 7.34375 -5.140625 C 7.707031 -4.816406 7.992188 -4.460938 8.203125 -4.078125 C 8.421875 -3.691406 8.53125 -3.226562 8.53125 -2.6875 C 8.53125 -2.082031 8.351562 -1.554688 8 -1.109375 C 7.65625 -0.660156 7.195312 -0.316406 6.625 -0.078125 C 6.0625 0.160156 5.429688 0.28125 4.734375 0.28125 C 4.335938 0.28125 3.976562 0.238281 3.65625 0.15625 C 3.34375 0.0820312 3.070312 -0.015625 2.84375 -0.140625 C 2.675781 -0.222656 2.515625 -0.300781 2.359375 -0.375 C 2.203125 -0.445312 2.054688 -0.507812 1.921875 -0.5625 C 1.796875 -0.601562 1.679688 -0.554688 1.578125 -0.421875 C 1.472656 -0.285156 1.394531 -0.0976562 1.34375 0.140625 L 0.921875 0.140625 C 0.953125 -0.285156 0.972656 -0.804688 0.984375 -1.421875 C 0.992188 -2.035156 1 -2.851562 1 -3.875 L 1.421875 -3.875 C 1.503906 -3.15625 1.648438 -2.515625 1.859375 -1.953125 C 2.078125 -1.398438 2.367188 -0.96875 2.734375 -0.65625 C 3.109375 -0.34375 3.578125 -0.1875 4.140625 -0.1875 C 4.367188 -0.1875 4.585938 -0.234375 4.796875 -0.328125 C 5.015625 -0.421875 5.191406 -0.570312 5.328125 -0.78125 C 5.472656 -1 5.546875 -1.273438 5.546875 -1.609375 C 5.546875 -2.191406 5.351562 -2.675781 4.96875 -3.0625 C 4.582031 -3.457031 4.097656 -3.882812 3.515625 -4.34375 C 3.085938 -4.6875 2.679688 -5.03125 2.296875 -5.375 C 1.921875 -5.71875 1.609375 -6.09375 1.359375 -6.5 C 1.117188 -6.90625 1 -7.367188 1 -7.890625 C 1 -8.492188 1.160156 -9.003906 1.484375 -9.421875 C 1.804688 -9.835938 2.226562 -10.144531 2.75 -10.34375 C 3.28125 -10.550781 3.847656 -10.65625 4.453125 -10.65625 Z M 4.453125 -10.65625 "/></g></g></g><g fill="#985884" fill-opacity="1"><g transform="translate(39.414413, 29.149831)"><g><path d="M 4.5625 -15.703125 L 4.5625 -8.796875 C 4.894531 -9.492188 5.34375 -9.976562 5.90625 -10.25 C 6.476562 -10.519531 7.117188 -10.65625 7.828125 -10.65625 C 8.398438 -10.65625 8.859375 -10.582031 9.203125 -10.4375 C 9.554688 -10.300781 9.835938 -10.113281 10.046875 -9.875 C 10.265625 -9.625 10.425781 -9.296875 10.53125 -8.890625 C 10.632812 -8.492188 10.6875 -7.953125 10.6875 -7.265625 L 10.6875 -1.875 C 10.6875 -1.3125 10.78125 -0.925781 10.96875 -0.71875 C 11.164062 -0.519531 11.5 -0.421875 11.96875 -0.421875 L 11.96875 0 C 11.707031 -0.0078125 11.320312 -0.0234375 10.8125 -0.046875 C 10.300781 -0.0664062 9.800781 -0.078125 9.3125 -0.078125 C 8.789062 -0.078125 8.285156 -0.0664062 7.796875 -0.046875 C 7.304688 -0.0234375 6.941406 -0.0078125 6.703125 0 L 6.703125 -0.421875 C 7.109375 -0.421875 7.390625 -0.519531 7.546875 -0.71875 C 7.710938 -0.925781 7.796875 -1.3125 7.796875 -1.875 L 7.796875 -8.109375 C 7.796875 -8.441406 7.757812 -8.734375 7.6875 -8.984375 C 7.625 -9.234375 7.5 -9.425781 7.3125 -9.5625 C 7.132812 -9.707031 6.878906 -9.78125 6.546875 -9.78125 C 6.179688 -9.78125 5.847656 -9.679688 5.546875 -9.484375 C 5.242188 -9.296875 5.003906 -9.023438 4.828125 -8.671875 C 4.648438 -8.328125 4.5625 -7.925781 4.5625 -7.46875 L 4.5625 -1.875 C 4.5625 -1.3125 4.640625 -0.925781 4.796875 -0.71875 C 4.960938 -0.519531 5.242188 -0.421875 5.640625 -0.421875 L 5.640625 0 C 5.398438 -0.0078125 5.046875 -0.0234375 4.578125 -0.046875 C 4.109375 -0.0664062 3.632812 -0.078125 3.15625 -0.078125 C 2.632812 -0.078125 2.109375 -0.0664062 1.578125 -0.046875 C 1.046875 -0.0234375 0.644531 -0.0078125 0.375 0 L 0.375 -0.421875 C 0.84375 -0.421875 1.175781 -0.519531 1.375 -0.71875 C 1.570312 -0.925781 1.671875 -1.3125 1.671875 -1.875 L 1.671875 -13.296875 C 1.671875 -13.890625 1.578125 -14.332031 1.390625 -14.625 C 1.210938 -14.914062 0.875 -15.0625 0.375 -15.0625 L 0.375 -15.484375 C 0.8125 -15.441406 1.226562 -15.421875 1.625 -15.421875 C 2.175781 -15.421875 2.695312 -15.441406 3.1875 -15.484375 C 3.6875 -15.535156 4.144531 -15.609375 4.5625 -15.703125 Z M 4.5625 -15.703125 "/></g></g></g><g fill="#985884" fill-opacity="1"><g transform="translate(51.613641, 29.149831)"><g><path d="M 7.953125 -10.65625 C 8.515625 -10.65625 8.972656 -10.582031 9.328125 -10.4375 C 9.679688 -10.300781 9.957031 -10.113281 10.15625 -9.875 C 10.375 -9.625 10.53125 -9.296875 10.625 -8.890625 C 10.726562 -8.492188 10.78125 -7.953125 10.78125 -7.265625 L 10.78125 -1.875 C 10.78125 -1.3125 10.875 -0.925781 11.0625 -0.71875 C 11.257812 -0.519531 11.59375 -0.421875 12.0625 -0.421875 L 12.0625 0 C 11.8125 -0.0078125 11.429688 -0.0234375 10.921875 -0.046875 C 10.410156 -0.0664062 9.910156 -0.078125 9.421875 -0.078125 C 8.910156 -0.078125 8.410156 -0.0664062 7.921875 -0.046875 C 7.429688 -0.0234375 7.0625 -0.0078125 6.8125 0 L 6.8125 -0.421875 C 7.207031 -0.421875 7.484375 -0.519531 7.640625 -0.71875 C 7.804688 -0.925781 7.890625 -1.3125 7.890625 -1.875 L 7.890625 -8.109375 C 7.890625 -8.441406 7.851562 -8.734375 7.78125 -8.984375 C 7.71875 -9.234375 7.597656 -9.425781 7.421875 -9.5625 C 7.253906 -9.707031 6.992188 -9.78125 6.640625 -9.78125 C 6.285156 -9.78125 5.957031 -9.675781 5.65625 -9.46875 C 5.351562 -9.269531 5.109375 -8.992188 4.921875 -8.640625 C 4.742188 -8.285156 4.65625 -7.890625 4.65625 -7.453125 L 4.65625 -1.875 C 4.65625 -1.3125 4.738281 -0.925781 4.90625 -0.71875 C 5.070312 -0.519531 5.351562 -0.421875 5.75 -0.421875 L 5.75 0 C 5.5 -0.0078125 5.144531 -0.0234375 4.6875 -0.046875 C 4.226562 -0.0664062 3.75 -0.078125 3.25 -0.078125 C 2.738281 -0.078125 2.21875 -0.0664062 1.6875 -0.046875 C 1.15625 -0.0234375 0.753906 -0.0078125 0.484375 0 L 0.484375 -0.421875 C 0.953125 -0.421875 1.28125 -0.519531 1.46875 -0.71875 C 1.664062 -0.925781 1.765625 -1.3125 1.765625 -1.875 L 1.765625 -8.1875 C 1.765625 -8.789062 1.671875 -9.234375 1.484375 -9.515625 C 1.304688 -9.804688 0.972656 -9.953125 0.484375 -9.953125 L 0.484375 -10.375 C 0.910156 -10.332031 1.328125 -10.3125 1.734375 -10.3125 C 2.285156 -10.3125 2.804688 -10.332031 3.296875 -10.375 C 3.785156 -10.425781 4.238281 -10.5 4.65625 -10.59375 L 4.65625 -8.796875 C 4.988281 -9.472656 5.441406 -9.953125 6.015625 -10.234375 C 6.597656 -10.515625 7.242188 -10.65625 7.953125 -10.65625 Z M 7.953125 -10.65625 "/></g></g></g><g fill="#985884" fill-opacity="1"><g transform="translate(63.933246, 29.149831)"><g><path d="M 8.453125 -6.265625 L 8.453125 -4.59375 L 1.203125 -4.59375 L 1.203125 -6.265625 Z M 8.453125 -6.265625 "/></g></g></g><g fill="#985884" fill-opacity="1"><g transform="translate(73.584273, 29.149831)"><g><path d="M 5.65625 -10.65625 C 6.832031 -10.65625 7.753906 -10.304688 8.421875 -9.609375 C 9.097656 -8.921875 9.4375 -7.785156 9.4375 -6.203125 L 2.828125 -6.203125 L 2.796875 -6.578125 L 6.90625 -6.578125 C 6.914062 -7.234375 6.875 -7.835938 6.78125 -8.390625 C 6.6875 -8.953125 6.539062 -9.398438 6.34375 -9.734375 C 6.144531 -10.066406 5.878906 -10.234375 5.546875 -10.234375 C 5.078125 -10.234375 4.675781 -9.9375 4.34375 -9.34375 C 4.019531 -8.757812 3.820312 -7.785156 3.75 -6.421875 L 3.8125 -6.296875 C 3.800781 -6.140625 3.789062 -5.972656 3.78125 -5.796875 C 3.78125 -5.628906 3.78125 -5.453125 3.78125 -5.265625 C 3.78125 -4.335938 3.910156 -3.582031 4.171875 -3 C 4.429688 -2.425781 4.757812 -2.007812 5.15625 -1.75 C 5.5625 -1.488281 5.972656 -1.359375 6.390625 -1.359375 C 6.671875 -1.359375 6.957031 -1.398438 7.25 -1.484375 C 7.550781 -1.578125 7.859375 -1.738281 8.171875 -1.96875 C 8.484375 -2.207031 8.769531 -2.539062 9.03125 -2.96875 L 9.390625 -2.84375 C 9.234375 -2.34375 8.976562 -1.847656 8.625 -1.359375 C 8.28125 -0.878906 7.835938 -0.484375 7.296875 -0.171875 C 6.765625 0.128906 6.125 0.28125 5.375 0.28125 C 4.46875 0.28125 3.664062 0.0859375 2.96875 -0.296875 C 2.269531 -0.691406 1.722656 -1.28125 1.328125 -2.0625 C 0.941406 -2.851562 0.75 -3.859375 0.75 -5.078125 C 0.75 -6.328125 0.957031 -7.363281 1.375 -8.1875 C 1.800781 -9.019531 2.382812 -9.640625 3.125 -10.046875 C 3.863281 -10.453125 4.707031 -10.65625 5.65625 -10.65625 Z M 5.65625 -10.65625 "/></g></g></g><g fill="#985884" fill-opacity="1"><g transform="translate(83.696787, 29.149831)"><g><path d="M 8.453125 -6.265625 L 8.453125 -4.59375 L 1.203125 -4.59375 L 1.203125 -6.265625 Z M 8.453125 -6.265625 "/></g></g></g><g fill="#985884" fill-opacity="1"><g transform="translate(93.347815, 29.149831)"><g><path d="M 0.6875 -14.21875 C 1.019531 -14.195312 1.46875 -14.179688 2.03125 -14.171875 C 2.601562 -14.160156 3.171875 -14.15625 3.734375 -14.15625 C 4.378906 -14.15625 5 -14.160156 5.59375 -14.171875 C 6.195312 -14.179688 6.628906 -14.1875 6.890625 -14.1875 C 8.128906 -14.1875 9.160156 -14.050781 9.984375 -13.78125 C 10.804688 -13.507812 11.421875 -13.113281 11.828125 -12.59375 C 12.242188 -12.070312 12.453125 -11.441406 12.453125 -10.703125 C 12.453125 -10.242188 12.359375 -9.785156 12.171875 -9.328125 C 11.984375 -8.867188 11.664062 -8.441406 11.21875 -8.046875 C 10.769531 -7.648438 10.15625 -7.332031 9.375 -7.09375 C 8.601562 -6.863281 7.625 -6.75 6.4375 -6.75 L 4.515625 -6.75 L 4.515625 -7.140625 L 6.25 -7.140625 C 7.03125 -7.140625 7.625 -7.289062 8.03125 -7.59375 C 8.445312 -7.894531 8.726562 -8.296875 8.875 -8.796875 C 9.03125 -9.304688 9.109375 -9.867188 9.109375 -10.484375 C 9.109375 -11.535156 8.921875 -12.351562 8.546875 -12.9375 C 8.171875 -13.519531 7.53125 -13.8125 6.625 -13.8125 C 6.101562 -13.8125 5.765625 -13.695312 5.609375 -13.46875 C 5.453125 -13.238281 5.375 -12.78125 5.375 -12.09375 L 5.375 -2.125 C 5.375 -1.644531 5.410156 -1.285156 5.484375 -1.046875 C 5.566406 -0.804688 5.710938 -0.644531 5.921875 -0.5625 C 6.140625 -0.476562 6.460938 -0.425781 6.890625 -0.40625 L 6.890625 0 C 6.523438 -0.03125 6.066406 -0.046875 5.515625 -0.046875 C 4.972656 -0.0546875 4.421875 -0.0625 3.859375 -0.0625 C 3.210938 -0.0625 2.601562 -0.0546875 2.03125 -0.046875 C 1.46875 -0.046875 1.019531 -0.03125 0.6875 0 L 0.6875 -0.40625 C 1.113281 -0.425781 1.429688 -0.476562 1.640625 -0.5625 C 1.859375 -0.644531 2.003906 -0.804688 2.078125 -1.046875 C 2.148438 -1.285156 2.1875 -1.644531 2.1875 -2.125 L 2.1875 -12.09375 C 2.1875 -12.582031 2.148438 -12.941406 2.078125 -13.171875 C 2.003906 -13.410156 1.859375 -13.570312 1.640625 -13.65625 C 1.421875 -13.75 1.101562 -13.800781 0.6875 -13.8125 Z M 4.484375 -7.09375 C 5.054688 -7.070312 5.550781 -7.039062 5.96875 -7 C 6.394531 -6.96875 6.765625 -6.929688 7.078125 -6.890625 C 7.398438 -6.859375 7.691406 -6.835938 7.953125 -6.828125 C 9.171875 -6.722656 10.070312 -6.460938 10.65625 -6.046875 C 11.238281 -5.628906 11.613281 -5.003906 11.78125 -4.171875 L 12.25 -2.109375 C 12.363281 -1.578125 12.488281 -1.203125 12.625 -0.984375 C 12.757812 -0.765625 12.957031 -0.65625 13.21875 -0.65625 C 13.382812 -0.675781 13.523438 -0.722656 13.640625 -0.796875 C 13.753906 -0.867188 13.878906 -0.976562 14.015625 -1.125 L 14.296875 -0.890625 C 13.929688 -0.472656 13.539062 -0.175781 13.125 0 C 12.71875 0.1875 12.21875 0.28125 11.625 0.28125 C 10.90625 0.28125 10.3125 0.128906 9.84375 -0.171875 C 9.375 -0.484375 9.066406 -1.054688 8.921875 -1.890625 L 8.546875 -3.890625 C 8.453125 -4.453125 8.335938 -4.941406 8.203125 -5.359375 C 8.078125 -5.785156 7.894531 -6.125 7.65625 -6.375 C 7.425781 -6.625 7.101562 -6.75 6.6875 -6.75 L 4.515625 -6.75 Z M 4.484375 -7.09375 "/></g></g></g><g fill="#985884" fill-opacity="1"><g transform="translate(107.232451, 29.149831)"><g><path d="M 3.25 0.140625 C 2.644531 0.140625 2.140625 0.0234375 1.734375 -0.203125 C 1.335938 -0.429688 1.046875 -0.734375 0.859375 -1.109375 C 0.671875 -1.492188 0.578125 -1.914062 0.578125 -2.375 C 0.578125 -2.945312 0.707031 -3.410156 0.96875 -3.765625 C 1.226562 -4.128906 1.566406 -4.425781 1.984375 -4.65625 C 2.398438 -4.882812 2.835938 -5.070312 3.296875 -5.21875 C 3.765625 -5.363281 4.207031 -5.503906 4.625 -5.640625 C 5.050781 -5.785156 5.394531 -5.953125 5.65625 -6.140625 C 5.914062 -6.335938 6.046875 -6.59375 6.046875 -6.90625 L 6.046875 -8.46875 C 6.046875 -8.820312 5.988281 -9.132812 5.875 -9.40625 C 5.757812 -9.675781 5.582031 -9.882812 5.34375 -10.03125 C 5.113281 -10.1875 4.8125 -10.265625 4.4375 -10.265625 C 4.164062 -10.265625 3.894531 -10.226562 3.625 -10.15625 C 3.363281 -10.082031 3.144531 -9.957031 2.96875 -9.78125 C 3.34375 -9.644531 3.632812 -9.4375 3.84375 -9.15625 C 4.050781 -8.882812 4.15625 -8.578125 4.15625 -8.234375 C 4.15625 -7.773438 4 -7.410156 3.6875 -7.140625 C 3.375 -6.878906 3 -6.75 2.5625 -6.75 C 2.082031 -6.75 1.71875 -6.898438 1.46875 -7.203125 C 1.226562 -7.503906 1.109375 -7.867188 1.109375 -8.296875 C 1.109375 -8.679688 1.203125 -9 1.390625 -9.25 C 1.585938 -9.507812 1.859375 -9.753906 2.203125 -9.984375 C 2.578125 -10.191406 3.03125 -10.351562 3.5625 -10.46875 C 4.09375 -10.59375 4.664062 -10.65625 5.28125 -10.65625 C 5.894531 -10.65625 6.445312 -10.59375 6.9375 -10.46875 C 7.4375 -10.34375 7.851562 -10.113281 8.1875 -9.78125 C 8.5 -9.46875 8.703125 -9.085938 8.796875 -8.640625 C 8.890625 -8.191406 8.9375 -7.628906 8.9375 -6.953125 L 8.9375 -1.484375 C 8.9375 -1.148438 8.96875 -0.921875 9.03125 -0.796875 C 9.101562 -0.671875 9.21875 -0.609375 9.375 -0.609375 C 9.5 -0.609375 9.617188 -0.640625 9.734375 -0.703125 C 9.847656 -0.765625 9.96875 -0.84375 10.09375 -0.9375 L 10.296875 -0.609375 C 10.015625 -0.359375 9.691406 -0.171875 9.328125 -0.046875 C 8.960938 0.078125 8.550781 0.140625 8.09375 0.140625 C 7.59375 0.140625 7.195312 0.0703125 6.90625 -0.0625 C 6.613281 -0.207031 6.398438 -0.398438 6.265625 -0.640625 C 6.140625 -0.878906 6.078125 -1.160156 6.078125 -1.484375 C 5.765625 -0.972656 5.378906 -0.570312 4.921875 -0.28125 C 4.460938 0 3.90625 0.140625 3.25 0.140625 Z M 4.671875 -1.140625 C 4.941406 -1.140625 5.1875 -1.203125 5.40625 -1.328125 C 5.632812 -1.460938 5.847656 -1.675781 6.046875 -1.96875 L 6.046875 -6.078125 C 5.921875 -5.878906 5.75 -5.695312 5.53125 -5.53125 C 5.320312 -5.375 5.097656 -5.210938 4.859375 -5.046875 C 4.617188 -4.878906 4.382812 -4.695312 4.15625 -4.5 C 3.9375 -4.300781 3.757812 -4.050781 3.625 -3.75 C 3.5 -3.457031 3.4375 -3.101562 3.4375 -2.6875 C 3.4375 -2.164062 3.546875 -1.773438 3.765625 -1.515625 C 3.992188 -1.265625 4.296875 -1.140625 4.671875 -1.140625 Z M 4.671875 -1.140625 "/></g></g></g><g fill="#985884" fill-opacity="1"><g transform="translate(117.625869, 29.149831)"><g><path d="M 8.921875 -10.484375 L 3.890625 -0.296875 L 4.9375 -0.296875 C 5.457031 -0.296875 5.945312 -0.40625 6.40625 -0.625 C 6.875 -0.851562 7.265625 -1.226562 7.578125 -1.75 C 7.890625 -2.269531 8.082031 -2.984375 8.15625 -3.890625 L 8.578125 -3.890625 C 8.578125 -2.910156 8.582031 -2.109375 8.59375 -1.484375 C 8.601562 -0.867188 8.625 -0.347656 8.65625 0.078125 C 8.050781 0.0546875 7.421875 0.0351562 6.765625 0.015625 C 6.109375 0.00390625 5.453125 0 4.796875 0 C 4.117188 0 3.414062 0.0078125 2.6875 0.03125 C 1.96875 0.0507812 1.28125 0.0703125 0.625 0.09375 L 5.640625 -10.078125 L 4.515625 -10.078125 C 3.984375 -10.078125 3.492188 -9.96875 3.046875 -9.75 C 2.597656 -9.53125 2.226562 -9.15625 1.9375 -8.625 C 1.644531 -8.09375 1.460938 -7.378906 1.390625 -6.484375 L 0.96875 -6.484375 C 0.96875 -7.472656 0.957031 -8.273438 0.9375 -8.890625 C 0.925781 -9.503906 0.910156 -10.023438 0.890625 -10.453125 C 1.503906 -10.429688 2.140625 -10.410156 2.796875 -10.390625 C 3.453125 -10.378906 4.097656 -10.375 4.734375 -10.375 C 5.429688 -10.375 6.140625 -10.382812 6.859375 -10.40625 C 7.578125 -10.425781 8.265625 -10.453125 8.921875 -10.484375 Z M 8.921875 -10.484375 "/></g></g></g><g fill="#985884" fill-opacity="1"><g transform="translate(127.13645, 29.149831)"><g><path d="M 3.25 0.140625 C 2.644531 0.140625 2.140625 0.0234375 1.734375 -0.203125 C 1.335938 -0.429688 1.046875 -0.734375 0.859375 -1.109375 C 0.671875 -1.492188 0.578125 -1.914062 0.578125 -2.375 C 0.578125 -2.945312 0.707031 -3.410156 0.96875 -3.765625 C 1.226562 -4.128906 1.566406 -4.425781 1.984375 -4.65625 C 2.398438 -4.882812 2.835938 -5.070312 3.296875 -5.21875 C 3.765625 -5.363281 4.207031 -5.503906 4.625 -5.640625 C 5.050781 -5.785156 5.394531 -5.953125 5.65625 -6.140625 C 5.914062 -6.335938 6.046875 -6.59375 6.046875 -6.90625 L 6.046875 -8.46875 C 6.046875 -8.820312 5.988281 -9.132812 5.875 -9.40625 C 5.757812 -9.675781 5.582031 -9.882812 5.34375 -10.03125 C 5.113281 -10.1875 4.8125 -10.265625 4.4375 -10.265625 C 4.164062 -10.265625 3.894531 -10.226562 3.625 -10.15625 C 3.363281 -10.082031 3.144531 -9.957031 2.96875 -9.78125 C 3.34375 -9.644531 3.632812 -9.4375 3.84375 -9.15625 C 4.050781 -8.882812 4.15625 -8.578125 4.15625 -8.234375 C 4.15625 -7.773438 4 -7.410156 3.6875 -7.140625 C 3.375 -6.878906 3 -6.75 2.5625 -6.75 C 2.082031 -6.75 1.71875 -6.898438 1.46875 -7.203125 C 1.226562 -7.503906 1.109375 -7.867188 1.109375 -8.296875 C 1.109375 -8.679688 1.203125 -9 1.390625 -9.25 C 1.585938 -9.507812 1.859375 -9.753906 2.203125 -9.984375 C 2.578125 -10.191406 3.03125 -10.351562 3.5625 -10.46875 C 4.09375 -10.59375 4.664062 -10.65625 5.28125 -10.65625 C 5.894531 -10.65625 6.445312 -10.59375 6.9375 -10.46875 C 7.4375 -10.34375 7.851562 -10.113281 8.1875 -9.78125 C 8.5 -9.46875 8.703125 -9.085938 8.796875 -8.640625 C 8.890625 -8.191406 8.9375 -7.628906 8.9375 -6.953125 L 8.9375 -1.484375 C 8.9375 -1.148438 8.96875 -0.921875 9.03125 -0.796875 C 9.101562 -0.671875 9.21875 -0.609375 9.375 -0.609375 C 9.5 -0.609375 9.617188 -0.640625 9.734375 -0.703125 C 9.847656 -0.765625 9.96875 -0.84375 10.09375 -0.9375 L 10.296875 -0.609375 C 10.015625 -0.359375 9.691406 -0.171875 9.328125 -0.046875 C 8.960938 0.078125 8.550781 0.140625 8.09375 0.140625 C 7.59375 0.140625 7.195312 0.0703125 6.90625 -0.0625 C 6.613281 -0.207031 6.398438 -0.398438 6.265625 -0.640625 C 6.140625 -0.878906 6.078125 -1.160156 6.078125 -1.484375 C 5.765625 -0.972656 5.378906 -0.570312 4.921875 -0.28125 C 4.460938 0 3.90625 0.140625 3.25 0.140625 Z M 4.671875 -1.140625 C 4.941406 -1.140625 5.1875 -1.203125 5.40625 -1.328125 C 5.632812 -1.460938 5.847656 -1.675781 6.046875 -1.96875 L 6.046875 -6.078125 C 5.921875 -5.878906 5.75 -5.695312 5.53125 -5.53125 C 5.320312 -5.375 5.097656 -5.210938 4.859375 -5.046875 C 4.617188 -4.878906 4.382812 -4.695312 4.15625 -4.5 C 3.9375 -4.300781 3.757812 -4.050781 3.625 -3.75 C 3.5 -3.457031 3.4375 -3.101562 3.4375 -2.6875 C 3.4375 -2.164062 3.546875 -1.773438 3.765625 -1.515625 C 3.992188 -1.265625 4.296875 -1.140625 4.671875 -1.140625 Z M 4.671875 -1.140625 "/></g></g></g><g fill="#000000" fill-opacity="1"><g transform="translate(26.423024, 40.339605)"><g><path d="M 3.859375 -6.21875 L 3.859375 -5.578125 L 1.3125 -5.578125 L 1.3125 -3.734375 L 3.78125 -3.734375 L 3.78125 -3.078125 L 1.3125 -3.078125 L 1.3125 -0.640625 L 3.859375 -0.640625 L 3.859375 0 L 0.625 0 L 0.625 -6.21875 Z M 3.859375 -6.21875 "/></g></g></g><g fill="#000000" fill-opacity="1"><g transform="translate(31.783937, 40.339605)"><g><path d="M 0.765625 -3.875 L 1.90625 -1.265625 L 3.0625 -3.875 L 3.8125 -3.875 L 1.90625 0.25 L 0.015625 -3.875 Z M 0.8125 0 Z M 0.8125 0 "/></g></g></g><g fill="#000000" fill-opacity="1"><g transform="translate(36.559274, 40.339605)"><g><path d="M 4 -1.796875 L 0.953125 -1.796875 C 0.960938 -1.410156 1.085938 -1.097656 1.328125 -0.859375 C 1.578125 -0.617188 1.878906 -0.5 2.234375 -0.5 C 2.472656 -0.5 2.6875 -0.5625 2.875 -0.6875 C 3.070312 -0.8125 3.25 -1.015625 3.40625 -1.296875 L 3.96875 -0.984375 C 3.78125 -0.640625 3.53125 -0.367188 3.21875 -0.171875 C 2.914062 0.015625 2.566406 0.109375 2.171875 0.109375 C 1.796875 0.109375 1.460938 0.0195312 1.171875 -0.15625 C 0.878906 -0.34375 0.65625 -0.585938 0.5 -0.890625 C 0.351562 -1.203125 0.28125 -1.535156 0.28125 -1.890625 C 0.28125 -2.285156 0.351562 -2.640625 0.5 -2.953125 C 0.65625 -3.273438 0.875 -3.523438 1.15625 -3.703125 C 1.445312 -3.890625 1.78125 -3.984375 2.15625 -3.984375 C 2.53125 -3.984375 2.859375 -3.894531 3.140625 -3.71875 C 3.421875 -3.539062 3.632812 -3.296875 3.78125 -2.984375 C 3.9375 -2.671875 4.015625 -2.316406 4.015625 -1.921875 C 4.015625 -1.878906 4.007812 -1.835938 4 -1.796875 Z M 3.3125 -2.359375 C 3.25 -2.660156 3.109375 -2.90625 2.890625 -3.09375 C 2.679688 -3.28125 2.441406 -3.375 2.171875 -3.375 C 1.898438 -3.375 1.644531 -3.273438 1.40625 -3.078125 C 1.175781 -2.878906 1.035156 -2.640625 0.984375 -2.359375 Z M 3.3125 -2.359375 "/></g></g></g><g fill="#000000" fill-opacity="1"><g transform="translate(41.796469, 40.339605)"><g><path d="M 3.734375 0 L 3.0625 0 L 3.0625 -2.265625 C 3.0625 -2.648438 3.003906 -2.929688 2.890625 -3.109375 C 2.773438 -3.285156 2.5625 -3.375 2.25 -3.375 C 1.894531 -3.375 1.644531 -3.25 1.5 -3 C 1.351562 -2.757812 1.28125 -2.394531 1.28125 -1.90625 L 1.28125 0 L 0.625 0 L 0.625 -3.875 L 1.28125 -3.875 L 1.28125 -3.40625 L 1.296875 -3.40625 C 1.441406 -3.59375 1.601562 -3.734375 1.78125 -3.828125 C 1.957031 -3.929688 2.164062 -3.984375 2.40625 -3.984375 C 2.84375 -3.984375 3.171875 -3.847656 3.390625 -3.578125 C 3.617188 -3.316406 3.734375 -2.90625 3.734375 -2.34375 Z M 3.734375 0 "/></g></g></g><g fill="#000000" fill-opacity="1"><g transform="translate(47.107892, 40.339605)"><g><path d="M 1.3125 -5.265625 L 1.3125 -3.875 L 2.015625 -3.875 L 2.015625 -3.265625 L 1.3125 -3.265625 L 1.3125 0 L 0.65625 0 L 0.65625 -3.265625 L 0.25 -3.265625 L 0.25 -3.875 L 0.65625 -3.875 L 0.65625 -5.265625 Z M 1.3125 -5.265625 "/></g></g></g><g fill="#000000" fill-opacity="1"><g transform="translate(50.044016, 40.339605)"><g><path d="M 2.1875 -2.984375 C 2.132812 -3.109375 2.0625 -3.203125 1.96875 -3.265625 C 1.875 -3.335938 1.773438 -3.375 1.671875 -3.375 C 1.546875 -3.375 1.429688 -3.332031 1.328125 -3.25 C 1.234375 -3.164062 1.1875 -3.0625 1.1875 -2.9375 C 1.1875 -2.71875 1.398438 -2.53125 1.828125 -2.375 C 2.265625 -2.21875 2.566406 -2.046875 2.734375 -1.859375 C 2.898438 -1.671875 2.984375 -1.4375 2.984375 -1.15625 C 2.984375 -0.9375 2.929688 -0.734375 2.828125 -0.546875 C 2.734375 -0.359375 2.582031 -0.203125 2.375 -0.078125 C 2.175781 0.046875 1.941406 0.109375 1.671875 0.109375 C 1.359375 0.109375 1.078125 0.0234375 0.828125 -0.140625 C 0.585938 -0.316406 0.414062 -0.5625 0.3125 -0.875 L 0.890625 -1.125 C 0.992188 -0.894531 1.101562 -0.734375 1.21875 -0.640625 C 1.34375 -0.546875 1.5 -0.5 1.6875 -0.5 C 1.875 -0.5 2.023438 -0.554688 2.140625 -0.671875 C 2.253906 -0.785156 2.3125 -0.925781 2.3125 -1.09375 C 2.3125 -1.238281 2.257812 -1.363281 2.15625 -1.46875 C 2.050781 -1.582031 1.859375 -1.691406 1.578125 -1.796875 C 1.296875 -1.910156 1.082031 -2.019531 0.9375 -2.125 C 0.6875 -2.300781 0.5625 -2.554688 0.5625 -2.890625 C 0.5625 -3.191406 0.671875 -3.445312 0.890625 -3.65625 C 1.109375 -3.875 1.382812 -3.984375 1.71875 -3.984375 C 1.925781 -3.984375 2.125 -3.914062 2.3125 -3.78125 C 2.507812 -3.65625 2.65625 -3.484375 2.75 -3.265625 Z M 2.1875 -2.984375 "/></g></g></g><g fill="#000000" fill-opacity="1"><g transform="translate(54.291508, 40.339605)"><g/></g></g><g fill="#000000" fill-opacity="1"><g transform="translate(57.788469, 40.339605)"><g><path d="M 2.890625 -3.5625 L 4.203125 -1.875 L 4.90625 -2.703125 L 5.40625 -2.28125 L 4.609375 -1.359375 L 5.671875 0 L 4.796875 0 L 4.125 -0.875 C 3.75 -0.53125 3.398438 -0.28125 3.078125 -0.125 C 2.753906 0.03125 2.441406 0.109375 2.140625 0.109375 C 1.816406 0.109375 1.515625 0.0351562 1.234375 -0.109375 C 0.960938 -0.265625 0.742188 -0.472656 0.578125 -0.734375 C 0.410156 -0.992188 0.328125 -1.289062 0.328125 -1.625 C 0.328125 -1.894531 0.378906 -2.140625 0.484375 -2.359375 C 0.597656 -2.578125 0.75 -2.78125 0.9375 -2.96875 C 1.132812 -3.15625 1.460938 -3.394531 1.921875 -3.6875 C 1.742188 -3.925781 1.59375 -4.148438 1.46875 -4.359375 C 1.351562 -4.566406 1.296875 -4.78125 1.296875 -5 C 1.296875 -5.382812 1.425781 -5.703125 1.6875 -5.953125 C 1.945312 -6.203125 2.273438 -6.328125 2.671875 -6.328125 C 3.035156 -6.328125 3.34375 -6.207031 3.59375 -5.96875 C 3.851562 -5.738281 3.984375 -5.453125 3.984375 -5.109375 C 3.984375 -4.804688 3.894531 -4.535156 3.71875 -4.296875 C 3.539062 -4.066406 3.265625 -3.820312 2.890625 -3.5625 Z M 2.484375 -4.0625 L 2.78125 -4.28125 C 3.007812 -4.4375 3.15625 -4.578125 3.21875 -4.703125 C 3.289062 -4.835938 3.328125 -4.972656 3.328125 -5.109375 C 3.328125 -5.285156 3.257812 -5.429688 3.125 -5.546875 C 2.988281 -5.671875 2.828125 -5.734375 2.640625 -5.734375 C 2.460938 -5.734375 2.304688 -5.664062 2.171875 -5.53125 C 2.035156 -5.40625 1.96875 -5.25 1.96875 -5.0625 C 1.96875 -4.875 2.039062 -4.679688 2.1875 -4.484375 Z M 3.71875 -1.390625 L 2.328125 -3.171875 C 2.117188 -3.035156 1.914062 -2.894531 1.71875 -2.75 C 1.519531 -2.613281 1.347656 -2.453125 1.203125 -2.265625 C 1.066406 -2.078125 1 -1.867188 1 -1.640625 C 1 -1.347656 1.109375 -1.085938 1.328125 -0.859375 C 1.554688 -0.628906 1.8125 -0.515625 2.09375 -0.515625 C 2.332031 -0.515625 2.570312 -0.582031 2.8125 -0.71875 C 3.0625 -0.851562 3.363281 -1.078125 3.71875 -1.390625 Z M 3.71875 -1.390625 "/></g></g></g><g fill="#000000" fill-opacity="1"><g transform="translate(64.477234, 40.339605)"><g/></g></g><g fill="#000000" fill-opacity="1"><g transform="translate(67.974195, 40.339605)"><g><path d="M 5.375 -4.859375 C 5.101562 -5.117188 4.804688 -5.320312 4.484375 -5.46875 C 4.160156 -5.613281 3.820312 -5.6875 3.46875 -5.6875 C 3.03125 -5.6875 2.613281 -5.566406 2.21875 -5.328125 C 1.832031 -5.085938 1.523438 -4.769531 1.296875 -4.375 C 1.078125 -3.976562 0.96875 -3.554688 0.96875 -3.109375 C 0.96875 -2.671875 1.082031 -2.25 1.3125 -1.84375 C 1.539062 -1.445312 1.847656 -1.128906 2.234375 -0.890625 C 2.628906 -0.648438 3.046875 -0.53125 3.484375 -0.53125 C 3.828125 -0.53125 4.160156 -0.601562 4.484375 -0.75 C 4.804688 -0.894531 5.101562 -1.097656 5.375 -1.359375 L 5.375 -0.5 C 5.101562 -0.3125 4.804688 -0.160156 4.484375 -0.046875 C 4.171875 0.0546875 3.847656 0.109375 3.515625 0.109375 C 2.960938 0.109375 2.4375 -0.0234375 1.9375 -0.296875 C 1.4375 -0.578125 1.03125 -0.960938 0.71875 -1.453125 C 0.414062 -1.953125 0.265625 -2.492188 0.265625 -3.078125 C 0.265625 -3.660156 0.410156 -4.203125 0.703125 -4.703125 C 0.992188 -5.203125 1.390625 -5.597656 1.890625 -5.890625 C 2.398438 -6.179688 2.941406 -6.328125 3.515625 -6.328125 C 3.867188 -6.328125 4.210938 -6.269531 4.546875 -6.15625 C 4.878906 -6.039062 5.15625 -5.894531 5.375 -5.71875 Z M 5.375 -4.859375 "/></g></g></g><g fill="#000000" fill-opacity="1"><g transform="translate(74.84441, 40.339605)"><g><path d="M 4 -1.796875 L 0.953125 -1.796875 C 0.960938 -1.410156 1.085938 -1.097656 1.328125 -0.859375 C 1.578125 -0.617188 1.878906 -0.5 2.234375 -0.5 C 2.472656 -0.5 2.6875 -0.5625 2.875 -0.6875 C 3.070312 -0.8125 3.25 -1.015625 3.40625 -1.296875 L 3.96875 -0.984375 C 3.78125 -0.640625 3.53125 -0.367188 3.21875 -0.171875 C 2.914062 0.015625 2.566406 0.109375 2.171875 0.109375 C 1.796875 0.109375 1.460938 0.0195312 1.171875 -0.15625 C 0.878906 -0.34375 0.65625 -0.585938 0.5 -0.890625 C 0.351562 -1.203125 0.28125 -1.535156 0.28125 -1.890625 C 0.28125 -2.285156 0.351562 -2.640625 0.5 -2.953125 C 0.65625 -3.273438 0.875 -3.523438 1.15625 -3.703125 C 1.445312 -3.890625 1.78125 -3.984375 2.15625 -3.984375 C 2.53125 -3.984375 2.859375 -3.894531 3.140625 -3.71875 C 3.421875 -3.539062 3.632812 -3.296875 3.78125 -2.984375 C 3.9375 -2.671875 4.015625 -2.316406 4.015625 -1.921875 C 4.015625 -1.878906 4.007812 -1.835938 4 -1.796875 Z M 3.3125 -2.359375 C 3.25 -2.660156 3.109375 -2.90625 2.890625 -3.09375 C 2.679688 -3.28125 2.441406 -3.375 2.171875 -3.375 C 1.898438 -3.375 1.644531 -3.273438 1.40625 -3.078125 C 1.175781 -2.878906 1.035156 -2.640625 0.984375 -2.359375 Z M 3.3125 -2.359375 "/></g></g></g><g fill="#000000" fill-opacity="1"><g transform="translate(80.081603, 40.339605)"><g><path d="M 1.265625 -6.8125 L 1.265625 0 L 0.609375 0 L 0.609375 -6.8125 Z M 1.265625 -6.8125 "/></g></g></g><g fill="#000000" fill-opacity="1"><g transform="translate(82.910506, 40.339605)"><g><path d="M 4 -1.796875 L 0.953125 -1.796875 C 0.960938 -1.410156 1.085938 -1.097656 1.328125 -0.859375 C 1.578125 -0.617188 1.878906 -0.5 2.234375 -0.5 C 2.472656 -0.5 2.6875 -0.5625 2.875 -0.6875 C 3.070312 -0.8125 3.25 -1.015625 3.40625 -1.296875 L 3.96875 -0.984375 C 3.78125 -0.640625 3.53125 -0.367188 3.21875 -0.171875 C 2.914062 0.015625 2.566406 0.109375 2.171875 0.109375 C 1.796875 0.109375 1.460938 0.0195312 1.171875 -0.15625 C 0.878906 -0.34375 0.65625 -0.585938 0.5 -0.890625 C 0.351562 -1.203125 0.28125 -1.535156 0.28125 -1.890625 C 0.28125 -2.285156 0.351562 -2.640625 0.5 -2.953125 C 0.65625 -3.273438 0.875 -3.523438 1.15625 -3.703125 C 1.445312 -3.890625 1.78125 -3.984375 2.15625 -3.984375 C 2.53125 -3.984375 2.859375 -3.894531 3.140625 -3.71875 C 3.421875 -3.539062 3.632812 -3.296875 3.78125 -2.984375 C 3.9375 -2.671875 4.015625 -2.316406 4.015625 -1.921875 C 4.015625 -1.878906 4.007812 -1.835938 4 -1.796875 Z M 3.3125 -2.359375 C 3.25 -2.660156 3.109375 -2.90625 2.890625 -3.09375 C 2.679688 -3.28125 2.441406 -3.375 2.171875 -3.375 C 1.898438 -3.375 1.644531 -3.273438 1.40625 -3.078125 C 1.175781 -2.878906 1.035156 -2.640625 0.984375 -2.359375 Z M 3.3125 -2.359375 "/></g></g></g><g fill="#000000" fill-opacity="1"><g transform="translate(88.1477, 40.339605)"><g><path d="M 1.25 -6.8125 L 1.25 -3.328125 L 1.265625 -3.328125 C 1.429688 -3.535156 1.628906 -3.695312 1.859375 -3.8125 C 2.085938 -3.925781 2.332031 -3.984375 2.59375 -3.984375 C 2.976562 -3.984375 3.3125 -3.882812 3.59375 -3.6875 C 3.882812 -3.5 4.101562 -3.25 4.25 -2.9375 C 4.394531 -2.625 4.46875 -2.289062 4.46875 -1.9375 C 4.46875 -1.582031 4.394531 -1.25 4.25 -0.9375 C 4.101562 -0.625 3.882812 -0.367188 3.59375 -0.171875 C 3.300781 0.015625 2.972656 0.109375 2.609375 0.109375 C 2.335938 0.109375 2.085938 0.0546875 1.859375 -0.046875 C 1.628906 -0.160156 1.429688 -0.320312 1.265625 -0.53125 L 1.25 -0.53125 L 1.25 0 L 0.59375 0 L 0.59375 -6.8125 Z M 2.46875 -3.375 C 2.125 -3.375 1.828125 -3.234375 1.578125 -2.953125 C 1.335938 -2.679688 1.21875 -2.359375 1.21875 -1.984375 C 1.21875 -1.554688 1.335938 -1.203125 1.578125 -0.921875 C 1.816406 -0.640625 2.117188 -0.5 2.484375 -0.5 C 2.878906 -0.5 3.191406 -0.632812 3.421875 -0.90625 C 3.660156 -1.175781 3.78125 -1.53125 3.78125 -1.96875 C 3.78125 -2.382812 3.65625 -2.722656 3.40625 -2.984375 C 3.164062 -3.242188 2.851562 -3.375 2.46875 -3.375 Z M 2.46875 -3.375 "/></g></g></g><g fill="#000000" fill-opacity="1"><g transform="translate(93.863248, 40.339605)"><g><path d="M 2.40625 -3.203125 C 2.34375 -3.253906 2.28125 -3.296875 2.21875 -3.328125 C 2.164062 -3.359375 2.097656 -3.375 2.015625 -3.375 C 1.765625 -3.375 1.570312 -3.265625 1.4375 -3.046875 C 1.3125 -2.828125 1.25 -2.472656 1.25 -1.984375 L 1.25 0 L 0.59375 0 L 0.59375 -3.875 L 1.25 -3.875 L 1.25 -3.453125 L 1.265625 -3.453125 C 1.429688 -3.671875 1.570312 -3.8125 1.6875 -3.875 C 1.8125 -3.945312 1.957031 -3.984375 2.125 -3.984375 C 2.226562 -3.984375 2.328125 -3.96875 2.421875 -3.9375 C 2.523438 -3.90625 2.625 -3.859375 2.71875 -3.796875 Z M 2.40625 -3.203125 "/></g></g></g><g fill="#000000" fill-opacity="1"><g transform="translate(97.582895, 40.339605)"><g><path d="M 3.5 -3.328125 L 3.5 -3.875 L 4.171875 -3.875 L 4.171875 0 L 3.5 0 L 3.5 -0.53125 L 3.484375 -0.53125 C 3.148438 -0.101562 2.707031 0.109375 2.15625 0.109375 C 1.613281 0.109375 1.164062 -0.0859375 0.8125 -0.484375 C 0.46875 -0.878906 0.296875 -1.363281 0.296875 -1.9375 C 0.296875 -2.53125 0.472656 -3.019531 0.828125 -3.40625 C 1.179688 -3.789062 1.625 -3.984375 2.15625 -3.984375 C 2.425781 -3.984375 2.675781 -3.925781 2.90625 -3.8125 C 3.132812 -3.695312 3.328125 -3.535156 3.484375 -3.328125 Z M 2.234375 -3.375 C 1.878906 -3.375 1.578125 -3.238281 1.328125 -2.96875 C 1.085938 -2.695312 0.96875 -2.367188 0.96875 -1.984375 C 0.96875 -1.566406 1.085938 -1.210938 1.328125 -0.921875 C 1.566406 -0.640625 1.875 -0.5 2.25 -0.5 C 2.632812 -0.5 2.945312 -0.632812 3.1875 -0.90625 C 3.425781 -1.175781 3.546875 -1.53125 3.546875 -1.96875 C 3.546875 -2.375 3.421875 -2.707031 3.171875 -2.96875 C 2.929688 -3.238281 2.617188 -3.375 2.234375 -3.375 Z M 2.234375 -3.375 "/></g></g></g><g fill="#000000" fill-opacity="1"><g transform="translate(103.298443, 40.339605)"><g><path d="M 1.3125 -5.265625 L 1.3125 -3.875 L 2.015625 -3.875 L 2.015625 -3.265625 L 1.3125 -3.265625 L 1.3125 0 L 0.65625 0 L 0.65625 -3.265625 L 0.25 -3.265625 L 0.25 -3.875 L 0.65625 -3.875 L 0.65625 -5.265625 Z M 1.3125 -5.265625 "/></g></g></g><g fill="#000000" fill-opacity="1"><g transform="translate(106.234568, 40.339605)"><g><path d="M 1.40625 -3.875 L 1.40625 0 L 0.75 0 L 0.75 -3.875 Z M 0.609375 -5.359375 C 0.609375 -5.472656 0.65625 -5.578125 0.75 -5.671875 C 0.851562 -5.765625 0.960938 -5.8125 1.078125 -5.8125 C 1.203125 -5.8125 1.3125 -5.765625 1.40625 -5.671875 C 1.5 -5.578125 1.546875 -5.472656 1.546875 -5.359375 C 1.546875 -5.210938 1.5 -5.09375 1.40625 -5 C 1.3125 -4.914062 1.203125 -4.875 1.078125 -4.875 C 0.953125 -4.875 0.84375 -4.914062 0.75 -5 C 0.65625 -5.082031 0.609375 -5.203125 0.609375 -5.359375 Z M 0.609375 -5.359375 "/></g></g></g><g fill="#000000" fill-opacity="1"><g transform="translate(109.352142, 40.339605)"><g><path d="M 0.28125 -1.9375 C 0.28125 -2.300781 0.367188 -2.640625 0.546875 -2.953125 C 0.734375 -3.273438 0.984375 -3.523438 1.296875 -3.703125 C 1.609375 -3.890625 1.945312 -3.984375 2.3125 -3.984375 C 2.6875 -3.984375 3.023438 -3.890625 3.328125 -3.703125 C 3.640625 -3.523438 3.890625 -3.273438 4.078125 -2.953125 C 4.265625 -2.640625 4.359375 -2.300781 4.359375 -1.9375 C 4.359375 -1.5625 4.265625 -1.210938 4.078125 -0.890625 C 3.898438 -0.578125 3.65625 -0.332031 3.34375 -0.15625 C 3.03125 0.0195312 2.6875 0.109375 2.3125 0.109375 C 1.945312 0.109375 1.601562 0.0195312 1.28125 -0.15625 C 0.96875 -0.34375 0.722656 -0.59375 0.546875 -0.90625 C 0.367188 -1.226562 0.28125 -1.570312 0.28125 -1.9375 Z M 2.3125 -3.375 C 1.914062 -3.375 1.585938 -3.234375 1.328125 -2.953125 C 1.066406 -2.679688 0.9375 -2.34375 0.9375 -1.9375 C 0.9375 -1.644531 1.007812 -1.382812 1.15625 -1.15625 C 1.300781 -0.925781 1.472656 -0.757812 1.671875 -0.65625 C 1.878906 -0.550781 2.09375 -0.5 2.3125 -0.5 C 2.570312 -0.5 2.804688 -0.554688 3.015625 -0.671875 C 3.222656 -0.796875 3.390625 -0.96875 3.515625 -1.1875 C 3.640625 -1.414062 3.703125 -1.664062 3.703125 -1.9375 C 3.703125 -2.1875 3.644531 -2.421875 3.53125 -2.640625 C 3.414062 -2.867188 3.25 -3.046875 3.03125 -3.171875 C 2.820312 -3.304688 2.582031 -3.375 2.3125 -3.375 Z M 2.3125 -3.375 "/></g></g></g><g fill="#000000" fill-opacity="1"><g transform="translate(114.943988, 40.339605)"><g><path d="M 3.734375 0 L 3.0625 0 L 3.0625 -2.265625 C 3.0625 -2.648438 3.003906 -2.929688 2.890625 -3.109375 C 2.773438 -3.285156 2.5625 -3.375 2.25 -3.375 C 1.894531 -3.375 1.644531 -3.25 1.5 -3 C 1.351562 -2.757812 1.28125 -2.394531 1.28125 -1.90625 L 1.28125 0 L 0.625 0 L 0.625 -3.875 L 1.28125 -3.875 L 1.28125 -3.40625 L 1.296875 -3.40625 C 1.441406 -3.59375 1.601562 -3.734375 1.78125 -3.828125 C 1.957031 -3.929688 2.164062 -3.984375 2.40625 -3.984375 C 2.84375 -3.984375 3.171875 -3.847656 3.390625 -3.578125 C 3.617188 -3.316406 3.734375 -2.90625 3.734375 -2.34375 Z M 3.734375 0 "/></g></g></g><g fill="#000000" fill-opacity="1"><g transform="translate(120.25541, 40.339605)"><g><path d="M 2.1875 -2.984375 C 2.132812 -3.109375 2.0625 -3.203125 1.96875 -3.265625 C 1.875 -3.335938 1.773438 -3.375 1.671875 -3.375 C 1.546875 -3.375 1.429688 -3.332031 1.328125 -3.25 C 1.234375 -3.164062 1.1875 -3.0625 1.1875 -2.9375 C 1.1875 -2.71875 1.398438 -2.53125 1.828125 -2.375 C 2.265625 -2.21875 2.566406 -2.046875 2.734375 -1.859375 C 2.898438 -1.671875 2.984375 -1.4375 2.984375 -1.15625 C 2.984375 -0.9375 2.929688 -0.734375 2.828125 -0.546875 C 2.734375 -0.359375 2.582031 -0.203125 2.375 -0.078125 C 2.175781 0.046875 1.941406 0.109375 1.671875 0.109375 C 1.359375 0.109375 1.078125 0.0234375 0.828125 -0.140625 C 0.585938 -0.316406 0.414062 -0.5625 0.3125 -0.875 L 0.890625 -1.125 C 0.992188 -0.894531 1.101562 -0.734375 1.21875 -0.640625 C 1.34375 -0.546875 1.5 -0.5 1.6875 -0.5 C 1.875 -0.5 2.023438 -0.554688 2.140625 -0.671875 C 2.253906 -0.785156 2.3125 -0.925781 2.3125 -1.09375 C 2.3125 -1.238281 2.257812 -1.363281 2.15625 -1.46875 C 2.050781 -1.582031 1.859375 -1.691406 1.578125 -1.796875 C 1.296875 -1.910156 1.082031 -2.019531 0.9375 -2.125 C 0.6875 -2.300781 0.5625 -2.554688 0.5625 -2.890625 C 0.5625 -3.191406 0.671875 -3.445312 0.890625 -3.65625 C 1.109375 -3.875 1.382812 -3.984375 1.71875 -3.984375 C 1.925781 -3.984375 2.125 -3.914062 2.3125 -3.78125 C 2.507812 -3.65625 2.65625 -3.484375 2.75 -3.265625 Z M 2.1875 -2.984375 "/></g></g></g></svg>