<svg xmlns="http://www.w3.org/2000/svg" xmlns:xlink="http://www.w3.org/1999/xlink" width="350" zoomAndPan="magnify" viewBox="0 0 262.5 56.249996" height="75" preserveAspectRatio="xMidYMid meet" version="1.0"><defs><g/><clipPath id="2770e0461f"><path d="M 52.726562 1.492188 L 212.96875 1.492188 L 212.96875 54.019531 L 52.726562 54.019531 Z M 52.726562 1.492188 " clip-rule="nonzero"/></clipPath><clipPath id="b8d2c4408c"><path d="M 69.75 1.492188 L 195.761719 1.492188 C 205.160156 1.492188 212.785156 9.113281 212.785156 18.515625 L 212.785156 36.996094 C 212.785156 46.394531 205.160156 54.019531 195.761719 54.019531 L 69.75 54.019531 C 60.347656 54.019531 52.726562 46.394531 52.726562 36.996094 L 52.726562 18.515625 C 52.726562 9.113281 60.347656 1.492188 69.75 1.492188 Z M 69.75 1.492188 " clip-rule="nonzero"/></clipPath><clipPath id="a2c914cded"><path d="M 72.765625 9.011719 L 81.9375 9.011719 L 81.9375 10 L 72.765625 10 Z M 72.765625 9.011719 " clip-rule="nonzero"/></clipPath><clipPath id="fe7b09c43b"><path d="M 72.765625 9.011719 L 81.9375 9.011719 L 81.9375 11 L 72.765625 11 Z M 72.765625 9.011719 " clip-rule="nonzero"/></clipPath><clipPath id="1bf7001bcb"><path d="M 72.765625 10 L 81.9375 10 L 81.9375 12 L 72.765625 12 Z M 72.765625 10 " clip-rule="nonzero"/></clipPath><clipPath id="2bb1d7d4c2"><path d="M 72.765625 11 L 81.9375 11 L 81.9375 13 L 72.765625 13 Z M 72.765625 11 " clip-rule="nonzero"/></clipPath><clipPath id="6b29d1f9bb"><path d="M 72.765625 12 L 81.9375 12 L 81.9375 14 L 72.765625 14 Z M 72.765625 12 " clip-rule="nonzero"/></clipPath><clipPath id="b050af1b99"><path d="M 72.765625 13 L 81.9375 13 L 81.9375 15 L 72.765625 15 Z M 72.765625 13 " clip-rule="nonzero"/></clipPath><clipPath id="faee56c837"><path d="M 72.765625 14 L 81.9375 14 L 81.9375 15.980469 L 72.765625 15.980469 Z M 72.765625 14 " clip-rule="nonzero"/></clipPath><clipPath id="45f9a00304"><path d="M 72.765625 15 L 81.9375 15 L 81.9375 15.980469 L 72.765625 15.980469 Z M 72.765625 15 " clip-rule="nonzero"/></clipPath></defs><g clip-path="url(#2770e0461f)"><g clip-path="url(#b8d2c4408c)"><path fill="#ffffff" d="M 52.726562 1.492188 L 212.765625 1.492188 L 212.765625 54.019531 L 52.726562 54.019531 Z M 52.726562 1.492188 " fill-opacity="1" fill-rule="nonzero"/></g></g><g fill="#000000" fill-opacity="1"><g transform="translate(59.967073, 32.51192)"><g><path d="M 12.59375 -22.1875 L 12.59375 -18.421875 L 5.90625 -18.421875 L 5.90625 -13.53125 L 12.1875 -13.53125 L 12.1875 -9.765625 L 5.90625 -9.765625 L 5.90625 0 L 1.59375 0 L 1.59375 -22.1875 Z M 12.59375 -22.1875 "/></g></g></g><g fill="#000000" fill-opacity="1"><g transform="translate(73.588364, 32.51192)"><g><path d="M 1.296875 -20.5 C 1.296875 -21.15625 1.53125 -21.726562 2 -22.21875 C 2.46875 -22.707031 3.046875 -22.953125 3.734375 -22.953125 C 4.421875 -22.953125 5 -22.707031 5.46875 -22.21875 C 5.9375 -21.726562 6.171875 -21.15625 6.171875 -20.5 C 6.171875 -19.820312 5.9375 -19.242188 5.46875 -18.765625 C 5 -18.296875 4.421875 -18.0625 3.734375 -18.0625 C 3.046875 -18.0625 2.46875 -18.296875 2 -18.765625 C 1.53125 -19.242188 1.296875 -19.820312 1.296875 -20.5 Z M 5.796875 -14.453125 L 5.796875 0 L 1.671875 0 L 1.671875 -14.453125 Z M 5.796875 -14.453125 "/></g></g></g><g fill="#000000" fill-opacity="1"><g transform="translate(81.031527, 32.51192)"><g><path d="M 5.59375 -24.953125 L 5.59375 -9.15625 L 5.65625 -9.15625 L 9.96875 -14.453125 L 15.328125 -14.453125 L 9.234375 -8.09375 L 15.796875 0 L 10.390625 0 L 5.65625 -6.15625 L 5.59375 -6.15625 L 5.59375 0 L 1.46875 0 L 1.46875 -24.953125 Z M 5.59375 -24.953125 "/></g></g></g><g fill="#000000" fill-opacity="1"><g transform="translate(96.50625, 32.51192)"><g><path d="M 10.4375 -10.734375 C 9.9375 -11.085938 9.367188 -11.265625 8.734375 -11.265625 C 7.679688 -11.265625 6.894531 -10.90625 6.375 -10.1875 C 5.851562 -9.476562 5.59375 -8.300781 5.59375 -6.65625 L 5.59375 0 L 1.46875 0 L 1.46875 -14.453125 L 5.59375 -14.453125 L 5.59375 -12.953125 L 5.65625 -12.953125 C 6.0625 -13.578125 6.566406 -14.0625 7.171875 -14.40625 C 7.785156 -14.75 8.472656 -14.921875 9.234375 -14.921875 C 9.804688 -14.898438 10.375 -14.78125 10.9375 -14.5625 Z M 10.4375 -10.734375 "/></g></g></g><g fill="#000000" fill-opacity="1"><g transform="translate(107.303254, 32.51192)"><g><path d="M 8.4375 -11.125 L 8.4375 -7.734375 L 1.265625 -7.734375 L 1.265625 -11.125 Z M 8.4375 -11.125 "/></g></g></g><g fill="#000000" fill-opacity="1"><g transform="translate(117.011734, 32.51192)"><g><path d="M 4.796875 -6.5625 C 4.796875 -5.363281 5.050781 -4.414062 5.5625 -3.71875 C 6.070312 -3.019531 6.769531 -2.671875 7.65625 -2.671875 C 8.332031 -2.671875 8.890625 -2.859375 9.328125 -3.234375 C 9.773438 -3.609375 10.140625 -4.082031 10.421875 -4.65625 L 14.203125 -4.03125 C 13.703125 -2.5625 12.863281 -1.441406 11.6875 -0.671875 C 10.519531 0.0859375 9.175781 0.46875 7.65625 0.46875 C 5.507812 0.46875 3.769531 -0.222656 2.4375 -1.609375 C 1.101562 -3.003906 0.4375 -4.832031 0.4375 -7.09375 C 0.4375 -9.46875 1.0625 -11.363281 2.3125 -12.78125 C 3.570312 -14.207031 5.28125 -14.921875 7.4375 -14.921875 C 9.601562 -14.921875 11.285156 -14.222656 12.484375 -12.828125 C 13.691406 -11.429688 14.296875 -9.460938 14.296875 -6.921875 L 14.296875 -6.5625 Z M 10.421875 -9.125 C 10.273438 -10.019531 9.945312 -10.726562 9.4375 -11.25 C 8.925781 -11.769531 8.332031 -12.03125 7.65625 -12.03125 C 7 -12.03125 6.414062 -11.796875 5.90625 -11.328125 C 5.40625 -10.859375 5.070312 -10.125 4.90625 -9.125 Z M 10.421875 -9.125 "/></g></g></g><g fill="#000000" fill-opacity="1"><g transform="translate(131.750967, 32.51192)"><g><path d="M 8.4375 -11.125 L 8.4375 -7.734375 L 1.265625 -7.734375 L 1.265625 -11.125 Z M 8.4375 -11.125 "/></g></g></g><g fill="#000000" fill-opacity="1"><g transform="translate(141.459447, 32.51192)"><g><path d="M 7.5625 -22.1875 C 9.894531 -22.1875 11.691406 -21.609375 12.953125 -20.453125 C 14.222656 -19.304688 14.859375 -17.65625 14.859375 -15.5 C 14.859375 -13.9375 14.429688 -12.570312 13.578125 -11.40625 C 12.722656 -10.238281 11.640625 -9.554688 10.328125 -9.359375 L 16.59375 0 L 11.359375 0 L 5.96875 -8.9375 L 5.90625 -8.9375 L 5.90625 0 L 1.59375 0 L 1.59375 -22.1875 Z M 5.90625 -11.96875 L 6.390625 -11.96875 C 7.878906 -11.96875 8.941406 -12.242188 9.578125 -12.796875 C 10.210938 -13.347656 10.53125 -14.210938 10.53125 -15.390625 C 10.53125 -16.546875 10.21875 -17.378906 9.59375 -17.890625 C 8.96875 -18.398438 7.914062 -18.65625 6.4375 -18.65625 L 5.90625 -18.65625 Z M 5.90625 -11.96875 "/></g></g></g><g fill="#000000" fill-opacity="1"><g transform="translate(157.875601, 32.51192)"><g><path d="M 11.0625 -14.453125 L 15.125 -14.453125 L 15.125 0 L 11.0625 0 L 11.0625 -1.328125 L 11 -1.328125 C 10.570312 -0.753906 10 -0.3125 9.28125 0 C 8.5625 0.3125 7.832031 0.46875 7.09375 0.46875 C 5.1875 0.46875 3.597656 -0.28125 2.328125 -1.78125 C 1.066406 -3.28125 0.4375 -5.117188 0.4375 -7.296875 C 0.4375 -8.648438 0.710938 -9.90625 1.265625 -11.0625 C 1.816406 -12.21875 2.597656 -13.148438 3.609375 -13.859375 C 4.617188 -14.566406 5.757812 -14.921875 7.03125 -14.921875 C 7.78125 -14.921875 8.507812 -14.757812 9.21875 -14.4375 C 9.9375 -14.125 10.550781 -13.675781 11.0625 -13.09375 Z M 8 -11.265625 C 7.082031 -11.265625 6.289062 -10.867188 5.625 -10.078125 C 4.957031 -9.285156 4.625 -8.335938 4.625 -7.234375 C 4.625 -6.140625 4.957031 -5.1875 5.625 -4.375 C 6.289062 -3.570312 7.09375 -3.171875 8.03125 -3.171875 C 8.988281 -3.171875 9.800781 -3.566406 10.46875 -4.359375 C 11.132812 -5.160156 11.46875 -6.117188 11.46875 -7.234375 C 11.46875 -8.359375 11.128906 -9.3125 10.453125 -10.09375 C 9.773438 -10.875 8.957031 -11.265625 8 -11.265625 Z M 8 -11.265625 "/></g></g></g><g fill="#000000" fill-opacity="1"><g transform="translate(174.497691, 32.51192)"><g><path d="M 14.15625 -14.453125 L 6.828125 -3.46875 L 13.6875 -3.46875 L 13.6875 0 L -0.03125 0 L 7.359375 -10.96875 L 1.125 -10.96875 L 1.125 -14.453125 Z M 14.15625 -14.453125 "/></g></g></g><g fill="#000000" fill-opacity="1"><g transform="translate(188.648534, 32.51192)"><g><path d="M 11.0625 -14.453125 L 15.125 -14.453125 L 15.125 0 L 11.0625 0 L 11.0625 -1.328125 L 11 -1.328125 C 10.570312 -0.753906 10 -0.3125 9.28125 0 C 8.5625 0.3125 7.832031 0.46875 7.09375 0.46875 C 5.1875 0.46875 3.597656 -0.28125 2.328125 -1.78125 C 1.066406 -3.28125 0.4375 -5.117188 0.4375 -7.296875 C 0.4375 -8.648438 0.710938 -9.90625 1.265625 -11.0625 C 1.816406 -12.21875 2.597656 -13.148438 3.609375 -13.859375 C 4.617188 -14.566406 5.757812 -14.921875 7.03125 -14.921875 C 7.78125 -14.921875 8.507812 -14.757812 9.21875 -14.4375 C 9.9375 -14.125 10.550781 -13.675781 11.0625 -13.09375 Z M 8 -11.265625 C 7.082031 -11.265625 6.289062 -10.867188 5.625 -10.078125 C 4.957031 -9.285156 4.625 -8.335938 4.625 -7.234375 C 4.625 -6.140625 4.957031 -5.1875 5.625 -4.375 C 6.289062 -3.570312 7.09375 -3.171875 8.03125 -3.171875 C 8.988281 -3.171875 9.800781 -3.566406 10.46875 -4.359375 C 11.132812 -5.160156 11.46875 -6.117188 11.46875 -7.234375 C 11.46875 -8.359375 11.128906 -9.3125 10.453125 -10.09375 C 9.773438 -10.875 8.957031 -11.265625 8 -11.265625 Z M 8 -11.265625 "/></g></g></g><g clip-path="url(#a2c914cded)"><path fill="#ffffff" d="M 81.449219 9.550781 L 80.933594 9.015625 L 80.414062 9.550781 L 79.898438 9.015625 L 79.382812 9.550781 L 78.867188 9.015625 L 78.351562 9.550781 L 77.835938 9.015625 L 77.320312 9.550781 L 76.804688 9.015625 L 76.289062 9.550781 L 75.769531 9.015625 L 75.253906 9.550781 L 74.738281 9.015625 L 74.222656 9.550781 L 73.707031 9.015625 L 73.191406 9.550781 L 72.765625 9.109375 L 72.765625 9.464844 L 73.191406 9.90625 L 73.707031 9.371094 L 74.222656 9.90625 L 74.738281 9.371094 L 75.253906 9.90625 L 75.769531 9.371094 L 76.289062 9.90625 L 76.804688 9.371094 L 77.320312 9.90625 L 77.835938 9.371094 L 78.351562 9.90625 L 78.867188 9.371094 L 79.382812 9.90625 L 79.898438 9.371094 L 80.414062 9.90625 L 80.933594 9.371094 L 81.449219 9.90625 L 81.960938 9.375 L 81.960938 9.015625 Z M 81.449219 9.550781 " fill-opacity="1" fill-rule="nonzero"/></g><g clip-path="url(#fe7b09c43b)"><path fill="#ffffff" d="M 80.933594 9.90625 L 80.414062 10.441406 L 79.898438 9.90625 L 79.382812 10.441406 L 78.867188 9.90625 L 78.351562 10.441406 L 77.835938 9.90625 L 77.320312 10.441406 L 76.804688 9.90625 L 76.289062 10.441406 L 75.769531 9.90625 L 75.253906 10.441406 L 74.738281 9.90625 L 74.222656 10.441406 L 73.707031 9.90625 L 73.191406 10.441406 L 72.765625 10 L 72.765625 10.359375 L 73.191406 10.800781 L 73.707031 10.265625 L 74.222656 10.800781 L 74.738281 10.265625 L 75.253906 10.800781 L 75.769531 10.265625 L 76.289062 10.800781 L 76.804688 10.265625 L 77.320312 10.800781 L 77.835938 10.265625 L 78.351562 10.800781 L 78.867188 10.265625 L 79.382812 10.800781 L 79.898438 10.265625 L 80.414062 10.800781 L 80.933594 10.265625 L 81.449219 10.800781 L 81.960938 10.265625 L 81.960938 9.910156 L 81.449219 10.441406 Z M 80.933594 9.90625 " fill-opacity="1" fill-rule="nonzero"/></g><g clip-path="url(#1bf7001bcb)"><path fill="#ffffff" d="M 80.933594 10.800781 L 80.414062 11.335938 L 79.898438 10.800781 L 79.382812 11.335938 L 78.867188 10.800781 L 78.351562 11.335938 L 77.835938 10.800781 L 77.320312 11.335938 L 76.804688 10.800781 L 76.289062 11.335938 L 75.769531 10.800781 L 75.253906 11.335938 L 74.738281 10.800781 L 74.222656 11.335938 L 73.707031 10.800781 L 73.191406 11.335938 L 72.765625 10.894531 L 72.765625 11.25 L 73.191406 11.691406 L 73.707031 11.15625 L 74.222656 11.691406 L 74.738281 11.15625 L 75.253906 11.691406 L 75.769531 11.15625 L 76.289062 11.691406 L 76.804688 11.15625 L 77.320312 11.691406 L 77.835938 11.15625 L 78.351562 11.691406 L 78.867188 11.15625 L 79.382812 11.691406 L 79.898438 11.15625 L 80.414062 11.691406 L 80.933594 11.15625 L 81.449219 11.691406 L 81.960938 11.160156 L 81.960938 10.804688 L 81.449219 11.335938 Z M 80.933594 10.800781 " fill-opacity="1" fill-rule="nonzero"/></g><g clip-path="url(#2bb1d7d4c2)"><path fill="#ffffff" d="M 80.933594 11.691406 L 80.414062 12.226562 L 79.898438 11.691406 L 79.382812 12.226562 L 78.867188 11.691406 L 78.351562 12.226562 L 77.835938 11.691406 L 77.320312 12.226562 L 76.804688 11.691406 L 76.289062 12.226562 L 75.769531 11.691406 L 75.253906 12.226562 L 74.738281 11.691406 L 74.222656 12.226562 L 73.707031 11.691406 L 73.191406 12.226562 L 72.765625 11.789062 L 72.765625 12.144531 L 73.191406 12.585938 L 73.707031 12.050781 L 74.222656 12.585938 L 74.738281 12.050781 L 75.253906 12.585938 L 75.769531 12.050781 L 76.289062 12.585938 L 76.804688 12.050781 L 77.320312 12.585938 L 77.835938 12.050781 L 78.351562 12.585938 L 78.867188 12.050781 L 79.382812 12.585938 L 79.898438 12.050781 L 80.414062 12.585938 L 80.933594 12.050781 L 81.449219 12.585938 L 81.960938 12.054688 L 81.960938 11.695312 L 81.449219 12.226562 Z M 80.933594 11.691406 " fill-opacity="1" fill-rule="nonzero"/></g><g clip-path="url(#6b29d1f9bb)"><path fill="#ffffff" d="M 80.933594 12.585938 L 80.414062 13.121094 L 79.898438 12.585938 L 79.382812 13.121094 L 78.867188 12.585938 L 78.351562 13.121094 L 77.835938 12.585938 L 77.320312 13.121094 L 76.804688 12.585938 L 76.289062 13.121094 L 75.769531 12.585938 L 75.253906 13.121094 L 74.738281 12.585938 L 74.222656 13.121094 L 73.707031 12.585938 L 73.191406 13.121094 L 72.765625 12.679688 L 72.765625 13.039062 L 73.191406 13.480469 L 73.707031 12.941406 L 74.222656 13.480469 L 74.738281 12.941406 L 75.253906 13.480469 L 75.769531 12.941406 L 76.289062 13.480469 L 76.804688 12.941406 L 77.320312 13.480469 L 77.835938 12.941406 L 78.351562 13.480469 L 78.867188 12.941406 L 79.382812 13.480469 L 79.898438 12.941406 L 80.414062 13.480469 L 80.933594 12.941406 L 81.449219 13.480469 L 81.960938 12.945312 L 81.960938 12.589844 L 81.449219 13.121094 Z M 80.933594 12.585938 " fill-opacity="1" fill-rule="nonzero"/></g><g clip-path="url(#b050af1b99)"><path fill="#ffffff" d="M 80.933594 13.480469 L 80.414062 14.015625 L 79.898438 13.480469 L 79.382812 14.015625 L 78.867188 13.480469 L 78.351562 14.015625 L 77.835938 13.480469 L 77.320312 14.015625 L 76.804688 13.480469 L 76.289062 14.015625 L 75.769531 13.480469 L 75.253906 14.015625 L 74.738281 13.480469 L 74.222656 14.015625 L 73.707031 13.480469 L 73.191406 14.015625 L 72.765625 13.574219 L 72.765625 13.929688 L 73.191406 14.371094 L 73.707031 13.835938 L 74.222656 14.371094 L 74.738281 13.835938 L 75.253906 14.371094 L 75.769531 13.835938 L 76.289062 14.371094 L 76.804688 13.835938 L 77.320312 14.371094 L 77.835938 13.835938 L 78.351562 14.371094 L 78.867188 13.835938 L 79.382812 14.371094 L 79.898438 13.835938 L 80.414062 14.371094 L 80.933594 13.835938 L 81.449219 14.371094 L 81.960938 13.839844 L 81.960938 13.480469 L 81.449219 14.015625 Z M 80.933594 13.480469 " fill-opacity="1" fill-rule="nonzero"/></g><g clip-path="url(#faee56c837)"><path fill="#ffffff" d="M 80.933594 14.371094 L 80.414062 14.90625 L 79.898438 14.371094 L 79.382812 14.90625 L 78.867188 14.371094 L 78.351562 14.90625 L 77.835938 14.371094 L 77.320312 14.90625 L 76.804688 14.371094 L 76.289062 14.90625 L 75.769531 14.371094 L 75.253906 14.90625 L 74.738281 14.371094 L 74.222656 14.90625 L 73.707031 14.371094 L 73.191406 14.90625 L 72.765625 14.464844 L 72.765625 14.824219 L 73.191406 15.265625 L 73.707031 14.730469 L 74.222656 15.265625 L 74.738281 14.730469 L 75.253906 15.265625 L 75.769531 14.730469 L 76.289062 15.265625 L 76.804688 14.730469 L 77.320312 15.265625 L 77.835938 14.730469 L 78.351562 15.265625 L 78.867188 14.730469 L 79.382812 15.265625 L 79.898438 14.730469 L 80.414062 15.265625 L 80.933594 14.730469 L 81.449219 15.265625 L 81.960938 14.730469 L 81.960938 14.375 L 81.449219 14.90625 Z M 80.933594 14.371094 " fill-opacity="1" fill-rule="nonzero"/></g><g clip-path="url(#45f9a00304)"><path fill="#ffffff" d="M 80.933594 15.265625 L 80.414062 15.800781 L 79.898438 15.265625 L 79.382812 15.800781 L 78.867188 15.265625 L 78.351562 15.800781 L 77.835938 15.265625 L 77.320312 15.800781 L 76.804688 15.265625 L 76.289062 15.800781 L 75.769531 15.265625 L 75.253906 15.800781 L 74.738281 15.265625 L 74.222656 15.800781 L 73.707031 15.265625 L 73.191406 15.800781 L 72.765625 15.359375 L 72.765625 15.71875 L 73.191406 16.15625 L 73.707031 15.621094 L 74.222656 16.15625 L 74.738281 15.621094 L 75.253906 16.15625 L 75.769531 15.621094 L 76.289062 16.15625 L 76.804688 15.621094 L 77.320312 16.15625 L 77.835938 15.621094 L 78.351562 16.15625 L 78.867188 15.621094 L 79.382812 16.15625 L 79.898438 15.621094 L 80.414062 16.15625 L 80.933594 15.621094 L 81.449219 16.15625 L 81.960938 15.625 L 81.960938 15.269531 L 81.449219 15.800781 Z M 80.933594 15.265625 " fill-opacity="1" fill-rule="nonzero"/></g><g fill="#000000" fill-opacity="1"><g transform="translate(97.147577, 43.694905)"><g><path d="M 2.484375 0.078125 C 2.085938 0.078125 1.738281 0.03125 1.4375 -0.0625 C 1.132812 -0.15625 0.882812 -0.28125 0.6875 -0.4375 C 0.488281 -0.59375 0.332031 -0.765625 0.21875 -0.953125 L 0.828125 -1.6875 L 0.921875 -1.6875 C 1.097656 -1.4375 1.3125 -1.238281 1.5625 -1.09375 C 1.820312 -0.945312 2.128906 -0.875 2.484375 -0.875 C 2.773438 -0.875 2.992188 -0.9375 3.140625 -1.0625 C 3.296875 -1.1875 3.375 -1.359375 3.375 -1.578125 C 3.375 -1.710938 3.347656 -1.820312 3.296875 -1.90625 C 3.242188 -2 3.160156 -2.078125 3.046875 -2.140625 C 2.941406 -2.203125 2.796875 -2.257812 2.609375 -2.3125 L 1.890625 -2.46875 C 1.378906 -2.582031 1 -2.769531 0.75 -3.03125 C 0.507812 -3.300781 0.390625 -3.648438 0.390625 -4.078125 C 0.390625 -4.390625 0.46875 -4.664062 0.625 -4.90625 C 0.789062 -5.144531 1.023438 -5.332031 1.328125 -5.46875 C 1.628906 -5.601562 1.988281 -5.671875 2.40625 -5.671875 C 2.832031 -5.671875 3.195312 -5.613281 3.5 -5.5 C 3.8125 -5.382812 4.070312 -5.210938 4.28125 -4.984375 L 3.734375 -4.234375 L 3.640625 -4.234375 C 3.484375 -4.390625 3.300781 -4.507812 3.09375 -4.59375 C 2.894531 -4.675781 2.664062 -4.71875 2.40625 -4.71875 C 2.101562 -4.71875 1.867188 -4.664062 1.703125 -4.5625 C 1.546875 -4.457031 1.46875 -4.3125 1.46875 -4.125 C 1.46875 -3.945312 1.523438 -3.804688 1.640625 -3.703125 C 1.753906 -3.597656 1.945312 -3.515625 2.21875 -3.453125 L 2.953125 -3.296875 C 3.492188 -3.179688 3.882812 -2.988281 4.125 -2.71875 C 4.375 -2.445312 4.5 -2.085938 4.5 -1.640625 C 4.5 -1.296875 4.421875 -0.992188 4.265625 -0.734375 C 4.117188 -0.472656 3.894531 -0.269531 3.59375 -0.125 C 3.289062 0.0078125 2.921875 0.078125 2.484375 0.078125 Z M 2.484375 0.078125 "/></g></g></g><g fill="#000000" fill-opacity="1"><g transform="translate(108.207984, 43.694905)"><g><path d="M 3.046875 0.078125 C 2.535156 0.078125 2.082031 -0.0234375 1.6875 -0.234375 C 1.300781 -0.441406 0.992188 -0.757812 0.765625 -1.1875 C 0.546875 -1.613281 0.4375 -2.148438 0.4375 -2.796875 C 0.4375 -3.429688 0.546875 -3.960938 0.765625 -4.390625 C 0.992188 -4.828125 1.300781 -5.148438 1.6875 -5.359375 C 2.082031 -5.566406 2.535156 -5.671875 3.046875 -5.671875 C 3.554688 -5.671875 4.003906 -5.566406 4.390625 -5.359375 C 4.785156 -5.148438 5.09375 -4.828125 5.3125 -4.390625 C 5.53125 -3.960938 5.640625 -3.429688 5.640625 -2.796875 C 5.640625 -2.148438 5.53125 -1.613281 5.3125 -1.1875 C 5.09375 -0.757812 4.785156 -0.441406 4.390625 -0.234375 C 4.003906 -0.0234375 3.554688 0.078125 3.046875 0.078125 Z M 3.046875 -0.875 C 3.515625 -0.875 3.875 -1.023438 4.125 -1.328125 C 4.375 -1.640625 4.5 -2.128906 4.5 -2.796875 C 4.5 -3.460938 4.375 -3.945312 4.125 -4.25 C 3.875 -4.5625 3.515625 -4.71875 3.046875 -4.71875 C 2.566406 -4.71875 2.203125 -4.5625 1.953125 -4.25 C 1.703125 -3.945312 1.578125 -3.460938 1.578125 -2.796875 C 1.578125 -2.128906 1.703125 -1.640625 1.953125 -1.328125 C 2.203125 -1.023438 2.566406 -0.875 3.046875 -0.875 Z M 3.046875 -0.875 "/></g></g></g><g fill="#000000" fill-opacity="1"><g transform="translate(120.555999, 43.694905)"><g><path d="M 3.046875 0.078125 C 2.535156 0.078125 2.082031 -0.0234375 1.6875 -0.234375 C 1.300781 -0.453125 0.992188 -0.773438 0.765625 -1.203125 C 0.546875 -1.628906 0.4375 -2.160156 0.4375 -2.796875 C 0.4375 -3.421875 0.546875 -3.945312 0.765625 -4.375 C 0.992188 -4.8125 1.300781 -5.132812 1.6875 -5.34375 C 2.082031 -5.5625 2.535156 -5.671875 3.046875 -5.671875 C 3.585938 -5.671875 4.046875 -5.5625 4.421875 -5.34375 C 4.796875 -5.132812 5.066406 -4.816406 5.234375 -4.390625 L 4.421875 -3.90625 L 4.328125 -3.90625 C 4.203125 -4.195312 4.035156 -4.40625 3.828125 -4.53125 C 3.628906 -4.65625 3.367188 -4.71875 3.046875 -4.71875 C 2.585938 -4.71875 2.226562 -4.5625 1.96875 -4.25 C 1.707031 -3.945312 1.578125 -3.460938 1.578125 -2.796875 C 1.578125 -2.128906 1.707031 -1.640625 1.96875 -1.328125 C 2.226562 -1.023438 2.585938 -0.875 3.046875 -0.875 C 3.773438 -0.875 4.222656 -1.226562 4.390625 -1.9375 L 4.484375 -1.9375 L 5.296875 -1.515625 C 5.140625 -0.984375 4.875 -0.582031 4.5 -0.3125 C 4.132812 -0.0507812 3.648438 0.078125 3.046875 0.078125 Z M 3.046875 0.078125 "/></g></g></g><g fill="#000000" fill-opacity="1"><g transform="translate(132.296508, 43.694905)"><g><path d="M 1.828125 0 L 0.71875 0 L 0.71875 -5.59375 L 1.828125 -5.59375 Z M 1.828125 0 "/></g></g></g><g fill="#000000" fill-opacity="1"><g transform="translate(141.117932, 43.694905)"><g><path d="M 1.828125 -2.453125 L 1.828125 -0.921875 L 4.5 -0.921875 L 4.5 0 L 0.71875 0 L 0.71875 -5.59375 L 4.4375 -5.59375 L 4.4375 -4.65625 L 1.828125 -4.65625 L 1.828125 -3.359375 L 4.109375 -3.359375 L 4.109375 -2.453125 Z M 1.828125 -2.453125 "/></g></g></g><g fill="#000000" fill-opacity="1"><g transform="translate(152.182162, 43.694905)"><g><path d="M 4.484375 -5.59375 L 4.484375 -4.65625 L 2.859375 -4.65625 L 2.859375 0 L 1.765625 0 L 1.765625 -4.65625 L 0.15625 -4.65625 L 0.15625 -5.59375 Z M 4.484375 -5.59375 "/></g></g></g><g fill="#000000" fill-opacity="1"><g transform="translate(163.074453, 43.694905)"><g><path d="M 3.0625 0 L 1.953125 0 L 1.953125 -2.1875 L 0.03125 -5.59375 L 1.21875 -5.59375 L 2.484375 -3.390625 L 2.578125 -3.390625 L 3.828125 -5.59375 L 4.984375 -5.59375 L 3.0625 -2.1875 Z M 3.0625 0 "/></g></g></g></svg>