<svg xmlns="http://www.w3.org/2000/svg" xmlns:xlink="http://www.w3.org/1999/xlink" width="350" zoomAndPan="magnify" viewBox="0 0 262.5 56.249996" height="75" preserveAspectRatio="xMidYMid meet" version="1.0"><defs><g/><clipPath id="3cd1c6c624"><path d="M 57 5.253906 L 69.039062 5.253906 L 69.039062 7 L 57 7 Z M 57 5.253906 " clip-rule="nonzero"/></clipPath><clipPath id="a60272aa77"><path d="M 57 6 L 69.039062 6 L 69.039062 8 L 57 8 Z M 57 6 " clip-rule="nonzero"/></clipPath><clipPath id="881cd28c70"><path d="M 57 7 L 69.039062 7 L 69.039062 9 L 57 9 Z M 57 7 " clip-rule="nonzero"/></clipPath><clipPath id="f8eecbe8cc"><path d="M 57 8 L 69.039062 8 L 69.039062 11 L 57 11 Z M 57 8 " clip-rule="nonzero"/></clipPath><clipPath id="fe9365b367"><path d="M 57 10 L 69.039062 10 L 69.039062 12 L 57 12 Z M 57 10 " clip-rule="nonzero"/></clipPath><clipPath id="403d75d27c"><path d="M 57 11 L 69.039062 11 L 69.039062 13 L 57 13 Z M 57 11 " clip-rule="nonzero"/></clipPath><clipPath id="e02acd32bb"><path d="M 57 12 L 69.039062 12 L 69.039062 14 L 57 14 Z M 57 12 " clip-rule="nonzero"/></clipPath><clipPath id="4438091e7b"><path d="M 57 13 L 69.039062 13 L 69.039062 15 L 57 15 Z M 57 13 " clip-rule="nonzero"/></clipPath></defs><g fill="#ffffff" fill-opacity="1"><g transform="translate(39.646122, 37.114254)"><g><path d="M 17.078125 -30.078125 L 17.078125 -24.96875 L 8.015625 -24.96875 L 8.015625 -18.34375 L 16.515625 -18.34375 L 16.515625 -13.25 L 8.015625 -13.25 L 8.015625 0 L 2.15625 0 L 2.15625 -30.078125 Z M 17.078125 -30.078125 "/></g></g></g><g fill="#ffffff" fill-opacity="1"><g transform="translate(58.112848, 37.114254)"><g><path d="M 1.75 -27.796875 C 1.75 -28.679688 2.066406 -29.453125 2.703125 -30.109375 C 3.347656 -30.773438 4.132812 -31.109375 5.0625 -31.109375 C 6 -31.109375 6.785156 -30.773438 7.421875 -30.109375 C 8.054688 -29.453125 8.375 -28.679688 8.375 -27.796875 C 8.375 -26.867188 8.054688 -26.085938 7.421875 -25.453125 C 6.785156 -24.816406 6 -24.5 5.0625 -24.5 C 4.132812 -24.5 3.347656 -24.816406 2.703125 -25.453125 C 2.066406 -26.085938 1.75 -26.867188 1.75 -27.796875 Z M 7.859375 -19.59375 L 7.859375 0 L 2.28125 0 L 2.28125 -19.59375 Z M 7.859375 -19.59375 "/></g></g></g><g fill="#ffffff" fill-opacity="1"><g transform="translate(68.203732, 37.114254)"><g><path d="M 7.578125 -33.828125 L 7.578125 -12.40625 L 7.65625 -12.40625 L 13.515625 -19.59375 L 20.78125 -19.59375 L 12.53125 -10.96875 L 21.421875 0 L 14.078125 0 L 7.65625 -8.34375 L 7.578125 -8.34375 L 7.578125 0 L 2 0 L 2 -33.828125 Z M 7.578125 -33.828125 "/></g></g></g><g fill="#ffffff" fill-opacity="1"><g transform="translate(89.183203, 37.114254)"><g><path d="M 14.15625 -14.5625 C 13.46875 -15.039062 12.695312 -15.28125 11.84375 -15.28125 C 10.40625 -15.28125 9.332031 -14.789062 8.625 -13.8125 C 7.925781 -12.84375 7.578125 -11.242188 7.578125 -9.015625 L 7.578125 0 L 2 0 L 2 -19.59375 L 7.578125 -19.59375 L 7.578125 -17.546875 L 7.65625 -17.546875 C 8.21875 -18.398438 8.910156 -19.054688 9.734375 -19.515625 C 10.554688 -19.984375 11.488281 -20.21875 12.53125 -20.21875 C 13.300781 -20.195312 14.070312 -20.039062 14.84375 -19.75 Z M 14.15625 -14.5625 "/></g></g></g><g fill="#ffffff" fill-opacity="1"><g transform="translate(103.820973, 37.114254)"><g><path d="M 11.453125 -15.078125 L 11.453125 -10.484375 L 1.71875 -10.484375 L 1.71875 -15.078125 Z M 11.453125 -15.078125 "/></g></g></g><g fill="#ffffff" fill-opacity="1"><g transform="translate(116.983002, 37.114254)"><g><path d="M 6.5 -8.890625 C 6.5 -7.273438 6.84375 -5.992188 7.53125 -5.046875 C 8.226562 -4.097656 9.175781 -3.625 10.375 -3.625 C 11.300781 -3.625 12.0625 -3.875 12.65625 -4.375 C 13.257812 -4.882812 13.75 -5.523438 14.125 -6.296875 L 19.265625 -5.46875 C 18.578125 -3.46875 17.441406 -1.945312 15.859375 -0.90625 C 14.273438 0.125 12.445312 0.640625 10.375 0.640625 C 7.476562 0.640625 5.125 -0.300781 3.3125 -2.1875 C 1.5 -4.082031 0.59375 -6.554688 0.59375 -9.609375 C 0.59375 -12.828125 1.441406 -15.398438 3.140625 -17.328125 C 4.847656 -19.253906 7.164062 -20.21875 10.09375 -20.21875 C 13.019531 -20.21875 15.300781 -19.273438 16.9375 -17.390625 C 18.570312 -15.503906 19.390625 -12.832031 19.390625 -9.375 L 19.390625 -8.890625 Z M 14.125 -12.359375 C 13.9375 -13.585938 13.492188 -14.550781 12.796875 -15.25 C 12.109375 -15.957031 11.300781 -16.3125 10.375 -16.3125 C 9.5 -16.3125 8.710938 -15.992188 8.015625 -15.359375 C 7.328125 -14.722656 6.875 -13.722656 6.65625 -12.359375 Z M 14.125 -12.359375 "/></g></g></g><g fill="#ffffff" fill-opacity="1"><g transform="translate(136.965352, 37.114254)"><g><path d="M 11.453125 -15.078125 L 11.453125 -10.484375 L 1.71875 -10.484375 L 1.71875 -15.078125 Z M 11.453125 -15.078125 "/></g></g></g><g fill="#ffffff" fill-opacity="1"><g transform="translate(150.127382, 37.114254)"><g><path d="M 10.25 -30.078125 C 13.414062 -30.078125 15.851562 -29.296875 17.5625 -27.734375 C 19.28125 -26.179688 20.140625 -23.941406 20.140625 -21.015625 C 20.140625 -18.890625 19.5625 -17.035156 18.40625 -15.453125 C 17.25 -13.867188 15.78125 -12.945312 14 -12.6875 L 22.5 0 L 15.390625 0 L 8.09375 -12.125 L 8.015625 -12.125 L 8.015625 0 L 2.15625 0 L 2.15625 -30.078125 Z M 8.015625 -16.234375 L 8.65625 -16.234375 C 10.675781 -16.234375 12.117188 -16.601562 12.984375 -17.34375 C 13.847656 -18.09375 14.28125 -19.265625 14.28125 -20.859375 C 14.28125 -22.429688 13.851562 -23.5625 13 -24.25 C 12.15625 -24.945312 10.734375 -25.296875 8.734375 -25.296875 L 8.015625 -25.296875 Z M 8.015625 -16.234375 "/></g></g></g><g fill="#ffffff" fill-opacity="1"><g transform="translate(172.383174, 37.114254)"><g><path d="M 15 -19.59375 L 20.5 -19.59375 L 20.5 0 L 15 0 L 15 -1.796875 L 14.921875 -1.796875 C 14.335938 -1.023438 13.554688 -0.425781 12.578125 0 C 11.609375 0.425781 10.617188 0.640625 9.609375 0.640625 C 7.035156 0.640625 4.890625 -0.375 3.171875 -2.40625 C 1.453125 -4.445312 0.59375 -6.941406 0.59375 -9.890625 C 0.59375 -11.722656 0.960938 -13.425781 1.703125 -15 C 2.453125 -16.570312 3.507812 -17.832031 4.875 -18.78125 C 6.25 -19.738281 7.800781 -20.21875 9.53125 -20.21875 C 10.539062 -20.21875 11.53125 -20.003906 12.5 -19.578125 C 13.476562 -19.160156 14.3125 -18.550781 15 -17.75 Z M 10.84375 -15.28125 C 9.59375 -15.28125 8.515625 -14.738281 7.609375 -13.65625 C 6.710938 -12.582031 6.265625 -11.300781 6.265625 -9.8125 C 6.265625 -8.320312 6.710938 -7.03125 7.609375 -5.9375 C 8.515625 -4.851562 9.609375 -4.3125 10.890625 -4.3125 C 12.191406 -4.3125 13.296875 -4.847656 14.203125 -5.921875 C 15.109375 -7.003906 15.5625 -8.300781 15.5625 -9.8125 C 15.5625 -11.332031 15.101562 -12.625 14.1875 -13.6875 C 13.269531 -14.75 12.15625 -15.28125 10.84375 -15.28125 Z M 10.84375 -15.28125 "/></g></g></g><g fill="#ffffff" fill-opacity="1"><g transform="translate(194.91816, 37.114254)"><g><path d="M 19.1875 -19.59375 L 9.25 -4.703125 L 18.546875 -4.703125 L 18.546875 0 L -0.046875 0 L 9.96875 -14.875 L 1.515625 -14.875 L 1.515625 -19.59375 Z M 19.1875 -19.59375 "/></g></g></g><g fill="#ffffff" fill-opacity="1"><g transform="translate(214.102815, 37.114254)"><g><path d="M 15 -19.59375 L 20.5 -19.59375 L 20.5 0 L 15 0 L 15 -1.796875 L 14.921875 -1.796875 C 14.335938 -1.023438 13.554688 -0.425781 12.578125 0 C 11.609375 0.425781 10.617188 0.640625 9.609375 0.640625 C 7.035156 0.640625 4.890625 -0.375 3.171875 -2.40625 C 1.453125 -4.445312 0.59375 -6.941406 0.59375 -9.890625 C 0.59375 -11.722656 0.960938 -13.425781 1.703125 -15 C 2.453125 -16.570312 3.507812 -17.832031 4.875 -18.78125 C 6.25 -19.738281 7.800781 -20.21875 9.53125 -20.21875 C 10.539062 -20.21875 11.53125 -20.003906 12.5 -19.578125 C 13.476562 -19.160156 14.3125 -18.550781 15 -17.75 Z M 10.84375 -15.28125 C 9.59375 -15.28125 8.515625 -14.738281 7.609375 -13.65625 C 6.710938 -12.582031 6.265625 -11.300781 6.265625 -9.8125 C 6.265625 -8.320312 6.710938 -7.03125 7.609375 -5.9375 C 8.515625 -4.851562 9.609375 -4.3125 10.890625 -4.3125 C 12.191406 -4.3125 13.296875 -4.847656 14.203125 -5.921875 C 15.109375 -7.003906 15.5625 -8.300781 15.5625 -9.8125 C 15.5625 -11.332031 15.101562 -12.625 14.1875 -13.6875 C 13.269531 -14.75 12.15625 -15.28125 10.84375 -15.28125 Z M 10.84375 -15.28125 "/></g></g></g><g clip-path="url(#3cd1c6c624)"><path fill="#121212" d="M 68.765625 5.980469 L 68.066406 5.257812 L 67.367188 5.980469 L 66.667969 5.257812 L 65.96875 5.980469 L 65.269531 5.257812 L 64.570312 5.980469 L 63.871094 5.257812 L 63.171875 5.980469 L 62.472656 5.257812 L 61.769531 5.980469 L 61.070312 5.257812 L 60.371094 5.980469 L 59.671875 5.257812 L 58.972656 5.980469 L 58.273438 5.257812 L 57.574219 5.980469 L 57 5.386719 L 57 5.871094 L 57.574219 6.46875 L 58.273438 5.742188 L 58.972656 6.46875 L 59.671875 5.742188 L 60.371094 6.46875 L 61.070312 5.742188 L 61.769531 6.46875 L 62.472656 5.742188 L 63.171875 6.46875 L 63.871094 5.742188 L 64.570312 6.46875 L 65.269531 5.742188 L 65.96875 6.46875 L 66.667969 5.742188 L 67.367188 6.46875 L 68.066406 5.742188 L 68.765625 6.46875 L 69.464844 5.746094 L 69.464844 5.261719 Z M 68.765625 5.980469 " fill-opacity="1" fill-rule="nonzero"/></g><g clip-path="url(#a60272aa77)"><path fill="#121212" d="M 68.066406 6.46875 L 67.367188 7.195312 L 66.667969 6.46875 L 65.96875 7.195312 L 65.269531 6.46875 L 64.570312 7.195312 L 63.871094 6.46875 L 63.171875 7.195312 L 62.472656 6.46875 L 61.769531 7.195312 L 61.070312 6.46875 L 60.371094 7.195312 L 59.671875 6.46875 L 58.972656 7.195312 L 58.273438 6.46875 L 57.574219 7.195312 L 57 6.59375 L 57 7.082031 L 57.574219 7.675781 L 58.273438 6.953125 L 58.972656 7.675781 L 59.671875 6.953125 L 60.371094 7.675781 L 61.070312 6.953125 L 61.769531 7.675781 L 62.472656 6.953125 L 63.171875 7.675781 L 63.871094 6.953125 L 64.570312 7.675781 L 65.269531 6.953125 L 65.96875 7.675781 L 66.667969 6.953125 L 67.367188 7.675781 L 68.066406 6.953125 L 68.765625 7.675781 L 69.464844 6.957031 L 69.464844 6.472656 L 68.765625 7.195312 Z M 68.066406 6.46875 " fill-opacity="1" fill-rule="nonzero"/></g><g clip-path="url(#881cd28c70)"><path fill="#121212" d="M 68.066406 7.675781 L 67.367188 8.402344 L 66.667969 7.675781 L 65.96875 8.402344 L 65.269531 7.675781 L 64.570312 8.402344 L 63.871094 7.675781 L 63.171875 8.402344 L 62.472656 7.675781 L 61.769531 8.402344 L 61.070312 7.675781 L 60.371094 8.402344 L 59.671875 7.675781 L 58.972656 8.402344 L 58.273438 7.675781 L 57.574219 8.402344 L 57 7.804688 L 57 8.289062 L 57.574219 8.890625 L 58.273438 8.164062 L 58.972656 8.890625 L 59.671875 8.164062 L 60.371094 8.890625 L 61.070312 8.164062 L 61.769531 8.890625 L 62.472656 8.164062 L 63.171875 8.890625 L 63.871094 8.164062 L 64.570312 8.890625 L 65.269531 8.164062 L 65.96875 8.890625 L 66.667969 8.164062 L 67.367188 8.890625 L 68.066406 8.164062 L 68.765625 8.890625 L 69.464844 8.167969 L 69.464844 7.683594 L 68.765625 8.402344 Z M 68.066406 7.675781 " fill-opacity="1" fill-rule="nonzero"/></g><g clip-path="url(#f8eecbe8cc)"><path fill="#121212" d="M 68.066406 8.890625 L 67.367188 9.613281 L 66.667969 8.890625 L 65.96875 9.613281 L 65.269531 8.890625 L 64.570312 9.613281 L 63.871094 8.890625 L 63.171875 9.613281 L 62.472656 8.890625 L 61.769531 9.613281 L 61.070312 8.890625 L 60.371094 9.613281 L 59.671875 8.890625 L 58.972656 9.613281 L 58.273438 8.890625 L 57.574219 9.613281 L 57 9.015625 L 57 9.5 L 57.574219 10.097656 L 58.273438 9.371094 L 58.972656 10.097656 L 59.671875 9.371094 L 60.371094 10.097656 L 61.070312 9.371094 L 61.769531 10.097656 L 62.472656 9.371094 L 63.171875 10.097656 L 63.871094 9.371094 L 64.570312 10.097656 L 65.269531 9.371094 L 65.96875 10.097656 L 66.667969 9.371094 L 67.367188 10.097656 L 68.066406 9.371094 L 68.765625 10.097656 L 69.464844 9.378906 L 69.464844 8.890625 L 68.765625 9.613281 Z M 68.066406 8.890625 " fill-opacity="1" fill-rule="nonzero"/></g><g clip-path="url(#fe9365b367)"><path fill="#121212" d="M 68.066406 10.097656 L 67.367188 10.824219 L 66.667969 10.097656 L 65.96875 10.824219 L 65.269531 10.097656 L 64.570312 10.824219 L 63.871094 10.097656 L 63.171875 10.824219 L 62.472656 10.097656 L 61.769531 10.824219 L 61.070312 10.097656 L 60.371094 10.824219 L 59.671875 10.097656 L 58.972656 10.824219 L 58.273438 10.097656 L 57.574219 10.824219 L 57 10.226562 L 57 10.710938 L 57.574219 11.308594 L 58.273438 10.582031 L 58.972656 11.308594 L 59.671875 10.582031 L 60.371094 11.308594 L 61.070312 10.582031 L 61.769531 11.308594 L 62.472656 10.582031 L 63.171875 11.308594 L 63.871094 10.582031 L 64.570312 11.308594 L 65.269531 10.582031 L 65.96875 11.308594 L 66.667969 10.582031 L 67.367188 11.308594 L 68.066406 10.582031 L 68.765625 11.308594 L 69.464844 10.585938 L 69.464844 10.101562 L 68.765625 10.824219 Z M 68.066406 10.097656 " fill-opacity="1" fill-rule="nonzero"/></g><g clip-path="url(#403d75d27c)"><path fill="#121212" d="M 68.066406 11.308594 L 67.367188 12.035156 L 66.667969 11.308594 L 65.96875 12.035156 L 65.269531 11.308594 L 64.570312 12.035156 L 63.871094 11.308594 L 63.171875 12.035156 L 62.472656 11.308594 L 61.769531 12.035156 L 61.070312 11.308594 L 60.371094 12.035156 L 59.671875 11.308594 L 58.972656 12.035156 L 58.273438 11.308594 L 57.574219 12.035156 L 57 11.4375 L 57 11.921875 L 57.574219 12.519531 L 58.273438 11.792969 L 58.972656 12.519531 L 59.671875 11.792969 L 60.371094 12.519531 L 61.070312 11.792969 L 61.769531 12.519531 L 62.472656 11.792969 L 63.171875 12.519531 L 63.871094 11.792969 L 64.570312 12.519531 L 65.269531 11.792969 L 65.96875 12.519531 L 66.667969 11.792969 L 67.367188 12.519531 L 68.066406 11.792969 L 68.765625 12.519531 L 69.464844 11.796875 L 69.464844 11.3125 L 68.765625 12.035156 Z M 68.066406 11.308594 " fill-opacity="1" fill-rule="nonzero"/></g><g clip-path="url(#e02acd32bb)"><path fill="#121212" d="M 68.066406 12.519531 L 67.367188 13.246094 L 66.667969 12.519531 L 65.96875 13.246094 L 65.269531 12.519531 L 64.570312 13.246094 L 63.871094 12.519531 L 63.171875 13.246094 L 62.472656 12.519531 L 61.769531 13.246094 L 61.070312 12.519531 L 60.371094 13.246094 L 59.671875 12.519531 L 58.972656 13.246094 L 58.273438 12.519531 L 57.574219 13.246094 L 57 12.648438 L 57 13.132812 L 57.574219 13.730469 L 58.273438 13.003906 L 58.972656 13.730469 L 59.671875 13.003906 L 60.371094 13.730469 L 61.070312 13.003906 L 61.769531 13.730469 L 62.472656 13.003906 L 63.171875 13.730469 L 63.871094 13.003906 L 64.570312 13.730469 L 65.269531 13.003906 L 65.96875 13.730469 L 66.667969 13.003906 L 67.367188 13.730469 L 68.066406 13.003906 L 68.765625 13.730469 L 69.464844 13.007812 L 69.464844 12.523438 L 68.765625 13.246094 Z M 68.066406 12.519531 " fill-opacity="1" fill-rule="nonzero"/></g><g clip-path="url(#4438091e7b)"><path fill="#121212" d="M 68.066406 13.730469 L 67.367188 14.457031 L 66.667969 13.730469 L 65.96875 14.457031 L 65.269531 13.730469 L 64.570312 14.457031 L 63.871094 13.730469 L 63.171875 14.457031 L 62.472656 13.730469 L 61.769531 14.457031 L 61.070312 13.730469 L 60.371094 14.457031 L 59.671875 13.730469 L 58.972656 14.457031 L 58.273438 13.730469 L 57.574219 14.457031 L 57 13.859375 L 57 14.34375 L 57.574219 14.941406 L 58.273438 14.214844 L 58.972656 14.941406 L 59.671875 14.214844 L 60.371094 14.941406 L 61.070312 14.214844 L 61.769531 14.941406 L 62.472656 14.214844 L 63.171875 14.941406 L 63.871094 14.214844 L 64.570312 14.941406 L 65.269531 14.214844 L 65.96875 14.941406 L 66.667969 14.214844 L 67.367188 14.941406 L 68.066406 14.214844 L 68.765625 14.941406 L 69.464844 14.21875 L 69.464844 13.734375 L 68.765625 14.457031 Z M 68.066406 13.730469 " fill-opacity="1" fill-rule="nonzero"/></g><g fill="#ffffff" fill-opacity="1"><g transform="translate(90.05267, 52.275311)"><g><path d="M 3.359375 0.109375 C 2.828125 0.109375 2.359375 0.046875 1.953125 -0.078125 C 1.546875 -0.210938 1.203125 -0.382812 0.921875 -0.59375 C 0.648438 -0.800781 0.445312 -1.035156 0.3125 -1.296875 L 1.125 -2.296875 L 1.265625 -2.296875 C 1.484375 -1.953125 1.769531 -1.679688 2.125 -1.484375 C 2.476562 -1.285156 2.890625 -1.1875 3.359375 -1.1875 C 3.753906 -1.1875 4.050781 -1.269531 4.25 -1.4375 C 4.457031 -1.601562 4.5625 -1.835938 4.5625 -2.140625 C 4.5625 -2.316406 4.53125 -2.460938 4.46875 -2.578125 C 4.40625 -2.703125 4.296875 -2.804688 4.140625 -2.890625 C 3.992188 -2.984375 3.789062 -3.0625 3.53125 -3.125 L 2.546875 -3.34375 C 1.867188 -3.5 1.363281 -3.753906 1.03125 -4.109375 C 0.695312 -4.472656 0.53125 -4.945312 0.53125 -5.53125 C 0.53125 -5.957031 0.632812 -6.332031 0.84375 -6.65625 C 1.0625 -6.976562 1.375 -7.226562 1.78125 -7.40625 C 2.195312 -7.59375 2.691406 -7.6875 3.265625 -7.6875 C 3.847656 -7.6875 4.34375 -7.609375 4.75 -7.453125 C 5.164062 -7.296875 5.519531 -7.0625 5.8125 -6.75 L 5.078125 -5.734375 L 4.9375 -5.734375 C 4.726562 -5.953125 4.484375 -6.117188 4.203125 -6.234375 C 3.929688 -6.347656 3.617188 -6.40625 3.265625 -6.40625 C 2.847656 -6.40625 2.53125 -6.332031 2.3125 -6.1875 C 2.101562 -6.039062 2 -5.835938 2 -5.578125 C 2 -5.347656 2.070312 -5.160156 2.21875 -5.015625 C 2.375 -4.867188 2.632812 -4.757812 3 -4.6875 L 4 -4.46875 C 4.738281 -4.320312 5.269531 -4.0625 5.59375 -3.6875 C 5.925781 -3.3125 6.09375 -2.828125 6.09375 -2.234375 C 6.09375 -1.753906 5.988281 -1.335938 5.78125 -0.984375 C 5.582031 -0.640625 5.273438 -0.367188 4.859375 -0.171875 C 4.453125 0.015625 3.953125 0.109375 3.359375 0.109375 Z M 3.359375 0.109375 "/></g></g></g><g fill="#ffffff" fill-opacity="1"><g transform="translate(105.047542, 52.275311)"><g><path d="M 4.125 0.109375 C 3.4375 0.109375 2.828125 -0.03125 2.296875 -0.3125 C 1.765625 -0.59375 1.347656 -1.023438 1.046875 -1.609375 C 0.742188 -2.191406 0.59375 -2.914062 0.59375 -3.78125 C 0.59375 -4.65625 0.742188 -5.378906 1.046875 -5.953125 C 1.347656 -6.535156 1.765625 -6.96875 2.296875 -7.25 C 2.828125 -7.539062 3.4375 -7.6875 4.125 -7.6875 C 4.820312 -7.6875 5.429688 -7.546875 5.953125 -7.265625 C 6.484375 -6.984375 6.898438 -6.550781 7.203125 -5.96875 C 7.503906 -5.382812 7.65625 -4.65625 7.65625 -3.78125 C 7.65625 -2.914062 7.503906 -2.191406 7.203125 -1.609375 C 6.898438 -1.023438 6.484375 -0.59375 5.953125 -0.3125 C 5.429688 -0.03125 4.820312 0.109375 4.125 0.109375 Z M 4.125 -1.1875 C 4.769531 -1.1875 5.257812 -1.390625 5.59375 -1.796875 C 5.9375 -2.210938 6.109375 -2.875 6.109375 -3.78125 C 6.109375 -4.6875 5.9375 -5.347656 5.59375 -5.765625 C 5.257812 -6.179688 4.769531 -6.390625 4.125 -6.390625 C 3.476562 -6.390625 2.984375 -6.179688 2.640625 -5.765625 C 2.304688 -5.347656 2.140625 -4.6875 2.140625 -3.78125 C 2.140625 -2.875 2.304688 -2.210938 2.640625 -1.796875 C 2.984375 -1.390625 3.476562 -1.1875 4.125 -1.1875 Z M 4.125 -1.1875 "/></g></g></g><g fill="#ffffff" fill-opacity="1"><g transform="translate(121.788057, 52.275311)"><g><path d="M 4.140625 0.109375 C 3.441406 0.109375 2.828125 -0.0351562 2.296875 -0.328125 C 1.765625 -0.617188 1.347656 -1.050781 1.046875 -1.625 C 0.742188 -2.207031 0.59375 -2.925781 0.59375 -3.78125 C 0.59375 -4.632812 0.742188 -5.351562 1.046875 -5.9375 C 1.347656 -6.519531 1.765625 -6.957031 2.296875 -7.25 C 2.828125 -7.539062 3.441406 -7.6875 4.140625 -7.6875 C 4.867188 -7.6875 5.488281 -7.539062 6 -7.25 C 6.507812 -6.96875 6.875 -6.535156 7.09375 -5.953125 L 6 -5.28125 L 5.859375 -5.296875 C 5.703125 -5.679688 5.484375 -5.957031 5.203125 -6.125 C 4.921875 -6.300781 4.566406 -6.390625 4.140625 -6.390625 C 3.515625 -6.390625 3.023438 -6.179688 2.671875 -5.765625 C 2.316406 -5.347656 2.140625 -4.6875 2.140625 -3.78125 C 2.140625 -2.882812 2.316406 -2.226562 2.671875 -1.8125 C 3.023438 -1.394531 3.515625 -1.1875 4.140625 -1.1875 C 5.117188 -1.1875 5.722656 -1.664062 5.953125 -2.625 L 6.078125 -2.625 L 7.1875 -2.046875 C 6.976562 -1.328125 6.617188 -0.785156 6.109375 -0.421875 C 5.609375 -0.0664062 4.953125 0.109375 4.140625 0.109375 Z M 4.140625 0.109375 "/></g></g></g><g fill="#ffffff" fill-opacity="1"><g transform="translate(137.70496, 52.275311)"><g><path d="M 2.484375 0 L 0.984375 0 L 0.984375 -7.578125 L 2.484375 -7.578125 Z M 2.484375 0 "/></g></g></g><g fill="#ffffff" fill-opacity="1"><g transform="translate(149.664386, 52.275311)"><g><path d="M 2.484375 -3.328125 L 2.484375 -1.25 L 6.09375 -1.25 L 6.09375 0 L 0.984375 0 L 0.984375 -7.578125 L 6.015625 -7.578125 L 6.015625 -6.3125 L 2.484375 -6.3125 L 2.484375 -4.546875 L 5.5625 -4.546875 L 5.5625 -3.328125 Z M 2.484375 -3.328125 "/></g></g></g><g fill="#ffffff" fill-opacity="1"><g transform="translate(164.66444, 52.275311)"><g><path d="M 6.078125 -7.578125 L 6.078125 -6.3125 L 3.890625 -6.3125 L 3.890625 0 L 2.390625 0 L 2.390625 -6.3125 L 0.203125 -6.3125 L 0.203125 -7.578125 Z M 6.078125 -7.578125 "/></g></g></g><g fill="#ffffff" fill-opacity="1"><g transform="translate(179.431393, 52.275311)"><g><path d="M 4.15625 0 L 2.65625 0 L 2.65625 -2.96875 L 0.03125 -7.578125 L 1.640625 -7.578125 L 3.375 -4.59375 L 3.5 -4.59375 L 5.203125 -7.578125 L 6.765625 -7.578125 L 4.15625 -2.96875 Z M 4.15625 0 "/></g></g></g></svg>