<svg xmlns="http://www.w3.org/2000/svg" xmlns:xlink="http://www.w3.org/1999/xlink" width="250" zoomAndPan="magnify" viewBox="0 0 187.5 56.249996" height="75" preserveAspectRatio="xMidYMid meet" version="1.0"><defs><g/><clipPath id="4eedc5d6fe"><path d="M 17.78125 3.339844 L 165.777344 3.339844 L 165.777344 51.980469 L 17.78125 51.980469 Z M 17.78125 3.339844 " clip-rule="nonzero"/></clipPath><clipPath id="4c74e64332"><path d="M 34.992188 3.53125 L 148.582031 3.53125 C 153.097656 3.53125 157.425781 5.324219 160.617188 8.515625 C 163.8125 11.707031 165.605469 16.039062 165.605469 20.554688 L 165.605469 34.957031 C 165.605469 39.472656 163.8125 43.800781 160.617188 46.992188 C 157.425781 50.1875 153.097656 51.980469 148.582031 51.980469 L 34.992188 51.980469 C 30.480469 51.980469 26.148438 50.1875 22.957031 46.992188 C 19.765625 43.800781 17.96875 39.472656 17.96875 34.957031 L 17.96875 20.554688 C 17.96875 16.039062 19.765625 11.707031 22.957031 8.515625 C 26.148438 5.324219 30.480469 3.53125 34.992188 3.53125 Z M 34.992188 3.53125 " clip-rule="nonzero"/></clipPath><clipPath id="0d79ad285e"><path d="M 23.519531 22.542969 L 42.761719 22.542969 L 42.761719 25 L 23.519531 25 Z M 23.519531 22.542969 " clip-rule="nonzero"/></clipPath><clipPath id="e3fc81e740"><path d="M 23.519531 24 L 42.761719 24 L 42.761719 27 L 23.519531 27 Z M 23.519531 24 " clip-rule="nonzero"/></clipPath><clipPath id="f8b6c25bdb"><path d="M 23.519531 26 L 42.761719 26 L 42.761719 29 L 23.519531 29 Z M 23.519531 26 " clip-rule="nonzero"/></clipPath><clipPath id="af065ea62a"><path d="M 23.519531 28 L 42.761719 28 L 42.761719 31 L 23.519531 31 Z M 23.519531 28 " clip-rule="nonzero"/></clipPath><clipPath id="fc0f141b3d"><path d="M 23.519531 30 L 42.761719 30 L 42.761719 33 L 23.519531 33 Z M 23.519531 30 " clip-rule="nonzero"/></clipPath><clipPath id="7378a66d85"><path d="M 23.519531 32 L 42.761719 32 L 42.761719 34 L 23.519531 34 Z M 23.519531 32 " clip-rule="nonzero"/></clipPath><clipPath id="039451c395"><path d="M 23.519531 33 L 42.761719 33 L 42.761719 36 L 23.519531 36 Z M 23.519531 33 " clip-rule="nonzero"/></clipPath><clipPath id="70c4fd8994"><path d="M 23.519531 35 L 42.761719 35 L 42.761719 38 L 23.519531 38 Z M 23.519531 35 " clip-rule="nonzero"/></clipPath><clipPath id="8afe6358cd"><path d="M 23.519531 7.445312 L 42.761719 7.445312 L 42.761719 10 L 23.519531 10 Z M 23.519531 7.445312 " clip-rule="nonzero"/></clipPath><clipPath id="5a1c94748a"><path d="M 23.519531 9 L 42.761719 9 L 42.761719 12 L 23.519531 12 Z M 23.519531 9 " clip-rule="nonzero"/></clipPath><clipPath id="6825340c48"><path d="M 23.519531 11 L 42.761719 11 L 42.761719 14 L 23.519531 14 Z M 23.519531 11 " clip-rule="nonzero"/></clipPath><clipPath id="f950e4d5c9"><path d="M 23.519531 13 L 42.761719 13 L 42.761719 16 L 23.519531 16 Z M 23.519531 13 " clip-rule="nonzero"/></clipPath><clipPath id="bf01b266f0"><path d="M 23.519531 15 L 42.761719 15 L 42.761719 17 L 23.519531 17 Z M 23.519531 15 " clip-rule="nonzero"/></clipPath><clipPath id="5f00ec8354"><path d="M 23.519531 16 L 42.761719 16 L 42.761719 19 L 23.519531 19 Z M 23.519531 16 " clip-rule="nonzero"/></clipPath><clipPath id="bb5efa9439"><path d="M 23.519531 18 L 42.761719 18 L 42.761719 21 L 23.519531 21 Z M 23.519531 18 " clip-rule="nonzero"/></clipPath><clipPath id="cb3ed97242"><path d="M 23.519531 20 L 42.761719 20 L 42.761719 22.988281 L 23.519531 22.988281 Z M 23.519531 20 " clip-rule="nonzero"/></clipPath></defs><g clip-path="url(#4eedc5d6fe)"><g clip-path="url(#4c74e64332)"><path fill="#ffffff" d="M 17.96875 3.53125 L 165.589844 3.53125 L 165.589844 51.980469 L 17.96875 51.980469 Z M 17.96875 3.53125 " fill-opacity="1" fill-rule="nonzero"/></g></g><g fill="#000000" fill-opacity="1"><g transform="translate(24.64995, 32.142695)"><g><path d="M 11.609375 -20.46875 L 11.609375 -16.984375 L 5.453125 -16.984375 L 5.453125 -12.484375 L 11.234375 -12.484375 L 11.234375 -9.015625 L 5.453125 -9.015625 L 5.453125 0 L 1.46875 0 L 1.46875 -20.46875 Z M 11.609375 -20.46875 "/></g></g></g><g fill="#000000" fill-opacity="1"><g transform="translate(37.213991, 32.142695)"><g><path d="M 1.1875 -18.921875 C 1.1875 -19.515625 1.40625 -20.035156 1.84375 -20.484375 C 2.28125 -20.941406 2.816406 -21.171875 3.453125 -21.171875 C 4.078125 -21.171875 4.609375 -20.941406 5.046875 -20.484375 C 5.484375 -20.035156 5.703125 -19.515625 5.703125 -18.921875 C 5.703125 -18.285156 5.484375 -17.75 5.046875 -17.3125 C 4.609375 -16.882812 4.078125 -16.671875 3.453125 -16.671875 C 2.816406 -16.671875 2.28125 -16.882812 1.84375 -17.3125 C 1.40625 -17.75 1.1875 -18.285156 1.1875 -18.921875 Z M 5.34375 -13.328125 L 5.34375 0 L 1.546875 0 L 1.546875 -13.328125 Z M 5.34375 -13.328125 "/></g></g></g><g fill="#000000" fill-opacity="1"><g transform="translate(44.079435, 32.142695)"><g><path d="M 5.15625 -23.015625 L 5.15625 -8.4375 L 5.21875 -8.4375 L 9.203125 -13.328125 L 14.140625 -13.328125 L 8.515625 -7.46875 L 14.578125 0 L 9.578125 0 L 5.21875 -5.671875 L 5.15625 -5.671875 L 5.15625 0 L 1.359375 0 L 1.359375 -23.015625 Z M 5.15625 -23.015625 "/></g></g></g><g fill="#000000" fill-opacity="1"><g transform="translate(58.353049, 32.142695)"><g><path d="M 9.640625 -9.90625 C 9.160156 -10.226562 8.632812 -10.390625 8.0625 -10.390625 C 7.082031 -10.390625 6.351562 -10.054688 5.875 -9.390625 C 5.394531 -8.734375 5.15625 -7.648438 5.15625 -6.140625 L 5.15625 0 L 1.359375 0 L 1.359375 -13.328125 L 5.15625 -13.328125 L 5.15625 -11.9375 L 5.21875 -11.9375 C 5.59375 -12.519531 6.0625 -12.96875 6.625 -13.28125 C 7.1875 -13.601562 7.816406 -13.765625 8.515625 -13.765625 C 9.046875 -13.742188 9.570312 -13.632812 10.09375 -13.4375 Z M 9.640625 -9.90625 "/></g></g></g><g fill="#000000" fill-opacity="1"><g transform="translate(68.312017, 32.142695)"><g><path d="M 7.796875 -10.265625 L 7.796875 -7.140625 L 1.171875 -7.140625 L 1.171875 -10.265625 Z M 7.796875 -10.265625 "/></g></g></g><g fill="#000000" fill-opacity="1"><g transform="translate(77.266949, 32.142695)"><g><path d="M 4.421875 -6.046875 C 4.421875 -4.941406 4.65625 -4.066406 5.125 -3.421875 C 5.59375 -2.785156 6.238281 -2.46875 7.0625 -2.46875 C 7.6875 -2.46875 8.203125 -2.640625 8.609375 -2.984375 C 9.023438 -3.328125 9.359375 -3.757812 9.609375 -4.28125 L 13.109375 -3.71875 C 12.640625 -2.363281 11.863281 -1.332031 10.78125 -0.625 C 9.707031 0.0820312 8.46875 0.4375 7.0625 0.4375 C 5.082031 0.4375 3.476562 -0.203125 2.25 -1.484375 C 1.019531 -2.773438 0.40625 -4.460938 0.40625 -6.546875 C 0.40625 -8.734375 0.984375 -10.484375 2.140625 -11.796875 C 3.296875 -13.109375 4.867188 -13.765625 6.859375 -13.765625 C 8.859375 -13.765625 10.410156 -13.117188 11.515625 -11.828125 C 12.628906 -10.546875 13.1875 -8.726562 13.1875 -6.375 L 13.1875 -6.046875 Z M 9.609375 -8.40625 C 9.484375 -9.238281 9.179688 -9.894531 8.703125 -10.375 C 8.234375 -10.851562 7.6875 -11.09375 7.0625 -11.09375 C 6.457031 -11.09375 5.921875 -10.875 5.453125 -10.4375 C 4.984375 -10.007812 4.675781 -9.332031 4.53125 -8.40625 Z M 9.609375 -8.40625 "/></g></g></g><g fill="#000000" fill-opacity="1"><g transform="translate(90.862161, 32.142695)"><g><path d="M 7.796875 -10.265625 L 7.796875 -7.140625 L 1.171875 -7.140625 L 1.171875 -10.265625 Z M 7.796875 -10.265625 "/></g></g></g><g fill="#000000" fill-opacity="1"><g transform="translate(99.817093, 32.142695)"><g><path d="M 6.96875 -20.46875 C 9.125 -20.46875 10.785156 -19.9375 11.953125 -18.875 C 13.117188 -17.8125 13.703125 -16.285156 13.703125 -14.296875 C 13.703125 -12.847656 13.304688 -11.585938 12.515625 -10.515625 C 11.734375 -9.441406 10.738281 -8.8125 9.53125 -8.625 L 15.3125 0 L 10.46875 0 L 5.515625 -8.25 L 5.453125 -8.25 L 5.453125 0 L 1.46875 0 L 1.46875 -20.46875 Z M 5.453125 -11.046875 L 5.890625 -11.046875 C 7.265625 -11.046875 8.242188 -11.296875 8.828125 -11.796875 C 9.421875 -12.304688 9.71875 -13.101562 9.71875 -14.1875 C 9.71875 -15.257812 9.425781 -16.03125 8.84375 -16.5 C 8.269531 -16.96875 7.300781 -17.203125 5.9375 -17.203125 L 5.453125 -17.203125 Z M 5.453125 -11.046875 "/></g></g></g><g fill="#000000" fill-opacity="1"><g transform="translate(114.959066, 32.142695)"><g><path d="M 10.203125 -13.328125 L 13.953125 -13.328125 L 13.953125 0 L 10.203125 0 L 10.203125 -1.21875 L 10.15625 -1.21875 C 9.75 -0.695312 9.21875 -0.289062 8.5625 0 C 7.90625 0.289062 7.234375 0.4375 6.546875 0.4375 C 4.785156 0.4375 3.320312 -0.253906 2.15625 -1.640625 C 0.988281 -3.023438 0.40625 -4.722656 0.40625 -6.734375 C 0.40625 -7.984375 0.65625 -9.140625 1.15625 -10.203125 C 1.664062 -11.273438 2.382812 -12.132812 3.3125 -12.78125 C 4.25 -13.4375 5.304688 -13.765625 6.484375 -13.765625 C 7.171875 -13.765625 7.84375 -13.617188 8.5 -13.328125 C 9.164062 -13.035156 9.734375 -12.617188 10.203125 -12.078125 Z M 7.375 -10.390625 C 6.53125 -10.390625 5.800781 -10.023438 5.1875 -9.296875 C 4.570312 -8.566406 4.265625 -7.691406 4.265625 -6.671875 C 4.265625 -5.660156 4.570312 -4.785156 5.1875 -4.046875 C 5.800781 -3.304688 6.539062 -2.9375 7.40625 -2.9375 C 8.289062 -2.9375 9.039062 -3.300781 9.65625 -4.03125 C 10.269531 -4.757812 10.578125 -5.640625 10.578125 -6.671875 C 10.578125 -7.703125 10.265625 -8.578125 9.640625 -9.296875 C 9.023438 -10.023438 8.269531 -10.390625 7.375 -10.390625 Z M 7.375 -10.390625 "/></g></g></g><g fill="#000000" fill-opacity="1"><g transform="translate(130.290992, 32.142695)"><g><path d="M 13.046875 -13.328125 L 6.296875 -3.203125 L 12.625 -3.203125 L 12.625 0 L -0.03125 0 L 6.78125 -10.125 L 1.03125 -10.125 L 1.03125 -13.328125 Z M 13.046875 -13.328125 "/></g></g></g><g fill="#000000" fill-opacity="1"><g transform="translate(143.343483, 32.142695)"><g><path d="M 10.203125 -13.328125 L 13.953125 -13.328125 L 13.953125 0 L 10.203125 0 L 10.203125 -1.21875 L 10.15625 -1.21875 C 9.75 -0.695312 9.21875 -0.289062 8.5625 0 C 7.90625 0.289062 7.234375 0.4375 6.546875 0.4375 C 4.785156 0.4375 3.320312 -0.253906 2.15625 -1.640625 C 0.988281 -3.023438 0.40625 -4.722656 0.40625 -6.734375 C 0.40625 -7.984375 0.65625 -9.140625 1.15625 -10.203125 C 1.664062 -11.273438 2.382812 -12.132812 3.3125 -12.78125 C 4.25 -13.4375 5.304688 -13.765625 6.484375 -13.765625 C 7.171875 -13.765625 7.84375 -13.617188 8.5 -13.328125 C 9.164062 -13.035156 9.734375 -12.617188 10.203125 -12.078125 Z M 7.375 -10.390625 C 6.53125 -10.390625 5.800781 -10.023438 5.1875 -9.296875 C 4.570312 -8.566406 4.265625 -7.691406 4.265625 -6.671875 C 4.265625 -5.660156 4.570312 -4.785156 5.1875 -4.046875 C 5.800781 -3.304688 6.539062 -2.9375 7.40625 -2.9375 C 8.289062 -2.9375 9.039062 -3.300781 9.65625 -4.03125 C 10.269531 -4.757812 10.578125 -5.640625 10.578125 -6.671875 C 10.578125 -7.703125 10.265625 -8.578125 9.640625 -9.296875 C 9.023438 -10.023438 8.269531 -10.390625 7.375 -10.390625 Z M 7.375 -10.390625 "/></g></g></g><g fill="#000000" fill-opacity="1"><g transform="translate(58.944601, 42.457687)"><g><path d="M 2.28125 0.078125 C 1.925781 0.078125 1.609375 0.0351562 1.328125 -0.046875 C 1.046875 -0.140625 0.8125 -0.257812 0.625 -0.40625 C 0.445312 -0.550781 0.304688 -0.707031 0.203125 -0.875 L 0.765625 -1.5625 L 0.859375 -1.5625 C 1.015625 -1.332031 1.210938 -1.148438 1.453125 -1.015625 C 1.691406 -0.878906 1.96875 -0.8125 2.28125 -0.8125 C 2.550781 -0.8125 2.753906 -0.867188 2.890625 -0.984375 C 3.035156 -1.097656 3.109375 -1.253906 3.109375 -1.453125 C 3.109375 -1.578125 3.082031 -1.679688 3.03125 -1.765625 C 2.988281 -1.847656 2.914062 -1.914062 2.8125 -1.96875 C 2.71875 -2.03125 2.582031 -2.082031 2.40625 -2.125 L 1.734375 -2.28125 C 1.273438 -2.382812 0.929688 -2.554688 0.703125 -2.796875 C 0.472656 -3.046875 0.359375 -3.367188 0.359375 -3.765625 C 0.359375 -4.054688 0.429688 -4.3125 0.578125 -4.53125 C 0.722656 -4.75 0.9375 -4.921875 1.21875 -5.046875 C 1.5 -5.171875 1.832031 -5.234375 2.21875 -5.234375 C 2.613281 -5.234375 2.953125 -5.175781 3.234375 -5.0625 C 3.515625 -4.957031 3.753906 -4.800781 3.953125 -4.59375 L 3.453125 -3.890625 L 3.359375 -3.890625 C 3.210938 -4.046875 3.046875 -4.160156 2.859375 -4.234375 C 2.671875 -4.316406 2.457031 -4.359375 2.21875 -4.359375 C 1.9375 -4.359375 1.722656 -4.304688 1.578125 -4.203125 C 1.429688 -4.109375 1.359375 -3.972656 1.359375 -3.796875 C 1.359375 -3.640625 1.410156 -3.507812 1.515625 -3.40625 C 1.617188 -3.3125 1.796875 -3.238281 2.046875 -3.1875 L 2.71875 -3.046875 C 3.21875 -2.941406 3.582031 -2.757812 3.8125 -2.5 C 4.039062 -2.25 4.15625 -1.921875 4.15625 -1.515625 C 4.15625 -1.191406 4.082031 -0.910156 3.9375 -0.671875 C 3.800781 -0.441406 3.59375 -0.257812 3.3125 -0.125 C 3.03125 0.0078125 2.6875 0.078125 2.28125 0.078125 Z M 2.28125 0.078125 "/></g></g></g><g fill="#000000" fill-opacity="1"><g transform="translate(69.146528, 42.457687)"><g><path d="M 2.8125 0.078125 C 2.332031 0.078125 1.910156 -0.015625 1.546875 -0.203125 C 1.191406 -0.398438 0.910156 -0.695312 0.703125 -1.09375 C 0.503906 -1.488281 0.40625 -1.984375 0.40625 -2.578125 C 0.40625 -3.171875 0.503906 -3.664062 0.703125 -4.0625 C 0.910156 -4.457031 1.191406 -4.75 1.546875 -4.9375 C 1.910156 -5.132812 2.332031 -5.234375 2.8125 -5.234375 C 3.28125 -5.234375 3.691406 -5.132812 4.046875 -4.9375 C 4.410156 -4.75 4.691406 -4.457031 4.890625 -4.0625 C 5.097656 -3.664062 5.203125 -3.171875 5.203125 -2.578125 C 5.203125 -1.984375 5.097656 -1.488281 4.890625 -1.09375 C 4.691406 -0.695312 4.410156 -0.398438 4.046875 -0.203125 C 3.691406 -0.015625 3.28125 0.078125 2.8125 0.078125 Z M 2.8125 -0.8125 C 3.25 -0.8125 3.582031 -0.953125 3.8125 -1.234375 C 4.039062 -1.515625 4.15625 -1.960938 4.15625 -2.578125 C 4.15625 -3.191406 4.039062 -3.640625 3.8125 -3.921875 C 3.582031 -4.203125 3.25 -4.34375 2.8125 -4.34375 C 2.375 -4.34375 2.035156 -4.203125 1.796875 -3.921875 C 1.566406 -3.640625 1.453125 -3.191406 1.453125 -2.578125 C 1.453125 -1.960938 1.566406 -1.515625 1.796875 -1.234375 C 2.035156 -0.953125 2.375 -0.8125 2.8125 -0.8125 Z M 2.8125 -0.8125 "/></g></g></g><g fill="#000000" fill-opacity="1"><g transform="translate(80.536122, 42.457687)"><g><path d="M 2.8125 0.078125 C 2.34375 0.078125 1.925781 -0.0195312 1.5625 -0.21875 C 1.195312 -0.414062 0.910156 -0.710938 0.703125 -1.109375 C 0.503906 -1.503906 0.40625 -1.992188 0.40625 -2.578125 C 0.40625 -3.160156 0.503906 -3.648438 0.703125 -4.046875 C 0.910156 -4.441406 1.195312 -4.738281 1.5625 -4.9375 C 1.925781 -5.132812 2.34375 -5.234375 2.8125 -5.234375 C 3.3125 -5.234375 3.734375 -5.132812 4.078125 -4.9375 C 4.421875 -4.738281 4.671875 -4.441406 4.828125 -4.046875 L 4.078125 -3.59375 L 3.984375 -3.59375 C 3.878906 -3.863281 3.726562 -4.054688 3.53125 -4.171875 C 3.34375 -4.285156 3.101562 -4.34375 2.8125 -4.34375 C 2.382812 -4.34375 2.050781 -4.203125 1.8125 -3.921875 C 1.570312 -3.640625 1.453125 -3.191406 1.453125 -2.578125 C 1.453125 -1.960938 1.570312 -1.515625 1.8125 -1.234375 C 2.050781 -0.953125 2.382812 -0.8125 2.8125 -0.8125 C 3.488281 -0.8125 3.898438 -1.132812 4.046875 -1.78125 L 4.140625 -1.78125 L 4.890625 -1.390625 C 4.742188 -0.898438 4.5 -0.53125 4.15625 -0.28125 C 3.820312 -0.0390625 3.375 0.078125 2.8125 0.078125 Z M 2.8125 0.078125 "/></g></g></g><g fill="#000000" fill-opacity="1"><g transform="translate(91.365362, 42.457687)"><g><path d="M 1.6875 0 L 0.671875 0 L 0.671875 -5.15625 L 1.6875 -5.15625 Z M 1.6875 0 "/></g></g></g><g fill="#000000" fill-opacity="1"><g transform="translate(99.50209, 42.457687)"><g><path d="M 1.6875 -2.265625 L 1.6875 -0.859375 L 4.15625 -0.859375 L 4.15625 0 L 0.671875 0 L 0.671875 -5.15625 L 4.09375 -5.15625 L 4.09375 -4.296875 L 1.6875 -4.296875 L 1.6875 -3.09375 L 3.796875 -3.09375 L 3.796875 -2.265625 Z M 1.6875 -2.265625 "/></g></g></g><g fill="#000000" fill-opacity="1"><g transform="translate(109.707541, 42.457687)"><g><path d="M 4.125 -5.15625 L 4.125 -4.296875 L 2.640625 -4.296875 L 2.640625 0 L 1.625 0 L 1.625 -4.296875 L 0.140625 -4.296875 L 0.140625 -5.15625 Z M 4.125 -5.15625 "/></g></g></g><g fill="#000000" fill-opacity="1"><g transform="translate(119.754401, 42.457687)"><g><path d="M 2.828125 0 L 1.8125 0 L 1.8125 -2.015625 L 0.03125 -5.15625 L 1.125 -5.15625 L 2.296875 -3.125 L 2.375 -3.125 L 3.53125 -5.15625 L 4.609375 -5.15625 L 2.828125 -2.015625 Z M 2.828125 0 "/></g></g></g><g clip-path="url(#0d79ad285e)"><path fill="#ffffff" d="M 41.949219 23.683594 L 40.851562 22.546875 L 39.757812 23.683594 L 38.664062 22.546875 L 37.566406 23.683594 L 36.472656 22.546875 L 35.375 23.683594 L 34.28125 22.546875 L 33.183594 23.683594 L 32.089844 22.546875 L 30.992188 23.683594 L 29.898438 22.546875 L 28.800781 23.683594 L 27.707031 22.546875 L 26.609375 23.683594 L 25.515625 22.546875 L 24.421875 23.683594 L 23.519531 22.75 L 23.519531 23.507812 L 24.421875 24.441406 L 25.515625 23.308594 L 26.609375 24.441406 L 27.707031 23.308594 L 28.800781 24.441406 L 29.898438 23.308594 L 30.992188 24.441406 L 32.089844 23.308594 L 33.183594 24.441406 L 34.28125 23.308594 L 35.375 24.441406 L 36.472656 23.308594 L 37.566406 24.441406 L 38.664062 23.308594 L 39.757812 24.441406 L 40.851562 23.308594 L 41.949219 24.441406 L 43.039062 23.3125 L 43.039062 22.554688 Z M 41.949219 23.683594 " fill-opacity="1" fill-rule="nonzero"/></g><g clip-path="url(#e3fc81e740)"><path fill="#ffffff" d="M 40.851562 24.441406 L 39.757812 25.582031 L 38.664062 24.441406 L 37.566406 25.582031 L 36.472656 24.441406 L 35.375 25.582031 L 34.28125 24.441406 L 33.183594 25.582031 L 32.089844 24.441406 L 30.992188 25.582031 L 29.898438 24.441406 L 28.800781 25.582031 L 27.707031 24.441406 L 26.609375 25.582031 L 25.515625 24.441406 L 24.421875 25.582031 L 23.519531 24.644531 L 23.519531 25.402344 L 24.421875 26.339844 L 25.515625 25.203125 L 26.609375 26.339844 L 27.707031 25.203125 L 28.800781 26.339844 L 29.898438 25.203125 L 30.992188 26.339844 L 32.089844 25.203125 L 33.183594 26.339844 L 34.28125 25.203125 L 35.375 26.339844 L 36.472656 25.203125 L 37.566406 26.339844 L 38.664062 25.203125 L 39.757812 26.339844 L 40.851562 25.203125 L 41.949219 26.339844 L 43.039062 25.207031 L 43.039062 24.449219 L 41.949219 25.582031 Z M 40.851562 24.441406 " fill-opacity="1" fill-rule="nonzero"/></g><g clip-path="url(#f8b6c25bdb)"><path fill="#ffffff" d="M 40.851562 26.339844 L 39.757812 27.476562 L 38.664062 26.339844 L 37.566406 27.476562 L 36.472656 26.339844 L 35.375 27.476562 L 34.28125 26.339844 L 33.183594 27.476562 L 32.089844 26.339844 L 30.992188 27.476562 L 29.898438 26.339844 L 28.800781 27.476562 L 27.707031 26.339844 L 26.609375 27.476562 L 25.515625 26.339844 L 24.421875 27.476562 L 23.519531 26.539062 L 23.519531 27.296875 L 24.421875 28.234375 L 25.515625 27.097656 L 26.609375 28.234375 L 27.707031 27.097656 L 28.800781 28.234375 L 29.898438 27.097656 L 30.992188 28.234375 L 32.089844 27.097656 L 33.183594 28.234375 L 34.28125 27.097656 L 35.375 28.234375 L 36.472656 27.097656 L 37.566406 28.234375 L 38.664062 27.097656 L 39.757812 28.234375 L 40.851562 27.097656 L 41.949219 28.234375 L 43.039062 27.105469 L 43.039062 26.34375 L 41.949219 27.476562 Z M 40.851562 26.339844 " fill-opacity="1" fill-rule="nonzero"/></g><g clip-path="url(#af065ea62a)"><path fill="#ffffff" d="M 40.851562 28.234375 L 39.757812 29.371094 L 38.664062 28.234375 L 37.566406 29.371094 L 36.472656 28.234375 L 35.375 29.371094 L 34.28125 28.234375 L 33.183594 29.371094 L 32.089844 28.234375 L 30.992188 29.371094 L 29.898438 28.234375 L 28.800781 29.371094 L 27.707031 28.234375 L 26.609375 29.371094 L 25.515625 28.234375 L 24.421875 29.371094 L 23.519531 28.4375 L 23.519531 29.195312 L 24.421875 30.132812 L 25.515625 28.992188 L 26.609375 30.132812 L 27.707031 28.992188 L 28.800781 30.132812 L 29.898438 28.992188 L 30.992188 30.132812 L 32.089844 28.992188 L 33.183594 30.132812 L 34.28125 28.992188 L 35.375 30.132812 L 36.472656 28.992188 L 37.566406 30.132812 L 38.664062 28.992188 L 39.757812 30.132812 L 40.851562 28.992188 L 41.949219 30.132812 L 43.039062 29 L 43.039062 28.242188 L 41.949219 29.371094 Z M 40.851562 28.234375 " fill-opacity="1" fill-rule="nonzero"/></g><g clip-path="url(#fc0f141b3d)"><path fill="#ffffff" d="M 40.851562 30.132812 L 39.757812 31.265625 L 38.664062 30.132812 L 37.566406 31.265625 L 36.472656 30.132812 L 35.375 31.265625 L 34.28125 30.132812 L 33.183594 31.265625 L 32.089844 30.132812 L 30.992188 31.265625 L 29.898438 30.132812 L 28.800781 31.265625 L 27.707031 30.132812 L 26.609375 31.265625 L 25.515625 30.132812 L 24.421875 31.265625 L 23.519531 30.332031 L 23.519531 31.089844 L 24.421875 32.027344 L 25.515625 30.886719 L 26.609375 32.027344 L 27.707031 30.886719 L 28.800781 32.027344 L 29.898438 30.886719 L 30.992188 32.027344 L 32.089844 30.886719 L 33.183594 32.027344 L 34.28125 30.886719 L 35.375 32.027344 L 36.472656 30.886719 L 37.566406 32.027344 L 38.664062 30.886719 L 39.757812 32.027344 L 40.851562 30.886719 L 41.949219 32.027344 L 43.039062 30.894531 L 43.039062 30.136719 L 41.949219 31.265625 Z M 40.851562 30.132812 " fill-opacity="1" fill-rule="nonzero"/></g><g clip-path="url(#7378a66d85)"><path fill="#ffffff" d="M 40.851562 32.027344 L 39.757812 33.160156 L 38.664062 32.027344 L 37.566406 33.160156 L 36.472656 32.027344 L 35.375 33.160156 L 34.28125 32.027344 L 33.183594 33.160156 L 32.089844 32.027344 L 30.992188 33.160156 L 29.898438 32.027344 L 28.800781 33.160156 L 27.707031 32.027344 L 26.609375 33.160156 L 25.515625 32.027344 L 24.421875 33.160156 L 23.519531 32.226562 L 23.519531 32.988281 L 24.421875 33.921875 L 25.515625 32.785156 L 26.609375 33.921875 L 27.707031 32.785156 L 28.800781 33.921875 L 29.898438 32.785156 L 30.992188 33.921875 L 32.089844 32.785156 L 33.183594 33.921875 L 34.28125 32.785156 L 35.375 33.921875 L 36.472656 32.785156 L 37.566406 33.921875 L 38.664062 32.785156 L 39.757812 33.921875 L 40.851562 32.785156 L 41.949219 33.921875 L 43.039062 32.789062 L 43.039062 32.03125 L 41.949219 33.160156 Z M 40.851562 32.027344 " fill-opacity="1" fill-rule="nonzero"/></g><g clip-path="url(#039451c395)"><path fill="#ffffff" d="M 40.851562 33.921875 L 39.757812 35.058594 L 38.664062 33.921875 L 37.566406 35.058594 L 36.472656 33.921875 L 35.375 35.058594 L 34.28125 33.921875 L 33.183594 35.058594 L 32.089844 33.921875 L 30.992188 35.058594 L 29.898438 33.921875 L 28.800781 35.058594 L 27.707031 33.921875 L 26.609375 35.058594 L 25.515625 33.921875 L 24.421875 35.058594 L 23.519531 34.121094 L 23.519531 34.882812 L 24.421875 35.816406 L 25.515625 34.679688 L 26.609375 35.816406 L 27.707031 34.679688 L 28.800781 35.816406 L 29.898438 34.679688 L 30.992188 35.816406 L 32.089844 34.679688 L 33.183594 35.816406 L 34.28125 34.679688 L 35.375 35.816406 L 36.472656 34.679688 L 37.566406 35.816406 L 38.664062 34.679688 L 39.757812 35.816406 L 40.851562 34.679688 L 41.949219 35.816406 L 43.039062 34.6875 L 43.039062 33.929688 L 41.949219 35.058594 Z M 40.851562 33.921875 " fill-opacity="1" fill-rule="nonzero"/></g><g clip-path="url(#70c4fd8994)"><path fill="#ffffff" d="M 40.851562 35.816406 L 39.757812 36.957031 L 38.664062 35.816406 L 37.566406 36.957031 L 36.472656 35.816406 L 35.375 36.957031 L 34.28125 35.816406 L 33.183594 36.957031 L 32.089844 35.816406 L 30.992188 36.957031 L 29.898438 35.816406 L 28.800781 36.957031 L 27.707031 35.816406 L 26.609375 36.957031 L 25.515625 35.816406 L 24.421875 36.957031 L 23.519531 36.019531 L 23.519531 36.777344 L 24.421875 37.710938 L 25.515625 36.578125 L 26.609375 37.710938 L 27.707031 36.578125 L 28.800781 37.710938 L 29.898438 36.578125 L 30.992188 37.710938 L 32.089844 36.578125 L 33.183594 37.710938 L 34.28125 36.578125 L 35.375 37.710938 L 36.472656 36.578125 L 37.566406 37.710938 L 38.664062 36.578125 L 39.757812 37.710938 L 40.851562 36.578125 L 41.949219 37.710938 L 43.039062 36.582031 L 43.039062 35.824219 L 41.949219 36.957031 Z M 40.851562 35.816406 " fill-opacity="1" fill-rule="nonzero"/></g><g clip-path="url(#8afe6358cd)"><path fill="#ffffff" d="M 41.949219 8.585938 L 40.851562 7.449219 L 39.757812 8.585938 L 38.664062 7.449219 L 37.566406 8.585938 L 36.472656 7.449219 L 35.375 8.585938 L 34.28125 7.449219 L 33.183594 8.585938 L 32.089844 7.449219 L 30.992188 8.585938 L 29.898438 7.449219 L 28.800781 8.585938 L 27.707031 7.449219 L 26.609375 8.585938 L 25.515625 7.449219 L 24.421875 8.585938 L 23.519531 7.652344 L 23.519531 8.410156 L 24.421875 9.34375 L 25.515625 8.207031 L 26.609375 9.34375 L 27.707031 8.207031 L 28.800781 9.34375 L 29.898438 8.207031 L 30.992188 9.34375 L 32.089844 8.207031 L 33.183594 9.34375 L 34.28125 8.207031 L 35.375 9.34375 L 36.472656 8.207031 L 37.566406 9.34375 L 38.664062 8.207031 L 39.757812 9.34375 L 40.851562 8.207031 L 41.949219 9.34375 L 43.039062 8.214844 L 43.039062 7.457031 Z M 41.949219 8.585938 " fill-opacity="1" fill-rule="nonzero"/></g><g clip-path="url(#5a1c94748a)"><path fill="#ffffff" d="M 40.851562 9.34375 L 39.757812 10.484375 L 38.664062 9.34375 L 37.566406 10.484375 L 36.472656 9.34375 L 35.375 10.484375 L 34.28125 9.34375 L 33.183594 10.484375 L 32.089844 9.34375 L 30.992188 10.484375 L 29.898438 9.34375 L 28.800781 10.484375 L 27.707031 9.34375 L 26.609375 10.484375 L 25.515625 9.34375 L 24.421875 10.484375 L 23.519531 9.546875 L 23.519531 10.304688 L 24.421875 11.238281 L 25.515625 10.105469 L 26.609375 11.238281 L 27.707031 10.105469 L 28.800781 11.238281 L 29.898438 10.105469 L 30.992188 11.238281 L 32.089844 10.105469 L 33.183594 11.238281 L 34.28125 10.105469 L 35.375 11.238281 L 36.472656 10.105469 L 37.566406 11.238281 L 38.664062 10.105469 L 39.757812 11.238281 L 40.851562 10.105469 L 41.949219 11.238281 L 43.039062 10.109375 L 43.039062 9.351562 L 41.949219 10.484375 Z M 40.851562 9.34375 " fill-opacity="1" fill-rule="nonzero"/></g><g clip-path="url(#6825340c48)"><path fill="#ffffff" d="M 40.851562 11.238281 L 39.757812 12.378906 L 38.664062 11.238281 L 37.566406 12.378906 L 36.472656 11.238281 L 35.375 12.378906 L 34.28125 11.238281 L 33.183594 12.378906 L 32.089844 11.238281 L 30.992188 12.378906 L 29.898438 11.238281 L 28.800781 12.378906 L 27.707031 11.238281 L 26.609375 12.378906 L 25.515625 11.238281 L 24.421875 12.378906 L 23.519531 11.441406 L 23.519531 12.199219 L 24.421875 13.136719 L 25.515625 12 L 26.609375 13.136719 L 27.707031 12 L 28.800781 13.136719 L 29.898438 12 L 30.992188 13.136719 L 32.089844 12 L 33.183594 13.136719 L 34.28125 12 L 35.375 13.136719 L 36.472656 12 L 37.566406 13.136719 L 38.664062 12 L 39.757812 13.136719 L 40.851562 12 L 41.949219 13.136719 L 43.039062 12.007812 L 43.039062 11.246094 L 41.949219 12.378906 Z M 40.851562 11.238281 " fill-opacity="1" fill-rule="nonzero"/></g><g clip-path="url(#f950e4d5c9)"><path fill="#ffffff" d="M 40.851562 13.136719 L 39.757812 14.273438 L 38.664062 13.136719 L 37.566406 14.273438 L 36.472656 13.136719 L 35.375 14.273438 L 34.28125 13.136719 L 33.183594 14.273438 L 32.089844 13.136719 L 30.992188 14.273438 L 29.898438 13.136719 L 28.800781 14.273438 L 27.707031 13.136719 L 26.609375 14.273438 L 25.515625 13.136719 L 24.421875 14.273438 L 23.519531 13.339844 L 23.519531 14.097656 L 24.421875 15.03125 L 25.515625 13.894531 L 26.609375 15.03125 L 27.707031 13.894531 L 28.800781 15.03125 L 29.898438 13.894531 L 30.992188 15.03125 L 32.089844 13.894531 L 33.183594 15.03125 L 34.28125 13.894531 L 35.375 15.03125 L 36.472656 13.894531 L 37.566406 15.03125 L 38.664062 13.894531 L 39.757812 15.03125 L 40.851562 13.894531 L 41.949219 15.03125 L 43.039062 13.902344 L 43.039062 13.140625 L 41.949219 14.273438 Z M 40.851562 13.136719 " fill-opacity="1" fill-rule="nonzero"/></g><g clip-path="url(#bf01b266f0)"><path fill="#ffffff" d="M 40.851562 15.03125 L 39.757812 16.167969 L 38.664062 15.03125 L 37.566406 16.167969 L 36.472656 15.03125 L 35.375 16.167969 L 34.28125 15.03125 L 33.183594 16.167969 L 32.089844 15.03125 L 30.992188 16.167969 L 29.898438 15.03125 L 28.800781 16.167969 L 27.707031 15.03125 L 26.609375 16.167969 L 25.515625 15.03125 L 24.421875 16.167969 L 23.519531 15.234375 L 23.519531 15.992188 L 24.421875 16.929688 L 25.515625 15.789062 L 26.609375 16.929688 L 27.707031 15.789062 L 28.800781 16.929688 L 29.898438 15.789062 L 30.992188 16.929688 L 32.089844 15.789062 L 33.183594 16.929688 L 34.28125 15.789062 L 35.375 16.929688 L 36.472656 15.789062 L 37.566406 16.929688 L 38.664062 15.789062 L 39.757812 16.929688 L 40.851562 15.789062 L 41.949219 16.929688 L 43.039062 15.796875 L 43.039062 15.039062 L 41.949219 16.167969 Z M 40.851562 15.03125 " fill-opacity="1" fill-rule="nonzero"/></g><g clip-path="url(#5f00ec8354)"><path fill="#ffffff" d="M 40.851562 16.929688 L 39.757812 18.0625 L 38.664062 16.929688 L 37.566406 18.0625 L 36.472656 16.929688 L 35.375 18.0625 L 34.28125 16.929688 L 33.183594 18.0625 L 32.089844 16.929688 L 30.992188 18.0625 L 29.898438 16.929688 L 28.800781 18.0625 L 27.707031 16.929688 L 26.609375 18.0625 L 25.515625 16.929688 L 24.421875 18.0625 L 23.519531 17.128906 L 23.519531 17.890625 L 24.421875 18.824219 L 25.515625 17.6875 L 26.609375 18.824219 L 27.707031 17.6875 L 28.800781 18.824219 L 29.898438 17.6875 L 30.992188 18.824219 L 32.089844 17.6875 L 33.183594 18.824219 L 34.28125 17.6875 L 35.375 18.824219 L 36.472656 17.6875 L 37.566406 18.824219 L 38.664062 17.6875 L 39.757812 18.824219 L 40.851562 17.6875 L 41.949219 18.824219 L 43.039062 17.691406 L 43.039062 16.933594 L 41.949219 18.0625 Z M 40.851562 16.929688 " fill-opacity="1" fill-rule="nonzero"/></g><g clip-path="url(#bb5efa9439)"><path fill="#ffffff" d="M 40.851562 18.824219 L 39.757812 19.960938 L 38.664062 18.824219 L 37.566406 19.960938 L 36.472656 18.824219 L 35.375 19.960938 L 34.28125 18.824219 L 33.183594 19.960938 L 32.089844 18.824219 L 30.992188 19.960938 L 29.898438 18.824219 L 28.800781 19.960938 L 27.707031 18.824219 L 26.609375 19.960938 L 25.515625 18.824219 L 24.421875 19.960938 L 23.519531 19.023438 L 23.519531 19.785156 L 24.421875 20.71875 L 25.515625 19.582031 L 26.609375 20.71875 L 27.707031 19.582031 L 28.800781 20.71875 L 29.898438 19.582031 L 30.992188 20.71875 L 32.089844 19.582031 L 33.183594 20.71875 L 34.28125 19.582031 L 35.375 20.71875 L 36.472656 19.582031 L 37.566406 20.71875 L 38.664062 19.582031 L 39.757812 20.71875 L 40.851562 19.582031 L 41.949219 20.71875 L 43.039062 19.585938 L 43.039062 18.832031 L 41.949219 19.960938 Z M 40.851562 18.824219 " fill-opacity="1" fill-rule="nonzero"/></g><g clip-path="url(#cb3ed97242)"><path fill="#ffffff" d="M 40.851562 20.71875 L 39.757812 21.855469 L 38.664062 20.71875 L 37.566406 21.855469 L 36.472656 20.71875 L 35.375 21.855469 L 34.28125 20.71875 L 33.183594 21.855469 L 32.089844 20.71875 L 30.992188 21.855469 L 29.898438 20.71875 L 28.800781 21.855469 L 27.707031 20.71875 L 26.609375 21.855469 L 25.515625 20.71875 L 24.421875 21.855469 L 23.519531 20.917969 L 23.519531 21.679688 L 24.421875 22.613281 L 25.515625 21.476562 L 26.609375 22.613281 L 27.707031 21.476562 L 28.800781 22.613281 L 29.898438 21.476562 L 30.992188 22.613281 L 32.089844 21.476562 L 33.183594 22.613281 L 34.28125 21.476562 L 35.375 22.613281 L 36.472656 21.476562 L 37.566406 22.613281 L 38.664062 21.476562 L 39.757812 22.613281 L 40.851562 21.476562 L 41.949219 22.613281 L 43.039062 21.484375 L 43.039062 20.726562 L 41.949219 21.855469 Z M 40.851562 20.71875 " fill-opacity="1" fill-rule="nonzero"/></g><g fill="#000000" fill-opacity="1"><g transform="translate(24.137267, 32.142695)"><g><path d="M 11.609375 -20.46875 L 11.609375 -16.984375 L 5.453125 -16.984375 L 5.453125 -12.484375 L 11.234375 -12.484375 L 11.234375 -9.015625 L 5.453125 -9.015625 L 5.453125 0 L 1.46875 0 L 1.46875 -20.46875 Z M 11.609375 -20.46875 "/></g></g></g></svg>